<svg width="36" height="36" viewBox="0 0 36 36" fill="none" xmlns="http://www.w3.org/2000/svg">
<g clip-path="url(#clip0_8826_1398)">
<path d="M25.4621 30.9158L19.679 32.1411V35.9621C19.679 35.9621 22.9736 36.7642 25.4621 30.9095V30.9158Z" fill="#274247"/>
<path d="M0.615896 17.6842C0.298492 17.6842 -0.0125645 17.7095 0.000131704 17.76V22.1053L1.6062 23.04L0.000131704 24V28.3137C0.000131704 28.3642 0.30484 28.3895 0.615896 28.3895C3.62489 28.3895 6.0689 25.9958 6.0689 23.0337C6.0689 20.0716 3.62489 17.6842 0.615896 17.6842Z" fill="#274247"/>
<path d="M35.6063 22.68C35.6063 22.68 28.6996 31.9958 20.1741 31.9958C11.6487 31.9958 4.7356 22.68 4.7356 22.68C4.7356 22.68 11.6423 13.3642 20.1678 13.3642C28.6933 13.3642 35.6 22.68 35.6 22.68H35.6063Z" fill="white" stroke="#274247" stroke-miterlimit="10" stroke-linecap="round"/>
<path d="M4.84986 22.3642C4.84986 22.3642 11.7566 13.0484 20.2821 13.0484C22.0722 13.0484 23.7926 13.4589 25.3923 14.1095V22.7305H4.68481L4.84986 22.3579V22.3642Z" fill="#274247"/>
<path d="M29.5187 24C30.3952 24 31.1057 23.2931 31.1057 22.421C31.1057 21.549 30.3952 20.8421 29.5187 20.8421C28.6422 20.8421 27.9316 21.549 27.9316 22.421C27.9316 23.2931 28.6422 24 29.5187 24Z" fill="#274247"/>
<path d="M25.075 22.7368V30.9473" stroke="#274247" stroke-miterlimit="10"/>
<path d="M3.60563 6.3158C3.38345 6.3158 3.16762 6.33474 3.17396 6.37264V9.47369L4.19601 10.1053L3.17396 10.7368V13.8442C3.17396 13.8821 3.38345 13.8947 3.60563 13.8947C5.70685 13.8947 7.41449 12.1958 7.41449 10.1053C7.41449 8.01474 5.70685 6.3158 3.60563 6.3158Z" fill="#274247"/>
<path d="M19.4379 3.78948L13.9658 4.42106V4.31682e-06C13.9658 4.31682e-06 17.6414 -0.0252589 19.4379 3.78948Z" fill="#274247"/>
<path d="M20.9929 15.4484L17.1396 16.4211V18.8147C17.1396 18.8147 19.3361 19.3453 20.9929 15.4484Z" fill="white"/>
<path d="M27.2778 9.96633C27.2778 9.96633 22.6754 16.1684 17.0002 16.1684C11.325 16.1684 6.72266 9.96633 6.72266 9.96633C6.72266 9.96633 11.325 3.76422 17.0002 3.76422C22.6754 3.76422 27.2778 9.96633 27.2778 9.96633Z" fill="white" stroke="#274247" stroke-miterlimit="10" stroke-linecap="round"/>
<path d="M22.8531 11.3684C23.5543 11.3684 24.1227 10.8029 24.1227 10.1053C24.1227 9.40764 23.5543 8.8421 22.8531 8.8421C22.1519 8.8421 21.5835 9.40764 21.5835 10.1053C21.5835 10.8029 22.1519 11.3684 22.8531 11.3684Z" fill="#274247"/>
<path d="M19.3616 7.89471V15.8589" stroke="#274247" stroke-miterlimit="10" stroke-linecap="round"/>
<path d="M19.3616 9.78949H11.1091" stroke="#274247" stroke-miterlimit="10" stroke-linecap="round"/>
</g>
<defs>
<clipPath id="clip0_8826_1398">
<rect width="36" height="36" fill="white"/>
</clipPath>
</defs>
</svg>
