<svg width="36" height="36" viewBox="0 0 36 36" fill="none" xmlns="http://www.w3.org/2000/svg">
<g clip-path="url(#clip0_8826_1224)">
<path d="M21.7894 29.4097V32.6606C21.7894 34.3303 17.8294 35.6775 12.9473 35.6775C8.06522 35.6775 4.10522 34.324 4.10522 32.6606V29.4097" fill="white"/>
<path d="M21.7894 29.4097V32.6606C21.7894 34.3303 17.8294 35.6775 12.9473 35.6775C8.06522 35.6775 4.10522 34.324 4.10522 32.6606V29.4097" stroke="#274247" stroke-miterlimit="10"/>
<path d="M7.26318 34.7856V31.832" stroke="#274247" stroke-miterlimit="10"/>
<path d="M12.9473 32.572C17.8307 32.572 21.7894 31.1562 21.7894 29.4097C21.7894 27.6632 17.8307 26.2474 12.9473 26.2474C8.06397 26.2474 4.10522 27.6632 4.10522 29.4097C4.10522 31.1562 8.06397 32.572 12.9473 32.572Z" fill="white" stroke="#274247" stroke-miterlimit="10"/>
<path d="M21.7894 23.7175V27.3163C21.7894 28.986 17.8294 30.3331 12.9473 30.3331C8.06522 30.3331 4.10522 28.9797 4.10522 27.3163V23.7175" fill="white"/>
<path d="M21.7894 23.7175V27.3163C21.7894 28.986 17.8294 30.3331 12.9473 30.3331C8.06522 30.3331 4.10522 28.9797 4.10522 27.3163V23.7175" stroke="#274247" stroke-miterlimit="10"/>
<path d="M7.26318 29.7259V26.1398" stroke="#274247" stroke-miterlimit="10"/>
<path d="M12.9473 26.8798C17.8307 26.8798 21.7894 25.464 21.7894 23.7175C21.7894 21.971 17.8307 20.5552 12.9473 20.5552C8.06397 20.5552 4.10522 21.971 4.10522 23.7175C4.10522 25.464 8.06397 26.8798 12.9473 26.8798Z" fill="#274247" stroke="#274247" stroke-miterlimit="10"/>
<path d="M35.5453 19.7709C35.5453 19.7709 34.6738 21.4026 33.9348 22.9016C33.1959 24.4005 28.579 23.5151 24.9095 21.662C20.5643 19.4673 17.6653 16.4568 18.4169 14.9768L20.0274 11.8461" fill="white"/>
<path d="M35.5453 19.7709C35.5453 19.7709 34.6738 21.4026 33.9348 22.9016C33.1959 24.4005 28.579 23.5151 24.9095 21.662C20.5643 19.4673 17.6653 16.4568 18.4169 14.9768L20.0274 11.8461" stroke="#274247" stroke-miterlimit="10"/>
<path d="M20.0588 18.3162L21.6567 15.2172" stroke="#274247" stroke-miterlimit="10"/>
<path d="M35.571 19.7458C36.3086 18.2835 33.4235 15.3363 29.127 13.1629C24.8304 10.9895 20.7494 10.413 20.0118 11.8752C19.2742 13.3375 22.1593 16.2848 26.4559 18.4582C30.7524 20.6316 34.8334 21.208 35.571 19.7458Z" fill="#274247" stroke="#274247" stroke-miterlimit="10"/>
<path d="M16.2028 1.86151L17.9397 4.58744C18.8239 5.98519 16.2155 9.22342 12.1165 11.8229C8.01757 14.4223 3.97546 15.39 3.09125 13.9859L1.38599 11.3232" fill="white"/>
<path d="M16.2028 1.86151L17.9397 4.58744C18.8239 5.98519 16.2155 9.22342 12.1165 11.8229C8.01757 14.4223 3.97546 15.39 3.09125 13.9859L1.38599 11.3232" stroke="#274247" stroke-miterlimit="10"/>
<path d="M6.78623 14.2829L5.11255 11.6266" stroke="#274247" stroke-miterlimit="10"/>
<path d="M10.4137 9.12875C14.5017 6.51169 17.0908 3.25451 16.1965 1.85363C15.3022 0.452746 11.2632 1.43865 7.17519 4.05571C3.08718 6.67277 0.498167 9.92995 1.39247 11.3308C2.28677 12.7317 6.32572 11.7458 10.4137 9.12875Z" fill="white" stroke="#274247" stroke-miterlimit="10"/>
</g>
<defs>
<clipPath id="clip0_8826_1224">
<rect width="36" height="36" fill="white"/>
</clipPath>
</defs>
</svg>
