<svg width="36" height="36" viewBox="0 0 36 36" fill="none" xmlns="http://www.w3.org/2000/svg">
<g clip-path="url(#clip0_8826_1773)">
<path d="M28.8982 26.7037C29.7788 27.5957 29.7788 29.0612 28.8982 29.9533C28.0175 30.8453 26.5707 30.8453 25.6901 29.9533L21.7082 25.9136L25.6963 29.9533C26.577 30.8453 26.577 32.3108 25.6963 33.2028C24.8157 34.0949 23.3689 34.0949 22.4882 33.2028L18.5064 29.1632L21.0792 31.7692C21.9598 32.6612 21.9598 34.1267 21.0792 35.0188C20.1985 35.9108 18.7517 35.9108 17.8711 35.0188L15.2983 32.4127L4.75558 21.6765L0.459229 17.5221L8.63676 9.8761H17.1288L29.8354 21.1603L30.6909 22.0269C31.5716 22.9189 31.5716 24.3844 30.6909 25.2765C29.8103 26.1685 28.3635 26.1685 27.4828 25.2765L24.91 22.6704L28.8982 26.7037Z" fill="white" stroke="#274247" stroke-miterlimit="10" stroke-linecap="round"/>
<path d="M13.8913 30.2366C14.6946 29.4229 14.6946 28.1037 13.8913 27.29C13.088 26.4763 11.7856 26.4763 10.9823 27.29L8.35796 29.9482C7.55467 30.7619 7.55467 32.0811 8.35796 32.8948C9.16125 33.7085 10.4637 33.7085 11.2669 32.8948L13.8913 30.2366Z" fill="white" stroke="#274247" stroke-miterlimit="10" stroke-linecap="round"/>
<path d="M16.7965 33.1766C17.5998 32.3629 17.5998 31.0437 16.7965 30.23C15.9932 29.4163 14.6908 29.4163 13.8876 30.23L12.0861 32.0547C11.2828 32.8684 11.2828 34.1876 12.0861 35.0013C12.8894 35.815 14.1918 35.815 14.9951 35.0013L16.7965 33.1766Z" fill="white" stroke="#274247" stroke-miterlimit="10" stroke-linecap="round"/>
<path d="M8.07803 24.3602C8.88132 23.5465 8.88132 22.2273 8.07803 21.4136C7.27473 20.5999 5.97234 20.5999 5.16904 21.4136L3.36761 23.2383C2.56431 24.052 2.56431 25.3712 3.36761 26.1849C4.1709 26.9985 5.4733 26.9985 6.27659 26.1849L8.07803 24.3602Z" fill="white" stroke="#274247" stroke-miterlimit="10" stroke-linecap="round"/>
<path d="M10.9806 27.295C11.7839 26.4813 11.7839 25.1621 10.9806 24.3484C10.1773 23.5347 8.87493 23.5347 8.07163 24.3484L5.44732 27.0066C4.64402 27.8203 4.64402 29.1395 5.44732 29.9532C6.25061 30.7669 7.55301 30.7669 8.3563 29.9532L10.9806 27.295Z" fill="white" stroke="#274247" stroke-miterlimit="10" stroke-linecap="round"/>
<path d="M29.8353 21.1603L34.3266 17.178L27.3128 9.8761H15.4806C15.4806 9.8761 10.9389 14.2025 9.60534 15.5533C7.20241 17.9872 10.5426 21.9058 13.3418 19.0704C16.248 16.1267 19.519 12.9727 22.9473 15.3685L29.829 21.1603H29.8353Z" fill="white" stroke="#274247" stroke-miterlimit="10" stroke-linecap="round"/>
<path d="M0.144775 19.7522V0H3.98821L12.0965 7.64602L0.144775 19.7522Z" fill="#274247"/>
<path d="M1.71738 13.3805C1.71738 14.2598 1.01285 14.9734 0.144775 14.9734V11.7876C1.01285 11.7876 1.71738 12.5012 1.71738 13.3805Z" fill="white"/>
<path d="M36.0001 19.7522V0H32.1567L24.0483 7.64602L36.0001 19.7522Z" fill="#274247"/>
<path d="M34.4275 13.3805C34.4275 14.2598 35.132 14.9734 36.0001 14.9734V11.7876C35.132 11.7876 34.4275 12.5012 34.4275 13.3805Z" fill="white"/>
</g>
<defs>
<clipPath id="clip0_8826_1773">
<rect width="36" height="36" fill="white"/>
</clipPath>
</defs>
</svg>
