<svg width="36" height="36" viewBox="0 0 36 36" fill="none" xmlns="http://www.w3.org/2000/svg">
<g clip-path="url(#clip0_8826_1252)">
<path d="M36.0001 0H17.0527V35.3684H36.0001V0Z" fill="white" stroke="#274247" stroke-miterlimit="10"/>
<path d="M36.0001 0H17.0527V3.78947H36.0001V0Z" fill="#274247"/>
<path d="M32.2106 20.8421H27.7896V24.6316H32.2106V20.8421Z" fill="#274247"/>
<path d="M32.2106 13.8947H27.7896V17.6842H32.2106V13.8947Z" fill="#274247"/>
<path d="M32.2106 6.94739H27.7896V10.7369H32.2106V6.94739Z" fill="#274247"/>
<path d="M24 10.1053H0V35.3684H24V10.1053Z" fill="#274247"/>
<path d="M15.7894 27.1579H7.57886V35.3684H15.7894V27.1579Z" fill="white"/>
<path d="M7.57901 19.5789H3.15796V23.3684H7.57901V19.5789Z" fill="white"/>
<path d="M7.57901 13.8947H3.15796V17.6842H7.57901V13.8947Z" fill="white"/>
<path d="M13.8947 19.5789H9.47363V23.3684H13.8947V19.5789Z" fill="white"/>
<path d="M13.8947 13.8947H9.47363V17.6842H13.8947V13.8947Z" fill="white"/>
<path d="M20.2106 19.5789H15.7896V23.3684H20.2106V19.5789Z" fill="white"/>
<path d="M20.2106 13.8947H15.7896V17.6842H20.2106V13.8947Z" fill="white"/>
<path d="M34.7368 35.8684C35.013 35.8684 35.2368 35.6446 35.2368 35.3684C35.2368 35.0923 35.013 34.8684 34.7368 34.8684V35.8684ZM0 35.8684H34.7368V34.8684H0V35.8684Z" fill="#274247"/>
</g>
<defs>
<clipPath id="clip0_8826_1252">
<rect width="36" height="36" fill="white"/>
</clipPath>
</defs>
</svg>
