<svg width="36" height="36" viewBox="0 0 36 36" fill="none" xmlns="http://www.w3.org/2000/svg">
<g clip-path="url(#clip0_8826_1745)">
<path d="M0.315674 35.6842H35.6841" stroke="#274247" stroke-miterlimit="10" stroke-linecap="round"/>
<path d="M15.7894 32.8421H20.2104V30.9474H15.7894V32.8421Z" fill="#274247"/>
<path d="M12 35.3684H24V32.8421H12V35.3684Z" fill="#274247"/>
<path d="M23.6843 0.315796L10.4211 30.6316" stroke="#274247" stroke-miterlimit="10" stroke-linecap="round"/>
<path d="M17.3684 29.3684C25.0422 29.3684 31.2631 23.1475 31.2631 15.4737C31.2631 7.7998 25.0422 1.57892 17.3684 1.57892C9.69452 1.57892 3.47363 7.7998 3.47363 15.4737C3.47363 23.1475 9.69452 29.3684 17.3684 29.3684Z" fill="white" stroke="#274247" stroke-miterlimit="10"/>
<path d="M10.939 29.8989C12.2842 30.4989 13.7305 30.9158 15.259 31.1242C23.899 32.2863 31.8505 26.2231 33.0127 17.5831C33.9853 10.3579 29.9116 3.62525 23.5011 0.928406" stroke="#274247" stroke-miterlimit="10"/>
<path d="M21.2967 5.85471C21.6125 5.73471 21.0567 4.92629 21.0188 5.26734C20.9809 5.60839 20.4252 5.36839 19.8315 5.34313C19.2378 5.31786 19.5599 5.73471 19.3957 5.85471C19.1178 6.05681 20.0715 6.46102 20.2167 6.66313C20.3683 6.86523 20.9809 5.98102 21.2967 5.85471Z" fill="#274247"/>
<path d="M22.1684 8.02734C22.4337 8.15997 22.5348 8.10944 22.5916 8.58944C22.6421 9.05681 22.2948 10.0231 22.5411 9.98523C22.6484 9.96629 22.9453 9.80839 23.1726 9.7705C23.3811 9.73892 23.5137 9.49892 23.5958 9.25892C23.6779 9.01892 23.3874 9.12629 23.2295 8.63997C23.0716 8.15365 22.9137 8.04629 22.8569 7.83155C22.8063 7.61681 22.7242 7.31997 22.5411 7.4526C22.3579 7.58523 21.9095 7.88208 22.1684 8.01471V8.02734Z" fill="#274247"/>
<path d="M13.3451 4.35157C12.9788 4.26947 12.8209 4.65473 12.7893 4.11157C12.764 3.56841 12.6819 3.46104 12.3914 3.54315C12.1009 3.62526 11.8104 3.86525 11.6019 3.78315C11.3872 3.70104 11.3114 3.68841 11.0209 3.97894C10.7304 4.26947 10.2251 4.59789 10.4904 4.68631C10.7556 4.77473 10.383 5.15368 10.8314 4.9642C11.0967 4.85052 11.463 5.10947 11.6019 4.79368C11.7346 4.47789 12.1009 4.62315 12.183 4.79368C12.2651 4.9642 12.1325 5.37473 12.3409 5.26736C12.5493 5.15368 12.5493 5.93052 12.3409 5.85473C12.1325 5.77262 11.9683 5.90526 11.8356 6.13262C11.703 6.35999 11.4377 6.68841 11.6651 6.65683C11.8862 6.63157 11.9683 6.49894 12.2083 6.65683C12.4483 6.81473 12.3725 7.43368 12.6756 7.02947C12.9788 6.62526 13.0293 6.59999 13.1872 6.43578C13.3451 6.27157 13.2377 5.65262 13.4525 5.87999C13.6609 6.11368 13.9577 5.87999 13.9577 5.62104C13.9577 5.3621 13.9072 5.49473 13.6925 5.1221C13.484 4.74315 13.7177 4.42104 13.3451 4.34526V4.35157Z" fill="#274247"/>
<path d="M21.1767 9.20841C21.0694 9.53052 21.1831 9.59368 21.3599 9.61262C21.6062 9.63789 21.6504 9.31578 21.8652 9.26525C22.0736 9.21473 21.8652 8.75368 21.8652 8.45683C21.8652 8.15999 21.7073 8.45683 21.3599 8.58947C21.0188 8.7221 21.2841 8.88631 21.1767 9.20841Z" fill="#274247"/>
<path d="M13.1747 28.2126C13.4905 28.3326 13.8505 27.8526 13.6483 27.7263C13.4526 27.6063 13.3262 27.2842 13.7052 27.4042C14.0841 27.5242 14.3999 27.8336 14.3999 27.3789C14.3999 26.9242 14.362 26.9242 14.6399 26.7599C14.9178 26.5957 14.6778 26.0778 14.8799 26.0336C15.0757 25.9957 15.3536 25.9136 15.7136 25.7936C16.0673 25.6736 16.5852 24.4231 16.4273 24.1389C16.2694 23.8547 17.141 23.741 17.021 22.7936C16.901 21.8463 15.3157 21.6063 14.7599 21.4421C14.2041 21.2778 14.1662 21.4799 14.3999 21.0378C14.6399 20.5957 13.9641 20.1094 13.4462 19.9894C12.9347 19.8694 12.4547 19.4652 12.6568 19.181C12.8526 18.8968 11.7473 19.2631 11.4694 18.9789C11.1915 18.6947 11.1915 18.4926 10.6357 18.9789C10.0799 19.4589 10.162 20.0273 9.84624 19.421C9.53045 18.8147 9.33466 19.0357 9.05677 19.0357C8.77888 19.0357 8.95572 18.3536 8.93677 18.1263C8.91782 17.9052 8.53888 17.8042 8.32414 17.7852C8.10309 17.7663 8.77888 17.021 8.32414 16.9199C7.8694 16.8189 7.41467 17.3621 7.37045 17.5263C7.33256 17.6905 6.59361 17.5452 6.77677 17.1663C6.95361 16.781 6.27782 15.2652 7.70519 15.3221C9.13256 15.3726 9.17045 16.1621 9.39151 16.1621C9.61256 16.1621 9.63151 15.2336 9.75151 14.8547C9.87151 14.4694 10.3452 14.0905 10.4841 14.0715C10.6231 14.0526 10.2062 13.0042 10.522 13.1052C10.8378 13.2063 11.2926 12.8463 11.5326 12.6821C11.7726 12.5242 12.0505 11.8989 12.1262 11.6526C12.1262 11.6526 12.2147 11.9178 12.4231 11.8926C12.9094 11.8421 13.5915 11.4315 13.5726 11.2673C13.5536 11.1031 12.8399 11.3684 12.8778 10.9831C12.9157 10.5978 12.2841 10.3199 12.7199 10.2378C13.1557 10.1557 13.5347 10.2189 13.8126 10.2378C14.0905 10.2568 14.1094 10.5599 14.1094 10.6421C14.1094 10.7242 14.3494 10.8442 14.6841 10.781C15.0189 10.7178 14.4441 9.89679 14.2294 9.89679C14.0147 9.89679 14.6083 9.55574 14.4505 9.21468C14.2926 8.87363 13.541 7.43363 13.4399 7.70521C13.4399 7.70521 13.1999 8.22942 12.922 7.94521C12.6441 7.661 12.7641 7.181 12.2083 7.23784C11.6526 7.301 11.4757 7.01679 11.4189 8.62732C11.4757 9.27153 11.002 9.15153 10.901 9.30942C10.7999 9.46732 10.8252 10.541 10.4841 10.2568C10.1494 9.97258 10.1683 9.42942 10.2062 9.20837C10.2441 8.98732 9.23361 8.84837 9.05677 8.62732C8.87993 8.40626 9.21466 7.47784 9.59361 7.31995C9.97256 7.16205 10.0862 6.49258 10.4652 6.49258C10.8441 6.49258 11.0399 6.47363 11.1599 6.03153C11.2799 5.58942 10.9831 5.57047 10.762 5.69047C10.5473 5.81047 10.3641 5.81047 10.1683 5.72837C9.97256 5.64626 9.51151 5.84837 9.41677 6.01258C9.31572 6.17047 8.94309 6.31574 8.68414 6.25258C8.42519 6.18942 8.36835 6.33468 8.21045 6.51784C8.10309 6.64416 7.52203 6.63153 7.12414 6.57468C5.39993 8.55784 4.28203 10.9957 3.92203 13.661C3.85888 14.1284 3.82098 14.5957 3.80835 15.0568C4.00414 15.0631 3.96624 16.781 4.40835 16.6231C4.86309 16.4652 4.1494 15.6378 4.52835 15.5178C4.9073 15.3978 5.06519 15.8778 5.15993 16.4652C5.26098 17.0463 5.21677 18.0189 5.83572 18.0947C6.44835 18.1768 7.04203 18.0126 7.22519 18.1957C7.40203 18.3789 8.09677 18.1957 8.53256 19.1621C8.96835 20.1284 8.8294 19.4463 9.1073 19.5221C9.38519 19.6042 9.73888 19.6357 9.73888 19.9263C9.73888 21.0378 8.72835 21.0757 9.18309 21.8778C9.18309 21.8778 10.1936 23.6715 11.1031 24.1515C11.5894 24.4105 11.5452 26.1157 11.3999 27.6442C11.9241 27.8968 12.4547 28.1305 13.0105 28.3199C13.042 28.2189 13.0862 28.1621 13.1873 28.1999L13.1747 28.2126Z" fill="#274247"/>
<path d="M13.5852 3.54313C13.8757 3.35366 13.7431 3.63155 13.9578 3.15787H14.7789L14.9368 3.56208C15.0694 3.78313 15.2273 3.75787 15.2273 3.9726C15.2273 4.18734 14.9368 4.74313 15.2273 4.67997C15.5178 4.61681 15.6757 4.65471 15.6 4.8126C15.5178 4.9705 15.0189 4.91366 15.1263 5.18524C15.2336 5.45682 15.6 5.38103 15.4989 5.50103C15.3915 5.61471 14.0463 6.42313 15.9726 7.97682C16.7936 8.44418 17.0273 6.79576 17.16 6.44839C17.16 6.44839 17.5578 6.32208 17.741 6.32839C17.9242 6.34103 17.9242 5.82945 18.3473 5.66524C18.7705 5.50103 19.2189 5.15366 19.5915 5.26103C19.9642 5.36839 20.0147 4.86313 19.9326 4.80629C19.8505 4.74945 19.2442 4.68629 19.1115 4.67366C18.9789 4.66734 18.9852 4.22524 19.0863 4.2126C19.2 4.19997 19.6673 4.18734 19.7747 4.2126C20.1663 4.35155 20.2042 3.76418 20.1852 3.40418C20.1789 3.2905 20.0842 3.07576 19.9894 2.87997C19.9073 2.81681 19.8568 2.41892 19.7873 2.12208C19.5852 2.08418 19.3894 2.03997 19.1873 2.01471C17.1978 1.74945 15.221 1.9326 13.3642 2.50734C13.3578 2.50734 13.3515 2.51997 13.3452 2.52629C13.4273 2.89892 13.4715 3.61892 13.5915 3.54313H13.5852Z" fill="#274247"/>
<path d="M28.162 7.23788C27.802 6.76419 27.4041 6.3284 26.9936 5.91156C26.9431 6.04419 26.8925 6.18945 26.842 6.35998C26.6588 7.02945 26.9241 6.78946 27.0504 7.1684C27.1831 7.54103 27.5557 7.00419 27.7136 6.8463C27.8715 6.68209 28.1367 7.43367 27.8715 7.42735C27.6062 7.42103 27.4736 7.49051 27.2904 7.62314C27.1073 7.75577 27.3725 7.81261 27.2904 8.02735C27.2083 8.24209 27.0504 8.02735 26.7346 8.13472C26.4188 8.24209 26.7346 8.75367 26.6273 8.83577C26.5199 8.91788 26.1788 8.94314 25.7809 8.98735C25.3831 9.03788 24.8588 9.10103 24.5936 8.98735C24.3283 8.87367 24.0631 9.39788 24.0125 9.64419C23.962 9.89682 23.6399 10.0926 23.3304 10.2568C23.0209 10.421 22.9262 10.4716 22.7052 10.6042C22.4841 10.7368 23.0083 11.0589 23.1915 11.141C23.3746 11.2231 23.4567 11.6652 23.3241 11.7852C23.1915 11.9052 22.2504 11.5831 22.0799 11.7852C21.9094 11.9874 21.8525 12.5621 21.8588 12.7389C21.8652 12.9158 21.8904 13.1116 22.0673 13.2252C22.2378 13.3326 22.7809 13.3074 22.9009 13.2758C23.0209 13.2505 23.3557 13.1621 23.3936 12.8589C23.482 12.1579 24.2399 11.621 24.2904 11.621C24.3409 11.621 25.0988 11.3495 25.1241 11.5958C25.1494 11.8358 25.8757 12.36 25.9199 12.4295C25.9578 12.4989 25.9325 12.6063 25.8378 12.7642C25.7431 12.9284 26.0652 13.0358 26.0462 12.9095C26.0336 12.7895 26.2167 12.7768 26.3746 12.7642C26.5325 12.7516 26.482 12.4295 26.2294 12.2652C25.9767 12.101 25.5031 11.4568 25.4525 11.2042C25.402 10.9516 25.6609 10.8821 25.8883 11.1916C26.1157 11.501 26.7662 11.981 26.8483 12.1958C26.9241 12.4105 26.9494 12.7074 26.8483 12.8147C26.7473 12.9221 27.082 13.1495 27.1073 13.2821C27.1325 13.4147 27.4736 13.2568 27.6062 13.2252C27.7388 13.2 27.4231 12.7579 27.3662 12.5242C27.3157 12.2968 27.7515 12.3663 27.9599 12.5242C28.1683 12.6821 28.0546 13.3642 27.922 13.5158C27.7894 13.6674 27.8399 13.4652 27.5241 13.661C27.2083 13.8631 27.6062 13.9579 27.8399 14.0526C28.0799 14.1474 27.9788 13.6926 28.1999 13.4905C28.4209 13.2821 29.362 13.3768 29.482 13.4905C29.602 13.6042 29.842 14.0274 29.4883 14.2674C29.1346 14.5074 29.5009 14.4758 29.3178 14.8358C29.1346 15.1958 27.7578 14.7852 27.7578 14.7852C27.5431 14.6526 27.8399 14.4063 27.2273 14.381C26.6209 14.3558 27.1704 14.5452 26.8357 14.8674C26.4946 15.1895 26.1157 14.6779 26.0652 14.4126C26.0083 14.141 25.4652 14.1979 25.3262 14.0905C25.1873 13.9768 25.3073 13.6547 25.1431 13.4716C24.9788 13.2947 23.8041 13.2758 23.5957 13.3895C23.3873 13.5031 23.2925 13.6863 22.6609 13.7116C22.0294 13.7368 21.8146 14.2989 21.8146 14.2989C21.8146 14.2989 21.5999 14.7221 21.7894 15.1831C20.9052 15.3663 20.5199 16.3389 20.5199 16.3389C20.5199 16.3389 20.4125 16.8252 20.3557 18.0316C20.2988 19.2379 21.3788 20.3684 21.3788 20.3684C21.5557 20.7726 23.3746 20.0274 23.5957 19.9389C24.1704 21.0505 25.0357 20.1789 24.7452 21.2842C24.4546 22.3831 25.0357 22.2 25.0357 22.6295C25.0357 23.0589 25.3262 24.1074 24.6883 24.7768C24.4041 25.08 24.4546 26.0084 24.5873 26.9431C24.9283 26.7284 25.2631 26.501 25.5852 26.2547C27.9915 24.4168 29.6652 21.8905 30.442 19.0168C30.2273 18.3095 29.7788 16.8505 29.2862 16.0421C28.6799 15.0505 29.3683 15.3095 29.3683 15.3095C29.3683 15.3095 29.842 15.9031 29.9999 16.2C30.1578 16.4968 29.9999 17.0842 30.1578 17.2737C30.3157 17.4631 30.4988 17.4063 30.4736 17.6463C30.4609 17.7726 30.5304 18.0379 30.6188 18.2779C30.6883 17.9431 30.7578 17.6021 30.8083 17.261C31.2946 13.6674 30.3473 10.0989 28.1494 7.21893L28.162 7.23788ZM30.1831 12.221C29.8673 12.24 29.8294 12.4042 29.5767 12.221C29.3241 12.0442 29.0778 11.8926 28.9831 12C28.8883 12.1074 28.8883 12.3663 28.7746 12.3031C28.6546 12.24 28.5788 12.2147 28.5788 12.2147C28.3515 12.24 28.0483 12.1768 28.1936 11.9052C28.3388 11.6337 28.5473 11.4631 28.4462 11.3242C28.3388 11.1916 28.4209 11.0274 28.7367 11.1474C29.0525 11.2674 29.1978 11.4126 29.2925 11.2421C29.3873 11.0652 29.5704 10.9452 29.6652 11.2547C29.7599 11.5642 29.7725 11.7916 29.9431 11.8484C30.1136 11.9052 30.5115 12.1958 30.1957 12.2147L30.1831 12.221Z" fill="#274247"/>
<path d="M24.202 6.68841C23.9936 6.93473 24.202 7.03578 24.202 7.35788C24.202 7.67999 24.3094 7.57262 24.4925 7.73052C24.6757 7.88841 24.8083 7.64841 25.0357 7.51578C25.2631 7.38315 25.2315 7.75578 25.2567 8.0021C25.282 8.2421 25.4399 8.43157 25.5978 8.33052C25.7557 8.22946 25.781 7.70525 25.9641 7.70525C26.1473 7.70525 26.2294 7.38315 26.2546 7.16841C26.2799 6.95367 25.9136 6.82104 25.9136 6.82104C25.9136 6.82104 25.8315 6.58104 25.9957 6.58104C26.1599 6.58104 26.3115 6.36631 26.261 6.13262C26.2231 5.97473 26.3746 5.72841 26.6083 5.54525C26.2736 5.23578 25.9262 4.93894 25.5662 4.66736C25.4778 4.90736 25.4778 5.12841 25.4399 5.27367C25.3578 5.54525 24.4104 6.44841 24.1957 6.69473L24.202 6.68841Z" fill="#274247"/>
</g>
<defs>
<clipPath id="clip0_8826_1745">
<rect width="36" height="36" fill="white"/>
</clipPath>
</defs>
</svg>
