<svg width="36" height="36" viewBox="0 0 36 36" fill="none" xmlns="http://www.w3.org/2000/svg">
<g clip-path="url(#clip0_2543_2765)">
<path d="M19.0026 3C28.1749 3 35.5447 10.7192 34.9683 20.0204C34.4717 27.9849 27.991 34.4717 20.0204 34.9683C10.7254 35.5447 3 28.1749 3 19.0026H19.0026V3Z" fill="white" stroke="#274247" stroke-miterlimit="10"/>
<path d="M35 19C35 10.1629 27.8371 3 19 3V19H35Z" fill="white" stroke="#274247" stroke-miterlimit="10"/>
<path d="M35 19H19V35C27.7004 35 34.7525 27.8371 34.7525 19" fill="#274247"/>
<path d="M35 19H19V35C27.7004 35 34.7525 27.8371 34.7525 19" stroke="#274247" stroke-miterlimit="10"/>
<path d="M23.6689 4.58202L24.0174 4.23108" stroke="#274247" stroke-miterlimit="10" stroke-linecap="round"/>
<path d="M21.9263 4.582L22.485 4.01929" stroke="#274247" stroke-miterlimit="10" stroke-linecap="round"/>
<path d="M20.1841 4.582L20.7428 4.01929" stroke="#274247" stroke-miterlimit="10" stroke-linecap="round"/>
<path d="M23.6689 6.83893L24.2277 6.27621" stroke="#274247" stroke-miterlimit="10" stroke-linecap="round"/>
<path d="M21.9263 6.83893L22.485 6.27621" stroke="#274247" stroke-miterlimit="10" stroke-linecap="round"/>
<path d="M20.1841 6.83893L20.7428 6.27621" stroke="#274247" stroke-miterlimit="10" stroke-linecap="round"/>
<path d="M25.4111 6.83893L25.9699 6.27621" stroke="#274247" stroke-miterlimit="10" stroke-linecap="round"/>
<path d="M27.1475 6.83893L27.7122 6.27621" stroke="#274247" stroke-miterlimit="10" stroke-linecap="round"/>
<path d="M23.6689 9.08982L24.2277 8.5271" stroke="#274247" stroke-miterlimit="10" stroke-linecap="round"/>
<path d="M21.9263 9.08982L22.485 8.5271" stroke="#274247" stroke-miterlimit="10" stroke-linecap="round"/>
<path d="M20.1841 9.08982L20.7428 8.5271" stroke="#274247" stroke-miterlimit="10" stroke-linecap="round"/>
<path d="M25.4111 9.08982L25.9699 8.5271" stroke="#274247" stroke-miterlimit="10" stroke-linecap="round"/>
<path d="M27.1475 9.08982L27.7122 8.5271" stroke="#274247" stroke-miterlimit="10" stroke-linecap="round"/>
<path d="M28.8901 9.08982L29.4549 8.5271" stroke="#274247" stroke-miterlimit="10" stroke-linecap="round"/>
<path d="M30.6323 9.08981L30.8606 8.86594" stroke="#274247" stroke-miterlimit="10" stroke-linecap="round"/>
<path d="M23.6689 11.3467L24.2277 10.784" stroke="#274247" stroke-miterlimit="10" stroke-linecap="round"/>
<path d="M21.9263 11.3467L22.485 10.784" stroke="#274247" stroke-miterlimit="10" stroke-linecap="round"/>
<path d="M20.1841 11.3467L20.7428 10.784" stroke="#274247" stroke-miterlimit="10" stroke-linecap="round"/>
<path d="M25.4111 11.3467L25.9699 10.784" stroke="#274247" stroke-miterlimit="10" stroke-linecap="round"/>
<path d="M27.1475 11.3467L27.7122 10.784" stroke="#274247" stroke-miterlimit="10" stroke-linecap="round"/>
<path d="M28.8901 11.3467L29.4549 10.784" stroke="#274247" stroke-miterlimit="10" stroke-linecap="round"/>
<path d="M30.6323 11.3467L31.1911 10.784" stroke="#274247" stroke-miterlimit="10" stroke-linecap="round"/>
<path d="M32.3745 11.3467L32.5127 11.2076" stroke="#274247" stroke-miterlimit="10" stroke-linecap="round"/>
<path d="M23.6689 13.6037L24.2277 13.041" stroke="#274247" stroke-miterlimit="10" stroke-linecap="round"/>
<path d="M21.9263 13.6037L22.485 13.041" stroke="#274247" stroke-miterlimit="10" stroke-linecap="round"/>
<path d="M20.1841 13.6037L20.7428 13.041" stroke="#274247" stroke-miterlimit="10" stroke-linecap="round"/>
<path d="M25.4111 13.6037L25.9699 13.041" stroke="#274247" stroke-miterlimit="10" stroke-linecap="round"/>
<path d="M27.1475 13.6037L27.7122 13.041" stroke="#274247" stroke-miterlimit="10" stroke-linecap="round"/>
<path d="M28.8901 13.6037L29.4549 13.041" stroke="#274247" stroke-miterlimit="10" stroke-linecap="round"/>
<path d="M30.6323 13.6037L31.1911 13.041" stroke="#274247" stroke-miterlimit="10" stroke-linecap="round"/>
<path d="M32.3745 13.6037L32.9333 13.041" stroke="#274247" stroke-miterlimit="10" stroke-linecap="round"/>
<path d="M23.6689 15.8606L24.2277 15.2979" stroke="#274247" stroke-miterlimit="10" stroke-linecap="round"/>
<path d="M21.9263 15.8606L22.485 15.2979" stroke="#274247" stroke-miterlimit="10" stroke-linecap="round"/>
<path d="M20.1841 15.8606L20.7428 15.2979" stroke="#274247" stroke-miterlimit="10" stroke-linecap="round"/>
<path d="M25.4111 15.8606L25.9699 15.2979" stroke="#274247" stroke-miterlimit="10" stroke-linecap="round"/>
<path d="M27.1475 15.8606L27.7122 15.2979" stroke="#274247" stroke-miterlimit="10" stroke-linecap="round"/>
<path d="M28.8901 15.8606L29.4549 15.2979" stroke="#274247" stroke-miterlimit="10" stroke-linecap="round"/>
<path d="M30.6323 15.8606L31.1911 15.2979" stroke="#274247" stroke-miterlimit="10" stroke-linecap="round"/>
<path d="M32.3745 15.8606L32.9333 15.2979" stroke="#274247" stroke-miterlimit="10" stroke-linecap="round"/>
<path d="M34.1167 15.8597L34.2369 15.7396" stroke="#274247" stroke-miterlimit="10" stroke-linecap="round"/>
<path d="M23.6689 18.1114L24.2277 17.5487" stroke="#274247" stroke-miterlimit="10" stroke-linecap="round"/>
<path d="M21.9263 18.1114L22.485 17.5487" stroke="#274247" stroke-miterlimit="10" stroke-linecap="round"/>
<path d="M20.1841 18.1114L20.7428 17.5487" stroke="#274247" stroke-miterlimit="10" stroke-linecap="round"/>
<path d="M25.4111 18.1114L25.9699 17.5487" stroke="#274247" stroke-miterlimit="10" stroke-linecap="round"/>
<path d="M27.1475 18.1114L27.7122 17.5487" stroke="#274247" stroke-miterlimit="10" stroke-linecap="round"/>
<path d="M28.8901 18.1114L29.4549 17.5487" stroke="#274247" stroke-miterlimit="10" stroke-linecap="round"/>
<path d="M30.6323 18.1114L31.1911 17.5487" stroke="#274247" stroke-miterlimit="10" stroke-linecap="round"/>
<path d="M32.3745 18.1114L32.9333 17.5487" stroke="#274247" stroke-miterlimit="10" stroke-linecap="round"/>
<path d="M34.1167 18.1114L34.5253 17.7" stroke="#274247" stroke-miterlimit="10" stroke-linecap="round"/>
<path d="M1 17C1 8.1629 8.1629 1 17 1V17H1Z" fill="white" stroke="#274247" stroke-miterlimit="10"/>
</g>
<defs>
<clipPath id="clip0_2543_2765">
<rect width="36" height="36" fill="white"/>
</clipPath>
</defs>
</svg>
