<svg width="36" height="36" viewBox="0 0 36 36" fill="none" xmlns="http://www.w3.org/2000/svg">
<g clip-path="url(#clip0_8826_1320)">
<path d="M17.9999 35.6842C27.7666 35.6842 35.6841 27.7667 35.6841 18C35.6841 8.23329 27.7666 0.315796 17.9999 0.315796C8.23316 0.315796 0.315674 8.23329 0.315674 18C0.315674 27.7667 8.23316 35.6842 17.9999 35.6842Z" fill="white" stroke="#274247" stroke-miterlimit="10"/>
<path d="M18 34.7369C27.2435 34.7369 34.7369 27.2435 34.7369 18C34.7369 8.75652 27.2435 1.26318 18 1.26318C8.75652 1.26318 1.26318 8.75652 1.26318 18C1.26318 27.2435 8.75652 34.7369 18 34.7369Z" fill="#274247"/>
<path d="M25.8947 15.1579H20.8421V10.1053H15.1579V15.1579H10.1052V20.8421H15.1579V25.8948H20.8421V20.8421H25.8947V15.1579Z" fill="white"/>
<path d="M17.9999 35.0526C27.4178 35.0526 35.0525 27.4179 35.0525 18C35.0525 8.58211 27.4178 0.947388 17.9999 0.947388C8.58199 0.947388 0.947266 8.58211 0.947266 18C0.947266 27.4179 8.58199 35.0526 17.9999 35.0526Z" stroke="white" stroke-miterlimit="10"/>
</g>
<defs>
<clipPath id="clip0_8826_1320">
<rect width="36" height="36" fill="white"/>
</clipPath>
</defs>
</svg>
