<svg width="36" height="36" viewBox="0 0 36 36" fill="none" xmlns="http://www.w3.org/2000/svg">
<g clip-path="url(#clip0_8826_1364)">
<path d="M17.9999 35.6842C27.7666 35.6842 35.6841 27.7667 35.6841 18C35.6841 8.23329 27.7666 0.315796 17.9999 0.315796C8.23316 0.315796 0.315674 8.23329 0.315674 18C0.315674 27.7667 8.23316 35.6842 17.9999 35.6842Z" fill="white" stroke="#274247" stroke-miterlimit="10"/>
<path d="M1.47168 15.3789C1.50326 15.1958 1.52852 15.0189 1.5601 14.8421C1.52852 15.0189 1.49694 15.2021 1.47168 15.3789Z" fill="#274247"/>
<path d="M33.6128 11.9558C33.657 12.0758 33.7075 12.1958 33.7517 12.3158C33.7075 12.1958 33.6633 12.0758 33.6128 11.9558Z" fill="#274247"/>
<path d="M34.7306 18.379C34.7306 18.5621 34.718 18.7453 34.7053 18.9348C34.718 18.7516 34.7243 18.5684 34.7306 18.379Z" fill="#274247"/>
<path d="M34.7306 18.1705C34.7559 16.2568 34.4527 14.3747 33.8401 12.5873C34.4338 14.3494 34.7432 16.2316 34.7306 18.1705Z" fill="#274247"/>
<path d="M24.1894 8.22945C24.4168 8.06524 24.5115 8.42524 24.5747 8.6905C24.6379 8.94945 24.8337 9.08208 25.0294 9.67576C25.2252 10.2631 25.5789 10.1368 25.4779 10.4273C25.3831 10.7242 25.2189 11.0084 24.96 11.0526C24.6821 11.0968 24.3158 11.2926 24.1831 11.3116C23.88 11.3558 24.3094 10.181 24.2463 9.60629C24.1768 9.01261 24.0505 9.08208 23.7284 8.91787C23.4063 8.75366 23.9558 8.39366 24.1831 8.22945H24.1894ZM13.08 6.30945C12.821 6.02524 12.9473 6.78945 12.7579 6.98524C12.5621 7.18103 12.4989 7.21261 12.1326 7.70524C11.7663 8.19787 11.8547 7.43997 11.5642 7.2505C11.2737 7.05471 11.1789 7.21892 10.901 7.2505C10.6231 7.28208 10.9515 6.8905 11.1094 6.60629C11.2737 6.32208 11.4631 6.16418 11.7221 6.26524C11.981 6.36629 11.981 5.41261 11.7221 5.55155C11.4631 5.6905 11.6273 5.18524 11.5263 4.97682C11.4315 4.7684 10.9768 4.59155 10.8189 4.97682C10.6547 5.36208 10.2063 5.04629 9.87787 5.18524C9.32839 5.41261 9.78313 4.95787 9.46102 4.84418C9.13892 4.73682 9.75155 4.33261 10.1052 3.97892C10.4589 3.62524 10.5537 3.63787 10.8189 3.73892C11.0779 3.83997 11.4315 3.54313 11.7852 3.44208C12.1389 3.34734 12.24 3.47366 12.2715 4.13682C12.3031 4.79997 12.4989 4.33261 12.9473 4.42734C13.4021 4.5284 13.1115 4.91997 13.3705 5.38103C13.6294 5.84208 13.6926 5.67787 13.6926 5.99366C13.6926 6.30945 13.3389 6.59366 13.08 6.31576V6.30945ZM23.3684 9.44208C23.3684 9.80208 23.6273 10.3579 23.3684 10.4273C23.1094 10.4905 23.0526 10.8884 22.7558 10.8505C22.541 10.8252 22.4021 10.7558 22.5284 10.3579C22.661 9.96629 22.3326 9.7705 22.7558 9.60629C23.1789 9.44208 23.3684 9.08208 23.3684 9.44208ZM21.3537 7.24418C21.1705 6.99787 20.0084 6.50524 20.3494 6.25892C20.5515 6.11366 20.1537 5.6084 20.88 5.63997C21.6063 5.67155 22.2884 5.96208 22.3326 5.54524C22.3831 5.1284 23.0589 6.11366 22.6737 6.25892C22.2884 6.40418 21.5368 7.4905 21.3537 7.24418Z" fill="#274247"/>
<path d="M22.6739 6.26527C23.0591 6.12001 22.3833 5.13474 22.3328 5.55158C22.2823 5.96843 21.6065 5.6779 20.8802 5.64632C20.1539 5.61474 20.5518 6.12001 20.3496 6.26527C20.0086 6.51158 21.1707 7.00422 21.3539 7.25053C21.537 7.49685 22.2886 6.41685 22.6739 6.26527Z" fill="#274247"/>
<path d="M23.7348 8.9179C24.0569 9.08211 24.1832 9.01263 24.2527 9.60632C24.3158 10.1811 23.8864 11.3558 24.1895 11.3116C24.3221 11.2926 24.6885 11.0968 24.9664 11.0526C25.2253 11.0084 25.3832 10.7242 25.4843 10.4274C25.579 10.1305 25.2253 10.2632 25.0358 9.67579C24.84 9.08211 24.6506 8.95579 24.5811 8.69053C24.5179 8.42527 24.4169 8.06527 24.1958 8.22948C23.9685 8.39369 23.419 8.75369 23.7411 8.9179H23.7348Z" fill="#274247"/>
<path d="M12.9473 4.42735C12.4989 4.3263 12.3031 4.79367 12.2716 4.13683C12.24 3.47998 12.1389 3.34735 11.7852 3.44209C11.4315 3.54314 11.0715 3.83367 10.8189 3.73893C10.56 3.63788 10.4589 3.62525 10.1052 3.97893C9.75155 4.33262 9.13892 4.73051 9.46102 4.84419C9.78313 4.95156 9.33471 5.41262 9.87787 5.18525C10.2 5.0463 10.6547 5.36209 10.8189 4.97683C10.9831 4.59156 11.4316 4.7684 11.5263 4.97683C11.621 5.18525 11.4631 5.69051 11.7221 5.55156C11.981 5.41262 11.981 6.3663 11.7221 6.26525C11.4631 6.16419 11.2673 6.3284 11.1094 6.6063C10.9452 6.89051 10.6231 7.28209 10.901 7.25051C11.1726 7.21893 11.2737 7.05472 11.5642 7.25051C11.8547 7.4463 11.7663 8.19788 12.1326 7.70525C12.4989 7.21262 12.5621 7.18104 12.7579 6.98525C12.9537 6.78946 12.821 6.02525 13.08 6.30946C13.3389 6.59367 13.6926 6.30946 13.6926 5.98735C13.6926 5.66525 13.6294 5.83577 13.3705 5.37472C13.1116 4.91367 13.4021 4.52209 12.9473 4.42104V4.42735Z" fill="#274247"/>
<path d="M22.5285 10.3579C22.4022 10.7495 22.5412 10.8253 22.7559 10.8505C23.0527 10.8821 23.1096 10.4905 23.3685 10.4274C23.6275 10.3642 23.3685 9.80211 23.3685 9.44211C23.3685 9.08211 23.1727 9.44211 22.7559 9.60632C22.3391 9.77053 22.6612 9.96632 22.5285 10.3579Z" fill="#274247"/>
<path d="M12.739 33.5558C13.1243 33.7011 13.5601 33.1137 13.3201 32.9684C13.0801 32.8232 12.9285 32.4253 13.3895 32.5769C13.8506 32.7221 14.2422 33.1011 14.2422 32.5453C14.2422 31.9895 14.1916 31.9895 14.5327 31.7937C14.8674 31.5979 14.5832 30.96 14.8232 30.9095C15.0632 30.859 15.4043 30.7642 15.8401 30.6126C16.2758 30.4674 16.9074 28.939 16.7116 28.5979C16.5158 28.2569 17.5832 28.1116 17.438 26.9495C17.2927 25.7937 15.3537 25.4969 14.678 25.3011C14.0022 25.1053 13.9516 25.3516 14.2422 24.8084C14.5327 24.2653 13.7116 23.6779 13.0801 23.5263C12.4485 23.3811 11.8674 22.8884 12.1137 22.5411C12.3537 22.1937 10.9958 22.6421 10.6611 22.2947C10.3201 21.9474 10.3201 21.7011 9.64427 22.2947C8.96848 22.8821 9.06321 23.5705 8.67795 22.8379C8.29269 22.099 8.04637 22.3705 7.71164 22.3705C7.3769 22.3705 7.59164 21.5369 7.56637 21.2653C7.54111 20.9937 7.08006 20.8737 6.81479 20.8484C6.54953 20.8232 7.37058 19.9137 6.81479 19.7937C6.259 19.6737 5.70322 20.3369 5.65269 20.5326C5.60216 20.7284 4.70532 20.5579 4.92637 20.0905C5.14743 19.6232 4.32006 17.7726 6.06322 17.8358C7.80637 17.899 7.8569 18.859 8.12216 18.859C8.38743 18.859 8.41269 17.7284 8.55795 17.2611C8.70322 16.7937 9.28427 16.3263 9.45479 16.3011C9.62532 16.2758 9.11374 15 9.50532 15.12C9.89058 15.24 10.4527 14.8042 10.7432 14.6021C11.0337 14.4063 11.3748 13.6421 11.4695 13.3453C11.4695 13.3453 11.5769 13.6674 11.8295 13.6421C12.4232 13.5853 13.2569 13.08 13.2316 12.8779C13.2064 12.6821 12.3348 12.9979 12.3853 12.5305C12.4358 12.0632 11.659 11.7158 12.1895 11.6211C12.7201 11.52 13.1811 11.5958 13.5222 11.6211C13.8569 11.6463 13.8822 12.0126 13.8822 12.1137C13.8822 12.2147 14.1727 12.36 14.5832 12.2842C14.9937 12.2084 14.2927 11.2042 14.0274 11.2042C13.7622 11.2042 14.4885 10.7874 14.2927 10.3705C14.0969 9.9537 13.1811 8.19159 13.0548 8.52633C13.0548 8.52633 12.7643 9.16422 12.4232 8.82317C12.0822 8.4758 12.2274 7.88843 11.5516 7.96422C10.8758 8.04001 10.6548 7.69264 10.5853 9.66317C10.6548 10.4526 10.0737 10.3011 9.95374 10.4969C9.83374 10.6926 9.859 11.9937 9.44848 11.6526C9.03795 11.3053 9.06322 10.6421 9.10743 10.3769C9.15795 10.1053 7.92006 9.93475 7.70532 9.66317C7.48427 9.39159 7.90111 8.26107 8.36216 8.06528C8.82322 7.86949 8.96848 7.05475 9.42953 7.05475C9.89058 7.05475 10.1306 7.02949 10.2758 6.48633C10.4211 5.94317 10.0548 5.91791 9.78953 6.06949C9.52427 6.21475 9.30322 6.21475 9.06322 6.12001C8.82322 6.01896 8.26111 6.26528 8.14111 6.46738C8.02111 6.66317 7.56006 6.8337 7.24427 6.76422C6.92848 6.68843 6.859 6.86528 6.66322 7.08633C6.52427 7.24422 5.74743 7.22528 5.26743 7.14949C3.59374 9.10738 2.40006 11.419 1.76848 13.939C1.74322 14.0463 1.71795 14.1474 1.69269 14.2547C1.64848 14.4505 1.60427 14.6526 1.56637 14.8547C1.53479 15.0316 1.50322 15.2147 1.47795 15.3916C1.459 15.5179 1.43374 15.6505 1.41479 15.7769C1.339 16.3579 1.28848 16.9326 1.26953 17.5074C1.52216 17.4505 1.459 19.6169 2.00848 19.4274C2.56427 19.2316 1.69269 18.2211 2.15374 18.0758C2.61479 17.9305 2.80427 18.5179 2.93058 19.2316C3.05058 19.9453 3.00006 21.1263 3.75164 21.2211C4.50322 21.3221 5.22953 21.12 5.44427 21.3474C5.66532 21.5684 6.51164 21.3474 7.04216 22.5284C7.57269 23.7095 7.40216 22.8695 7.74322 22.9705C8.08427 23.0716 8.52006 23.1095 8.52006 23.4632C8.52006 24.8147 7.28216 24.8653 7.84427 25.8505C7.84427 25.8505 9.08216 28.0358 10.1937 28.6295C10.8001 28.9516 10.7306 31.1116 10.5411 33.0063C11.1727 33.3221 11.8232 33.5937 12.4927 33.8274C12.5243 33.6442 12.5748 33.5116 12.739 33.5747V33.5558Z" fill="#274247"/>
<path d="M7.10526 5.98738C7.39579 6.09475 7.59158 5.89896 7.36421 5.50738C7.27579 5.3558 7.24421 5.26738 7.22526 5.19159C6.73895 5.5958 6.28421 6.03159 5.85474 6.48633C6.01895 6.58106 6.18947 6.62527 6.39158 6.59369C6.81474 6.53054 6.81474 5.88001 7.10526 5.99369V5.98738Z" fill="#274247"/>
<path d="M9.72017 3.90315C9.94754 3.73894 9.81491 3.27789 10.1686 3.31578C10.5223 3.34736 10.7812 3.47999 11.0086 3.31578C11.236 3.15157 11.1349 2.85473 11.4254 2.65894C11.4886 2.61473 11.5581 2.57052 11.6275 2.52631C10.7496 2.88631 9.89701 3.3221 9.08228 3.83999C9.31596 3.96631 9.51806 4.04841 9.71385 3.90946L9.72017 3.90315Z" fill="#274247"/>
<path d="M13.2441 2.99368C13.5978 2.76631 13.4399 3.10105 13.6989 2.52631H14.6968L14.8926 3.01894C15.0568 3.29052 15.2463 3.25894 15.2463 3.51789C15.2463 3.77684 14.8926 4.45894 15.2463 4.38315C15.5999 4.30736 15.7957 4.35157 15.701 4.54105C15.6063 4.73684 14.9873 4.66736 15.1199 4.99578C15.2463 5.3242 15.701 5.23578 15.5747 5.38105C15.442 5.51999 13.7936 6.50526 16.1557 8.40631C17.1536 8.98105 17.4505 6.96631 17.6084 6.53684C17.6084 6.53684 18.0947 6.37894 18.3157 6.39157C18.5431 6.4042 18.5431 5.77894 19.061 5.58315C19.5789 5.38736 20.1284 4.95789 20.5768 5.09052C21.0315 5.22315 21.0947 4.6042 20.9936 4.53473C20.8989 4.46526 20.1536 4.38315 19.9894 4.37684C19.8252 4.3642 19.8315 3.82736 19.9578 3.81473C20.1031 3.79578 20.6715 3.78315 20.7978 3.81473C21.2715 3.98526 21.322 3.27157 21.2968 2.82947C21.2905 2.69052 21.1705 2.42526 21.0568 2.18526C20.9241 2.0842 20.7726 1.7621 20.6273 1.47157C20.4947 1.45263 20.362 1.42736 20.2294 1.40841C19.4715 1.30736 18.7136 1.25684 17.962 1.25684C16.2126 1.25684 14.501 1.53473 12.8589 2.06526C12.9599 2.51999 13.0926 3.08841 13.2378 2.99368H13.2441Z" fill="#274247"/>
<path d="M33.7454 12.3158C33.7012 12.1958 33.657 12.0758 33.6065 11.9558C33.0443 10.5031 32.2738 9.11998 31.3012 7.85051C30.8149 7.21262 30.2907 6.61893 29.7286 6.06946C29.6465 6.29051 29.5328 6.56209 29.4443 6.89051C29.217 7.71156 29.5391 7.41472 29.7033 7.87577C29.8675 8.33683 30.3159 7.67998 30.5117 7.4842C30.7075 7.28841 31.0296 8.20419 30.7075 8.19788C30.3854 8.19156 30.2212 8.27367 30.0001 8.43788C29.7728 8.60209 30.0949 8.66525 30.0001 8.93051C29.9054 9.19577 29.7096 8.93051 29.3243 9.06314C28.9391 9.19577 29.3243 9.81472 29.1917 9.91577C29.0654 10.0168 28.6422 10.0484 28.1559 10.1052C27.6696 10.1621 27.0254 10.2442 26.7033 10.1052C26.3812 9.9663 26.0591 10.6042 25.9896 10.9074C25.9265 11.2105 25.5349 11.4568 25.1559 11.6526C24.777 11.8484 24.6633 11.9179 24.3917 12.0758C24.1201 12.24 24.758 12.6316 24.9854 12.7326C25.2128 12.8274 25.3138 13.3768 25.1496 13.5221C24.9854 13.6674 23.8422 13.2758 23.6275 13.5221C23.4191 13.7684 23.3433 14.4758 23.3559 14.6842C23.3686 14.8989 23.4001 15.1389 23.6086 15.2716C23.817 15.4042 24.4801 15.3726 24.6317 15.3347C24.7833 15.2968 25.1875 15.2021 25.2317 14.8295C25.3391 13.9705 26.2612 13.32 26.3307 13.32C26.4001 13.32 27.3159 12.9916 27.3475 13.2884C27.3791 13.5852 28.2696 14.2231 28.3201 14.3052C28.3707 14.3874 28.3391 14.52 28.2254 14.7158C28.1117 14.9116 28.5033 15.0442 28.4843 14.8989C28.4654 14.7537 28.6928 14.7347 28.8886 14.7158C29.0843 14.6968 29.0212 14.3052 28.7117 14.1095C28.4022 13.9137 27.8212 13.1242 27.758 12.8147C27.6949 12.5052 28.017 12.4231 28.2886 12.7958C28.5601 13.1747 29.3622 13.7621 29.457 14.0274C29.5517 14.2926 29.577 14.6526 29.457 14.7789C29.3307 14.9116 29.7412 15.1895 29.7728 15.3537C29.8043 15.5179 30.2212 15.3221 30.3854 15.2905C30.5496 15.2589 30.158 14.7158 30.0949 14.4379C30.0317 14.16 30.5686 14.2421 30.8212 14.4379C31.0738 14.6337 30.9412 15.461 30.7707 15.6505C30.6065 15.84 30.6759 15.5874 30.2843 15.8337C29.8991 16.08 30.3791 16.1937 30.6696 16.3074C30.9601 16.421 30.8338 15.8716 31.1054 15.6189C31.377 15.3663 32.5265 15.48 32.6717 15.6189C32.817 15.7579 33.1138 16.2758 32.6843 16.5663C32.2549 16.8568 32.7033 16.8189 32.4759 17.2547C32.2486 17.6968 30.5686 17.1916 30.5686 17.1916C30.3096 17.0274 30.6633 16.7305 29.9243 16.6989C29.1791 16.6674 29.8612 16.8947 29.4443 17.2863C29.0275 17.6779 28.5665 17.0589 28.5033 16.7305C28.4401 16.4021 27.7707 16.4716 27.6001 16.3389C27.4296 16.2063 27.5749 15.8021 27.3728 15.5874C27.1707 15.3663 25.7307 15.3474 25.4843 15.4863C25.238 15.6252 25.1117 15.8463 24.3349 15.8779C23.558 15.9095 23.2991 16.5979 23.2991 16.5979C23.2991 16.5979 23.0401 17.1158 23.2675 17.6779C22.1875 17.8989 21.7138 19.0863 21.7138 19.0863C21.7138 19.0863 21.5875 19.6737 21.518 21.1516C21.4486 22.6295 22.7686 24.0063 22.7686 24.0063C22.9833 24.4989 25.2065 23.5895 25.478 23.4821C26.1791 24.84 27.2401 23.7789 26.8801 25.1242C26.5265 26.4695 27.2338 26.2358 27.2338 26.7663C27.2338 27.2968 27.5875 28.5663 26.8107 29.3874C26.438 29.7852 26.5328 31.061 26.7286 32.28C27.2086 31.9831 27.6759 31.6674 28.1243 31.32C30.9665 29.1474 33.0001 26.1979 34.0043 22.8316C33.998 22.8189 33.9854 22.8126 33.9854 22.8C33.8401 22.3831 33.177 19.9452 32.4317 18.7326C31.6928 17.52 32.5265 17.8421 32.5265 17.8421C32.5265 17.8421 33.1075 18.5684 33.3033 18.9284C33.4991 19.2884 33.3033 20.0084 33.4991 20.2421C33.6949 20.4695 33.9159 20.4063 33.8843 20.7031C33.8528 20.9684 34.0865 21.6568 34.2507 21.9095C34.377 21.3663 34.4843 20.8105 34.5601 20.2484C34.617 19.8126 34.6549 19.3831 34.6801 18.9474C34.6928 18.7642 34.6991 18.581 34.7054 18.3916C34.7054 18.3221 34.7054 18.2526 34.7054 18.1831C34.718 16.2442 34.4086 14.3621 33.8149 12.6C33.7833 12.5116 33.7517 12.4168 33.7201 12.3284L33.7454 12.3158ZM33.537 14.04C33.1517 14.0652 33.1012 14.261 32.7917 14.04C32.4822 13.8189 32.1791 13.6421 32.0654 13.7684C31.9517 13.901 31.9517 14.2168 31.8065 14.141C31.6612 14.0652 31.5665 14.0337 31.5665 14.0337C31.2886 14.0652 30.9222 13.9831 31.0991 13.6547C31.2759 13.3263 31.5349 13.1116 31.4022 12.9474C31.2759 12.7831 31.3707 12.5874 31.7559 12.7326C32.1412 12.8779 32.318 13.061 32.4317 12.8463C32.5454 12.6316 32.7728 12.4863 32.8865 12.8652C33.0001 13.2442 33.0191 13.5221 33.2275 13.5852C33.4359 13.6484 33.9222 14.0084 33.537 14.0337V14.04Z" fill="#274247"/>
<path d="M26.2232 7.28208C25.9643 7.57892 26.2232 7.70523 26.2232 8.10313C26.2232 8.50102 26.3559 8.36208 26.5769 8.55787C26.8043 8.75366 26.9685 8.45681 27.2401 8.2926C27.518 8.12839 27.4801 8.58944 27.5117 8.87997C27.5432 9.17681 27.739 9.40418 27.9348 9.28418C28.1306 9.16418 28.1622 8.51997 28.3832 8.51997C28.6043 8.51997 28.7053 8.12839 28.7369 7.86313C28.7685 7.59787 28.3201 7.43997 28.3201 7.43997C28.3201 7.43997 28.2253 7.14313 28.4148 7.14313C28.6043 7.14313 28.8001 6.87787 28.7369 6.59997C28.6801 6.35366 28.9706 5.94944 29.3875 5.73471C28.9453 5.32418 28.4843 4.9326 28.0043 4.57892C27.7706 4.96418 27.8022 5.3305 27.739 5.54523C27.6443 5.87997 26.4822 6.97892 26.2232 7.28208Z" fill="#274247"/>
</g>
<defs>
<clipPath id="clip0_8826_1364">
<rect width="36" height="36" fill="white"/>
</clipPath>
</defs>
</svg>
