<svg width="36" height="36" viewBox="0 0 36 36" fill="none" xmlns="http://www.w3.org/2000/svg">
<g clip-path="url(#clip0_8826_1335)">
<path d="M28.0413 35.6827C29.7814 35.6827 31.192 34.2621 31.192 32.5098C31.192 30.7574 29.7814 29.3369 28.0413 29.3369C26.3012 29.3369 24.8906 30.7574 24.8906 32.5098C24.8906 34.2621 26.3012 35.6827 28.0413 35.6827Z" fill="white" stroke="#274247" stroke-miterlimit="10" stroke-linecap="round"/>
<path d="M11.6575 35.6827C13.3976 35.6827 14.8083 34.2621 14.8083 32.5098C14.8083 30.7574 13.3976 29.3369 11.6575 29.3369C9.91746 29.3369 8.50684 30.7574 8.50684 32.5098C8.50684 34.2621 9.91746 35.6827 11.6575 35.6827Z" fill="white" stroke="#274247" stroke-miterlimit="10" stroke-linecap="round"/>
<path d="M7.56177 9.03015H35.6031L31.8222 25.5294H11.0275" fill="white"/>
<path d="M7.56177 9.03015H35.6031L31.8222 25.5294H11.0275" stroke="#274247" stroke-miterlimit="10" stroke-linecap="square"/>
<path d="M8.82202 17.2797H34.0277" stroke="#274247" stroke-miterlimit="10"/>
<path d="M26.573 9.34741L24.6826 25.212" stroke="#274247" stroke-miterlimit="10" stroke-linecap="square"/>
<path d="M15.6465 9.34741L17.5369 25.212" stroke="#274247" stroke-miterlimit="10" stroke-linecap="square"/>
<path d="M26.4659 8.07824L23.3152 4.90531L26.1508 2.04968L32.1372 8.07824H26.4659Z" fill="#274247"/>
<path d="M9.30713 8.07827L17.3288 0L25.3505 8.07827H9.30713Z" fill="#274247"/>
<path d="M0.315186 3.31891H5.45084C5.75961 3.31891 6.02427 3.54736 6.07468 3.85196L11.5632 28.8038C11.6136 29.1084 11.8783 29.3369 12.1871 29.3369H28.0414" stroke="#274247" stroke-miterlimit="10" stroke-linecap="round"/>
</g>
<defs>
<clipPath id="clip0_8826_1335">
<rect width="36" height="36" fill="white"/>
</clipPath>
</defs>
</svg>
