<svg width="36" height="36" viewBox="0 0 36 36" fill="none" xmlns="http://www.w3.org/2000/svg">
<g clip-path="url(#clip0_8826_1335)">
<path d="M0.990236 7.99326C0.684443 7.44082 1.78925 5.3889 4.23559 3.36658C6.23805 1.70926 7.99389 0.979248 8.86195 0.979248C8.91127 0.979248 8.9606 0.979248 9.00992 0.979248C9.07897 0.989113 9.18748 1.00884 9.28612 1.0779L0.990236 7.99326Z" fill="white"/>
<path d="M33.7595 15.4414H24.635C24.7337 15.2934 24.783 15.1257 24.8027 14.9481H33.7595V14.6324H34.2527V14.9481C34.2527 15.2243 34.0357 15.4414 33.7595 15.4414Z" fill="#274247"/>
<path d="M34.2527 11.8011V14.6324H33.7595V11.8011H23.5104C23.3921 11.6433 23.2638 11.4756 23.1257 11.3079H33.7595C34.0357 11.3079 34.2527 11.5348 34.2527 11.8011Z" fill="#274247"/>
<path d="M33.7593 14.9481H24.8025C24.8222 14.8495 24.8222 14.741 24.8124 14.6324H33.7593V14.9481Z" fill="#274247"/>
<path d="M33.2662 14.4548H24.8026C24.7237 13.8234 24.3784 13.0737 23.8655 12.2944H33.2662V14.4548Z" fill="white"/>
<path d="M33.2661 12.2944H23.8654C23.7569 12.1366 23.6385 11.9689 23.5103 11.8011H33.7593V14.6324H24.8123C24.8222 14.5732 24.8123 14.514 24.8025 14.4548H33.2661V12.2944Z" fill="#274247"/>
<path d="M29.0442 27.2004C30.0848 27.2004 30.9283 26.3568 30.9283 25.3162C30.9283 24.2756 30.0848 23.432 29.0442 23.432C28.0037 23.432 27.1602 24.2756 27.1602 25.3162C27.1602 26.3568 28.0037 27.2004 29.0442 27.2004Z" fill="white"/>
<path d="M29.0443 27.2004C30.09 27.2004 30.9284 26.3619 30.9284 25.3162C30.9284 24.2705 30.09 23.432 29.0443 23.432C27.9987 23.432 27.1603 24.2804 27.1603 25.3162C27.1603 26.352 28.0086 27.2004 29.0443 27.2004ZM26.2429 25.5825C26.1738 24.744 26.4402 23.9351 27.0123 23.3136C27.5746 22.702 28.3736 22.3567 29.2022 22.3567H35.9592V28.2855H29.3797C27.7521 28.2855 26.381 27.1018 26.2429 25.5825Z" fill="#274247"/>
<path d="M27.0123 23.3136C26.4402 23.9351 26.1738 24.744 26.2429 25.5825C26.381 27.1017 27.7521 28.2855 29.3797 28.2855H35.9592V29.272H29.3797C27.2491 29.272 25.434 27.6936 25.2663 25.6713C25.1677 24.5467 25.5327 23.4714 26.2823 22.6526C27.032 21.8338 28.0974 21.3702 29.2022 21.3702H35.9592V22.3567H29.2022C28.3736 22.3567 27.5746 22.702 27.0123 23.3136Z" fill="white"/>
<path d="M24.8024 14.4548C24.8123 14.514 24.8222 14.5732 24.8123 14.6324H24.3388C24.3388 14.6324 24.3191 14.5239 24.3191 14.4548H24.8024Z" fill="#274247"/>
<path d="M24.3192 14.4548C24.2205 13.8728 23.8457 13.1132 23.2637 12.2944H23.8654C24.3783 13.0737 24.7236 13.8234 24.8025 14.4548H24.3192Z" fill="#274247"/>
<path d="M24.8028 14.9481C24.7831 15.1256 24.7338 15.2933 24.6351 15.4413H24.6154C24.6647 15.2637 24.6154 15.0763 24.4773 14.9481H24.8028Z" fill="#274247"/>
<path d="M24.6352 15.4413C24.6352 15.4413 24.6352 15.4713 24.6052 15.4813C24.6052 15.4613 24.6152 15.4513 24.6152 15.4413H24.6352Z" fill="#274247"/>
<path d="M23.4709 16.0727L24.0233 15.4413H24.6152C24.6152 15.4413 24.6053 15.4611 24.6053 15.4808C24.5856 15.5301 24.5462 15.5795 24.5067 15.6288C24.487 15.6485 24.4672 15.6781 24.4376 15.6978C24.27 15.8655 23.9839 16.0332 23.5301 16.0628C23.5104 16.0628 23.4907 16.0628 23.4709 16.0628V16.0727Z" fill="#274247"/>
<path d="M24.8125 14.6324C24.8223 14.741 24.8223 14.8495 24.8026 14.9481H24.4672C24.4672 14.9481 24.3784 14.8791 24.3291 14.8593C24.339 14.7903 24.339 14.7114 24.339 14.6324H24.8125Z" fill="#274247"/>
<path d="M24.4672 14.9382L24.3093 14.9481C24.3093 14.9185 24.3093 14.8889 24.3192 14.8593C24.3685 14.879 24.4178 14.9086 24.4573 14.9382H24.4672Z" fill="#274247"/>
<path d="M23.8259 14.6324C23.8259 14.6324 23.8259 14.5239 23.8062 14.4548H24.3191C24.3191 14.5239 24.329 14.5831 24.3388 14.6324H23.8259Z" fill="#274247"/>
<path d="M23.7964 14.9481C23.9444 14.8198 24.1515 14.7804 24.3291 14.8593C24.3192 14.8889 24.3192 14.9185 24.3192 14.9481H23.7964Z" fill="#274247"/>
<path d="M24.1416 15.3032L23.7766 14.9678L23.7963 14.9481H24.3191C24.2797 15.0862 24.2304 15.2045 24.1416 15.3032Z" fill="#274247"/>
<path d="M23.2637 12.2944C23.8457 13.1132 24.2205 13.8728 24.3192 14.4548H23.8062C23.7076 13.9714 23.3525 13.2118 22.6521 12.2944H23.2637Z" fill="#274247"/>
<path d="M24.1218 15.3229L24.1416 15.3032C24.2303 15.2045 24.2797 15.0862 24.3191 14.9481H24.477C24.6151 15.0763 24.6644 15.2637 24.6151 15.4413H24.0232L24.1218 15.3229Z" fill="#274247"/>
<path d="M24.1219 15.3229L24.0233 15.4413H23.9641C24.0233 15.4117 24.0825 15.3723 24.1219 15.3229Z" fill="#274247"/>
<path d="M23.3625 15.4413H23.9642C23.7867 15.5499 23.5401 15.5893 23.2441 15.5696L23.3625 15.4413Z" fill="#274247"/>
<path d="M23.8655 12.2944H23.2638C23.1454 12.1267 23.0172 11.9689 22.8889 11.8011H23.5104C23.6386 11.9689 23.757 12.1366 23.8655 12.2944Z" fill="#274247"/>
<path d="M23.4019 14.6324L23.2046 14.4548H23.8063C23.826 14.5239 23.8359 14.5831 23.826 14.6324H23.4019Z" fill="white"/>
<path d="M24.329 14.8593C24.1515 14.7804 23.9443 14.8199 23.7963 14.9481H23.7766L23.8358 14.7114C23.8358 14.7114 23.8358 14.662 23.8259 14.6324H24.3389C24.3389 14.7114 24.3389 14.7903 24.329 14.8593Z" fill="#274247"/>
<path d="M22.6521 12.2944C23.3525 13.2118 23.7076 13.9714 23.8063 14.4548H23.2045L20.8174 12.2944H22.6521Z" fill="white"/>
<path d="M23.7966 14.9481L23.7766 14.9681C23.7766 14.9681 23.7866 14.9581 23.7766 14.9481H23.7966Z" fill="#274247"/>
<path d="M23.7471 14.9481L23.4019 14.6324H23.826C23.826 14.6324 23.8359 14.6916 23.8359 14.7114L23.7767 14.9481H23.7471Z" fill="#274247"/>
<path d="M23.7766 14.9678L24.1416 15.3032L24.1219 15.323C24.1219 15.323 24.0232 15.4118 23.964 15.4414H23.3623L23.7371 15.0073L23.7667 14.9777L23.7766 14.9678Z" fill="#274247"/>
<path d="M23.7768 14.9481V14.9681L23.7568 14.9481H23.7868H23.7768Z" fill="#274247"/>
<path d="M22.7114 14.9481H23.7472L23.7669 14.9678C23.7669 14.9678 23.7472 14.9974 23.7373 15.0072C23.6781 15.0566 23.5598 15.0763 23.471 15.0763C23.2737 15.0763 23.0172 15.0467 22.7114 14.9481Z" fill="#274247"/>
<path d="M23.5105 11.8011H22.889C22.7608 11.6334 22.6128 11.4756 22.4648 11.3079H23.1258C23.2639 11.4756 23.3921 11.6433 23.5105 11.8011Z" fill="#274247"/>
<path d="M23.2441 15.5696C23.54 15.5893 23.7866 15.5499 23.9642 15.4413H24.0234L23.471 16.0727H23.4118C23.2441 16.0727 23.0567 16.053 22.8594 16.0135L23.2441 15.5696Z" fill="#274247"/>
<path d="M23.3625 15.4413L23.2441 15.5696C23.0567 15.5597 22.8397 15.5104 22.6128 15.4413H23.3625Z" fill="#274247"/>
<path d="M23.2638 12.2944H22.6522C22.524 12.1366 22.3958 11.9689 22.2478 11.8011H22.889C23.0172 11.9689 23.1455 12.1267 23.2638 12.2944Z" fill="#274247"/>
<path d="M23.2439 15.5696L22.8591 16.0135C22.4054 15.9247 21.8826 15.7274 21.3203 15.4413H22.6125C22.8394 15.5104 23.0564 15.5597 23.2439 15.5696Z" fill="#274247"/>
<path d="M23.2045 14.4548H21.5769C20.8173 14.0503 19.9197 13.4387 18.9826 12.5805C18.874 12.4818 18.7754 12.393 18.6768 12.2944H20.8173L23.2045 14.4548Z" fill="white"/>
<path d="M21.9123 14.6324C21.8038 14.5831 21.6953 14.5239 21.5769 14.4548H23.2045L23.4018 14.6324H21.9123Z" fill="white"/>
<path d="M22.6128 15.4413C22.2577 15.3427 21.8631 15.175 21.439 14.9481H22.7115C23.0173 15.0467 23.2737 15.0862 23.471 15.0763C23.5598 15.0763 23.6782 15.0566 23.7373 15.0072L23.3625 15.4413H22.6128Z" fill="#274247"/>
<path d="M23.4019 14.6324L23.7471 14.9481H22.7114C22.4746 14.8791 22.2083 14.7706 21.9124 14.6324H23.4019Z" fill="#274247"/>
<path d="M22.8888 11.8011H22.2476C22.1095 11.6433 21.9714 11.4756 21.8037 11.3079H22.4646C22.6126 11.4756 22.7605 11.6334 22.8888 11.8011Z" fill="#274247"/>
<path d="M22.6522 12.2944H20.8174L20.2749 11.8011H22.2478C22.3957 11.9689 22.524 12.1366 22.6522 12.2944Z" fill="white"/>
<path d="M22.2478 11.8011H20.275L19.7324 11.3079H21.8039C21.9716 11.4756 22.1097 11.6433 22.2478 11.8011Z" fill="white"/>
<path d="M21.4387 14.9481C21.2612 14.8593 21.0738 14.7508 20.8765 14.6324H21.9122C22.2081 14.7706 22.4745 14.8791 22.7112 14.9481H21.4387Z" fill="#274247"/>
<path d="M21.9124 14.6324H20.8766C20.7879 14.5732 20.6892 14.514 20.5906 14.4548H21.577C21.6954 14.5239 21.8039 14.5831 21.9124 14.6324Z" fill="#274247"/>
<path d="M21.3205 15.4413C21.0443 15.3032 20.7483 15.1355 20.4524 14.9481H21.4388C21.863 15.175 22.2576 15.3427 22.6127 15.4413H21.3205Z" fill="#274247"/>
<path d="M21.3206 15.4413C21.8829 15.7274 22.4057 15.9247 22.8595 16.0135L22.2183 16.7337C21.8829 17.1085 20.5611 16.8027 18.7263 15.4413H21.3206Z" fill="#274247"/>
<path d="M21.4389 14.9481H20.4525C20.2947 14.8495 20.1368 14.741 19.979 14.6324H20.8767C21.0739 14.7508 21.2614 14.8593 21.4389 14.9481Z" fill="#274247"/>
<path d="M21.3205 15.4413H18.7261C18.519 15.2933 18.302 15.1256 18.085 14.9481H20.4524C20.7483 15.1355 21.0443 15.3032 21.3205 15.4413Z" fill="#274247"/>
<path d="M20.8767 14.6324H19.979C19.9001 14.5732 19.8113 14.514 19.7324 14.4548H20.5906C20.6893 14.514 20.7879 14.5732 20.8767 14.6324Z" fill="#274247"/>
<path d="M20.2749 11.8011L20.8175 12.2944H18.6769C18.4994 12.1267 18.3317 11.959 18.1738 11.8011H20.2749Z" fill="white"/>
<path d="M20.4525 14.9481H18.085C17.9667 14.8495 17.8384 14.741 17.7102 14.6324H19.979C20.1368 14.741 20.2947 14.8495 20.4525 14.9481Z" fill="#274247"/>
<path d="M19.7324 11.3079L20.275 11.8011H18.1739C18.016 11.6334 17.8681 11.4657 17.73 11.3079H19.7324Z" fill="white"/>
<path d="M19.979 14.6324H17.7102C17.6412 14.5732 17.582 14.514 17.5129 14.4548H19.7324C19.8113 14.514 19.9001 14.5732 19.979 14.6324Z" fill="white"/>
<path d="M22.5831 17.0691C21.9221 17.8089 20.0381 17.1579 17.9172 15.4413H18.7261C20.5609 16.8027 21.8827 17.1085 22.2181 16.7337L22.8593 16.0135C23.0565 16.053 23.244 16.0727 23.4117 16.0727H23.4708L22.5831 17.0691Z" fill="#274247"/>
<path d="M17.9172 15.4413C20.038 17.1579 21.9221 17.8089 22.583 17.0691L23.4708 16.0727C23.4708 16.0727 23.5103 16.0727 23.53 16.0727C23.9838 16.0431 24.2698 15.8754 24.4375 15.7077L22.948 17.4045C22.6718 17.7202 22.2674 17.878 21.7742 17.878C20.62 17.878 18.9628 17.0296 17.1379 15.4512H17.9172V15.4413Z" fill="#274247"/>
<path d="M20.5905 14.4548C19.9591 14.0503 19.2982 13.5374 18.6472 12.9455C18.4104 12.7284 18.1836 12.5114 17.9666 12.2944H18.6768C18.7754 12.393 18.8741 12.4818 18.9826 12.5805C19.9197 13.4387 20.8173 14.0503 21.5769 14.4548H20.5905Z" fill="#274247"/>
<path d="M18.6769 12.2944H17.9667C17.8089 12.1267 17.651 11.9689 17.5129 11.8011H18.1738C18.3317 11.959 18.4994 12.1267 18.6769 12.2944Z" fill="#274247"/>
<path d="M18.085 14.9481C18.302 15.1256 18.519 15.2933 18.7262 15.4413H17.9173C17.72 15.2933 17.5227 15.1256 17.3254 14.9481H18.085Z" fill="#274247"/>
<path d="M18.1739 11.8011H17.513C17.3552 11.6334 17.2171 11.4756 17.0889 11.3079H17.73C17.8681 11.4657 18.0161 11.6334 18.1739 11.8011Z" fill="#274247"/>
<path d="M18.6473 12.9455C19.2984 13.5374 19.9593 14.0503 20.5906 14.4548H19.7324C19.2589 14.1194 18.7854 13.7347 18.3218 13.3105C17.9667 12.9849 17.6214 12.6396 17.2959 12.2944H17.9667C18.1837 12.5114 18.4106 12.7284 18.6473 12.9455Z" fill="#274247"/>
<path d="M17.7103 14.6324C17.8385 14.741 17.9668 14.8495 18.0851 14.9481H17.3256C17.3256 14.9481 17.2368 14.8692 17.1875 14.8297C17.1184 14.7607 17.0395 14.7015 16.9705 14.6324H17.7103Z" fill="#274247"/>
<path d="M17.5129 14.4548C17.582 14.514 17.6412 14.5732 17.7102 14.6324H16.9704C16.9112 14.5732 16.8421 14.514 16.783 14.4548H17.5129Z" fill="#274247"/>
<path d="M17.5129 11.8011C17.651 11.9689 17.8088 12.1267 17.9666 12.2944H17.2958C17.1479 12.1366 16.9999 11.9689 16.8618 11.8011H17.5129Z" fill="#274247"/>
<path d="M17.5129 11.8011H16.8619C16.7238 11.6433 16.5857 11.4756 16.4673 11.3079H17.0887C17.217 11.4756 17.3551 11.6334 17.5129 11.8011Z" fill="#274247"/>
<path d="M17.513 14.4548C16.7238 13.7544 16.0333 13.0145 15.5105 12.2944H17.2959C17.6215 12.6396 17.9667 12.9849 18.3218 13.3105C18.7854 13.7347 19.2589 14.1194 19.7324 14.4548H17.513Z" fill="white"/>
<path d="M16.5858 14.9481C16.4773 14.8495 16.3688 14.741 16.2603 14.6324H16.9705C17.0395 14.7015 17.1184 14.7607 17.1875 14.8297C17.2368 14.8692 17.2763 14.9087 17.3256 14.9481H16.5858Z" fill="#274247"/>
<path d="M16.5857 14.9481H17.3255C17.5228 15.1256 17.7201 15.2933 17.9174 15.4413H17.1381C17.0395 15.3624 16.9507 15.2835 16.852 15.1947C16.7632 15.1158 16.6745 15.027 16.5857 14.9481Z" fill="#274247"/>
<path d="M16.9706 14.6324H16.2603L16.0828 14.4548H16.7831C16.8423 14.514 16.9114 14.5732 16.9706 14.6324Z" fill="#274247"/>
<path d="M15.3625 11.8011H16.8619C17 11.9689 17.148 12.1366 17.2959 12.2944H15.5105C15.4118 12.1662 15.3231 12.0379 15.2441 11.9195L15.3625 11.8011Z" fill="white"/>
<path d="M16.4673 11.3079C16.3686 11.1896 16.2798 11.0712 16.2009 10.9528L16.5462 10.5977C16.704 10.8344 16.8914 11.0712 17.0887 11.3079H16.4673Z" fill="#274247"/>
<path d="M15.3625 11.8011L15.8459 11.3079H16.4674C16.5857 11.4756 16.7238 11.6433 16.8619 11.8011H15.3625Z" fill="white"/>
<path d="M16.1123 7.98344C16.1813 7.92425 16.2997 7.90452 16.3983 7.89465H16.4575C17.2762 7.89465 18.9729 8.66412 20.8866 10.4004C21.2318 10.7062 21.5376 11.012 21.804 11.3079H19.7325L16.0925 8.00317L16.1123 7.98344Z" fill="white"/>
<path d="M16.5461 10.5976C16.3489 10.3214 16.1812 10.055 16.0332 9.78869C16.2009 9.7295 16.3982 9.76896 16.5363 9.8972C16.7336 10.0846 16.7336 10.4003 16.5363 10.5976H16.5461Z" fill="#274247"/>
<path d="M15.8459 11.3079L16.2011 10.9528C16.28 11.0711 16.3688 11.1895 16.4674 11.3079H15.8459Z" fill="white"/>
<path d="M17.7299 11.3079C16.2503 9.62097 15.8261 8.29906 16.0924 8.00311L19.7324 11.3079H17.7299Z" fill="white"/>
<path d="M16.1121 7.98343C16.2304 7.83545 16.2502 7.60856 16.1614 7.44086C17.1774 7.21396 19.239 8.23992 21.2119 10.0353C21.6755 10.4497 22.0898 10.8837 22.4647 11.3079H21.8038C21.5374 11.012 21.2316 10.7062 20.8864 10.4004C18.9727 8.66411 17.276 7.89464 16.4573 7.89464H16.3981C16.2995 7.90451 16.1811 7.92424 16.1121 7.98343Z" fill="#274247"/>
<path d="M16.0925 8.00316L15.7275 7.67762C15.836 7.55924 15.984 7.48032 16.1616 7.44086C16.2503 7.60856 16.2306 7.83546 16.1122 7.98343L16.0925 8.00316Z" fill="#274247"/>
<path d="M16.0825 14.4548H7.22438C6.63252 14.4548 6.14917 13.9714 6.14917 13.3795C6.14917 12.7876 6.63252 12.2944 7.22438 12.2944H14.307C14.7607 12.9948 15.3723 13.7347 16.0825 14.4548Z" fill="white"/>
<path d="M15.4414 7.27317C15.619 7.10547 15.8952 6.94763 16.3391 6.91803C17.5622 6.83911 19.6239 7.92426 21.5474 9.67037C22.1195 10.1833 22.6522 10.7457 23.1257 11.308H22.4648C22.0899 10.8838 21.6756 10.4497 21.212 10.0354C19.2392 8.23994 17.1775 7.21398 16.1615 7.44088C16.1418 7.39155 16.1023 7.35209 16.0629 7.31263C15.8853 7.14493 15.6288 7.13506 15.4414 7.27317Z" fill="#274247"/>
<path d="M15.6484 10.0945L15.8359 9.90708C15.895 9.84789 15.9641 9.80843 16.0331 9.7887C16.1811 10.0551 16.3488 10.3214 16.5461 10.5976L16.2008 10.9528C16.0923 10.8147 16.0036 10.6765 15.9148 10.5384C15.8161 10.3905 15.7274 10.2425 15.6484 10.0945Z" fill="#274247"/>
<path d="M16.0333 9.78868C15.7867 9.34475 15.6289 8.93042 15.5598 8.58515L16.0925 8.00311C15.8262 8.29906 16.2503 9.62097 17.73 11.3079H17.0888C16.8915 11.0711 16.7041 10.8344 16.5462 10.5976C16.7337 10.4003 16.7337 10.0846 16.5462 9.89719C16.4081 9.76895 16.2109 9.72949 16.0432 9.78868H16.0333Z" fill="#274247"/>
<path d="M15.1453 11.3079L15.9147 10.5385C16.0035 10.6766 16.0922 10.8147 16.2007 10.9528L15.8456 11.3079H15.1453Z" fill="#274247"/>
<path d="M16.0924 8.0031L15.5598 8.58513C15.4907 8.2004 15.54 7.88472 15.7275 7.67755L16.0924 8.0031Z" fill="#274247"/>
<path d="M15.5598 8.58521C15.6288 8.93048 15.7866 9.34481 16.0332 9.78873C15.9642 9.80846 15.8951 9.84792 15.836 9.90711L15.6485 10.0945C15.4315 9.71968 15.2638 9.35467 15.175 9.0094L15.5598 8.58521Z" fill="#274247"/>
<path d="M16.7829 14.4548C16.0234 13.7347 15.3822 12.9849 14.9087 12.2944H15.5104C16.0332 13.0145 16.7237 13.7544 17.5129 14.4548H16.7829Z" fill="#274247"/>
<path d="M15.9149 10.5385L15.1455 11.3079H14.8792C14.82 11.2093 14.7707 11.1205 14.7312 11.0317L15.6486 10.0945C15.7275 10.2425 15.8163 10.3905 15.9149 10.5385Z" fill="#274247"/>
<path d="M14.9678 11.4854L15.1453 11.3079H15.8457L15.3623 11.8011H15.1552C15.096 11.6926 15.027 11.5841 14.9678 11.4854Z" fill="#274247"/>
<path d="M15.3624 11.8011L15.2441 11.9195L15.1553 11.8011H15.3624Z" fill="#274247"/>
<path d="M14.9775 12.1859L15.2439 11.9196C15.3228 12.0379 15.4116 12.1662 15.5102 12.2944H14.9085C14.9085 12.2944 14.8789 12.2648 14.8789 12.255C14.9184 12.2352 14.948 12.2155 14.9775 12.1859Z" fill="#274247"/>
<path d="M15.0566 8.40766C15.0172 7.99333 15.1059 7.62833 15.3525 7.35211C15.3821 7.32251 15.4117 7.29292 15.4413 7.27319C15.6287 7.13508 15.8852 7.14494 16.0628 7.31265C16.1022 7.35211 16.1417 7.39157 16.1614 7.44089C15.9839 7.48035 15.8359 7.55927 15.7274 7.67765L15.0566 8.40766Z" fill="#274247"/>
<path d="M15.175 9.00933C15.106 8.80216 15.0665 8.595 15.0566 8.40756L15.7274 7.67755C15.54 7.88472 15.4907 8.2004 15.5597 8.58513L15.175 9.00933Z" fill="#274247"/>
<path d="M14.9679 11.4855C15.0271 11.5842 15.0961 11.6927 15.1553 11.8012H14.6621L14.9679 11.4855Z" fill="#274247"/>
<path d="M15.1452 11.3079L14.9677 11.4854C14.9677 11.4854 14.9282 11.4164 14.9085 11.3769C14.8986 11.3572 14.8789 11.3276 14.8789 11.3079H15.1452Z" fill="#274247"/>
<path d="M16.0827 14.4548C15.3725 13.7347 14.7609 12.9948 14.3071 12.2944H14.4452C14.5044 12.324 14.5636 12.3338 14.6228 12.3338C14.682 12.3338 14.751 12.3338 14.8102 12.2944H14.9089C15.3823 12.9849 16.0235 13.7347 16.7831 14.4548H16.0827Z" fill="#274247"/>
<path d="M14.9087 11.3769C14.9087 11.3769 14.9482 11.446 14.9679 11.4854L14.6621 11.8011H14.5931C14.5043 11.663 14.4254 11.5348 14.3662 11.4065L14.4649 11.3079H14.8792C14.8792 11.3079 14.8989 11.3572 14.9087 11.3769Z" fill="#274247"/>
<path d="M14.9087 12.2949H14.8101C14.8101 12.2949 14.8594 12.2749 14.8791 12.2549C14.8791 12.2649 14.889 12.2849 14.9087 12.2949Z" fill="#274247"/>
<path d="M14.8791 11.3079H14.4648L14.7312 11.0317C14.7706 11.1205 14.82 11.2092 14.8791 11.3079Z" fill="#274247"/>
<path d="M15.6485 10.0945L14.7311 11.0317C14.3957 10.3412 14.3661 9.88738 14.4944 9.74927L15.175 9.0094C15.2638 9.35467 15.4315 9.71968 15.6485 10.0945Z" fill="white"/>
<path d="M14.4451 12.2944H14.81C14.7509 12.3244 14.6818 12.3344 14.6226 12.3344C14.5634 12.3344 14.5043 12.3344 14.4451 12.2944Z" fill="#274247"/>
<path d="M15.2441 11.9195L14.9777 12.1859C14.9777 12.1859 14.9185 12.2352 14.8791 12.2549C14.7706 12.0971 14.6719 11.9491 14.593 11.8011H15.1553L15.2441 11.9195Z" fill="#274247"/>
<path d="M14.1393 9.41388L15.0566 8.40765C15.0566 8.59509 15.106 8.80225 15.175 9.00942L14.4944 9.74929C14.3661 9.8874 14.3957 10.3412 14.7311 11.0317L14.4648 11.308H14.3168C13.8927 10.4694 13.8137 9.77889 14.1393 9.41388Z" fill="#274247"/>
<path d="M14.4649 11.3079L14.3662 11.4065C14.3662 11.4065 14.3268 11.3375 14.3169 11.3079H14.4649Z" fill="#274247"/>
<path d="M14.5929 11.8012H14.1392C14.1392 11.6926 14.1885 11.5841 14.2773 11.4953L14.366 11.4066C14.4252 11.5348 14.5041 11.663 14.5929 11.8012Z" fill="#274247"/>
<path d="M14.1393 11.8011H14.593C14.6719 11.9491 14.7706 12.0971 14.8791 12.2549C14.8594 12.2747 14.8396 12.2845 14.81 12.2944H14.4451C14.3859 12.2747 14.3267 12.2451 14.2774 12.1957C14.1689 12.0872 14.1195 11.9393 14.1393 11.8011Z" fill="#274247"/>
<path d="M14.2773 12.1957C14.3266 12.2451 14.3858 12.2747 14.445 12.2944H14.3069C14.2083 12.1464 14.1195 11.9984 14.0406 11.8603L14.011 11.8011H14.1392C14.1195 11.9393 14.1688 12.0872 14.2773 12.1957Z" fill="#274247"/>
<path d="M14.3168 11.3079C14.3168 11.3079 14.3464 11.3671 14.3661 11.4065L14.2773 11.4953C14.1886 11.5841 14.1392 11.6926 14.1392 11.8011H14.011C13.9124 11.6235 13.8335 11.4657 13.7644 11.3079H14.3168Z" fill="#274247"/>
<path d="M13.7646 11.3079H13.7547C13.222 10.0945 13.4489 9.43356 13.7646 9.07842L15.3527 7.35205C15.1061 7.62827 15.0174 7.99327 15.0568 8.4076L14.1394 9.41383C13.8139 9.77884 13.8928 10.4694 14.317 11.3079H13.7646Z" fill="#274247"/>
<path d="M9.7396 18.7165V31.9159C9.7396 32.1921 9.52259 32.4091 9.24639 32.4091C8.97019 32.4091 8.75317 32.1921 8.75317 31.9159V18.7165C8.75317 18.4502 8.98005 18.2233 9.24639 18.2233C9.51273 18.2233 9.7396 18.4502 9.7396 18.7165Z" fill="white"/>
<path d="M9.67074 0.772095L10.3514 1.64021C10.3218 1.82765 10.2725 2.02495 10.1936 2.24198L9.31563 1.11737L9.2959 1.08777L9.67074 0.772095Z" fill="#274247"/>
<path d="M10.3515 1.64017L9.67084 0.772055L9.296 1.08773H9.28614V1.068C9.10858 0.86084 9.14804 0.54516 9.36505 0.377455C9.55247 0.22948 9.79908 0.239345 9.97664 0.377455C10.026 0.416915 10.0654 0.46624 10.095 0.5057C10.1049 0.52543 10.1246 0.54516 10.1345 0.56489C10.3416 0.86084 10.4107 1.22584 10.3515 1.64017Z" fill="#274247"/>
<path d="M9.29589 1.08777L9.31589 1.11777L9.28589 1.08777H9.29589Z" fill="#274247"/>
<path d="M7.33293 14.6324H16.2601C16.3686 14.7409 16.4771 14.8494 16.5857 14.9481H7.22443C6.81999 14.9481 6.44515 14.7902 6.16895 14.5338C6.50433 14.6127 6.90877 14.6324 7.33293 14.6324Z" fill="#274247"/>
<path d="M9.24666 18.2233C8.98033 18.2233 8.75345 18.4502 8.75345 18.7165V31.9159C8.75345 32.1921 8.98033 32.4091 9.24666 32.4091C9.513 32.4091 9.73988 32.1921 9.73988 31.9159V18.7165C9.73988 18.4502 9.52287 18.2233 9.24666 18.2233ZM5.18257 33.4943L5.16284 13.3796C5.16284 13.3796 5.16284 13.4486 5.17271 13.4881C5.22203 14.5732 6.12954 15.4414 7.22448 15.4414H17.1381C18.963 17.0198 20.6202 17.8681 21.7743 17.8681C22.2675 17.8681 22.672 17.7103 22.9482 17.3946L24.4377 15.6979C24.4377 15.6979 24.487 15.6485 24.5067 15.6288C24.5462 15.5795 24.5857 15.5301 24.6054 15.4808C24.6251 15.471 24.635 15.4611 24.635 15.4414H33.7595C34.0357 15.4414 34.2527 15.2243 34.2527 14.9481V14.6324H35.9592V21.3702H29.2022C28.0974 21.3702 27.032 21.8339 26.2823 22.6527C25.5326 23.4715 25.1677 24.5467 25.2663 25.6714C25.434 27.6937 27.249 29.2721 29.3797 29.2721H35.9592V36H7.40204C6.17887 36 5.18257 34.7471 5.18257 33.4943Z" fill="#274247"/>
<path d="M5.65601 13.3795C5.65601 12.5114 6.35637 11.8011 7.22443 11.8011H14.0111L14.0407 11.8603C14.1196 11.9984 14.2084 12.1464 14.307 12.2944H7.22443C6.63257 12.2944 6.14922 12.7778 6.14922 13.3795C6.14922 13.9813 6.63257 14.4548 7.22443 14.4548H16.0826L16.2601 14.6324H7.33294C6.90877 14.6324 6.50434 14.6127 6.16895 14.5337C5.85329 14.2575 5.65601 13.8432 5.65601 13.3795Z" fill="#274247"/>
<path d="M3.83105 8.45695C4.74844 8.01302 5.74473 7.35207 6.7213 6.54314C8.33904 5.21137 9.72991 3.57378 10.1935 2.242L10.6966 2.88323C11.0123 3.2581 10.2133 5.10285 7.47098 7.45072C6.39577 8.36816 5.41921 8.98966 4.63006 9.37439L3.83105 8.45695Z" fill="white"/>
<path d="M5.16284 13.3302C5.19243 12.2056 6.10981 11.3079 7.22448 11.3079H13.7645C13.8336 11.4657 13.9125 11.6235 14.0111 11.8011H7.22448C6.35642 11.8011 5.65606 12.5114 5.65606 13.3795C5.65606 13.8432 5.85334 14.2575 6.169 14.5337C5.62646 14.4153 5.24176 14.1292 5.17271 13.488C5.17271 13.4584 5.16284 13.419 5.16284 13.3795V13.3302Z" fill="#274247"/>
<path d="M7.22438 15.4414C6.12945 15.4414 5.22193 14.5732 5.17261 13.4881C5.24166 14.1293 5.62637 14.4154 6.1689 14.5338C6.4451 14.7903 6.81995 14.9481 7.22438 14.9481H16.5856C16.6744 15.027 16.7632 15.1158 16.8519 15.1947C16.9506 15.2835 17.0394 15.3624 17.138 15.4414H7.22438Z" fill="#274247"/>
<path d="M4.85701 9.63084L4.63013 9.37435C5.41927 8.98962 6.39584 8.36812 7.47105 7.45068C10.2133 5.10281 11.0123 3.25806 10.6967 2.88319L10.1936 2.24196C10.2725 2.02493 10.3218 1.82763 10.3514 1.6402L11.0715 2.56751C11.7916 3.40603 10.2626 5.71444 7.78671 7.82555C6.80027 8.66407 5.81384 9.32503 4.93592 9.76895C4.91619 9.71963 4.89646 9.6703 4.85701 9.63084Z" fill="#274247"/>
<path d="M5.16284 13.3796C5.16284 13.3796 5.17284 13.4585 5.17284 13.4881C5.16284 13.4486 5.16284 13.419 5.16284 13.3796Z" fill="#274247"/>
<path d="M4.93601 9.76898C5.81394 9.32505 6.80037 8.6641 7.7868 7.82557C10.2627 5.71447 11.7917 3.40606 11.0716 2.56753L10.3515 1.64023C10.4107 1.2259 10.3417 0.860891 10.1345 0.564941L11.4563 2.26172C12.5019 3.48498 10.5291 6.1288 8.11232 8.20044C7.02725 9.11789 5.79421 9.95641 4.66968 10.4398V10.4201C4.719 10.4003 4.76832 10.3707 4.81764 10.3214C4.97547 10.1833 5.01493 9.95641 4.93601 9.76898Z" fill="#274247"/>
<path d="M4.01855 10.1734C4.30462 10.0748 4.62028 9.93669 4.93594 9.76898C5.01485 9.95642 4.97539 10.1833 4.81756 10.3214C4.76824 10.3707 4.71892 10.4003 4.65973 10.4201C4.60055 10.4398 4.54136 10.4497 4.49204 10.4497C4.35394 10.4497 4.21584 10.3905 4.1172 10.282L4.01855 10.1734Z" fill="#274247"/>
<path d="M3.83105 8.45697L4.63006 9.37441C4.46237 9.45333 4.31441 9.52239 4.16644 9.58158L3.36743 8.674C3.5154 8.61481 3.67322 8.53589 3.83105 8.45697Z" fill="#274247"/>
<path d="M4.93583 9.76899C4.62017 9.93669 4.30451 10.0748 4.01844 10.1735L3.66333 9.76899C3.82116 9.71966 3.98885 9.66047 4.16641 9.58155C4.31437 9.52236 4.46234 9.45331 4.63003 9.37439L4.85691 9.63088C4.85691 9.63088 4.9161 9.71966 4.93583 9.76899Z" fill="#274247"/>
<path d="M3.36738 8.67395L4.16639 9.58153C3.98884 9.66045 3.82114 9.71964 3.66331 9.76896L2.88403 8.87125C3.04186 8.81206 3.19969 8.75287 3.36738 8.67395Z" fill="#274247"/>
<path d="M3.39703 7.96367C3.24906 7.80583 3.03205 7.75651 2.85449 7.82556C3.74228 7.46056 4.86681 6.78974 6.08998 5.78351C8.60538 3.71186 9.70032 1.60076 9.31561 1.11737L10.1935 2.24198C9.72991 3.57375 8.33905 5.21134 6.7213 6.54312C5.74473 7.35204 4.74844 8.013 3.83106 8.45692L3.39703 7.96367Z" fill="#274247"/>
<path d="M2.6966 7.91435C2.6966 7.91435 2.77552 7.85516 2.82484 7.83543C2.8347 7.83543 2.84457 7.82557 2.85443 7.82557C3.03199 7.75651 3.249 7.80584 3.39697 7.96368L3.831 8.45693C3.67317 8.53585 3.51534 8.61477 3.36737 8.67396C3.19968 8.75288 3.04185 8.81207 2.88402 8.87126L2.65714 8.61477C2.46972 8.4076 2.48945 8.09192 2.6966 7.91435Z" fill="#274247"/>
<path d="M1.72993 10.4299L0.368652 8.80219C0.54621 8.95016 0.812546 9.09813 1.21698 9.13759C1.24658 9.13759 1.2663 9.14746 1.2959 9.14746L2.10477 10.1044C2.43029 10.4891 3.13066 10.4891 4.01845 10.1734L4.11709 10.2819C4.21573 10.3904 4.35383 10.4496 4.49193 10.4496C4.54125 10.4496 4.60044 10.4398 4.65963 10.42V10.4398C4.01845 10.7259 3.40686 10.8936 2.88405 10.8936C2.41056 10.8936 2.00613 10.7555 1.72993 10.4299Z" fill="#274247"/>
<path d="M2.48951 9.78872L1.92725 9.1179C2.22318 9.06858 2.5487 8.98966 2.88408 8.87128L3.66336 9.76899C3.04191 9.96629 2.62761 9.94656 2.48951 9.78872Z" fill="white"/>
<path d="M2.10502 10.1044L1.29614 9.14751C1.34546 9.15738 1.39479 9.15738 1.45397 9.15738C1.60194 9.15738 1.75976 9.14751 1.92746 9.11792L2.48972 9.78874C2.62782 9.94658 3.04212 9.96631 3.66358 9.76901L4.01869 10.1735C3.1309 10.4892 2.43054 10.4892 2.10502 10.1044Z" fill="#274247"/>
<path d="M0.990234 7.99326L9.28612 1.08777L9.31571 1.11736C9.70042 1.60075 8.60548 3.71186 6.09008 5.7835C4.86691 6.78973 3.74238 7.46055 2.85459 7.82556C2.85459 7.82556 2.83486 7.83542 2.825 7.83542C2.18382 8.09191 1.66101 8.20043 1.31576 8.16097C1.24671 8.1511 1.1382 8.13137 1.06915 8.09191L1.00996 8.03272V8.02286C1.00996 8.01299 1.0001 8.01299 1.0001 8.00313L0.990234 7.99326Z" fill="white"/>
<path d="M1.92704 9.1179L1.06885 8.09194C1.1379 8.1314 1.24641 8.15113 1.31546 8.16099C1.66071 8.20045 2.18351 8.09194 2.82469 7.83545C2.77537 7.85518 2.73592 7.88477 2.69646 7.91437C2.48931 8.09194 2.46958 8.40762 2.657 8.61478L2.88388 8.87127C2.54849 8.98965 2.22297 9.06857 1.92704 9.1179Z" fill="#274247"/>
<path d="M0.990234 8.00311C0.990234 8.00311 1.00023 8.00311 1.00023 8.02311V8.00311H0.990234Z" fill="#274247"/>
<path d="M0.605469 8.31879L0.980312 8.00311H0.990177V8.02284L1.00991 8.03271L1.06909 8.0919L1.92729 9.11786C1.75959 9.14745 1.60176 9.15732 1.4538 9.15732C1.39461 9.15732 1.34529 9.15732 1.29597 9.14745L0.605469 8.31879Z" fill="#274247"/>
<path d="M0.289899 7.93407C0.49705 7.76637 0.802843 7.7861 0.980401 7.99326L0.605557 8.31881L1.29606 9.14747C1.29606 9.14747 1.24674 9.1376 1.21714 9.1376C0.812707 9.09814 0.546371 8.95017 0.368814 8.80219C0.309628 8.743 0.270171 8.69368 0.230713 8.64435C0.220849 8.62462 0.210985 8.61476 0.20112 8.59503C0.0531559 8.38786 0.0827488 8.10178 0.289899 7.93407Z" fill="#274247"/>
<path d="M0.289877 7.93408C0.0827265 8.10179 0.0531336 8.38787 0.201098 8.59504C-0.736011 7.28299 1.18753 4.59971 3.60428 2.60699C5.67579 0.890478 7.82621 -0.125616 9.10857 0.0124934C9.53273 0.0618184 9.80893 0.219658 9.97663 0.377498C9.79907 0.239388 9.55246 0.229523 9.36504 0.377498C9.14802 0.545203 9.10857 0.860883 9.27626 1.06805V1.08778C9.18748 1.01872 9.07897 0.998992 9.00992 0.989127C8.9606 0.989127 8.91128 0.989127 8.86196 0.989127C7.9939 0.989127 6.23805 1.71914 4.2356 3.37646C1.78925 5.38891 0.684449 7.44083 0.990243 7.99327L0.980378 8.00314C0.802821 7.78611 0.497027 7.76638 0.289877 7.93408Z" fill="#274247"/>
</g>
<defs>
<clipPath id="clip0_8826_1335">
<rect width="36" height="36" fill="white"/>
</clipPath>
</defs>
</svg>
