<svg width="36" height="36" viewBox="0 0 36 36" fill="none" xmlns="http://www.w3.org/2000/svg">
<g clip-path="url(#clip0_8826_1200)">
<path d="M19.263 25.8947V29.381C19.263 31.1621 15.0188 32.6084 9.78936 32.6084C4.55989 32.6084 0.315674 31.1684 0.315674 29.381V25.8947" fill="white"/>
<path d="M19.263 25.8947V29.381C19.263 31.1621 15.0188 32.6084 9.78936 32.6084C4.55989 32.6084 0.315674 31.1684 0.315674 29.381V25.8947" stroke="#274247" stroke-miterlimit="10"/>
<path d="M3.47363 31.5789V28.421" stroke="#274247" stroke-miterlimit="10"/>
<path d="M9.78936 29.3684C15.0215 29.3684 19.263 27.9546 19.263 26.2105C19.263 24.4664 15.0215 23.0526 9.78936 23.0526C4.55719 23.0526 0.315674 24.4664 0.315674 26.2105C0.315674 27.9546 4.55719 29.3684 9.78936 29.3684Z" fill="white" stroke="#274247" stroke-miterlimit="10"/>
<path d="M19.263 20.8421V24.3284C19.263 26.1095 15.0188 27.5558 9.78936 27.5558C4.55989 27.5558 0.315674 26.1158 0.315674 24.3284V20.8421" fill="white"/>
<path d="M19.263 20.8421V24.3284C19.263 26.1095 15.0188 27.5558 9.78936 27.5558C4.55989 27.5558 0.315674 26.1158 0.315674 24.3284V20.8421" stroke="#274247" stroke-miterlimit="10"/>
<path d="M3.47363 26.5263V23.3684" stroke="#274247" stroke-miterlimit="10"/>
<path d="M9.78936 24.3158C15.0215 24.3158 19.263 22.902 19.263 21.1579C19.263 19.4138 15.0215 18 9.78936 18C4.55719 18 0.315674 19.4138 0.315674 21.1579C0.315674 22.902 4.55719 24.3158 9.78936 24.3158Z" fill="white" stroke="#274247" stroke-miterlimit="10"/>
<path d="M23.6842 11.6842C26.8235 11.6842 29.3684 9.13931 29.3684 6.00001C29.3684 2.8607 26.8235 0.315796 23.6842 0.315796C20.5449 0.315796 18 2.8607 18 6.00001C18 9.13931 20.5449 11.6842 23.6842 11.6842Z" fill="white" stroke="#274247" stroke-miterlimit="10"/>
<path d="M29.6842 12.6316L24 18.9474L17.6842 12.6316C17.4253 12.6758 11.3684 13.8442 11.3684 17.0526V30.3158L15.48 36H31.8126L36 30.3158V17.0526C36 13.8442 29.9431 12.6758 29.6842 12.6316Z" fill="#274247"/>
</g>
<defs>
<clipPath id="clip0_8826_1200">
<rect width="36" height="36" fill="white"/>
</clipPath>
</defs>
</svg>
