<svg width="36" height="36" viewBox="0 0 36 36" fill="none" xmlns="http://www.w3.org/2000/svg">
<g clip-path="url(#clip0_2543_2764)">
<path d="M9.1581 25.931C11.9486 25.931 14.2107 23.7079 14.2107 20.9655C14.2107 18.2231 11.9486 16 9.1581 16C6.36761 16 4.10547 18.2231 4.10547 20.9655C4.10547 23.7079 6.36761 25.931 9.1581 25.931Z" fill="white" stroke="#274247" stroke-miterlimit="10"/>
<path d="M26.8421 26.5517C29.807 26.5517 32.2105 24.1896 32.2105 21.2759C32.2105 18.3621 29.807 16 26.8421 16C23.8772 16 21.4736 18.3621 21.4736 21.2759C21.4736 24.1896 23.8772 26.5517 26.8421 26.5517Z" fill="#274247"/>
<path d="M18.3158 36.4903V30.1221C18.3158 27.7883 13.8063 27.031 13.6169 27L9.16424 31.3324L4.70529 27C4.51582 27.031 0.00634766 27.7883 0.00634766 30.1221V36.4903H18.3158Z" fill="#274247"/>
<path d="M3.47363 37.1034V34" stroke="white" stroke-miterlimit="10" stroke-linecap="round"/>
<path d="M14.8418 37.1034V34" stroke="white" stroke-miterlimit="10" stroke-linecap="round"/>
<path d="M33.7896 22.8276C35.0105 22.8276 36.0002 21.855 36.0002 20.6552C36.0002 19.4554 35.0105 18.4828 33.7896 18.4828C32.5688 18.4828 31.5791 19.4554 31.5791 20.6552C31.5791 21.855 32.5688 22.8276 33.7896 22.8276Z" fill="#274247"/>
<path d="M19.8951 22.8276C21.1159 22.8276 22.1056 21.855 22.1056 20.6552C22.1056 19.4554 21.1159 18.4828 19.8951 18.4828C18.6743 18.4828 17.6846 19.4554 17.6846 20.6552C17.6846 21.855 18.6743 22.8276 19.8951 22.8276Z" fill="#274247"/>
<path d="M35.6842 35.6897V29.6628C35.6842 27.4531 31.4463 27.031 31.2632 27L26.8421 30.8048L22.4211 27C22.2379 27.031 18 27.4531 18 29.6628V35.6897H35.6842Z" fill="white" stroke="#274247" stroke-miterlimit="10" stroke-linejoin="round"/>
<path d="M21.7896 35.4828V33" stroke="#274247" stroke-miterlimit="10" stroke-linecap="round"/>
<path d="M31.8945 35.4828V33" stroke="#274247" stroke-miterlimit="10" stroke-linecap="round"/>
<path d="M16.8629 14.1828L16.4082 11.7869L18.8524 12.2338L16.8629 14.1828Z" fill="#274247"/>
<path d="M15.9157 9.34758L16.3705 11.7434L13.9263 11.2965L15.9157 9.34758Z" fill="#274247"/>
<path d="M16.5474 11.669L19.3579 0.310349H28.1053V8.9069L16.5474 11.669Z" fill="white" stroke="#274247" stroke-miterlimit="10"/>
<path d="M19.377 0.328964L28.0864 8.88827" stroke="#274247" stroke-miterlimit="10"/>
<path d="M28.0863 0.328964L16.6357 11.5821" stroke="#274247" stroke-miterlimit="10"/>
<path d="M16.3956 11.7C16.0419 11.7434 15.7135 11.9359 15.5177 12.2586C15.3219 12.5814 15.2966 12.9724 15.4356 13.2952C15.5682 13.6303 15.5493 14.0152 15.3535 14.3379C15.1577 14.6607 14.8293 14.8531 14.4756 14.8965" stroke="#274247" stroke-miterlimit="10" stroke-linecap="round"/>
</g>
<defs>
<clipPath id="clip0_2543_2764">
<rect width="36" height="36" fill="white"/>
</clipPath>
</defs>
</svg>
