<svg width="36" height="36" viewBox="0 0 36 36" fill="none" xmlns="http://www.w3.org/2000/svg">
<g clip-path="url(#clip0_2543_2763)">
<path d="M35.6844 0.315796H17.3687V24.9474H35.6844V0.315796Z" fill="white" stroke="#274247" stroke-miterlimit="10" stroke-linecap="round"/>
<path d="M19.8945 7.89473H32.5261" stroke="#274247" stroke-miterlimit="10" stroke-linecap="round"/>
<path d="M19.8945 11.0526H32.5261" stroke="#274247" stroke-miterlimit="10" stroke-linecap="round"/>
<path d="M19.8945 14.2105H32.5261" stroke="#274247" stroke-miterlimit="10" stroke-linecap="round"/>
<path d="M31.2631 2.8421H12.9473V27.4737H31.2631V2.8421Z" fill="white" stroke="#274247" stroke-miterlimit="10" stroke-linecap="round"/>
<path d="M15.4736 10.4211H28.7368" stroke="#274247" stroke-miterlimit="10" stroke-linecap="round"/>
<path d="M15.4736 13.5789H28.7368" stroke="#274247" stroke-miterlimit="10" stroke-linecap="round"/>
<path d="M15.4736 16.7368H28.7368" stroke="#274247" stroke-miterlimit="10" stroke-linecap="round"/>
<path d="M27.4735 5.36842H9.15771V30H27.4735V5.36842Z" fill="white" stroke="#274247" stroke-miterlimit="10" stroke-linecap="round"/>
<path d="M11.6841 12.9474H24.3157" stroke="#274247" stroke-miterlimit="10" stroke-linecap="round"/>
<path d="M11.6841 16.1053H24.3157" stroke="#274247" stroke-miterlimit="10" stroke-linecap="round"/>
<path d="M11.6841 19.2632H24.3157" stroke="#274247" stroke-miterlimit="10" stroke-linecap="round"/>
<path d="M23.0526 7.89473H4.73682V32.5263H23.0526V7.89473Z" fill="white" stroke="#274247" stroke-miterlimit="10" stroke-linecap="round"/>
<path d="M7.26318 15.4737H20.5263" stroke="#274247" stroke-miterlimit="10" stroke-linecap="round"/>
<path d="M7.26318 18.6316H20.5263" stroke="#274247" stroke-miterlimit="10" stroke-linecap="round"/>
<path d="M7.26318 21.7895H20.5263" stroke="#274247" stroke-miterlimit="10" stroke-linecap="round"/>
<path d="M18.6317 11.0526H0.315918V35.6842H18.6317V11.0526Z" fill="white" stroke="#274247" stroke-miterlimit="10" stroke-linecap="round"/>
<path d="M2.84229 18.6316H16.1054" stroke="#274247" stroke-miterlimit="10" stroke-linecap="round"/>
<path d="M2.84229 21.7895H16.1054" stroke="#274247" stroke-miterlimit="10" stroke-linecap="round"/>
<path d="M2.84229 24.9474H16.1054" stroke="#274247" stroke-miterlimit="10" stroke-linecap="round"/>
</g>
<defs>
<clipPath id="clip0_2543_2763">
<rect width="36" height="36" fill="white"/>
</clipPath>
</defs>
</svg>
