<svg width="36" height="36" viewBox="0 0 36 36" fill="none" xmlns="http://www.w3.org/2000/svg">
<g clip-path="url(#clip0_8826_1452)">
<path d="M23.6842 35.6842H31.2632L31.2632 10.421H23.6842L23.6842 35.6842Z" fill="white" stroke="#274247" stroke-miterlimit="10"/>
<path d="M14.2106 35.6842H21.7896L21.7896 0.315784H14.2106L14.2106 35.6842Z" fill="white" stroke="#274247" stroke-miterlimit="10"/>
<path d="M23.3683 20.2105H31.5789V10.1052L23.3683 10.1052V20.2105Z" fill="#274247"/>
<path d="M4.10538 35.6842H11.6843L11.6843 23.6842H4.10538L4.10538 35.6842Z" fill="white" stroke="#274247" stroke-miterlimit="10"/>
<path d="M3.78947 30.9474H12L12 23.3684H3.78947L3.78947 30.9474Z" fill="#274247"/>
<path d="M0.315674 35.6842H35.6841" stroke="#274247" stroke-miterlimit="10" stroke-linecap="round"/>
<path d="M0.378906 22.3263L11.52 14.3495L23.7663 26.3369L35.6589 19.7053" stroke="#274247" stroke-miterlimit="10" stroke-linecap="round"/>
<path d="M13.8947 12L22.1052 12V-9.53674e-07L13.8947 -9.53674e-07L13.8947 12Z" fill="#274247"/>
</g>
<defs>
<clipPath id="clip0_8826_1452">
<rect width="36" height="36" fill="white"/>
</clipPath>
</defs>
</svg>
