<svg width="36" height="36" viewBox="0 0 36 36" fill="none" xmlns="http://www.w3.org/2000/svg">
<g clip-path="url(#clip0_8826_1499)">
<path d="M18 2.21051V10.421" stroke="#274247" stroke-miterlimit="10" stroke-linecap="round"/>
<path d="M29.9875 6.57471L23.6843 12.8779" stroke="#274247" stroke-miterlimit="10" stroke-linecap="round"/>
<path d="M12.3095 12.8715L6.0127 6.57471" stroke="#274247" stroke-miterlimit="10" stroke-linecap="round"/>
<path d="M22.5158 7.02313L21.8337 8.75366" stroke="#274247" stroke-miterlimit="10" stroke-linecap="round"/>
<path d="M23.5517 4.37048L22.9138 5.99996" stroke="#274247" stroke-miterlimit="10" stroke-linecap="round"/>
<path d="M8.08416 14.6842L6.32837 13.9958" stroke="#274247" stroke-miterlimit="10" stroke-linecap="round"/>
<path d="M29.438 13.5536L27.7959 14.2737" stroke="#274247" stroke-miterlimit="10" stroke-linecap="round"/>
<path d="M12.5874 6.18947L11.8169 4.42737" stroke="#274247" stroke-miterlimit="10" stroke-linecap="round"/>
<path d="M13.7748 8.90525L13.0295 7.2063" stroke="#274247" stroke-miterlimit="10" stroke-linecap="round"/>
<path d="M9.84644 18.7769C9.84644 14.2737 13.497 10.6232 18.0001 10.6232C22.5033 10.6232 26.1538 14.2737 26.1538 18.7769" fill="white"/>
<path d="M9.84644 18.7769C9.84644 14.2737 13.497 10.6232 18.0001 10.6232C22.5033 10.6232 26.1538 14.2737 26.1538 18.7769" stroke="#274247" stroke-miterlimit="10" stroke-linecap="round"/>
<path d="M36 18.9474H0V36H36V18.9474Z" fill="#274247"/>
<path d="M2.79785 16.2252L4.08627 14.3052L5.36838 16.2252H2.79785Z" fill="#274247"/>
<path d="M2.23584 17.8231L4.08637 15.0631L5.93689 17.8231H2.23584Z" fill="#274247"/>
<path d="M1.64844 19.4716L4.08633 15.8337L6.52423 19.4716H1.64844Z" fill="#274247"/>
<path d="M6.45459 18.1137L7.74301 16.1937L9.02512 18.1137H6.45459Z" fill="#274247"/>
<path d="M5.89258 19.7115L7.7431 16.9515L9.59363 19.7115H5.89258Z" fill="#274247"/>
<path d="M5.30518 21.36L7.74307 17.7221L10.181 21.36H5.30518Z" fill="#274247"/>
<path d="M12.7515 16.5663L14.0336 14.6463L15.322 16.5663H12.7515Z" fill="#274247"/>
<path d="M12.1831 18.1642L14.0336 15.4042L15.8842 18.1642H12.1831Z" fill="#274247"/>
<path d="M11.5957 19.8126L14.0336 16.1747L16.4715 19.8126H11.5957Z" fill="#274247"/>
<path d="M28.0105 16.0548L29.2989 14.1348L30.5873 16.0548H28.0105Z" fill="#274247"/>
<path d="M27.4485 17.6526L29.299 14.8926L31.1495 17.6526H27.4485Z" fill="#274247"/>
<path d="M26.8611 19.3011L29.299 15.6632L31.7369 19.3011H26.8611Z" fill="#274247"/>
<path d="M30.7642 16.1621L32.0526 14.2421L33.3347 16.1621H30.7642Z" fill="#274247"/>
<path d="M30.2021 17.76L32.0527 15L33.9032 17.76H30.2021Z" fill="#274247"/>
<path d="M29.6147 19.4085L32.0526 15.7706L34.4905 19.4085H29.6147Z" fill="#274247"/>
<path d="M22.699 17.861L23.9874 15.941L25.2758 17.861H22.699Z" fill="#274247"/>
<path d="M22.137 19.4589L23.9875 16.6989L25.838 19.4589H22.137Z" fill="#274247"/>
<path d="M21.5496 21.1074L23.9875 17.4695L26.4254 21.1074H21.5496Z" fill="#274247"/>
<path d="M20.3683 18.9474C21.2399 19.339 24.6252 22.3516 20.8104 27.3663C18.5178 30.3853 17.7725 32.5895 17.7725 36H3.22095C3.22095 33.0821 6.95358 28.6737 12.9473 26.5705C21.4167 23.6021 19.8315 19.939 18.9031 18.9474H20.3683Z" fill="white"/>
</g>
<defs>
<clipPath id="clip0_8826_1499">
<rect width="36" height="36" fill="white"/>
</clipPath>
</defs>
</svg>
