<svg width="36" height="36" viewBox="0 0 36 36" fill="none" xmlns="http://www.w3.org/2000/svg">
<g clip-path="url(#clip0_8826_1275)">
<path d="M33.9158 19.0737C33.36 16.9137 30.5306 15.9284 30.3158 15.8969L24.7327 21.0758L15.0127 10.6358L10.2253 15.4105L5.24845 10.6358C5.03372 10.6737 0.00634766 11.179 0.00634766 13.9642V25.2632L3.79582 30.3158H17.0527V36H32.2106L36 30.9474L33.9158 19.0737Z" fill="#274247"/>
<path d="M25.2627 15.7421C27.8788 15.7421 29.9996 13.6213 29.9996 11.0052C29.9996 8.38913 27.8788 6.26837 25.2627 6.26837C22.6466 6.26837 20.5259 8.38913 20.5259 11.0052C20.5259 13.6213 22.6466 15.7421 25.2627 15.7421Z" fill="white" stroke="#274247" stroke-miterlimit="10"/>
<path d="M10.1053 10.6896C12.7213 10.6896 14.8421 8.56887 14.8421 5.95279C14.8421 3.3367 12.7213 1.21594 10.1053 1.21594C7.48916 1.21594 5.36841 3.3367 5.36841 5.95279C5.36841 8.56887 7.48916 10.6896 10.1053 10.6896Z" fill="white" stroke="#274247" stroke-miterlimit="10"/>
<path d="M14.8422 26.8421C16.9351 26.8421 18.6317 25.1455 18.6317 23.0527C18.6317 20.9598 16.9351 19.2632 14.8422 19.2632C12.7493 19.2632 11.0527 20.9598 11.0527 23.0527C11.0527 25.1455 12.7493 26.8421 14.8422 26.8421Z" fill="white"/>
<path d="M23.6842 35.6842V29.5263C23.6842 27.2716 19.3327 26.5389 19.1495 26.5074L19.0295 26.4884L18.9474 26.5768L14.8485 30.6947L10.7432 26.5768L10.6611 26.4884L10.5411 26.5074C10.3579 26.5389 6.00635 27.2652 6.00635 29.5263V35.6842H23.6906H23.6842Z" fill="white" stroke="#274247" stroke-miterlimit="10"/>
<path d="M9.78955 35.6842V33.7895" stroke="#274247" stroke-miterlimit="10" stroke-linecap="round"/>
<path d="M20.5264 35.6842V33.7895" stroke="#274247" stroke-miterlimit="10" stroke-linecap="round"/>
</g>
<defs>
<clipPath id="clip0_8826_1275">
<rect width="36" height="36" fill="white"/>
</clipPath>
</defs>
</svg>
