<svg width="36" height="36" viewBox="0 0 36 36" fill="none" xmlns="http://www.w3.org/2000/svg">
<g clip-path="url(#clip0_8826_1585)">
<path d="M0.315674 26.8421H35.6841" stroke="#274247" stroke-miterlimit="10" stroke-linecap="round"/>
<path d="M28.7369 0.315796H7.26317C6.91436 0.315796 6.63159 0.598563 6.63159 0.947375V35.0526C6.63159 35.4014 6.91436 35.6842 7.26317 35.6842H28.7369C29.0857 35.6842 29.3684 35.4014 29.3684 35.0526V0.947375C29.3684 0.598563 29.0857 0.315796 28.7369 0.315796Z" fill="white" stroke="#274247" stroke-miterlimit="10"/>
<path d="M26.2106 3.47369H9.78955V9.78948H26.2106V3.47369Z" fill="#274247" stroke="#274247" stroke-miterlimit="10"/>
<path d="M11.6843 18C12.7307 18 13.579 17.1517 13.579 16.1053C13.579 15.0588 12.7307 14.2105 11.6843 14.2105C10.6379 14.2105 9.78955 15.0588 9.78955 16.1053C9.78955 17.1517 10.6379 18 11.6843 18Z" fill="#274247" stroke="#274247" stroke-miterlimit="10"/>
<path d="M24.3159 18C25.3623 18 26.2106 17.1517 26.2106 16.1053C26.2106 15.0588 25.3623 14.2105 24.3159 14.2105C23.2694 14.2105 22.4211 15.0588 22.4211 16.1053C22.4211 17.1517 23.2694 18 24.3159 18Z" fill="#274247" stroke="#274247" stroke-miterlimit="10"/>
<path d="M18 18C19.0464 18 19.8947 17.1517 19.8947 16.1053C19.8947 15.0588 19.0464 14.2105 18 14.2105C16.9535 14.2105 16.1052 15.0588 16.1052 16.1053C16.1052 17.1517 16.9535 18 18 18Z" fill="#274247" stroke="#274247" stroke-miterlimit="10"/>
<path d="M11.6843 24.9474C12.7307 24.9474 13.579 24.0991 13.579 23.0526C13.579 22.0062 12.7307 21.1579 11.6843 21.1579C10.6379 21.1579 9.78955 22.0062 9.78955 23.0526C9.78955 24.0991 10.6379 24.9474 11.6843 24.9474Z" fill="#274247" stroke="#274247" stroke-miterlimit="10"/>
<path d="M24.3159 24.9474C25.3623 24.9474 26.2106 24.0991 26.2106 23.0526C26.2106 22.0062 25.3623 21.1579 24.3159 21.1579C23.2694 21.1579 22.4211 22.0062 22.4211 23.0526C22.4211 24.0991 23.2694 24.9474 24.3159 24.9474Z" fill="#274247" stroke="#274247" stroke-miterlimit="10"/>
<path d="M18 24.9474C19.0464 24.9474 19.8947 24.0991 19.8947 23.0526C19.8947 22.0062 19.0464 21.1579 18 21.1579C16.9535 21.1579 16.1052 22.0062 16.1052 23.0526C16.1052 24.0991 16.9535 24.9474 18 24.9474Z" fill="#274247" stroke="#274247" stroke-miterlimit="10"/>
<path d="M24.3159 31.8947C25.3623 31.8947 26.2106 31.0464 26.2106 30C26.2106 28.9536 25.3623 28.1053 24.3159 28.1053C23.2694 28.1053 22.4211 28.9536 22.4211 30C22.4211 31.0464 23.2694 31.8947 24.3159 31.8947Z" fill="#274247" stroke="#274247" stroke-miterlimit="10"/>
<path d="M18.0001 28.1053H11.6843C10.6379 28.1053 9.78955 28.9536 9.78955 30C9.78955 31.0464 10.6379 31.8947 11.6843 31.8947H18.0001C19.0465 31.8947 19.8948 31.0464 19.8948 30C19.8948 28.9536 19.0465 28.1053 18.0001 28.1053Z" fill="#274247" stroke="#274247" stroke-miterlimit="10"/>
</g>
<defs>
<clipPath id="clip0_8826_1585">
<rect width="36" height="36" fill="white"/>
</clipPath>
</defs>
</svg>
