<svg width="36" height="36" viewBox="0 0 36 36" fill="none" xmlns="http://www.w3.org/2000/svg">
<path d="M35.7705 20.0547C35.4786 20.551 34.924 20.8332 34.2136 20.9597C34.632 20.1423 34.9532 19.5293 34.9532 19.5293C34.9532 19.5196 34.9629 19.5196 34.9629 19.5098C35.0991 19.2763 35.3813 19.1984 35.6051 19.3249C35.8386 19.4417 35.9262 19.7239 35.8289 19.9574C35.8095 19.9964 35.79 20.0255 35.7705 20.0547Z" fill="#274247"/>
<path d="M25.0668 21.1928C23.325 20.3075 21.7584 19.2568 20.6296 18.2353L21.7681 16.0171C22.9163 17.0192 24.4149 18.0115 26.1372 18.8774C28.6088 20.1324 31.382 21.0177 33.3671 21.0177C33.659 21.0177 33.9412 20.9983 34.2039 20.9593C33.9412 21.4652 33.6298 22.0684 33.3476 22.6424C33.2795 22.7884 33.1141 22.9051 32.8611 22.9829C31.4209 23.4596 27.9958 22.6813 25.0668 21.1928Z" fill="white"/>
<path d="M20.4546 12.1159C20.6394 11.7948 21.2038 11.6197 22.0309 11.6197C23.5392 11.6197 25.9524 12.2034 28.8132 13.653C31.9562 15.2486 34.4862 17.3792 34.9532 18.8385C35.0505 19.1206 35.0505 19.3444 34.963 19.5098C34.963 19.5098 34.9532 19.5098 34.9532 19.5292C34.4472 20.4243 31.0415 20.2783 26.5751 18.0115C24.7263 17.0776 23.0916 15.9588 21.9628 14.8789C21.1746 14.1492 20.6297 13.4293 20.4351 12.8261C20.3572 12.6218 20.3475 12.4369 20.3767 12.2813C20.3864 12.2618 20.3864 12.2424 20.3962 12.2229L20.4448 12.1353L20.4546 12.1159Z" fill="#274247"/>
<path d="M22.2352 27.2253C22.2352 27.5854 22.1087 27.9259 21.8751 28.2373C21.7 27.9843 21.4567 27.7508 21.1648 27.5367C21.2329 27.4297 21.2621 27.3226 21.2621 27.2253V25.357C21.8751 24.8705 22.2352 24.3159 22.2352 23.6639V27.2253Z" fill="#274247"/>
<path d="M21.2622 23.664C21.2622 23.3916 21.486 23.1775 21.7487 23.1775C22.0115 23.1775 22.2353 23.3916 22.2353 23.664C22.2353 24.316 21.8752 24.8706 21.2622 25.3572V23.664Z" fill="#274247"/>
<path d="M22.0503 15.4625C22.1573 15.268 22.1086 15.0345 21.9529 14.8885H21.9627C23.0914 15.9587 24.7262 17.0775 26.575 18.0115C31.0414 20.2783 34.4471 20.4242 34.9531 19.5292C34.9531 19.5292 34.632 20.1421 34.2136 20.9593H34.2039C33.9411 20.9982 33.6589 21.0177 33.367 21.0177C31.382 21.0177 28.6087 20.1324 26.1371 18.8774C24.4148 18.0115 22.9163 17.0192 21.7681 16.0171L22.0503 15.4625Z" fill="#274247"/>
<path d="M21.9532 14.8886C22.1089 15.0345 22.1576 15.2681 22.0505 15.4627L21.7683 16.0173C21.4959 15.7935 21.2526 15.56 21.0288 15.3362L21.1942 15.0248C21.311 14.7816 21.6029 14.6842 21.8462 14.8107C21.8851 14.8302 21.924 14.8594 21.9532 14.8886Z" fill="#274247"/>
<path d="M21.7487 28.8105C22.0212 28.8105 22.2353 29.0343 22.2353 29.297C22.2353 29.9489 21.8752 30.5133 21.2622 30.9901V29.297C21.2622 29.0343 21.486 28.8105 21.7487 28.8105Z" fill="#274247"/>
<path d="M22.2354 29.2971C22.2354 29.0344 22.0213 28.8106 21.7488 28.8106C21.4764 28.8106 21.2623 29.0344 21.2623 29.2971C21.2623 29.1706 21.2234 29.0441 21.1553 28.9176C21.4569 28.7133 21.7002 28.4797 21.8753 28.2365C22.1089 28.5576 22.2354 28.9176 22.2354 29.2971Z" fill="#274247"/>
<path d="M21.0287 15.3361C21.2525 15.5599 21.4957 15.7934 21.7682 16.0172L20.6297 18.2358C20.3572 18.0023 20.114 17.759 19.8999 17.5158L21.0287 15.3361Z" fill="#274247"/>
<path d="M21.2622 25.3568V27.225C21.2622 27.3223 21.233 27.4294 21.1649 27.5364C20.581 27.1083 19.7929 26.758 18.8782 26.4855C19.8415 26.1936 20.6686 25.8141 21.2622 25.3568Z" fill="white"/>
<path d="M12.9913 21.0177C17.7301 21.0177 21.2623 22.4189 21.2623 23.6644C21.2623 24.5499 19.4914 25.5035 16.7765 25.9901C15.5699 25.7857 14.266 25.6787 12.9913 25.6787C11.7166 25.6787 10.4127 25.7857 9.20605 25.9901C8.60275 25.883 8.0481 25.7565 7.55184 25.6106C7.52265 25.5911 7.49345 25.5814 7.46426 25.5814C5.7614 25.0559 4.72021 24.3359 4.72021 23.6644C4.72021 22.4189 8.26218 21.0177 12.9913 21.0177Z" fill="#274247"/>
<path d="M21.8752 28.2366C21.7 28.4799 21.4568 28.7134 21.1551 28.9177C21.0286 28.6745 20.7854 28.4409 20.4351 28.2269C20.8048 28.0031 21.0481 27.7598 21.1649 27.536C21.4568 27.7501 21.7 27.9836 21.8752 28.2366Z" fill="#274247"/>
<path d="M19.5786 11.6878C20.6101 9.74203 25.3197 10.7927 29.2509 12.7871C32.715 14.5383 35.3131 16.7954 35.8775 18.5369C36.0526 19.0719 36.0429 19.5486 35.8288 19.9573C35.9261 19.7238 35.8386 19.4416 35.605 19.3249C35.3812 19.1984 35.099 19.2762 34.9628 19.5097C35.0504 19.3443 35.0504 19.1206 34.9531 18.8384C34.486 17.3791 31.956 15.2485 28.813 13.653C25.9522 12.2034 23.539 11.6197 22.0307 11.6197C21.2036 11.6197 20.6393 11.7948 20.4544 12.1159C20.5614 11.8726 20.4641 11.6002 20.2306 11.4738C19.997 11.357 19.7051 11.4446 19.5786 11.6878Z" fill="#274247"/>
<path d="M20.6296 18.2354L20.4739 18.537C20.3863 18.7025 20.2209 18.7998 20.036 18.7998C19.9679 18.7998 19.8901 18.79 19.822 18.7511C19.783 18.7317 19.7441 18.7025 19.7052 18.6733C19.5495 18.5273 19.5008 18.2938 19.6079 18.0894L19.8998 17.5153C20.1139 17.7586 20.3571 18.0019 20.6296 18.2354Z" fill="#274247"/>
<path d="M21.0286 15.3364L19.8998 17.5161C19.3743 16.9517 19.0143 16.4165 18.8586 15.9397C18.7613 15.6478 18.7613 15.4045 18.8586 15.2294L19.7052 13.5849C19.9777 14.1395 20.435 14.7331 21.0383 15.3364H21.0286Z" fill="white"/>
<path d="M20.4449 12.1353L20.3962 12.2229C20.3962 12.2229 20.4157 12.1742 20.4254 12.1548C20.4254 12.145 20.4254 12.145 20.4449 12.1353Z" fill="#274247"/>
<path d="M20.4351 12.8261C20.6297 13.4294 21.1746 14.1495 21.9628 14.8793H21.9531C21.9531 14.8793 21.885 14.8307 21.846 14.8112C21.6028 14.6847 21.3108 14.782 21.1941 15.0253L21.0287 15.3366C20.4254 14.7333 19.968 14.1398 19.6956 13.5851L20.3767 12.2812C20.3475 12.4369 20.3572 12.6218 20.4351 12.8261Z" fill="#274247"/>
<path d="M20.3766 12.2814L19.6954 13.5853C19.6176 13.4296 19.5592 13.274 19.5106 13.128C19.3451 12.622 19.3549 12.1744 19.53 11.7852L19.5787 11.6879C19.7052 11.4446 19.9971 11.357 20.2306 11.4738C20.4642 11.6003 20.5615 11.8727 20.4544 12.116C20.4544 12.116 20.4447 12.1257 20.4447 12.1355C20.435 12.1452 20.4252 12.1452 20.4252 12.1549C20.4155 12.1744 20.4058 12.1939 20.396 12.223C20.396 12.2425 20.396 12.262 20.3766 12.2814Z" fill="#274247"/>
<path d="M20.6297 18.2353C21.7584 19.2568 23.3251 20.3075 25.0668 21.1928C27.9958 22.6813 31.421 23.4596 32.8611 22.9829C33.1141 22.9051 33.2795 22.7883 33.3476 22.6424C33.6298 22.0684 33.9412 21.4652 34.2039 20.9593H34.2137C34.924 20.8328 35.4787 20.5507 35.7706 20.0545C35.5954 20.3853 34.8656 21.7765 34.2234 23.0705C34.0288 23.4596 33.6785 23.7418 33.1725 23.9071C32.7735 24.0433 32.3065 24.1017 31.781 24.1017C29.7181 24.1017 26.8378 23.1775 24.629 22.0587C22.6245 21.0469 20.8924 19.8502 19.6858 18.6925L19.7053 18.6731C19.7053 18.6731 19.7831 18.7314 19.822 18.7509C19.8901 18.7898 19.968 18.7995 20.0361 18.7995C20.221 18.7995 20.3864 18.7022 20.474 18.5369L20.6297 18.2353Z" fill="#274247"/>
<path d="M19.5789 11.6878L19.5303 11.7851C19.5303 11.7851 19.5497 11.7365 19.5595 11.7073C19.5595 11.6975 19.5692 11.6975 19.5789 11.6878Z" fill="#274247"/>
<path d="M16.7764 25.9895C19.4912 25.503 21.2622 24.5494 21.2622 23.6639V25.357C20.6686 25.8144 19.8415 26.1939 18.8782 26.4858C18.236 26.2717 17.5256 26.116 16.7764 25.9895Z" fill="#274247"/>
<path d="M21.1649 27.5362C21.0482 27.76 20.8049 28.0032 20.4351 28.227C19.6664 27.7113 18.3917 27.2637 16.7861 26.9718C17.5257 26.8453 18.236 26.6896 18.8782 26.4853C19.7929 26.7577 20.5811 27.108 21.1649 27.5362Z" fill="white"/>
<path d="M19.6079 18.0893C19.5009 18.2936 19.5495 18.5271 19.7052 18.673L19.6858 18.6925C18.7905 17.8363 18.1775 16.9899 17.9342 16.2408C17.7494 15.696 17.7688 15.2096 17.9829 14.7912L19.5301 11.785C19.3549 12.1742 19.3452 12.6217 19.5106 13.1276C19.5593 13.2735 19.6176 13.4292 19.6955 13.5849L18.8489 15.229C18.7613 15.4041 18.7613 15.6474 18.8489 15.9392C19.0046 16.4159 19.3646 16.951 19.8901 17.5153L19.5982 18.0893H19.6079Z" fill="#274247"/>
<path d="M15.9783 1.76475C15.9783 2.0664 15.9102 2.38751 15.774 2.72808L14.9177 1.38525C14.7717 1.16144 14.8399 0.859794 15.0637 0.713834C15.2875 0.567874 15.5891 0.635989 15.7351 0.869524C15.9005 1.14198 15.9783 1.44363 15.9783 1.76475Z" fill="#274247"/>
<path d="M16.7763 25.9892C15.6572 26.1935 14.3728 26.3103 12.991 26.3103C11.6093 26.3103 10.3248 26.1935 9.20581 25.9892C10.4124 25.7848 11.7163 25.6778 12.991 25.6778C14.2658 25.6778 15.5697 25.7848 16.7763 25.9892Z" fill="#274247"/>
<path d="M12.991 26.6507C14.3825 26.6507 15.6572 26.7675 16.786 26.9718C15.5794 27.1762 14.2755 27.2832 12.991 27.2832C11.7066 27.2832 10.4124 27.1762 9.19604 26.9718C10.3151 26.7675 11.5995 26.6507 12.991 26.6507Z" fill="#274247"/>
<path d="M12.9913 26.6508C11.5998 26.6508 10.3154 26.7676 9.19635 26.9719C8.72928 26.8941 8.28166 26.8065 7.85352 26.6897V26.2713C8.28166 26.1546 8.73901 26.067 9.20608 25.9891C10.3251 26.1935 11.6096 26.3102 12.9913 26.3102C14.3731 26.3102 15.6575 26.1935 16.7765 25.9891C17.5258 26.1156 18.2361 26.2713 18.8784 26.4854C18.2361 26.6897 17.5258 26.8454 16.7863 26.9719C15.6575 26.7676 14.3828 26.6508 12.9913 26.6508Z" fill="#274247"/>
<path d="M12.9913 29.7255C10.9381 29.7255 9.19635 29.4919 7.85352 29.1416V27.2733C8.2622 27.1566 8.71954 27.0593 9.19635 26.9717C10.4127 27.176 11.7166 27.2831 12.9913 27.2831C14.266 27.2831 15.5797 27.176 16.7863 26.9717C18.3918 27.2636 19.6665 27.7112 20.4353 28.2269C19.18 29.0151 16.5722 29.7255 12.9913 29.7255Z" fill="white"/>
<path d="M9.82868 8.74969C12.5727 6.99851 15.093 4.62468 15.7741 2.72757L16.6401 4.0896C17.1948 4.96519 15.3168 7.85464 11.0158 10.5787C9.37134 11.6197 7.66847 12.4174 6.22833 12.865L5.08984 11.0749C6.54944 10.5982 8.18419 9.8004 9.82868 8.74969Z" fill="white"/>
<path d="M9.19635 26.9718C8.71954 27.0593 8.2622 27.1566 7.85352 27.2734V26.6896C8.28166 26.8063 8.72928 26.8939 9.19635 26.9718Z" fill="white"/>
<path d="M9.20597 25.9892C8.7389 26.0671 8.28156 26.1546 7.85341 26.2714V26.0573C7.85341 25.8627 7.72691 25.6876 7.55176 25.6097C8.04802 25.7557 8.60267 25.8822 9.20597 25.9892Z" fill="#274247"/>
<path d="M7.85352 34.4441V32.3325C9.41042 32.7218 11.2203 32.9164 12.9913 32.9164C16.2413 32.9164 19.6373 32.2547 21.2624 30.9897V32.5174C21.2624 33.5683 18.1194 35.0279 12.9913 35.0279C10.9381 35.0279 9.19635 34.7944 7.85352 34.4441Z" fill="white"/>
<path d="M7.46411 31.2138C8.90425 31.6517 10.8212 31.9436 12.9911 31.9436C17.73 31.9436 21.2622 30.5521 21.2622 29.2969V30.99C19.6372 32.255 16.2412 32.9167 12.9911 32.9167C11.2201 32.9167 9.41024 32.7221 7.85334 32.3328V31.7003C7.85334 31.4571 7.67819 31.2722 7.46411 31.2235V31.2138Z" fill="#274247"/>
<path d="M7.85344 34.4439C7.50313 34.3466 7.17229 34.2493 6.88037 34.1423V32.0502C7.18202 32.1572 7.51286 32.2545 7.85344 32.3324V34.4439Z" fill="#274247"/>
<path d="M7.85344 31.7V32.3325C7.51286 32.2547 7.18202 32.1574 6.88037 32.0503V31.7C6.88037 31.4276 7.09445 31.2135 7.3669 31.2135C7.3961 31.2135 7.43502 31.2135 7.46421 31.2232C7.67829 31.2719 7.85344 31.4568 7.85344 31.7Z" fill="#274247"/>
<path d="M7.85344 27.2733V29.1416C7.50313 29.054 7.17229 28.947 6.88037 28.8497V27.5847C7.18202 27.4679 7.50313 27.3706 7.85344 27.2733Z" fill="#274247"/>
<path d="M7.85351 26.2713V26.6897C7.60051 26.6313 7.34751 26.5632 7.10425 26.4853C7.34751 26.3978 7.60051 26.3297 7.85351 26.2713Z" fill="#274247"/>
<path d="M7.85344 26.0573V26.2714C7.60044 26.3298 7.34744 26.3979 7.10418 26.4855C7.02633 26.466 6.94849 26.4368 6.88037 26.4076V26.0573C6.88037 25.7946 7.09445 25.5708 7.3669 25.5708C7.3961 25.5708 7.43502 25.5708 7.46421 25.5805C7.4934 25.5805 7.5226 25.5902 7.55179 25.6097C7.72694 25.6875 7.85344 25.8627 7.85344 26.0573Z" fill="#274247"/>
<path d="M7.85344 34.6284C7.85344 34.8911 7.62963 35.1149 7.3669 35.1149C7.10418 35.1149 6.88037 34.8911 6.88037 34.6284V34.1419C7.17229 34.2489 7.50313 34.3462 7.85344 34.4435V34.6284Z" fill="#274247"/>
<path d="M12.9911 30.6983C11.0158 30.6983 8.98206 30.4648 7.31812 29.9977H7.36677C7.6295 29.9977 7.8533 29.7837 7.8533 29.5112V29.1414C9.19613 29.4917 10.9379 29.7253 12.9911 29.7253C16.572 29.7253 19.1798 29.0149 20.435 28.2267C20.7854 28.4408 21.0286 28.6744 21.1551 28.9176C19.4912 30.0853 16.173 30.6983 12.9911 30.6983Z" fill="#274247"/>
<path d="M7.12354 29.939C7.19165 29.9585 7.25003 29.9779 7.31815 29.9974C7.25003 29.9877 7.18192 29.9682 7.12354 29.939Z" fill="#274247"/>
<path d="M6.88037 26.4075C6.94849 26.4367 7.02633 26.4659 7.10418 26.4853C7.02633 26.495 6.94849 26.5242 6.88037 26.5534V26.4075Z" fill="#274247"/>
<path d="M6.88037 27.5848V26.5534C6.94849 26.5242 7.02633 26.495 7.10418 26.4853C7.34744 26.5631 7.60044 26.6312 7.85344 26.6896V27.2734C7.50313 27.3708 7.18202 27.4681 6.88037 27.5848Z" fill="#274247"/>
<path d="M7.85344 29.5111C7.85344 29.7835 7.62963 29.9976 7.3669 29.9976H7.31825C7.25014 29.9781 7.19175 29.9587 7.12364 29.9392C7.11391 29.9295 7.10418 29.9197 7.09445 29.9197C6.96795 29.8322 6.88037 29.6862 6.88037 29.5111V28.8494C7.17229 28.9467 7.50313 29.0537 7.85344 29.1413V29.5111Z" fill="#274247"/>
<path d="M7.3183 29.9976C8.98224 30.4647 11.016 30.6982 12.9913 30.6982C16.1732 30.6982 19.4914 30.0852 21.1553 28.9175C21.2234 29.044 21.2623 29.1705 21.2623 29.297C21.2623 30.5522 17.7301 31.9437 12.9913 31.9437C10.8213 31.9437 8.9044 31.6518 7.46426 31.2139C5.7614 30.6982 4.72021 29.9781 4.72021 29.297C4.72021 29.1705 4.75914 29.044 4.82725 28.9175C5.41109 29.3262 6.18954 29.6667 7.0945 29.9197C7.10423 29.9197 7.11396 29.9295 7.12369 29.9392C7.18207 29.9684 7.25019 29.9879 7.3183 29.9976Z" fill="white"/>
<path d="M6.88042 32.0504V34.1425C5.48894 33.6559 4.72021 33.0332 4.72021 32.5174V30.9897C5.26513 31.4081 6.01439 31.7682 6.88042 32.0504Z" fill="white"/>
<path d="M6.88032 29.5112C6.88032 29.6863 6.96789 29.8323 7.09439 29.9199C6.18944 29.6669 5.41099 29.3263 4.82715 28.9176C4.95365 28.6744 5.19691 28.4408 5.54722 28.2267C5.88779 28.4408 6.3354 28.6549 6.88032 28.8495V29.5112Z" fill="#274247"/>
<path d="M6.88022 27.5846V28.8496C6.3353 28.655 5.88769 28.4409 5.54712 28.2268C5.89742 27.9933 6.34503 27.7792 6.88022 27.5846Z" fill="white"/>
<path d="M4.81738 27.5362C5.35257 27.1469 6.06291 26.8161 6.88028 26.5534V27.5848C6.3451 27.7794 5.89749 27.9935 5.54718 28.227C5.17742 27.9935 4.93415 27.76 4.81738 27.5362Z" fill="white"/>
<path d="M6.88042 26.4077V26.5536C6.06305 26.8164 5.35271 27.1472 4.81752 27.5364C4.74941 27.4294 4.72021 27.3223 4.72021 27.225V25.3568C5.26513 25.7752 6.01439 26.1352 6.88042 26.4077Z" fill="white"/>
<path d="M11.5414 11.4058C9.64391 12.6025 7.74643 13.4781 6.14087 13.9158V13.8964C6.14087 13.8964 6.21871 13.8672 6.25764 13.838C6.48144 13.6921 6.54956 13.3905 6.41333 13.1667L6.22844 12.8651C7.66858 12.4176 9.37145 11.6199 11.0159 10.5789C15.3169 7.85481 17.1949 4.96536 16.6403 4.08977L15.7742 2.72774C15.9105 2.38723 15.9786 2.06618 15.9786 1.76459C15.9786 1.44354 15.9007 1.14194 15.7353 0.869537L17.4576 3.56441C18.6545 5.46153 15.3072 9.02227 11.5414 11.4058Z" fill="#274247"/>
<path d="M6.22829 12.8653C5.87798 12.9821 5.54714 13.0697 5.23576 13.1378L4.12646 11.3571C4.43785 11.289 4.75896 11.1917 5.0898 11.0749L6.22829 12.8653Z" fill="#274247"/>
<path d="M6.41301 13.1666C6.54924 13.3904 6.48112 13.6921 6.25732 13.838C6.21839 13.8672 6.17947 13.8867 6.13082 13.8964C6.09189 13.9061 6.04324 13.9159 5.99459 13.9159C5.8389 13.9159 5.68321 13.8283 5.5859 13.6823L5.2356 13.1374C5.54698 13.0693 5.87782 12.9817 6.22812 12.865L6.41301 13.1666Z" fill="#274247"/>
<path d="M5.54707 28.2269C5.19677 28.4409 4.9535 28.6745 4.827 28.9177C4.52535 28.7134 4.28209 28.4799 4.10693 28.2366C4.28209 27.9836 4.52535 27.7501 4.81727 27.536C4.93404 27.7598 5.17731 27.9933 5.54707 28.2269Z" fill="#274247"/>
<path d="M22.2353 23.6646C22.2353 23.3921 22.0213 23.1781 21.7488 23.1781C21.4763 23.1781 21.2623 23.3921 21.2623 23.6646C21.2623 22.4191 17.73 21.0179 12.9912 21.0179C8.25237 21.0179 4.72014 22.4191 4.72014 23.6646C4.72014 23.3921 4.50606 23.1781 4.2336 23.1781C3.96114 23.1781 3.74707 23.3921 3.74707 23.6646C3.74707 21.3098 8.51509 20.0448 12.9912 20.0448C17.4673 20.0448 22.2353 21.3098 22.2353 23.6646Z" fill="#274247"/>
<path d="M4.72021 23.6639C4.72021 24.3353 5.7614 25.0554 7.46426 25.5809C7.43507 25.5711 7.39615 25.5711 7.36696 25.5711C7.0945 25.5711 6.88042 25.7949 6.88042 26.0577V26.408C6.01439 26.1355 5.26513 25.7755 4.72021 25.357V23.6639Z" fill="#274247"/>
<path d="M4.72021 29.2969C4.72021 29.978 5.7614 30.6981 7.46426 31.2138H7.36696C7.0945 31.2138 6.88042 31.4279 6.88042 31.7003V32.0507C6.01439 31.7685 5.26513 31.4084 4.72021 30.99V29.2969Z" fill="#274247"/>
<path d="M9.31294 7.93246C13.6042 5.18894 15.4627 2.2703 14.9178 1.38498L15.7741 2.72755C15.093 4.62467 12.5727 6.99849 9.82867 8.74968C8.18419 9.80039 6.54944 10.5981 5.08984 11.0749L4.74926 10.5398C4.63249 10.3549 4.40869 10.2771 4.20435 10.3355C5.7126 9.9074 7.54196 9.061 9.31294 7.93246Z" fill="#274247"/>
<path d="M4.72014 27.2253C4.72014 27.3226 4.74933 27.4297 4.81744 27.5367C4.52552 27.7508 4.28226 27.9843 4.1071 28.2373C3.87357 27.9259 3.74707 27.5854 3.74707 27.2253V23.7126C3.76653 24.3353 4.12657 24.89 4.72014 25.357V27.2253Z" fill="#274247"/>
<path d="M7.85341 34.4434C9.19624 34.7936 10.938 35.0271 12.9912 35.0271C18.1193 35.0271 21.2623 33.5678 21.2623 32.5171V30.9897C21.8753 30.513 22.2353 29.9487 22.2353 29.2969V32.5171C22.2353 34.7839 17.477 36 12.9912 36C8.50536 36 3.74707 34.7839 3.74707 32.5171V29.3455C3.76653 29.9779 4.12657 30.5227 4.72014 30.9897V32.5171C4.72014 33.0327 5.48886 33.6554 6.88034 34.1418V34.6283C6.88034 34.8909 7.09442 35.1147 7.36688 35.1147C7.63933 35.1147 7.85341 34.8909 7.85341 34.6283V34.4434Z" fill="#274247"/>
<path d="M4.20432 10.3355C4.40867 10.2771 4.63247 10.355 4.74924 10.5398L5.08981 11.075C4.75897 11.1918 4.43786 11.2891 4.12648 11.3572L3.93187 11.0556C3.78591 10.8318 3.85402 10.5301 4.07783 10.3842C4.11675 10.3647 4.15567 10.3452 4.20432 10.3355Z" fill="#274247"/>
<path d="M3.74707 23.664C3.74707 23.3916 3.97088 23.1775 4.2336 23.1775C4.49633 23.1775 4.72014 23.3916 4.72014 23.664V25.3572C4.12657 24.8901 3.76653 24.3354 3.74707 23.7127V23.664Z" fill="#274247"/>
<path d="M4.2336 28.8105C4.50606 28.8105 4.72014 29.0343 4.72014 29.297V30.9901C4.12657 30.523 3.76653 29.9781 3.74707 29.3456V29.297C3.74707 29.0343 3.97088 28.8105 4.2336 28.8105Z" fill="#274247"/>
<path d="M4.1071 28.2365C4.28226 28.4797 4.52552 28.7133 4.82717 28.9176C4.75906 29.0441 4.72014 29.1706 4.72014 29.2971C4.72014 29.0344 4.50606 28.8106 4.2336 28.8106C3.96114 28.8106 3.74707 29.0344 3.74707 29.2971C3.74707 28.9176 3.87357 28.5576 4.1071 28.2365Z" fill="#274247"/>
<path d="M4.20437 10.3357C3.16319 10.6275 2.2777 10.7248 1.66467 10.5886C1.37275 10.5205 1.1684 10.4038 1.06137 10.2384C0.516448 9.35306 2.37501 6.43442 6.66623 3.6909C9.29351 2.01754 12.0376 0.976562 13.6918 0.976562C13.9156 0.976562 14.1296 0.99602 14.3145 1.03494C14.6064 1.10304 14.8108 1.21978 14.9178 1.38517C15.4627 2.27049 13.6042 5.18913 9.31297 7.93265C7.54199 9.06119 5.71262 9.9076 4.20437 10.3357Z" fill="white"/>
<path d="M5.99472 13.9163C5.99472 13.9163 6.09202 13.9066 6.13095 13.8968V13.9163C5.33303 14.1401 4.5935 14.2569 3.97074 14.2569C3.66909 14.2569 3.3869 14.2277 3.1339 14.1693C2.57926 14.0525 2.1803 13.7898 1.9273 13.4006L0.243896 10.7635C0.496894 11.1528 0.905582 11.4155 1.4505 11.542C1.60619 11.5712 1.76188 11.5907 1.93703 11.6004L2.75441 12.8751C2.86144 13.0405 3.05606 13.1573 3.35771 13.2254C3.83451 13.3324 4.48647 13.2935 5.23573 13.1378L5.58603 13.6827C5.68334 13.8287 5.83903 13.9163 5.99472 13.9163Z" fill="#274247"/>
<path d="M4.12641 11.357L5.23571 13.1377C4.48645 13.2934 3.83449 13.3323 3.35769 13.2253C3.05604 13.1572 2.86142 13.0404 2.75439 12.875L1.93701 11.6003C2.04405 11.6197 2.16082 11.6197 2.27758 11.6197C2.8225 11.6197 3.44526 11.5321 4.12641 11.357Z" fill="white"/>
<path d="M4.07803 10.3842C3.85422 10.5301 3.78611 10.8318 3.93207 11.0556L4.12668 11.3572C3.44554 11.5324 2.82277 11.62 2.27786 11.62C2.16109 11.62 2.04432 11.62 1.93728 11.6005L1.06152 10.2382C1.16856 10.4036 1.3729 10.5204 1.66482 10.5885C2.27786 10.7248 3.16335 10.6274 4.20453 10.3355C4.15587 10.3453 4.11695 10.3647 4.07803 10.3842Z" fill="#274247"/>
<path d="M1.06133 10.2383L1.93709 11.6006C1.76194 11.5909 1.60624 11.5714 1.45055 11.5422C0.905637 11.4157 0.496949 11.153 0.243952 10.7637C0.243952 10.7637 0.205029 10.6762 0.185568 10.6372C0.127184 10.4232 0.205029 10.1994 0.389912 10.0826C0.613717 9.94637 0.915368 10.0048 1.06133 10.2383Z" fill="#274247"/>
<path d="M6.15041 2.87352C9.43937 0.772097 12.7283 -0.317528 14.5285 0.0813524C15.0832 0.207827 15.4918 0.470504 15.7351 0.869385C15.5892 0.635894 15.2875 0.567792 15.0637 0.713724C14.8399 0.859656 14.7718 1.16125 14.9177 1.38501C14.8107 1.21962 14.6064 1.10288 14.3144 1.03477C14.1296 0.995859 13.9155 0.976401 13.6917 0.976401C12.0375 0.976401 9.29341 2.01738 6.66613 3.69073C2.37491 6.43425 0.516353 9.35289 1.06127 10.2382C0.91531 10.0047 0.61366 9.94635 0.389855 10.0826C0.204972 10.1993 0.127127 10.4231 0.185511 10.6371C-0.826478 8.71079 2.46249 5.22788 6.15041 2.87352Z" fill="#274247"/>
</svg>
