<svg width="36" height="36" viewBox="0 0 36 36" fill="none" xmlns="http://www.w3.org/2000/svg">
<g clip-path="url(#clip0_8826_1555)">
<path d="M15.1579 29.551C15.1579 27.5959 11.3684 27.3103 11.3684 27.3103L7.57895 30.4138L3.78947 27.3103C3.78947 27.3103 0 27.6021 0 29.551V35.3793H15.1579V29.551Z" fill="#274247"/>
<path d="M18 18.931V22.0345" stroke="#274247" stroke-miterlimit="10" stroke-linecap="round"/>
<path d="M18 22.0345L21.1579 23.2759" stroke="#274247" stroke-miterlimit="10" stroke-linecap="round"/>
<path d="M17.9999 22.0345L14.842 23.2759" stroke="#274247" stroke-miterlimit="10" stroke-linecap="round"/>
<path d="M7.57891 26.3793C9.49737 26.3793 11.0526 24.8509 11.0526 22.9655C11.0526 21.0801 9.49737 19.5517 7.57891 19.5517C5.66045 19.5517 4.10522 21.0801 4.10522 22.9655C4.10522 24.8509 5.66045 26.3793 7.57891 26.3793Z" fill="white" stroke="#274247" stroke-miterlimit="10"/>
<path d="M2.84204 35.6897V33.2069" stroke="white" stroke-miterlimit="10" stroke-linecap="round"/>
<path d="M12.3157 35.6897V33.2069" stroke="white" stroke-miterlimit="10" stroke-linecap="round"/>
<path d="M35.9999 29.5511C35.9999 27.5959 32.2105 27.3104 32.2105 27.3104L28.421 30.4138L24.6315 27.3104C24.6315 27.3104 20.842 27.6021 20.842 29.5511V35.3793H35.9999V29.5511Z" fill="#274247"/>
<path d="M28.4209 26.3793C30.3394 26.3793 31.8946 24.8509 31.8946 22.9655C31.8946 21.0801 30.3394 19.5517 28.4209 19.5517C26.5025 19.5517 24.9473 21.0801 24.9473 22.9655C24.9473 24.8509 26.5025 26.3793 28.4209 26.3793Z" fill="white" stroke="#274247" stroke-miterlimit="10"/>
<path d="M23.6841 35.6897V33.2069" stroke="white" stroke-miterlimit="10" stroke-linecap="round"/>
<path d="M33.1577 35.6897V33.2069" stroke="white" stroke-miterlimit="10" stroke-linecap="round"/>
<path d="M25.8947 10.3096C25.8947 8.35446 22.1052 8.06894 22.1052 8.06894L18.3158 11.1724L14.5263 8.06894C14.5263 8.06894 10.7368 8.36066 10.7368 10.3096V16.1379H25.8947V10.3096Z" fill="#274247"/>
<path d="M18.3157 7.13792C20.2342 7.13792 21.7894 5.60951 21.7894 3.72413C21.7894 1.83874 20.2342 0.310333 18.3157 0.310333C16.3973 0.310333 14.842 1.83874 14.842 3.72413C14.842 5.60951 16.3973 7.13792 18.3157 7.13792Z" fill="white" stroke="#274247" stroke-miterlimit="10"/>
<path d="M13.5789 16.4483V13.9655" stroke="white" stroke-miterlimit="10" stroke-linecap="round"/>
<path d="M23.0525 16.4483V13.9655" stroke="white" stroke-miterlimit="10" stroke-linecap="round"/>
</g>
<defs>
<clipPath id="clip0_8826_1555">
<rect width="36" height="36" fill="white"/>
</clipPath>
</defs>
</svg>
