<svg width="36" height="36" viewBox="0 0 36 36" fill="none" xmlns="http://www.w3.org/2000/svg">
<g clip-path="url(#clip0_8826_1625)">
<path d="M18.0255 0.634921C19.2526 0.634921 20.2508 1.63175 20.2508 2.85714C20.2508 4.08254 19.2526 5.07937 18.0255 5.07937C16.7984 5.07937 15.8001 4.08254 15.8001 2.85714C15.8001 1.63175 16.7984 0.634921 18.0255 0.634921ZM18.0255 0C16.4423 0 15.1643 1.27619 15.1643 2.85714C15.1643 4.4381 16.4423 5.71429 18.0255 5.71429C19.6087 5.71429 20.8867 4.4381 20.8867 2.85714C20.8867 1.27619 19.6087 0 18.0255 0Z" fill="#274247"/>
<path d="M36 18.0635L33.2151 15.2381H30.2713L22.0057 6.98413H15.4313L10.4974 12.7429L9.07312 10.546H7.48358L0 18.0318L18.0382 36L36 18.0635Z" fill="#274247"/>
<path d="M15.4377 6.98413L13.2314 9.59365L14.1597 11.2127L15.6158 10.3429L17.2371 10.6349L19.5006 9.00953L20.6642 11.2127L22.4063 10.2857L23.7987 10.8635L25.2484 10.2286L22.0566 6.98413H15.4377Z" fill="white"/>
<path d="M21.7386 7.61905L29.8199 15.6889L30.0042 15.873H32.9481L34.4804 17.4286L1.53232 17.3968L7.74426 11.181H8.72342L9.95691 13.0857L10.4211 13.8032L10.9742 13.1556L15.7238 7.61905H21.7386ZM21.9993 6.98413H15.4313L10.491 12.7429L9.07312 10.546H7.48358L0 18.0317L36 18.0635L33.2151 15.2381H30.2713L22.0057 6.98413H21.9993Z" fill="#274247"/>
<path d="M12.5001 25.3968C12.5001 25.3968 12.2966 25.4349 12.2458 25.3143C12.1886 25.181 12.2013 25.0413 12.2776 24.927C12.3221 24.8635 12.3984 24.8127 12.4747 24.7937C12.6273 24.7556 12.7862 24.7302 12.9452 24.7238C13.3521 24.7048 13.3076 24.6349 13.3966 24.3175C13.5047 23.9238 13.5365 23.5175 13.6128 23.1175C13.6509 22.927 13.7082 22.7492 13.7527 22.5587C13.8035 22.3365 13.8671 22.1206 13.8798 21.8984C13.8925 21.7397 13.8417 21.5683 13.7972 21.4095C13.7845 21.3651 13.7145 21.3143 13.6636 21.3016C13.4983 21.2635 13.333 21.2318 13.1677 21.2254C13.0024 21.2254 12.8307 21.2127 12.4302 21.2572C12.0296 21.3016 11.7753 21.5746 11.5845 21.7079C11.3175 21.8984 11.1013 21.8984 10.9741 21.7651C10.8088 21.6572 10.7325 21.581 10.5672 21.4667C10.4591 21.3905 10.4591 21.2826 10.5227 21.1746C10.6499 20.9651 10.7898 20.7683 10.9042 20.5524C10.9678 20.4381 11.0059 20.3048 11.0314 20.1714C11.1204 19.7397 11.5972 19.2318 11.8961 18.9397C12.055 18.7873 12.2013 18.6222 12.3602 18.4635C12.4747 18.3429 12.6463 18.2603 12.64 18.0889C12.6336 17.9429 12.6463 17.8667 12.7481 17.7587C12.8498 17.6508 13.0215 17.6064 13.1614 17.7587C13.1804 17.7778 13.2059 17.8032 13.2122 17.8286C13.3076 18.0762 13.4284 18.0953 13.6764 18.0127C14.2931 17.8032 14.8908 17.5492 15.5139 17.3714C15.6283 17.3397 15.7428 17.3333 15.8572 17.3397C16.6393 17.4032 17.4213 17.3207 18.2034 17.308C18.3623 17.308 18.5213 17.2889 18.6739 17.2699C18.9091 17.2445 19.1508 17.2445 19.386 17.2191C19.9201 17.1619 20.4415 17.2254 20.9628 17.3397C22.0819 17.5746 23.0102 18.1587 23.824 18.9397C24.1038 19.2064 24.3263 19.5302 24.5806 19.8286C24.6442 19.9048 24.676 20.7238 24.6506 20.946C24.5806 21.6 24.6824 22.2476 24.854 22.8826C24.9176 23.1238 25.0384 23.3714 25.261 23.4857C25.3182 23.5175 25.3436 23.5873 25.3945 23.6254C25.617 23.7968 25.5725 24.0064 25.528 24.2413C25.4326 24.7175 25.0829 25.0032 24.7523 25.3016C24.6379 25.4032 24.5107 25.4921 24.3963 25.5937C24.2309 25.727 24.0466 25.6572 23.9957 25.4413C23.9575 25.2762 23.983 25.1238 24.1229 24.9968C24.2246 24.9016 24.339 24.7873 24.3772 24.6603C24.4598 24.3937 24.2373 24.2159 23.9957 24.1333C23.4934 23.9619 22.9784 23.8159 22.4888 23.6191C22.0183 23.4286 21.5987 23.1429 21.2807 22.7302C21.2617 22.7048 21.2362 22.6921 21.2108 22.6921C20.7276 22.6476 20.2444 22.6222 19.7548 22.5905C19.6912 22.5905 19.6276 22.5905 19.5704 22.6032C19.4687 22.6286 19.4051 22.6794 19.3987 22.8C19.3733 23.3016 19.3351 23.8095 19.3161 24.3111C19.3034 24.654 19.1698 24.9397 18.9791 25.2127C18.9028 25.3206 18.8201 25.4159 18.7502 25.5238C18.623 25.7143 18.4386 25.7905 18.2225 25.7905C17.8791 25.7905 17.5358 25.7905 17.1988 25.7778C17.1034 25.7778 16.9953 25.7968 16.9572 25.6699C16.919 25.5365 16.9 25.3905 17.0144 25.2889C17.0907 25.2191 17.1988 25.1746 17.3005 25.1556C17.4786 25.1238 17.6629 25.1302 17.8473 25.1175C17.9745 25.1111 18.0254 25.0413 18.0381 24.9143C18.0762 24.5524 17.9363 24.2413 17.7901 23.9238C17.5676 23.4476 17.1543 23.1365 16.8109 22.7683C16.6393 22.5905 16.4612 22.4127 16.2705 22.2476C16.1433 22.1333 16.0353 22.1587 16.0098 22.3238C15.9653 22.5968 15.7873 22.8 15.6665 23.0286C15.5012 23.3333 15.3168 23.6381 15.126 23.9302C14.8844 24.2984 14.6237 24.654 14.3694 25.0159C14.3313 25.0667 14.2804 25.1111 14.2613 25.1683C14.1787 25.3841 13.8162 25.4032 13.8162 25.4032H12.5128L12.5001 25.3968Z" fill="white"/>
<path d="M21.8847 24.0762C22.2408 24.2413 22.6032 24.3873 22.972 24.527C23.1882 24.6095 23.4234 24.654 23.646 24.7238C23.7604 24.7556 23.7286 24.8508 23.6968 24.9143C23.6269 25.0603 23.5379 25.1746 23.4743 25.2889C23.4044 25.4286 23.3153 25.5619 23.2263 25.6952C23.1182 25.8413 22.9275 25.854 22.8766 25.854C22.279 25.8794 21.8784 25.8349 21.2807 25.854C21.1599 25.854 21.0582 25.7143 21.0773 25.5873C21.1154 25.3841 21.2489 25.1873 21.4969 25.1937C21.605 25.1937 21.7067 25.1937 21.8148 25.181C21.9547 25.1619 21.9928 25.0667 21.9102 24.9524C21.6177 24.5397 21.3825 24.1016 21.2299 23.619C21.3634 23.7651 21.5351 23.9111 21.8784 24.0825L21.8847 24.0762Z" fill="white"/>
</g>
<defs>
<clipPath id="clip0_8826_1625">
<rect width="36" height="36" fill="white"/>
</clipPath>
</defs>
</svg>
