<svg width="36" height="36" viewBox="0 0 36 36" fill="none" xmlns="http://www.w3.org/2000/svg">
<g clip-path="url(#clip0_8826_1662)">
<path d="M15.6379 16.7368H34.1053" stroke="#274247" stroke-miterlimit="10"/>
<path d="M31.2631 29.6842V25.1558C31.2631 21.5495 28.3389 18.6316 24.7389 18.6316H7.57886" stroke="#274247" stroke-miterlimit="10"/>
<path d="M30.6316 15.1579V16.4211" stroke="#274247" stroke-miterlimit="10"/>
<path d="M27.4736 15.1579V16.4211" stroke="#274247" stroke-miterlimit="10"/>
<path d="M21.7896 20.8421V22.1053" stroke="#274247" stroke-miterlimit="10"/>
<path d="M18.6316 20.8421V22.1053" stroke="#274247" stroke-miterlimit="10"/>
<path d="M15.4736 20.8421V22.1053" stroke="#274247" stroke-miterlimit="10"/>
<path d="M12.3157 20.8421V22.1053" stroke="#274247" stroke-miterlimit="10"/>
<path d="M3.15793 11.6842H1.89478" stroke="#274247" stroke-miterlimit="10"/>
<path d="M3.15793 25.5789H1.89478" stroke="#274247" stroke-miterlimit="10"/>
<path d="M29.0527 25.5789H27.7896" stroke="#274247" stroke-miterlimit="10"/>
<path d="M32.842 25.5789H31.5789" stroke="#274247" stroke-miterlimit="10"/>
<path d="M29.0527 28.1495H27.7896" stroke="#274247" stroke-miterlimit="10"/>
<path d="M29.0527 30.7137H27.7896" stroke="#274247" stroke-miterlimit="10"/>
<path d="M3.15793 8.52631H1.89478" stroke="#274247" stroke-miterlimit="10"/>
<path d="M20.2104 11.6842H18.9473" stroke="#274247" stroke-miterlimit="10"/>
<path d="M20.2104 8.52631H18.9473" stroke="#274247" stroke-miterlimit="10"/>
<path d="M3.15793 5.36841H1.89478" stroke="#274247" stroke-miterlimit="10"/>
<path d="M20.5262 4.42105V11.8863C20.5262 14.5895 18.3347 16.7368 15.6378 16.7368H8.21045" stroke="#274247" stroke-miterlimit="10"/>
<path d="M1.57886 29.6842V25.44C1.57886 22.7368 3.77044 20.5516 6.46728 20.5516" stroke="#274247" stroke-miterlimit="10"/>
<path d="M34.4211 18C35.1187 18 35.6843 17.4345 35.6843 16.7369C35.6843 16.0392 35.1187 15.4737 34.4211 15.4737C33.7235 15.4737 33.158 16.0392 33.158 16.7369C33.158 17.4345 33.7235 18 34.4211 18Z" fill="white" stroke="#274247" stroke-miterlimit="10"/>
<path d="M31.2632 30.6316C31.9608 30.6316 32.5263 30.066 32.5263 29.3684C32.5263 28.6708 31.9608 28.1053 31.2632 28.1053C30.5655 28.1053 30 28.6708 30 29.3684C30 30.066 30.5655 30.6316 31.2632 30.6316Z" fill="white" stroke="#274247" stroke-miterlimit="10"/>
<path d="M20.5263 6.00001C21.224 6.00001 21.7895 5.43447 21.7895 4.73685C21.7895 4.03923 21.224 3.47369 20.5263 3.47369C19.8287 3.47369 19.2632 4.03923 19.2632 4.73685C19.2632 5.43447 19.8287 6.00001 20.5263 6.00001Z" fill="white" stroke="#274247" stroke-miterlimit="10"/>
<path d="M1.57886 1.89474V15.6379C1.57886 18.3411 3.77044 20.5263 6.46728 20.5263H24.442C27.1452 20.5263 29.3683 22.7368 29.3683 25.4337V34.1053" stroke="#274247" stroke-miterlimit="10"/>
<path d="M1.57883 2.84211C2.27645 2.84211 2.84199 2.27658 2.84199 1.57895C2.84199 0.881331 2.27645 0.315796 1.57883 0.315796C0.881209 0.315796 0.315674 0.881331 0.315674 1.57895C0.315674 2.27658 0.881209 2.84211 1.57883 2.84211Z" fill="white" stroke="#274247" stroke-miterlimit="10"/>
<path d="M1.57883 30.6316C2.27645 30.6316 2.84199 30.066 2.84199 29.3684C2.84199 28.6708 2.27645 28.1053 1.57883 28.1053C0.881209 28.1053 0.315674 28.6708 0.315674 29.3684C0.315674 30.066 0.881209 30.6316 1.57883 30.6316Z" fill="white" stroke="#274247" stroke-miterlimit="10"/>
<path d="M9.15792 16.4211C9.15792 15.8978 8.73377 15.4737 8.21055 15.4737C7.68733 15.4737 7.26318 15.8978 7.26318 16.4211V20.8421C7.26318 21.3653 7.68733 21.7895 8.21055 21.7895C8.73377 21.7895 9.15792 21.3653 9.15792 20.8421V16.4211Z" fill="white" stroke="#274247" stroke-miterlimit="10"/>
<path d="M29.3684 35.6842C30.066 35.6842 30.6315 35.1187 30.6315 34.4211C30.6315 33.7234 30.066 33.1579 29.3684 33.1579C28.6708 33.1579 28.1052 33.7234 28.1052 34.4211C28.1052 35.1187 28.6708 35.6842 29.3684 35.6842Z" fill="white" stroke="#274247" stroke-miterlimit="10"/>
</g>
<defs>
<clipPath id="clip0_8826_1662">
<rect width="36" height="36" fill="white"/>
</clipPath>
</defs>
</svg>
