<svg width="36" height="36" viewBox="0 0 36 36" fill="none" xmlns="http://www.w3.org/2000/svg">
<g clip-path="url(#clip0_8826_1797)">
<path d="M6.94736 11.6842H33.7895V14.8421H6.94736C6.07578 14.8421 5.36841 14.1347 5.36841 13.2632C5.36841 12.3916 6.07578 11.6842 6.94736 11.6842Z" fill="white" stroke="#274247" stroke-miterlimit="10" stroke-linecap="round"/>
<path d="M24.1199 15.2021L22.5536 16.9705C21.8146 17.7979 19.5599 16.8947 17.1283 14.7221C14.6967 12.5495 13.3262 10.1116 14.0652 9.27789L15.6631 7.53473" fill="white"/>
<path d="M24.1199 15.2021L22.5536 16.9705C21.8146 17.7979 19.5599 16.8947 17.1283 14.7221C14.6967 12.5495 13.3262 10.1116 14.0652 9.27789L15.6631 7.53473" stroke="#274247" stroke-miterlimit="10"/>
<path d="M14.5579 11.7221L16.1368 10.1179" stroke="#274247" stroke-miterlimit="10"/>
<path d="M24.1145 15.2111C24.8402 14.4142 23.5384 12.0471 21.2069 9.92411C18.8754 7.80111 16.397 6.72613 15.6714 7.52307C14.9457 8.32002 16.2475 10.6871 18.579 12.8101C20.9105 14.9331 23.3888 16.0081 24.1145 15.2111Z" fill="white" stroke="#274247" stroke-miterlimit="10"/>
<path d="M9.58097 0.593689L10.9957 2.40001C11.7157 3.24632 10.181 5.56422 7.69886 7.68001C5.21676 9.7958 2.70939 10.8253 1.98939 9.97896L0.467285 8.17895" fill="white"/>
<path d="M9.58097 0.593689L10.9957 2.40001C11.7157 3.24632 10.181 5.56422 7.69886 7.68001C5.21676 9.7958 2.70939 10.8253 1.98939 9.97895L0.467285 8.17895" stroke="#274247" stroke-miterlimit="10"/>
<path d="M4.37685 9.82737L2.90527 8.14737" stroke="#274247" stroke-miterlimit="10"/>
<path d="M6.34907 5.98035C8.86473 3.8829 10.3228 1.48542 9.60579 0.625436C8.88877 -0.234549 6.26817 0.768618 3.75251 2.86607C1.23685 4.96353 -0.22123 7.361 0.495792 8.22099C1.21281 9.08097 3.83342 8.07781 6.34907 5.98035Z" fill="white" stroke="#274247" stroke-miterlimit="10"/>
<path d="M7.23168 14.5263C6.03168 14.5263 5.05273 14.3937 5.05273 13.1558L5.078 33.4737C5.078 34.7368 6.07589 36 7.30116 36H36.0001V14.5263H7.23168Z" fill="#274247"/>
<path d="M36.0001 21.7895H29.2043C27.1832 21.7895 25.5664 23.5137 25.7432 25.5726C25.9011 27.3979 27.5495 28.7368 29.3811 28.7368H35.9938" stroke="white" stroke-miterlimit="10"/>
<path d="M29.0527 27.1579C30.0991 27.1579 30.9474 26.3096 30.9474 25.2632C30.9474 24.2167 30.0991 23.3684 29.0527 23.3684C28.0063 23.3684 27.158 24.2167 27.158 25.2632C27.158 26.3096 28.0063 27.1579 29.0527 27.1579Z" fill="white"/>
<path d="M9.15796 18.6316V31.8947" stroke="white" stroke-miterlimit="10" stroke-linecap="round"/>
</g>
<defs>
<clipPath id="clip0_8826_1797">
<rect width="36" height="36" fill="white"/>
</clipPath>
</defs>
</svg>
