<svg width="36" height="36" viewBox="0 0 36 36" fill="none" xmlns="http://www.w3.org/2000/svg">
<g clip-path="url(#clip0_2543_2762)">
<path d="M35.6799 7.87L34.4099 6.95L34.0999 6.43C34.7599 6.34 35.3699 5.82 35.3699 4.55H32.9999L30.5399 0.37C30.3999 0.14 30.1599 0 29.8899 0H20.5299C20.2599 0 20.0099 0.14 19.8799 0.37L17.4399 4.54H15.0899C15.0899 5.8 15.6899 6.32 16.3399 6.41L16.0199 6.95L14.7399 7.86C14.5399 8 14.4199 8.24 14.4199 8.49V11.49H16.9799C16.7999 11.24 16.6899 10.94 16.6899 10.6C16.6899 9.76 17.3699 9.08 18.2099 9.08C19.0499 9.08 19.7299 9.76 19.7299 10.6C19.7299 10.93 19.6199 11.24 19.4399 11.49H19.9899C20.3299 11.49 20.6399 11.67 20.8099 11.96L21.5699 13.26H29.1899V15.53H22.9099L23.7999 17.05H32.5999V18.56C32.5999 18.77 32.7699 18.94 32.9799 18.94H35.6199C35.8299 18.94 35.9999 18.77 35.9999 18.56V8.49C35.9999 8.25 35.8799 8.01 35.6799 7.87Z" fill="#274247"/>
<path d="M29.1801 13.26H21.5601L22.9001 15.53H29.1801V13.26Z" fill="white"/>
<path d="M18.1997 9.09C17.3597 9.09 16.6797 9.77 16.6797 10.61C16.6797 10.94 16.7897 11.25 16.9697 11.5H19.4197C19.5997 11.25 19.7097 10.95 19.7097 10.61C19.7097 9.77 19.0297 9.09 18.1897 9.09H18.1997Z" fill="white"/>
<path d="M26.75 22.08L25.15 20.92L24.76 20.27C25.58 20.16 26.35 19.51 26.35 17.91H23.36L20.26 12.66C20.09 12.37 19.78 12.19 19.44 12.19H7.69C7.35 12.19 7.04 12.37 6.87 12.66L3.8 17.9H0.84C0.84 19.48 1.6 20.14 2.42 20.26L2.02 20.94L0.41 22.08C0.15 22.26 0 22.55 0 22.87V35.53C0 35.8 0.22 36.01 0.48 36.01H3.81C4.08 36.01 4.29 35.79 4.29 35.53V33.63H22.86V35.53C22.86 35.8 23.08 36.01 23.34 36.01H26.66C26.93 36.01 27.14 35.79 27.14 35.53V22.87C27.14 22.56 26.99 22.27 26.74 22.09L26.75 22.08Z" fill="#274247"/>
<path d="M21.4199 10.8H28.9899" stroke="white" stroke-miterlimit="10" stroke-linecap="round"/>
<path d="M32.2898 6.06H18.0898L20.7398 1.33C20.8098 1.21 20.9298 1.14 21.0698 1.14H29.3398C29.4798 1.14 29.5998 1.21 29.6698 1.33L32.2898 6.06Z" fill="white"/>
<path d="M32.2099 12.13C33.0494 12.13 33.7299 11.4495 33.7299 10.61C33.7299 9.77052 33.0494 9.09 32.2099 9.09C31.3705 9.09 30.6899 9.77052 30.6899 10.61C30.6899 11.4495 31.3705 12.13 32.2099 12.13Z" fill="white"/>
<path d="M8.81006 25.76H18.3401" stroke="white" stroke-miterlimit="10" stroke-linecap="round"/>
<path d="M22.4899 19.8H4.62988L7.95988 13.85C8.03988 13.7 8.19988 13.61 8.36988 13.61H18.7699C18.9399 13.61 19.0999 13.7 19.1799 13.85L22.4799 19.8H22.4899Z" fill="white"/>
<path d="M18.5703 28.86H8.57031V31.72H18.5703V28.86Z" fill="white"/>
<path d="M4.7601 27.43C5.81496 27.43 6.6701 26.5749 6.6701 25.52C6.6701 24.4651 5.81496 23.61 4.7601 23.61C3.70523 23.61 2.8501 24.4651 2.8501 25.52C2.8501 26.5749 3.70523 27.43 4.7601 27.43Z" fill="white"/>
<path d="M22.39 27.43C23.4448 27.43 24.3 26.5749 24.3 25.52C24.3 24.4651 23.4448 23.61 22.39 23.61C21.3351 23.61 20.48 24.4651 20.48 25.52C20.48 26.5749 21.3351 27.43 22.39 27.43Z" fill="white"/>
</g>
<defs>
<clipPath id="clip0_2543_2762">
<rect width="36" height="36" fill="white"/>
</clipPath>
</defs>
</svg>
