<svg width="36" height="36" viewBox="0 0 36 36" fill="none" xmlns="http://www.w3.org/2000/svg">
<g clip-path="url(#clip0_8826_1428)">
<path d="M18.6316 24.9474C24.5614 24.9474 29.3685 20.1403 29.3685 14.2105C29.3685 8.28074 24.5614 3.47369 18.6316 3.47369C12.7018 3.47369 7.89478 8.28074 7.89478 14.2105C7.89478 20.1403 12.7018 24.9474 18.6316 24.9474Z" fill="white" stroke="#274247" stroke-miterlimit="10"/>
<path d="M0 36L2.80421 25.6989L4.66737 25.5853L6.90316 18.8147L9.73895 19.5095L15.4674 7.83789L18.7832 16.6105L21.0632 15.4358L25.1368 20.0589L26.8611 18.8147L31.3895 25.6989L32.5895 24.8716L36 36H0Z" fill="#274247"/>
<path d="M0.397949 36L2.96848 26.52L4.77479 25.3958L6.68216 19.1432L9.98532 20.2421L15.1579 8.96844V18.7958L10.9453 21.9663L19.6864 26.7221L27.1516 36H0.397949Z" fill="white"/>
<path d="M20.7854 16.2063L20.7033 20.3495L18.8464 17.1031L20.7854 16.2063Z" fill="white"/>
<path d="M26.8106 18.7263L25.3769 20.04L26.5516 21.8716L24.5874 35.3684L35.5453 35.4632L32.6842 25.1242L31.0295 25.8821L26.8106 18.7263Z" fill="white"/>
<path d="M15.3916 9.42315L18.1895 16.8316L18.4421 17.4947L19.0737 17.1726L20.9116 16.2253L24.6568 20.4821L25.0358 20.9116L25.5032 20.5768L26.6968 19.7179L30.8589 26.0463L31.2126 26.5832L31.7432 26.2168L32.2358 25.8758L35.1411 35.3621H0.827368L3.29684 26.2926L4.58526 26.2042L5.00211 26.1726L5.14105 25.781L7.31368 19.56L9.58737 20.1158L10.08 20.2358L10.3011 19.781L15.3916 9.42315ZM15.4674 7.83789L9.73895 19.5095L6.90947 18.821L4.54737 25.5853L2.81053 25.7053L0 36H36L32.5895 24.8716L31.3832 25.6989L26.8547 18.8147L25.1305 20.0589L21.0568 15.4358L18.7768 16.6105L15.4611 7.83789H15.4674Z" fill="#274247"/>
<path d="M15.3916 9.42315L18.1895 16.8316L18.4421 17.4947L19.0737 17.1726L20.9116 16.2253L24.6568 20.4821L25.0358 20.9116L25.5032 20.5768L26.6968 19.7179L30.8589 26.0463L31.2126 26.5832L31.7432 26.2168L32.2358 25.8758L35.1411 35.3621H0.827368L3.29684 26.2926L4.58526 26.2042L5.00211 26.1726L5.14105 25.781L7.31368 19.56L9.58737 20.1158L10.08 20.2358L10.3011 19.781L15.3916 9.42315ZM15.4674 7.83789L9.73895 19.5095L6.90947 18.821L4.54737 25.5853L2.81053 25.7053L0 36H36L32.5895 24.8716L31.3832 25.6989L26.8547 18.8147L25.1305 20.0589L21.0568 15.4358L18.7768 16.6105L15.4611 7.83789H15.4674Z" fill="#274247"/>
<path d="M18.6316 0.315796V2.21053" stroke="#274247" stroke-miterlimit="10" stroke-linecap="round"/>
<path d="M33.1579 13.5789H31.2632" stroke="#274247" stroke-miterlimit="10" stroke-linecap="round"/>
<path d="M5.99996 13.5789H4.10522" stroke="#274247" stroke-miterlimit="10" stroke-linecap="round"/>
<path d="M28.5789 4.08002L27.3284 5.34949" stroke="#274247" stroke-miterlimit="10" stroke-linecap="round"/>
<path d="M9.22113 5.49473L7.95166 4.2442" stroke="#274247" stroke-miterlimit="10" stroke-linecap="round"/>
</g>
<defs>
<clipPath id="clip0_8826_1428">
<rect width="36" height="36" fill="white"/>
</clipPath>
</defs>
</svg>
