<svg width="36" height="36" viewBox="0 0 36 36" fill="none" xmlns="http://www.w3.org/2000/svg">
<g clip-path="url(#clip0_8826_1307)">
<path d="M6.94742 8.38672H2.52637V25.7253H6.94742V8.38672Z" fill="#274247"/>
<path d="M19.579 8.38672H15.158V25.7253H19.579V8.38672Z" fill="#274247"/>
<path d="M30.9474 8.38672H26.5264V25.7253H30.9474V8.38672Z" fill="#274247"/>
<path d="M23.6841 27.4013V17.8844L12.3157 27.0096V18.0064L0.315674 27.4078V35.6789H11.6778H11.6841H23.6778H23.6841H35.6841V18.0064L23.6841 27.4013Z" fill="white" stroke="#274247" stroke-miterlimit="10"/>
<path d="M23.8357 1.39992C23.6084 1.39992 23.3936 1.47056 23.2105 1.57973C22.9326 0.969669 22.3199 0.545837 21.6189 0.545837C20.9178 0.545837 20.2862 0.982512 20.0147 1.60542C19.7178 1.36781 19.3452 1.22654 18.941 1.22654C18.0883 1.22654 17.3747 1.84944 17.2231 2.67142C17.1473 2.65857 17.0652 2.64573 16.9831 2.64573C16.2568 2.64573 15.6694 3.24295 15.6694 3.98144C15.6694 4.30895 15.7894 4.59793 15.9789 4.82911C15.7957 4.93185 15.6631 5.1245 15.6631 5.35569C15.6631 5.68319 15.9283 5.9529 16.2505 5.9529C16.5726 5.9529 16.8378 5.68319 16.8378 5.35569C16.8378 5.33642 16.8378 5.31715 16.8378 5.30431C16.8883 5.30431 16.9389 5.31715 16.9894 5.31715C17.4947 5.31715 17.9305 5.02176 18.1515 4.5915C18.3915 4.71994 18.6631 4.79058 18.9536 4.79058C19.522 4.79058 20.021 4.51444 20.3431 4.09061C20.5641 4.84837 21.2462 5.39422 22.061 5.39422C22.9452 5.39422 23.6778 4.7392 23.8231 3.8787C23.8294 3.8787 23.842 3.8787 23.8483 3.8787C24.5241 3.8787 25.0736 3.32001 25.0736 2.63289C25.0736 1.94577 24.5241 1.38708 23.8483 1.38708L23.8357 1.39992Z" fill="#274247"/>
<path d="M12.4358 2.08705C12.4547 1.99072 12.461 1.8944 12.461 1.79165C12.461 0.802711 11.6716 0 10.7052 0C9.73892 0 8.96208 0.783446 8.94945 1.75954C8.63997 1.77239 8.35576 1.86871 8.10945 2.01641C7.85681 1.86871 7.55997 1.78523 7.24418 1.78523C6.56839 1.78523 5.98102 2.17695 5.6905 2.74206C5.5326 2.67785 5.36839 2.63932 5.18523 2.63932C4.45892 2.63932 3.87155 3.23653 3.87155 3.97503C3.87155 4.30253 3.99155 4.59151 4.18102 4.82269C3.99787 4.92544 3.86523 5.11809 3.86523 5.34927C3.86523 5.67677 4.1305 5.94649 4.4526 5.94649C4.77471 5.94649 5.03997 5.67677 5.03997 5.34927C5.03997 5.33 5.03997 5.31074 5.03997 5.2979C5.0905 5.2979 5.13471 5.31074 5.19155 5.31074C5.55155 5.31074 5.87997 5.16304 6.11366 4.92544C6.41681 5.18873 6.81471 5.34927 7.24418 5.34927C7.55366 5.34927 7.84418 5.26579 8.09681 5.11809C8.36839 5.29147 8.6905 5.3878 9.03155 5.3878C9.90945 5.3878 10.6358 4.74563 10.7937 3.90439C11.0147 4.1163 11.3052 4.24474 11.6337 4.24474C12.3094 4.24474 12.8589 3.68605 12.8589 2.99893C12.8589 2.62647 12.6947 2.29897 12.4484 2.07421L12.4358 2.08705Z" fill="#274247"/>
<path d="M35.1475 1.2137C35.0654 1.2137 34.9833 1.23297 34.9138 1.26508C34.6548 0.899041 34.2317 0.661438 33.758 0.661438C33.0759 0.661438 32.5138 1.14306 32.3622 1.79166C32.1412 1.83019 31.9327 1.91367 31.7496 2.02926C31.497 1.88156 31.2001 1.79808 30.8843 1.79808C30.2085 1.79808 29.6212 2.1898 29.3306 2.75491C29.1727 2.69069 29.0085 2.65216 28.8254 2.65216C28.0991 2.65216 27.5117 3.24938 27.5117 3.98787C27.5117 4.31538 27.6317 4.60436 27.8212 4.83554C27.638 4.93828 27.5054 5.13093 27.5054 5.36212C27.5054 5.68962 27.7706 5.95933 28.0927 5.95933C28.4148 5.95933 28.6801 5.68962 28.6801 5.36212C28.6801 5.34285 28.6801 5.32359 28.6801 5.31074C28.7306 5.31074 28.7812 5.32359 28.8317 5.32359C29.1917 5.32359 29.5201 5.17589 29.7538 4.93828C30.057 5.20157 30.4548 5.36212 30.8843 5.36212C31.1938 5.36212 31.4843 5.27863 31.737 5.13093C32.0085 5.30432 32.3306 5.40065 32.6717 5.40065C33.6633 5.40065 34.4591 4.58509 34.4591 3.57689C34.4591 3.51267 34.4591 3.44845 34.4464 3.38423C34.8127 3.17874 35.078 2.81913 35.1601 2.38245C35.4759 2.37603 35.7222 2.11916 35.7222 1.79808C35.7222 1.47699 35.4633 1.20728 35.1412 1.20728L35.1475 1.2137Z" fill="#274247"/>
</g>
<defs>
<clipPath id="clip0_8826_1307">
<rect width="36" height="36" fill="white"/>
</clipPath>
</defs>
</svg>
