<svg width="28" height="28" viewBox="0 0 28 28" fill="none" xmlns="http://www.w3.org/2000/svg">
<g clip-path="url(#clip0_8826_1383)">
<path d="M19.8039 24.0456L15.3059 24.9986V27.9705C15.3059 27.9705 17.8684 28.5944 19.8039 24.0407V24.0456Z" fill="#274247"/>
<path d="M0.478976 13.7544C0.232106 13.7544 -0.00982662 13.774 4.81831e-05 13.8133V17.193L1.24921 17.92L4.81831e-05 18.6667V22.0218C4.81831e-05 22.0611 0.237043 22.0807 0.478976 22.0807C2.8193 22.0807 4.7202 20.219 4.7202 17.9151C4.7202 15.6112 2.8193 13.7544 0.478976 13.7544Z" fill="#274247"/>
<path d="M27.6939 17.64C27.6939 17.64 22.322 24.8856 15.6911 24.8856C9.06018 24.8856 3.68335 17.64 3.68335 17.64C3.68335 17.64 9.05524 10.3944 15.6862 10.3944C22.3171 10.3944 27.689 17.64 27.689 17.64H27.6939Z" fill="white" stroke="#274247" stroke-width="0.7" stroke-miterlimit="10" stroke-linecap="round"/>
<path d="M3.77217 17.3944C3.77217 17.3944 9.14406 10.1488 15.775 10.1488C17.1673 10.1488 18.5054 10.4681 19.7496 10.974V17.6793H3.6438L3.77217 17.3895V17.3944Z" fill="#274247"/>
<path d="M22.959 18.6667C23.6407 18.6667 24.1933 18.1168 24.1933 17.4386C24.1933 16.7603 23.6407 16.2105 22.959 16.2105C22.2772 16.2105 21.7246 16.7603 21.7246 17.4386C21.7246 18.1168 22.2772 18.6667 22.959 18.6667Z" fill="#274247"/>
<path d="M19.5027 17.6842V24.0702" stroke="#274247" stroke-width="0.7" stroke-miterlimit="10"/>
<path d="M2.80436 4.91229C2.63155 4.91229 2.46367 4.92703 2.46861 4.9565V7.36843L3.26353 7.85966L2.46861 8.35089V10.7677C2.46861 10.7972 2.63155 10.807 2.80436 10.807C4.43863 10.807 5.7668 9.48562 5.7668 7.85966C5.7668 6.2337 4.43863 4.91229 2.80436 4.91229Z" fill="#274247"/>
<path d="M15.1183 2.94737L10.8623 3.4386V3.35752e-06C10.8623 3.35752e-06 13.7211 -0.0196458 15.1183 2.94737Z" fill="#274247"/>
<path d="M16.3278 12.0154L13.3308 12.7719V14.6337C13.3308 14.6337 15.0392 15.0463 16.3278 12.0154Z" fill="white"/>
<path d="M21.2158 7.75159C21.2158 7.75159 17.6362 12.5755 13.2222 12.5755C8.80813 12.5755 5.22852 7.75159 5.22852 7.75159C5.22852 7.75159 8.80813 2.92773 13.2222 2.92773C17.6362 2.92773 21.2158 7.75159 21.2158 7.75159Z" fill="white" stroke="#274247" stroke-width="0.7" stroke-miterlimit="10" stroke-linecap="round"/>
<path d="M17.7746 8.84211C18.32 8.84211 18.7621 8.40225 18.7621 7.85965C18.7621 7.31706 18.32 6.8772 17.7746 6.8772C17.2292 6.8772 16.7871 7.31706 16.7871 7.85965C16.7871 8.40225 17.2292 8.84211 17.7746 8.84211Z" fill="#274247"/>
<path d="M15.0591 6.14035V12.3347" stroke="#274247" stroke-width="0.7" stroke-miterlimit="10" stroke-linecap="round"/>
<path d="M15.059 7.61404H8.64038" stroke="#274247" stroke-width="0.7" stroke-miterlimit="10" stroke-linecap="round"/>
</g>
<defs>
<clipPath id="clip0_8826_1383">
<rect width="28" height="28" fill="white"/>
</clipPath>
</defs>
</svg>
