<svg width="28" height="28" viewBox="0 0 28 28" fill="none" xmlns="http://www.w3.org/2000/svg">
<g clip-path="url(#clip0_8826_1211)">
<path d="M16.9473 22.8742V25.4027C16.9473 26.7013 13.8673 27.7491 10.0701 27.7491C6.27287 27.7491 3.19287 26.6964 3.19287 25.4027V22.8742" fill="white"/>
<path d="M16.9473 22.8742V25.4027C16.9473 26.7013 13.8673 27.7491 10.0701 27.7491C6.27287 27.7491 3.19287 26.6964 3.19287 25.4027V22.8742" stroke="#274247" stroke-width="0.7" stroke-miterlimit="10"/>
<path d="M5.64917 27.0555V24.7583" stroke="#274247" stroke-width="0.7" stroke-miterlimit="10"/>
<path d="M10.0701 25.3338C13.8682 25.3338 16.9473 24.2326 16.9473 22.8742C16.9473 21.5158 13.8682 20.4146 10.0701 20.4146C6.2719 20.4146 3.19287 21.5158 3.19287 22.8742C3.19287 24.2326 6.2719 25.3338 10.0701 25.3338Z" fill="white" stroke="#274247" stroke-width="0.7" stroke-miterlimit="10"/>
<path d="M16.9473 18.4469V21.2459C16.9473 22.5446 13.8673 23.5924 10.0701 23.5924C6.27287 23.5924 3.19287 22.5397 3.19287 21.2459V18.4469" fill="white"/>
<path d="M16.9473 18.4469V21.2459C16.9473 22.5446 13.8673 23.5924 10.0701 23.5924C6.27287 23.5924 3.19287 22.5397 3.19287 21.2459V18.4469" stroke="#274247" stroke-width="0.7" stroke-miterlimit="10"/>
<path d="M5.64917 23.1202V20.331" stroke="#274247" stroke-width="0.7" stroke-miterlimit="10"/>
<path d="M10.0701 20.9066C13.8682 20.9066 16.9473 19.8054 16.9473 18.447C16.9473 17.0886 13.8682 15.9874 10.0701 15.9874C6.2719 15.9874 3.19287 17.0886 3.19287 18.447C3.19287 19.8054 6.2719 20.9066 10.0701 20.9066Z" fill="#274247" stroke="#274247" stroke-width="0.7" stroke-miterlimit="10"/>
<path d="M27.6463 15.3774C27.6463 15.3774 26.9684 16.6465 26.3936 17.8124C25.8189 18.9782 22.228 18.2895 19.374 16.8482C15.9943 15.1412 13.7396 12.7997 14.3242 11.6486L15.5768 9.21362" fill="white"/>
<path d="M27.6463 15.3774C27.6463 15.3774 26.9684 16.6465 26.3936 17.8124C25.8189 18.9782 22.228 18.2895 19.374 16.8482C15.9943 15.1412 13.7396 12.7997 14.3242 11.6486L15.5768 9.21362" stroke="#274247" stroke-width="0.7" stroke-miterlimit="10"/>
<path d="M15.6013 14.246L16.8441 11.8356" stroke="#274247" stroke-width="0.7" stroke-miterlimit="10"/>
<path d="M27.6665 15.3578C28.2402 14.2205 25.9962 11.9282 22.6544 10.2378C19.3127 8.54735 16.1386 8.09897 15.5649 9.23628C14.9912 10.3736 17.2352 12.6659 20.5769 14.3563C23.9187 16.0468 27.0928 16.4951 27.6665 15.3578Z" fill="#274247" stroke="#274247" stroke-width="0.7" stroke-miterlimit="10"/>
<path d="M12.6023 1.44785L13.9532 3.56801C14.6409 4.65515 12.6122 7.17378 9.42409 9.19556C6.23602 11.2173 3.09216 11.97 2.40444 10.8779L1.07812 8.80695" fill="white"/>
<path d="M12.6023 1.44785L13.9532 3.56801C14.6409 4.65515 12.6122 7.17378 9.42409 9.19556C6.23602 11.2173 3.09216 11.97 2.40444 10.8779L1.07812 8.80695" stroke="#274247" stroke-width="0.7" stroke-miterlimit="10"/>
<path d="M5.27832 11.109L3.97656 9.04291" stroke="#274247" stroke-width="0.7" stroke-miterlimit="10"/>
<path d="M8.0997 7.10015C11.2793 5.06466 13.2929 2.53129 12.5974 1.44172C11.9018 0.352142 8.7604 1.11896 5.58084 3.15445C2.40127 5.18994 0.387599 7.7233 1.08317 8.81288C1.77873 9.90245 4.92014 9.13564 8.0997 7.10015Z" fill="white" stroke="#274247" stroke-width="0.7" stroke-miterlimit="10"/>
</g>
<defs>
<clipPath id="clip0_8826_1211">
<rect width="28" height="28" fill="white"/>
</clipPath>
</defs>
</svg>
