<svg width="28" height="28" viewBox="0 0 28 28" fill="none" xmlns="http://www.w3.org/2000/svg">
<g clip-path="url(#clip0_8826_1413)">
<path d="M14.4913 19.4035C19.1033 19.4035 22.8421 15.6647 22.8421 11.0526C22.8421 6.44057 19.1033 2.70175 14.4913 2.70175C9.8792 2.70175 6.14038 6.44057 6.14038 11.0526C6.14038 15.6647 9.8792 19.4035 14.4913 19.4035Z" fill="white" stroke="#274247" stroke-width="0.7" stroke-miterlimit="10"/>
<path d="M0 28L2.18105 19.9881L3.63018 19.8996L5.36912 14.6337L7.57474 15.174L12.0302 6.09613L14.6091 12.9193L16.3825 12.0056L19.5509 15.6014L20.8919 14.6337L24.414 19.9881L25.3474 19.3446L28 28H0Z" fill="#274247"/>
<path d="M0.30957 28L2.30887 20.6267L3.71378 19.7523L5.19729 14.8891L7.76641 15.7439L11.7896 6.97543V14.6189L8.51308 17.0849L15.3117 20.7839L21.118 28H0.30957Z" fill="white"/>
<path d="M16.1663 12.6049L16.1024 15.8273L14.6582 13.3024L16.1663 12.6049Z" fill="white"/>
<path d="M20.8527 14.5649L19.7376 15.5867L20.6513 17.0112L19.1235 27.5088L27.6463 27.5825L25.4211 19.5411L24.1341 20.1305L20.8527 14.5649Z" fill="white"/>
<path d="M11.9712 7.32911L14.1474 13.0912L14.3439 13.607L14.8351 13.3565L16.2646 12.6196L19.1775 15.9305L19.4723 16.2646L19.8358 16.0042L20.7642 15.3361L24.0014 20.2582L24.2765 20.6758L24.6891 20.3909L25.0723 20.1256L27.3319 27.5038H0.643509L2.56421 20.4498L3.56632 20.381L3.89053 20.3565L3.9986 20.0519L5.68842 15.2133L7.45684 15.6456L7.84 15.7389L8.01193 15.3853L11.9712 7.32911ZM12.0302 6.09613L7.57474 15.174L5.37403 14.6386L3.53684 19.8996L2.18596 19.993L0 28H28L25.3474 19.3446L24.4091 19.9881L20.887 14.6337L19.546 15.6014L16.3775 12.0056L14.6042 12.9193L12.0253 6.09613H12.0302Z" fill="#274247"/>
<path d="M11.9712 7.32911L14.1474 13.0912L14.3439 13.607L14.8351 13.3565L16.2646 12.6196L19.1775 15.9305L19.4723 16.2646L19.8358 16.0042L20.7642 15.3361L24.0014 20.2582L24.2765 20.6758L24.6891 20.3909L25.0723 20.1256L27.3319 27.5038H0.643509L2.56421 20.4498L3.56632 20.381L3.89053 20.3565L3.9986 20.0519L5.68842 15.2133L7.45684 15.6456L7.84 15.7389L8.01193 15.3853L11.9712 7.32911ZM12.0302 6.09613L7.57474 15.174L5.37403 14.6386L3.53684 19.8996L2.18596 19.993L0 28H28L25.3474 19.3446L24.4091 19.9881L20.887 14.6337L19.546 15.6014L16.3775 12.0056L14.6042 12.9193L12.0253 6.09613H12.0302Z" fill="#274247"/>
<path d="M14.4912 0.245605V1.71929" stroke="#274247" stroke-width="0.7" stroke-miterlimit="10" stroke-linecap="round"/>
<path d="M25.7894 10.5614H24.3157" stroke="#274247" stroke-width="0.7" stroke-miterlimit="10" stroke-linecap="round"/>
<path d="M4.66656 10.5614H3.19287" stroke="#274247" stroke-width="0.7" stroke-miterlimit="10" stroke-linecap="round"/>
<path d="M22.228 3.17334L21.2554 4.16071" stroke="#274247" stroke-width="0.7" stroke-miterlimit="10" stroke-linecap="round"/>
<path d="M7.17194 4.27369L6.18457 3.30106" stroke="#274247" stroke-width="0.7" stroke-miterlimit="10" stroke-linecap="round"/>
</g>
<defs>
<clipPath id="clip0_8826_1413">
<rect width="28" height="28" fill="white"/>
</clipPath>
</defs>
</svg>
