<svg width="28" height="28" viewBox="0 0 28 28" fill="none" xmlns="http://www.w3.org/2000/svg">
<g clip-path="url(#clip0_8826_1761)">
<path d="M22.4763 20.7696C23.1613 21.4634 23.1613 22.6032 22.4763 23.297C21.7914 23.9908 20.6661 23.9908 19.9812 23.297L16.8842 20.1551L19.986 23.297C20.671 23.9908 20.671 25.1306 19.986 25.8244C19.3011 26.5182 18.1758 26.5182 17.4909 25.8244L14.3939 22.6825L16.3949 24.7094C17.0799 25.4032 17.0799 26.543 16.3949 27.2368C15.71 27.9306 14.5847 27.9306 13.8997 27.2368L11.8987 25.2099L3.69878 16.8595L0.357178 13.6283L6.71748 7.68143H13.3224L23.2053 16.4581L23.8707 17.132C24.5557 17.8259 24.5557 18.9657 23.8707 19.6595C23.1858 20.3533 22.0605 20.3533 21.3755 19.6595L19.3745 17.6326L22.4763 20.7696Z" fill="white" stroke="#274247" stroke-width="0.7" stroke-miterlimit="10" stroke-linecap="round"/>
<path d="M10.8044 23.5173C11.4292 22.8845 11.4292 21.8584 10.8044 21.2255C10.1796 20.5927 9.16661 20.5927 8.54182 21.2255L6.50069 23.293C5.87591 23.9259 5.87591 24.952 6.50069 25.5848C7.12547 26.2177 8.13845 26.2177 8.76323 25.5848L10.8044 23.5173Z" fill="white" stroke="#274247" stroke-width="0.7" stroke-miterlimit="10" stroke-linecap="round"/>
<path d="M13.0641 25.804C13.6889 25.1711 13.6889 24.1451 13.0641 23.5122C12.4393 22.8794 11.4264 22.8794 10.8016 23.5122L9.40047 24.9314C8.77569 25.5643 8.77569 26.5904 9.40047 27.2232C10.0253 27.8561 11.0382 27.8561 11.663 27.2232L13.0641 25.804Z" fill="white" stroke="#274247" stroke-width="0.7" stroke-miterlimit="10" stroke-linecap="round"/>
<path d="M6.28288 18.9468C6.90767 18.3139 6.90767 17.2879 6.28288 16.655C5.6581 16.0222 4.64512 16.0222 4.02034 16.655L2.61922 18.0742C1.99444 18.7071 1.99444 19.7332 2.61922 20.366C3.24401 20.9989 4.25698 20.9989 4.88177 20.366L6.28288 18.9468Z" fill="white" stroke="#274247" stroke-width="0.7" stroke-miterlimit="10" stroke-linecap="round"/>
<path d="M8.54045 21.2294C9.16524 20.5966 9.16524 19.5705 8.54045 18.9377C7.91567 18.3048 6.90269 18.3048 6.27791 18.9377L4.23678 21.0052C3.61199 21.638 3.61199 22.6641 4.23678 23.2969C4.86156 23.9298 5.87454 23.9298 6.49932 23.2969L8.54045 21.2294Z" fill="white" stroke="#274247" stroke-width="0.7" stroke-miterlimit="10" stroke-linecap="round"/>
<path d="M23.2053 16.4581L26.6986 13.3607L21.2434 7.68143H12.0406C12.0406 7.68143 8.50815 11.0464 7.47093 12.097C5.60198 13.9901 8.19992 17.0379 10.3771 14.8326C12.6375 12.543 15.1816 10.0899 17.848 11.9533L23.2004 16.4581H23.2053Z" fill="white" stroke="#274247" stroke-width="0.7" stroke-miterlimit="10" stroke-linecap="round"/>
<path d="M0.112549 15.3628V0H3.10189L9.40837 5.9469L0.112549 15.3628Z" fill="#274247"/>
<path d="M1.33568 10.4071C1.33568 11.091 0.787719 11.646 0.112549 11.646V9.16815C0.787719 9.16815 1.33568 9.7232 1.33568 10.4071Z" fill="white"/>
<path d="M27.9999 15.3628V0H25.0106L18.7041 5.9469L27.9999 15.3628Z" fill="#274247"/>
<path d="M26.7769 10.4071C26.7769 11.091 27.3248 11.646 28 11.646V9.16815C27.3248 9.16815 26.7769 9.7232 26.7769 10.4071Z" fill="white"/>
</g>
<defs>
<clipPath id="clip0_8826_1761">
<rect width="28" height="28" fill="white"/>
</clipPath>
</defs>
</svg>
