<svg width="28" height="28" viewBox="0 0 28 28" fill="none" xmlns="http://www.w3.org/2000/svg">
<g clip-path="url(#clip0_8826_1299)">
<path d="M5.40344 6.52301H1.96484V20.0086H5.40344V6.52301Z" fill="#274247"/>
<path d="M15.2281 6.52301H11.7896V20.0086H15.2281V6.52301Z" fill="#274247"/>
<path d="M24.0702 6.52301H20.6316V20.0086H24.0702V6.52301Z" fill="#274247"/>
<path d="M18.421 21.3122V13.9101L9.57894 21.0075V14.005L0.245605 21.3172V27.7503H9.0828H9.08771H18.4161H18.421H27.7544V14.005L18.421 21.3122Z" fill="white" stroke="#274247" stroke-width="0.7" stroke-miterlimit="10"/>
<path d="M18.5389 1.08882C18.362 1.08882 18.195 1.14376 18.0525 1.22867C17.8364 0.754177 17.3599 0.42453 16.8147 0.42453C16.2694 0.42453 15.7782 0.764166 15.5669 1.24865C15.3361 1.06385 15.0462 0.953963 14.7318 0.953963C14.0687 0.953963 13.5136 1.43844 13.3957 2.07776C13.3368 2.06777 13.2729 2.05778 13.209 2.05778C12.6441 2.05778 12.1873 2.52228 12.1873 3.09667C12.1873 3.35139 12.2806 3.57615 12.428 3.75596C12.2855 3.83588 12.1824 3.98572 12.1824 4.16552C12.1824 4.42025 12.3887 4.63002 12.6392 4.63002C12.8897 4.63002 13.0961 4.42025 13.0961 4.16552C13.0961 4.15054 13.0961 4.13555 13.0961 4.12557C13.1354 4.12557 13.1747 4.13555 13.214 4.13555C13.6069 4.13555 13.9459 3.9058 14.1178 3.57116C14.3045 3.67105 14.5157 3.72599 14.7417 3.72599C15.1838 3.72599 15.5718 3.51122 15.8224 3.18158C15.9943 3.77095 16.5248 4.19549 17.1585 4.19549C17.8462 4.19549 18.4161 3.68604 18.529 3.01675C18.534 3.01675 18.5438 3.01675 18.5487 3.01675C19.0743 3.01675 19.5017 2.58222 19.5017 2.04779C19.5017 1.51336 19.0743 1.07883 18.5487 1.07883L18.5389 1.08882Z" fill="#274247"/>
<path d="M9.67231 1.62326C9.68705 1.54834 9.69196 1.47342 9.69196 1.39351C9.69196 0.624331 9.07793 0 8.32635 0C7.57477 0 6.97056 0.609347 6.96073 1.36853C6.72003 1.37852 6.49898 1.45344 6.3074 1.56832C6.11091 1.45344 5.88003 1.38851 5.63442 1.38851C5.1088 1.38851 4.65196 1.69319 4.426 2.13271C4.30319 2.08277 4.17547 2.0528 4.03301 2.0528C3.4681 2.0528 3.01126 2.5173 3.01126 3.09169C3.01126 3.34641 3.10459 3.57117 3.25196 3.75098C3.10951 3.8309 3.00635 3.98074 3.00635 4.16054C3.00635 4.41527 3.21266 4.62504 3.46319 4.62504C3.71372 4.62504 3.92003 4.41527 3.92003 4.16054C3.92003 4.14556 3.92003 4.13057 3.92003 4.12058C3.95933 4.12058 3.99372 4.13057 4.03793 4.13057C4.31793 4.13057 4.57337 4.0157 4.75512 3.8309C4.99091 4.03568 5.30038 4.16054 5.63442 4.16054C5.87512 4.16054 6.10108 4.09561 6.29758 3.98073C6.5088 4.11559 6.75933 4.19051 7.02459 4.19051C7.7074 4.19051 8.27231 3.69105 8.39512 3.03675C8.56705 3.20157 8.79302 3.30146 9.04845 3.30146C9.57407 3.30146 10.0014 2.86693 10.0014 2.3325C10.0014 2.04281 9.87372 1.78808 9.68214 1.61327L9.67231 1.62326Z" fill="#274247"/>
<path d="M27.3369 0.943975C27.2731 0.943975 27.2092 0.958959 27.1552 0.983932C26.9538 0.699237 26.6246 0.514435 26.2562 0.514435C25.7257 0.514435 25.2885 0.889033 25.1706 1.39349C24.9987 1.42346 24.8366 1.48839 24.6941 1.57829C24.4976 1.46342 24.2668 1.39849 24.0211 1.39849C23.4955 1.39849 23.0387 1.70316 22.8127 2.14269C22.6899 2.09274 22.5622 2.06278 22.4197 2.06278C21.8548 2.06278 21.398 2.52728 21.398 3.10166C21.398 3.35639 21.4913 3.58115 21.6387 3.76096C21.4962 3.84087 21.3931 3.99071 21.3931 4.17052C21.3931 4.42524 21.5994 4.63502 21.8499 4.63502C22.1004 4.63502 22.3068 4.42524 22.3068 4.17052C22.3068 4.15553 22.3068 4.14055 22.3068 4.13056C22.346 4.13056 22.3853 4.14055 22.4246 4.14055C22.7046 4.14055 22.9601 4.02567 23.1418 3.84087C23.3776 4.04565 23.6871 4.17052 24.0211 4.17052C24.2618 4.17052 24.4878 4.10559 24.6843 3.99071C24.8955 4.12557 25.146 4.20048 25.4113 4.20048C26.1825 4.20048 26.8015 3.56616 26.8015 2.782C26.8015 2.73206 26.8015 2.68211 26.7917 2.63217C27.0766 2.47234 27.2829 2.19264 27.3468 1.853C27.5924 1.84801 27.7839 1.64822 27.7839 1.39849C27.7839 1.14876 27.5825 0.93898 27.332 0.93898L27.3369 0.943975Z" fill="#274247"/>
</g>
<defs>
<clipPath id="clip0_8826_1299">
<rect width="28" height="28" fill="white"/>
</clipPath>
</defs>
</svg>
