<svg width="28" height="28" viewBox="0 0 28 28" fill="none" xmlns="http://www.w3.org/2000/svg">
<g clip-path="url(#clip0_8826_1729)">
<path d="M0.245605 27.7544H27.7544" stroke="#274247" stroke-width="0.7" stroke-miterlimit="10" stroke-linecap="round"/>
<path d="M12.2806 25.5439H15.7192V24.0702H12.2806V25.5439Z" fill="#274247"/>
<path d="M9.33341 27.5088H18.6667V25.5438H9.33341V27.5088Z" fill="#274247"/>
<path d="M18.421 0.245605L8.10522 23.8246" stroke="#274247" stroke-width="0.7" stroke-miterlimit="10" stroke-linecap="round"/>
<path d="M13.5087 22.8421C19.4772 22.8421 24.3157 18.0036 24.3157 12.0351C24.3157 6.06652 19.4772 1.22806 13.5087 1.22806C7.54013 1.22806 2.70166 6.06652 2.70166 12.0351C2.70166 18.0036 7.54013 22.8421 13.5087 22.8421Z" fill="white" stroke="#274247" stroke-width="0.7" stroke-miterlimit="10"/>
<path d="M8.50806 23.2547C9.55437 23.7214 10.6793 24.0456 11.8681 24.2077C18.5881 25.1116 24.7726 20.3958 25.6765 13.6758C26.433 8.05614 23.2645 2.81965 18.2786 0.722107" stroke="#274247" stroke-width="0.7" stroke-miterlimit="10"/>
<path d="M16.5642 4.55369C16.8099 4.46035 16.3776 3.83158 16.3481 4.09685C16.3186 4.36211 15.8863 4.17544 15.4246 4.15579C14.9628 4.13614 15.2134 4.46035 15.0856 4.55369C14.8695 4.71088 15.6113 5.02527 15.7242 5.18246C15.8421 5.33965 16.3186 4.65193 16.5642 4.55369Z" fill="#274247"/>
<path d="M17.2423 6.2435C17.4486 6.34666 17.5272 6.30736 17.5714 6.68069C17.6107 7.0442 17.3405 7.79578 17.5321 7.76631C17.6156 7.75157 17.8465 7.62876 18.0233 7.59929C18.1854 7.57473 18.2886 7.38806 18.3525 7.20139C18.4163 7.01473 18.1904 7.09824 18.0675 6.71999C17.9447 6.34175 17.8219 6.25824 17.7777 6.09122C17.7384 5.9242 17.6746 5.69332 17.5321 5.79648C17.3896 5.89964 17.0409 6.13052 17.2423 6.23367V6.2435Z" fill="#274247"/>
<path d="M10.3797 3.38457C10.0948 3.32071 9.97197 3.62035 9.9474 3.1979C9.92776 2.77544 9.8639 2.69193 9.63793 2.75579C9.41197 2.81965 9.186 3.00632 9.0239 2.94246C8.85688 2.8786 8.79793 2.86878 8.57197 3.09474C8.346 3.32071 7.95302 3.57614 8.15934 3.64492C8.36565 3.71369 8.07583 4.00843 8.4246 3.86106C8.63091 3.77264 8.91583 3.97404 9.0239 3.72843C9.12705 3.48281 9.41197 3.59579 9.47583 3.72843C9.53969 3.86106 9.43653 4.18035 9.59863 4.09685C9.76074 4.00843 9.76074 4.61264 9.59863 4.55369C9.43653 4.48983 9.30881 4.59299 9.20565 4.76983C9.10249 4.94667 8.89618 5.20211 9.07302 5.17755C9.24495 5.1579 9.30881 5.05474 9.49548 5.17755C9.68214 5.30035 9.62319 5.78176 9.85898 5.46737C10.0948 5.15299 10.1341 5.13334 10.2569 5.00562C10.3797 4.8779 10.2962 4.3965 10.4632 4.57334C10.6253 4.75509 10.8562 4.57334 10.8562 4.37193C10.8562 4.17053 10.8169 4.27369 10.6499 3.98386C10.4878 3.68913 10.6695 3.4386 10.3797 3.37965V3.38457Z" fill="#274247"/>
<path d="M16.4709 7.16211C16.3874 7.41264 16.4758 7.46176 16.6134 7.4765C16.805 7.49615 16.8394 7.24562 17.0064 7.20632C17.1685 7.16702 17.0064 6.80843 17.0064 6.57755C17.0064 6.34667 16.8836 6.57755 16.6134 6.68071C16.3481 6.78387 16.5544 6.91159 16.4709 7.16211Z" fill="#274247"/>
<path d="M10.2471 21.9432C10.4927 22.0365 10.7727 21.6632 10.6155 21.5649C10.4632 21.4716 10.365 21.2211 10.6597 21.3144C10.9544 21.4077 11.2001 21.6484 11.2001 21.2947C11.2001 20.9411 11.1706 20.9411 11.3867 20.8133C11.6029 20.6856 11.4162 20.2828 11.5734 20.2484C11.7257 20.219 11.9418 20.1551 12.2218 20.0618C12.4969 19.9684 12.8997 18.9958 12.7769 18.7747C12.6541 18.5537 13.332 18.4653 13.2386 17.7284C13.1453 16.9916 11.9123 16.8049 11.4801 16.6772C11.0478 16.5495 11.0183 16.7067 11.2001 16.3628C11.3867 16.019 10.8611 15.6407 10.4583 15.5474C10.0604 15.454 9.68707 15.1397 9.84426 14.9186C9.99654 14.6975 9.13689 14.9825 8.92075 14.7614C8.70461 14.5404 8.70461 14.3832 8.27233 14.7614C7.84005 15.1347 7.90391 15.5768 7.6583 15.1053C7.41268 14.6337 7.2604 14.8056 7.04426 14.8056C6.82812 14.8056 6.96567 14.2751 6.95093 14.0982C6.93619 13.9263 6.64146 13.8477 6.47444 13.833C6.30251 13.8182 6.82812 13.2386 6.47444 13.16C6.12075 13.0814 5.76707 13.5039 5.73268 13.6316C5.70321 13.7593 5.12847 13.6463 5.27093 13.3516C5.40847 13.0519 4.88286 11.873 5.99304 11.9172C7.10321 11.9565 7.13268 12.5705 7.30461 12.5705C7.47654 12.5705 7.49128 11.8484 7.58461 11.5537C7.67795 11.254 8.04637 10.9593 8.15444 10.9446C8.26251 10.9298 7.9383 10.1144 8.18391 10.193C8.42953 10.2716 8.78321 9.99158 8.96988 9.86386C9.15654 9.74106 9.37268 9.25474 9.43163 9.06316C9.43163 9.06316 9.5004 9.26948 9.66251 9.24983C10.0408 9.21053 10.5713 8.89123 10.5565 8.76351C10.5418 8.63579 9.98672 8.84211 10.0162 8.54246C10.0457 8.24281 9.55444 8.02667 9.89339 7.96281C10.2323 7.89895 10.5271 7.94807 10.7432 7.96281C10.9594 7.97755 10.9741 8.21334 10.9741 8.2772C10.9741 8.34106 11.1608 8.43439 11.4211 8.38527C11.6815 8.33614 11.2344 7.69755 11.0674 7.69755C10.9004 7.69755 11.3622 7.43228 11.2394 7.16702C11.1165 6.90176 10.532 5.78176 10.4534 5.99299C10.4534 5.99299 10.2667 6.4007 10.0506 6.17965C9.83444 5.9586 9.92777 5.58527 9.49549 5.62948C9.06321 5.6786 8.92567 5.45755 8.88146 6.71018C8.92567 7.21123 8.55725 7.1179 8.47865 7.2407C8.40005 7.36351 8.4197 8.1986 8.15444 7.97755C7.89409 7.75649 7.90882 7.33404 7.9383 7.16211C7.96777 6.99018 7.18181 6.88211 7.04426 6.71018C6.90672 6.53825 7.16707 5.81614 7.46181 5.69334C7.75654 5.57053 7.84496 5.04983 8.1397 5.04983C8.43444 5.04983 8.58672 5.03509 8.68005 4.69123C8.77339 4.34737 8.54251 4.33263 8.37058 4.42597C8.20356 4.5193 8.06111 4.5193 7.90882 4.45544C7.75654 4.39158 7.39795 4.54877 7.32426 4.67649C7.24567 4.7993 6.95584 4.91228 6.75444 4.86316C6.55304 4.81404 6.50882 4.92702 6.38602 5.06948C6.30251 5.16772 5.85058 5.1579 5.54111 5.11369C4.20005 6.65614 3.33058 8.55228 3.05058 10.6253C3.00146 10.9888 2.97198 11.3523 2.96216 11.7109C3.11444 11.7158 3.08497 13.0519 3.42882 12.9291C3.78251 12.8063 3.22742 12.1628 3.52216 12.0695C3.81689 11.9761 3.9397 12.3495 4.01339 12.8063C4.09198 13.2582 4.0576 14.0147 4.539 14.0737C5.01549 14.1375 5.47725 14.0098 5.6197 14.1523C5.75725 14.2947 6.2976 14.1523 6.63654 14.9039C6.97549 15.6554 6.86742 15.1249 7.08356 15.1839C7.2997 15.2477 7.57479 15.2723 7.57479 15.4982C7.57479 16.3628 6.78882 16.3923 7.14251 17.0161C7.14251 17.0161 7.92847 18.4112 8.63584 18.7846C9.01409 18.986 8.9797 20.3123 8.86672 21.5011C9.27444 21.6975 9.68707 21.8793 10.1194 22.0267C10.1439 21.9481 10.1783 21.9039 10.2569 21.9333L10.2471 21.9432Z" fill="#274247"/>
<path d="M10.5663 2.75579C10.7923 2.60842 10.6891 2.82456 10.8561 2.45614H11.4947L11.6175 2.77052C11.7207 2.94245 11.8435 2.92281 11.8435 3.08982C11.8435 3.25684 11.6175 3.68912 11.8435 3.64C12.0695 3.59088 12.1923 3.62035 12.1333 3.74316C12.0695 3.86596 11.6814 3.82175 11.7649 4.03298C11.8484 4.24421 12.1333 4.18526 12.0547 4.2786C11.9712 4.36702 10.9249 4.99579 12.4231 6.20421C13.0617 6.56772 13.2435 5.28561 13.3467 5.01544C13.3467 5.01544 13.6561 4.91719 13.7986 4.9221C13.941 4.93193 13.941 4.53403 14.2702 4.40632C14.5993 4.2786 14.9481 4.00842 15.2379 4.09193C15.5277 4.17544 15.567 3.78246 15.5031 3.73824C15.4393 3.69403 14.9677 3.64491 14.8646 3.63509C14.7614 3.63017 14.7663 3.28631 14.8449 3.27649C14.9333 3.26667 15.2968 3.25684 15.3803 3.27649C15.6849 3.38456 15.7144 2.92772 15.6996 2.64772C15.6947 2.5593 15.621 2.39228 15.5474 2.24C15.4835 2.19088 15.4442 1.8814 15.3902 1.65052C15.233 1.62105 15.0807 1.58667 14.9235 1.56702C13.3761 1.3607 11.8386 1.50316 10.3944 1.95017C10.3895 1.95017 10.3846 1.96 10.3796 1.96491C10.4435 2.25474 10.4779 2.81474 10.5712 2.75579H10.5663Z" fill="#274247"/>
<path d="M21.9038 5.62948C21.6238 5.26106 21.3144 4.92211 20.9951 4.5979C20.9558 4.70106 20.9165 4.81404 20.8772 4.94667C20.7347 5.46737 20.941 5.28071 21.0393 5.57544C21.1424 5.86527 21.4323 5.44773 21.5551 5.32492C21.6779 5.1972 21.8842 5.78176 21.6779 5.77685C21.4716 5.77194 21.3684 5.82597 21.2259 5.92913C21.0835 6.03229 21.2898 6.0765 21.2259 6.24351C21.1621 6.41053 21.0393 6.24351 20.7937 6.32702C20.548 6.41053 20.7937 6.80843 20.7101 6.87229C20.6266 6.93615 20.3614 6.9558 20.0519 6.99018C19.7424 7.02948 19.3347 7.0786 19.1284 6.99018C18.9221 6.90176 18.7158 7.30948 18.6765 7.50106C18.6372 7.69755 18.3866 7.84983 18.1459 7.97755C17.9052 8.10527 17.8316 8.14457 17.6596 8.24773C17.4877 8.35088 17.8954 8.60141 18.0379 8.66527C18.1803 8.72913 18.2442 9.07299 18.141 9.16632C18.0379 9.25966 17.3059 9.00913 17.1733 9.16632C17.0407 9.32351 16.9965 9.77053 17.0014 9.90808C17.0063 10.0456 17.0259 10.1979 17.1635 10.2863C17.2961 10.3698 17.7186 10.3502 17.8119 10.3256C17.9052 10.306 18.1656 10.2372 18.1951 10.0014C18.2638 9.45615 18.8533 9.0386 18.8926 9.0386C18.9319 9.0386 19.5214 8.82737 19.541 9.01895C19.5607 9.20562 20.1256 9.61334 20.16 9.66738C20.1894 9.72141 20.1698 9.80492 20.0961 9.92773C20.0224 10.0554 20.273 10.139 20.2582 10.0407C20.2484 9.94738 20.3908 9.93755 20.5137 9.92773C20.6365 9.9179 20.5972 9.66738 20.4007 9.53966C20.2042 9.41194 19.8358 8.91088 19.7965 8.71439C19.7572 8.5179 19.9586 8.46387 20.1354 8.70457C20.3123 8.94527 20.8182 9.3186 20.8821 9.48562C20.941 9.65264 20.9607 9.88352 20.8821 9.96702C20.8035 10.0505 21.0638 10.2274 21.0835 10.3305C21.1031 10.4337 21.3684 10.3109 21.4715 10.2863C21.5747 10.2667 21.3291 9.92281 21.2849 9.74106C21.2456 9.56422 21.5845 9.61825 21.7466 9.74106C21.9087 9.86387 21.8203 10.3944 21.7172 10.5123C21.614 10.6302 21.6533 10.473 21.4077 10.6253C21.1621 10.7825 21.4716 10.8561 21.6533 10.9298C21.84 11.0035 21.7614 10.6498 21.9333 10.4926C22.1052 10.3305 22.8372 10.4042 22.9305 10.4926C23.0238 10.5811 23.2105 10.9102 22.9354 11.0968C22.6603 11.2835 22.9452 11.259 22.8028 11.539C22.6603 11.819 21.5894 11.4997 21.5894 11.4997C21.4224 11.3965 21.6533 11.2049 21.1768 11.1853C20.7052 11.1656 21.1326 11.313 20.8723 11.5635C20.607 11.814 20.3123 11.4161 20.273 11.2098C20.2287 10.9986 19.8063 11.0428 19.6982 10.9593C19.5901 10.8709 19.6835 10.6204 19.5558 10.4779C19.428 10.3404 18.5144 10.3256 18.3523 10.414C18.1901 10.5025 18.1165 10.6449 17.6252 10.6646C17.134 10.6842 16.967 11.1214 16.967 11.1214C16.967 11.1214 16.8 11.4505 16.9473 11.8091C16.2596 11.9516 15.96 12.7081 15.96 12.7081C15.96 12.7081 15.8765 13.0863 15.8323 14.0246C15.788 14.9628 16.628 15.8421 16.628 15.8421C16.7656 16.1565 18.1803 15.5768 18.3523 15.5081C18.7993 16.3726 19.4723 15.6947 19.2463 16.5544C19.0203 17.4091 19.4723 17.2667 19.4723 17.6007C19.4723 17.9347 19.6982 18.7502 19.2021 19.2709C18.981 19.5067 19.0203 20.2288 19.1235 20.9558C19.3887 20.7888 19.6491 20.6119 19.8996 20.4204C21.7712 18.9909 23.073 17.026 23.6772 14.7909C23.5101 14.2407 23.1614 13.106 22.7782 12.4772C22.3066 11.706 22.8421 11.9074 22.8421 11.9074C22.8421 11.9074 23.2105 12.3691 23.3333 12.6C23.4561 12.8309 23.3333 13.2877 23.4561 13.4351C23.5789 13.5825 23.7214 13.5383 23.7017 13.7249C23.6919 13.8232 23.7459 14.0295 23.8147 14.2161C23.8687 13.9558 23.9228 13.6905 23.9621 13.4253C24.3403 10.6302 23.6035 7.85474 21.894 5.61474L21.9038 5.62948ZM23.4758 9.50527C23.2301 9.52001 23.2007 9.64773 23.0042 9.50527C22.8077 9.36773 22.6161 9.24983 22.5424 9.33334C22.4687 9.41685 22.4687 9.61825 22.3803 9.56913C22.287 9.52001 22.228 9.50036 22.228 9.50036C22.0512 9.52001 21.8154 9.47088 21.9284 9.25966C22.0414 9.04843 22.2035 8.9158 22.1249 8.80773C22.0414 8.70457 22.1052 8.57685 22.3508 8.67018C22.5965 8.76351 22.7094 8.8765 22.7831 8.74387C22.8568 8.60632 22.9993 8.51299 23.073 8.75369C23.1466 8.99439 23.1565 9.17123 23.2891 9.21545C23.4217 9.25966 23.7312 9.48562 23.4856 9.50036L23.4758 9.50527Z" fill="#274247"/>
<path d="M18.824 5.20212C18.6619 5.3937 18.824 5.47229 18.824 5.72282C18.824 5.97335 18.9075 5.88984 19.05 6.01264C19.1924 6.13545 19.2956 5.94878 19.4724 5.84563C19.6493 5.74247 19.6247 6.03229 19.6444 6.22387C19.664 6.41054 19.7868 6.55791 19.9096 6.47931C20.0324 6.40071 20.0521 5.993 20.1945 5.993C20.337 5.993 20.4008 5.74247 20.4205 5.57545C20.4401 5.40843 20.1552 5.30528 20.1552 5.30528C20.1552 5.30528 20.0914 5.11861 20.2191 5.11861C20.3468 5.11861 20.4647 4.95159 20.4254 4.76984C20.3959 4.64703 20.5138 4.45545 20.6956 4.31299C20.4352 4.07229 20.1651 3.84142 19.8851 3.63019C19.8163 3.81685 19.8163 3.98878 19.7868 4.10177C19.7229 4.313 18.9861 5.01545 18.8191 5.20703L18.824 5.20212Z" fill="#274247"/>
</g>
<defs>
<clipPath id="clip0_8826_1729">
<rect width="28" height="28" fill="white"/>
</clipPath>
</defs>
</svg>
