<svg width="28" height="28" viewBox="0 0 28 28" fill="none" xmlns="http://www.w3.org/2000/svg">
<g clip-path="url(#clip0_10013_4051)">
<path d="M14.7797 2.33334C21.9137 2.33334 27.6458 8.3372 27.1975 15.5714C26.8113 21.766 21.7707 26.8113 15.5713 27.1976C8.34188 27.6459 2.33325 21.9138 2.33325 14.7798H14.7797V2.33334Z" fill="white" stroke="#274247" stroke-width="0.7" stroke-miterlimit="10"/>
<path d="M27.2223 14.7778C27.2223 7.90449 21.6511 2.33334 14.7778 2.33334V14.7778H27.2223Z" fill="white" stroke="#274247" stroke-width="0.7" stroke-miterlimit="10"/>
<path d="M27.2223 14.7778H14.7778V27.2222C21.5448 27.2222 27.0297 21.6511 27.0297 14.7778" fill="#274247"/>
<path d="M27.2223 14.7778H14.7778V27.2222C21.5448 27.2222 27.0297 21.6511 27.0297 14.7778" stroke="#274247" stroke-width="0.7" stroke-miterlimit="10"/>
<path d="M18.4092 3.56379L18.6802 3.29083" stroke="#274247" stroke-width="0.7" stroke-miterlimit="10" stroke-linecap="round"/>
<path d="M17.054 3.56377L17.4885 3.1261" stroke="#274247" stroke-width="0.7" stroke-miterlimit="10" stroke-linecap="round"/>
<path d="M15.6987 3.56377L16.1333 3.1261" stroke="#274247" stroke-width="0.7" stroke-miterlimit="10" stroke-linecap="round"/>
<path d="M18.4092 5.31917L18.8438 4.8815" stroke="#274247" stroke-width="0.7" stroke-miterlimit="10" stroke-linecap="round"/>
<path d="M17.054 5.31917L17.4885 4.8815" stroke="#274247" stroke-width="0.7" stroke-miterlimit="10" stroke-linecap="round"/>
<path d="M15.6987 5.31917L16.1333 4.8815" stroke="#274247" stroke-width="0.7" stroke-miterlimit="10" stroke-linecap="round"/>
<path d="M19.7642 5.31917L20.1987 4.8815" stroke="#274247" stroke-width="0.7" stroke-miterlimit="10" stroke-linecap="round"/>
<path d="M21.115 5.31917L21.5543 4.8815" stroke="#274247" stroke-width="0.7" stroke-miterlimit="10" stroke-linecap="round"/>
<path d="M18.4092 7.06984L18.8438 6.63217" stroke="#274247" stroke-width="0.7" stroke-miterlimit="10" stroke-linecap="round"/>
<path d="M17.054 7.06984L17.4885 6.63217" stroke="#274247" stroke-width="0.7" stroke-miterlimit="10" stroke-linecap="round"/>
<path d="M15.6987 7.06984L16.1333 6.63217" stroke="#274247" stroke-width="0.7" stroke-miterlimit="10" stroke-linecap="round"/>
<path d="M19.7642 7.06984L20.1987 6.63217" stroke="#274247" stroke-width="0.7" stroke-miterlimit="10" stroke-linecap="round"/>
<path d="M21.115 7.06984L21.5543 6.63217" stroke="#274247" stroke-width="0.7" stroke-miterlimit="10" stroke-linecap="round"/>
<path d="M22.47 7.06984L22.9092 6.63217" stroke="#274247" stroke-width="0.7" stroke-miterlimit="10" stroke-linecap="round"/>
<path d="M23.825 7.06985L24.0025 6.89572" stroke="#274247" stroke-width="0.7" stroke-miterlimit="10" stroke-linecap="round"/>
<path d="M18.4092 8.82521L18.8438 8.38754" stroke="#274247" stroke-width="0.7" stroke-miterlimit="10" stroke-linecap="round"/>
<path d="M17.054 8.82521L17.4885 8.38754" stroke="#274247" stroke-width="0.7" stroke-miterlimit="10" stroke-linecap="round"/>
<path d="M15.6987 8.82521L16.1333 8.38754" stroke="#274247" stroke-width="0.7" stroke-miterlimit="10" stroke-linecap="round"/>
<path d="M19.7642 8.82521L20.1987 8.38754" stroke="#274247" stroke-width="0.7" stroke-miterlimit="10" stroke-linecap="round"/>
<path d="M21.115 8.82521L21.5543 8.38754" stroke="#274247" stroke-width="0.7" stroke-miterlimit="10" stroke-linecap="round"/>
<path d="M22.47 8.82521L22.9092 8.38754" stroke="#274247" stroke-width="0.7" stroke-miterlimit="10" stroke-linecap="round"/>
<path d="M23.825 8.82521L24.2595 8.38754" stroke="#274247" stroke-width="0.7" stroke-miterlimit="10" stroke-linecap="round"/>
<path d="M25.1802 8.82522L25.2877 8.71698" stroke="#274247" stroke-width="0.7" stroke-miterlimit="10" stroke-linecap="round"/>
<path d="M18.4092 10.5806L18.8438 10.143" stroke="#274247" stroke-width="0.7" stroke-miterlimit="10" stroke-linecap="round"/>
<path d="M17.054 10.5806L17.4885 10.143" stroke="#274247" stroke-width="0.7" stroke-miterlimit="10" stroke-linecap="round"/>
<path d="M15.6987 10.5806L16.1333 10.1429" stroke="#274247" stroke-width="0.7" stroke-miterlimit="10" stroke-linecap="round"/>
<path d="M19.7642 10.5806L20.1987 10.143" stroke="#274247" stroke-width="0.7" stroke-miterlimit="10" stroke-linecap="round"/>
<path d="M21.115 10.5806L21.5543 10.143" stroke="#274247" stroke-width="0.7" stroke-miterlimit="10" stroke-linecap="round"/>
<path d="M22.47 10.5806L22.9092 10.143" stroke="#274247" stroke-width="0.7" stroke-miterlimit="10" stroke-linecap="round"/>
<path d="M23.825 10.5806L24.2595 10.143" stroke="#274247" stroke-width="0.7" stroke-miterlimit="10" stroke-linecap="round"/>
<path d="M25.1802 10.5806L25.6148 10.143" stroke="#274247" stroke-width="0.7" stroke-miterlimit="10" stroke-linecap="round"/>
<path d="M18.4092 12.336L18.8438 11.8983" stroke="#274247" stroke-width="0.7" stroke-miterlimit="10" stroke-linecap="round"/>
<path d="M17.054 12.336L17.4885 11.8983" stroke="#274247" stroke-width="0.7" stroke-miterlimit="10" stroke-linecap="round"/>
<path d="M15.6987 12.336L16.1333 11.8983" stroke="#274247" stroke-width="0.7" stroke-miterlimit="10" stroke-linecap="round"/>
<path d="M19.7642 12.336L20.1987 11.8983" stroke="#274247" stroke-width="0.7" stroke-miterlimit="10" stroke-linecap="round"/>
<path d="M21.115 12.336L21.5543 11.8983" stroke="#274247" stroke-width="0.7" stroke-miterlimit="10" stroke-linecap="round"/>
<path d="M22.47 12.336L22.9092 11.8983" stroke="#274247" stroke-width="0.7" stroke-miterlimit="10" stroke-linecap="round"/>
<path d="M23.825 12.336L24.2595 11.8983" stroke="#274247" stroke-width="0.7" stroke-miterlimit="10" stroke-linecap="round"/>
<path d="M25.1802 12.336L25.6148 11.8983" stroke="#274247" stroke-width="0.7" stroke-miterlimit="10" stroke-linecap="round"/>
<path d="M26.5354 12.3353L26.6289 12.2419" stroke="#274247" stroke-width="0.7" stroke-miterlimit="10" stroke-linecap="round"/>
<path d="M18.4092 14.0867L18.8438 13.649" stroke="#274247" stroke-width="0.7" stroke-miterlimit="10" stroke-linecap="round"/>
<path d="M17.054 14.0867L17.4885 13.649" stroke="#274247" stroke-width="0.7" stroke-miterlimit="10" stroke-linecap="round"/>
<path d="M15.6987 14.0867L16.1333 13.649" stroke="#274247" stroke-width="0.7" stroke-miterlimit="10" stroke-linecap="round"/>
<path d="M19.7642 14.0867L20.1987 13.649" stroke="#274247" stroke-width="0.7" stroke-miterlimit="10" stroke-linecap="round"/>
<path d="M21.115 14.0867L21.5543 13.649" stroke="#274247" stroke-width="0.7" stroke-miterlimit="10" stroke-linecap="round"/>
<path d="M22.47 14.0867L22.9092 13.649" stroke="#274247" stroke-width="0.7" stroke-miterlimit="10" stroke-linecap="round"/>
<path d="M23.825 14.0867L24.2595 13.649" stroke="#274247" stroke-width="0.7" stroke-miterlimit="10" stroke-linecap="round"/>
<path d="M25.1802 14.0867L25.6148 13.649" stroke="#274247" stroke-width="0.7" stroke-miterlimit="10" stroke-linecap="round"/>
<path d="M26.5354 14.0866L26.8532 13.7666" stroke="#274247" stroke-width="0.7" stroke-miterlimit="10" stroke-linecap="round"/>
<path d="M0.777832 13.2222C0.777832 6.34891 6.34898 0.777771 13.2223 0.777771V13.2222H0.777832Z" fill="white" stroke="#274247" stroke-width="0.7" stroke-miterlimit="10"/>
</g>
<defs>
<clipPath id="clip0_10013_4051">
<rect width="28" height="28" fill="white"/>
</clipPath>
</defs>
</svg>
