<svg width="28" height="28" viewBox="0 0 28 28" fill="none" xmlns="http://www.w3.org/2000/svg">
<g clip-path="url(#clip0_8826_1315)">
<path d="M14 27.7544C21.5963 27.7544 27.7544 21.5963 27.7544 14C27.7544 6.40365 21.5963 0.245605 14 0.245605C6.40365 0.245605 0.245605 6.40365 0.245605 14C0.245605 21.5963 6.40365 27.7544 14 27.7544Z" fill="white" stroke="#274247" stroke-width="0.7" stroke-miterlimit="10"/>
<path d="M14 27.0175C21.1894 27.0175 27.0175 21.1894 27.0175 14C27.0175 6.81061 21.1894 0.982452 14 0.982452C6.81058 0.982452 0.982422 6.81061 0.982422 14C0.982422 21.1894 6.81058 27.0175 14 27.0175Z" fill="#274247"/>
<path d="M20.1403 11.7895H16.2105V7.85965H11.7894V11.7895H7.85962V16.2105H11.7894V20.1403H16.2105V16.2105H20.1403V11.7895Z" fill="white"/>
<path d="M14 27.2632C21.325 27.2632 27.2631 21.325 27.2631 14C27.2631 6.67496 21.325 0.736847 14 0.736847C6.67493 0.736847 0.736816 6.67496 0.736816 14C0.736816 21.325 6.67493 27.2632 14 27.2632Z" stroke="white" stroke-width="0.7" stroke-miterlimit="10"/>
</g>
<defs>
<clipPath id="clip0_8826_1315">
<rect width="28" height="28" fill="white"/>
</clipPath>
</defs>
</svg>
