<svg width="28" height="28" viewBox="0 0 28 28" fill="none" xmlns="http://www.w3.org/2000/svg">
<g clip-path="url(#clip0_8826_1345)">
<path d="M14 27.7544C21.5963 27.7544 27.7544 21.5963 27.7544 14C27.7544 6.40365 21.5963 0.245605 14 0.245605C6.40365 0.245605 0.245605 6.40365 0.245605 14C0.245605 21.5963 6.40365 27.7544 14 27.7544Z" fill="white" stroke="#274247" stroke-width="0.7" stroke-miterlimit="10"/>
<path d="M1.14453 11.9614C1.16909 11.8189 1.18874 11.6814 1.2133 11.5439C1.18874 11.6814 1.16418 11.8239 1.14453 11.9614Z" fill="#274247"/>
<path d="M26.1431 9.29895C26.1775 9.39228 26.2167 9.48562 26.2511 9.57895C26.2167 9.48562 26.1824 9.39228 26.1431 9.29895Z" fill="#274247"/>
<path d="M27.0126 14.2947C27.0126 14.4372 27.0027 14.5797 26.9929 14.727C27.0027 14.5846 27.0077 14.4421 27.0126 14.2947Z" fill="#274247"/>
<path d="M27.0125 14.1326C27.0321 12.6442 26.7963 11.1803 26.3198 9.79016C26.7816 11.1607 27.0223 12.6245 27.0125 14.1326Z" fill="#274247"/>
<path d="M18.814 6.40069C18.9909 6.27297 19.0646 6.55297 19.1137 6.75929C19.1628 6.96069 19.3151 7.06385 19.4674 7.5256C19.6197 7.98245 19.8947 7.8842 19.8161 8.11016C19.7425 8.34104 19.6147 8.56209 19.4133 8.59648C19.1972 8.63087 18.9123 8.78315 18.8091 8.79788C18.5733 8.83227 18.9074 7.91859 18.8582 7.47157C18.8042 7.00981 18.706 7.06385 18.4554 6.93613C18.2049 6.80841 18.6323 6.52841 18.8091 6.40069H18.814ZM10.1733 4.90736C9.97193 4.68631 10.0702 5.28069 9.92281 5.43297C9.77053 5.58525 9.72141 5.60981 9.4365 5.99297C9.15158 6.37613 9.22035 5.78666 8.99439 5.63929C8.76843 5.48701 8.69474 5.61473 8.4786 5.63929C8.26246 5.66385 8.5179 5.35929 8.64071 5.13824C8.76843 4.91718 8.91579 4.79438 9.1172 4.87297C9.3186 4.95157 9.3186 4.20981 9.1172 4.31788C8.91579 4.42595 9.04351 4.03297 8.96492 3.87087C8.89123 3.70876 8.53755 3.57122 8.41474 3.87087C8.28702 4.17052 7.93825 3.9249 7.68281 4.03297C7.25544 4.20981 7.60913 3.85613 7.3586 3.76771C7.10807 3.6842 7.58457 3.36981 7.85965 3.09473C8.13474 2.81964 8.20842 2.82946 8.41474 2.90806C8.61614 2.98666 8.89123 2.75578 9.16632 2.67718C9.44141 2.6035 9.52 2.70174 9.54457 3.21753C9.56913 3.73332 9.72141 3.36981 10.0702 3.4435C10.4239 3.5221 10.1979 3.82666 10.3993 4.18525C10.6007 4.54385 10.6498 4.41613 10.6498 4.66174C10.6498 4.90736 10.3747 5.12841 10.1733 4.91227V4.90736ZM18.1754 7.34385C18.1754 7.62385 18.3768 8.05613 18.1754 8.11016C17.974 8.15929 17.9298 8.46876 17.6989 8.43929C17.5319 8.41964 17.4239 8.3656 17.5221 8.05613C17.6253 7.75157 17.3698 7.59929 17.6989 7.47157C18.0281 7.34385 18.1754 7.06385 18.1754 7.34385ZM16.6084 5.63438C16.466 5.4428 15.5621 5.05964 15.8274 4.86806C15.9846 4.75508 15.6751 4.3621 16.24 4.38666C16.8049 4.41122 17.3354 4.63718 17.3698 4.31297C17.4091 3.98876 17.9347 4.75508 17.6351 4.86806C17.3354 4.98104 16.7509 5.82595 16.6084 5.63438Z" fill="#274247"/>
<path d="M17.635 4.87299C17.9346 4.76001 17.409 3.9937 17.3697 4.31791C17.3304 4.64212 16.8048 4.41615 16.2399 4.39159C15.675 4.36703 15.9845 4.76001 15.8273 4.87299C15.562 5.06457 16.4659 5.44773 16.6083 5.63931C16.7508 5.83089 17.3353 4.99089 17.635 4.87299Z" fill="#274247"/>
<path d="M18.4603 6.93614C18.7109 7.06386 18.8091 7.00983 18.8631 7.47158C18.9123 7.9186 18.5782 8.83228 18.814 8.7979C18.9172 8.78316 19.2021 8.63088 19.4182 8.59649C19.6196 8.56211 19.7424 8.34105 19.821 8.11018C19.8947 7.8793 19.6196 7.98246 19.4723 7.52562C19.32 7.06386 19.1726 6.96562 19.1186 6.7593C19.0695 6.55298 18.9909 6.27298 18.8189 6.4007C18.6421 6.52842 18.2147 6.80842 18.4652 6.93614H18.4603Z" fill="#274247"/>
<path d="M10.0702 3.44351C9.72141 3.36491 9.56913 3.72842 9.54457 3.21754C9.52 2.70666 9.44141 2.60351 9.16632 2.67719C8.89123 2.75579 8.61123 2.98175 8.41474 2.90807C8.21334 2.82947 8.13474 2.81965 7.85965 3.09473C7.58457 3.36982 7.10807 3.6793 7.3586 3.76772C7.60913 3.85123 7.26036 4.20982 7.68281 4.03298C7.93334 3.92491 8.28702 4.17052 8.41474 3.87087C8.54246 3.57123 8.89123 3.70877 8.96492 3.87087C9.0386 4.03298 8.91579 4.42596 9.1172 4.31789C9.3186 4.20982 9.3186 4.95158 9.1172 4.87298C8.91579 4.79438 8.76351 4.9221 8.64071 5.13824C8.51299 5.3593 8.26246 5.66386 8.4786 5.6393C8.68983 5.61473 8.76843 5.48702 8.99439 5.6393C9.22036 5.79158 9.15158 6.37614 9.4365 5.99298C9.72141 5.60982 9.77053 5.58526 9.92281 5.43298C10.0751 5.2807 9.97193 4.68631 10.1733 4.90737C10.3747 5.12842 10.6498 4.90737 10.6498 4.65684C10.6498 4.40631 10.6007 4.53895 10.3993 4.18035C10.1979 3.82175 10.4239 3.51719 10.0702 3.43859V3.44351Z" fill="#274247"/>
<path d="M17.522 8.05615C17.4238 8.36071 17.5318 8.41966 17.6988 8.43931C17.9297 8.46387 17.9739 8.15931 18.1753 8.11018C18.3767 8.06106 18.1753 7.62387 18.1753 7.34387C18.1753 7.06387 18.0231 7.34387 17.6988 7.47159C17.3746 7.59931 17.6252 7.75159 17.522 8.05615Z" fill="#274247"/>
<path d="M9.90801 26.0989C10.2077 26.2119 10.5466 25.7551 10.3599 25.6421C10.1733 25.5291 10.0554 25.2197 10.414 25.3375C10.7726 25.4505 11.0771 25.7453 11.0771 25.313C11.0771 24.8807 11.0378 24.8807 11.3031 24.7284C11.5634 24.5761 11.3424 24.08 11.5291 24.0407C11.7157 24.0014 11.981 23.9277 12.3199 23.8098C12.6589 23.6968 13.1501 22.5081 12.9978 22.2428C12.8455 21.9775 13.6757 21.8646 13.5627 20.9607C13.4498 20.0618 11.9417 19.8309 11.4161 19.6786C10.8905 19.5263 10.8512 19.7179 11.0771 19.2954C11.3031 18.873 10.6645 18.4161 10.1733 18.2982C9.68204 18.1853 9.23011 17.8021 9.42169 17.5319C9.60836 17.2618 8.55222 17.6105 8.29187 17.3404C8.0266 17.0702 8.0266 16.8786 7.50099 17.3404C6.97537 17.7972 7.04906 18.3326 6.74941 17.7628C6.44976 17.1881 6.25818 17.3993 5.99783 17.3993C5.73748 17.3993 5.9045 16.7509 5.88485 16.5396C5.8652 16.3284 5.5066 16.2351 5.30029 16.2154C5.09397 16.1958 5.73257 15.4884 5.30029 15.3951C4.86801 15.3018 4.43573 15.8175 4.39643 15.9698C4.35713 16.1221 3.65959 15.9895 3.83152 15.626C4.00344 15.2625 3.35994 13.8232 4.71573 13.8723C6.07152 13.9214 6.11081 14.6681 6.31713 14.6681C6.52344 14.6681 6.54309 13.7888 6.65608 13.4253C6.76906 13.0618 7.22099 12.6982 7.35362 12.6786C7.48625 12.6589 7.08836 11.6667 7.39292 11.76C7.69257 11.8533 8.12976 11.5144 8.35573 11.3572C8.58169 11.2049 8.84695 10.6105 8.92064 10.3797C8.92064 10.3797 9.00415 10.6302 9.20064 10.6105C9.66239 10.5663 10.3108 10.1733 10.2912 10.0161C10.2715 9.86386 9.59362 10.1095 9.63292 9.74597C9.67222 9.38246 9.06801 9.11228 9.48064 9.0386C9.89327 8.96 10.2519 9.01895 10.5171 9.0386C10.7775 9.05825 10.7971 9.34316 10.7971 9.42176C10.7971 9.50035 11.0231 9.61334 11.3424 9.55439C11.6617 9.49544 11.1164 8.71439 10.9101 8.71439C10.7038 8.71439 11.2687 8.39018 11.1164 8.06597C10.9641 7.74176 10.2519 6.37123 10.1536 6.63158C10.1536 6.63158 9.92766 7.12772 9.66239 6.86246C9.39713 6.59228 9.51011 6.13544 8.9845 6.19439C8.45888 6.25334 8.28695 5.98316 8.23292 7.51579C8.28695 8.12983 7.83502 8.01193 7.74169 8.16421C7.64836 8.31649 7.66801 9.32842 7.34871 9.06316C7.02941 8.79299 7.04906 8.2772 7.08344 8.07088C7.12274 7.85965 6.15994 7.72702 5.99292 7.51579C5.82099 7.30456 6.1452 6.42527 6.5038 6.27299C6.86239 6.12071 6.97537 5.48702 7.33397 5.48702C7.69257 5.48702 7.87923 5.46737 7.99222 5.04492C8.1052 4.62246 7.82029 4.60281 7.61397 4.72071C7.40766 4.83369 7.23573 4.83369 7.04906 4.76C6.86239 4.68141 6.4252 4.87299 6.33187 5.03018C6.23853 5.18246 5.87994 5.31509 5.63432 5.26106C5.38871 5.20211 5.33467 5.33965 5.18239 5.51158C5.07432 5.63439 4.47011 5.61965 4.09678 5.56071C2.79502 7.08351 1.8666 8.88141 1.37537 10.8414C1.35573 10.9249 1.33608 11.0035 1.31643 11.087C1.28204 11.2393 1.24766 11.3965 1.21818 11.5537C1.19362 11.6912 1.16906 11.8337 1.14941 11.9712C1.13467 12.0695 1.11502 12.1726 1.10029 12.2709C1.04134 12.7228 1.00204 13.1698 0.987305 13.6168C1.1838 13.5726 1.13467 15.2575 1.56204 15.1102C1.99432 14.9579 1.31643 14.1719 1.67502 14.0589C2.03362 13.946 2.18099 14.4028 2.27923 14.9579C2.37257 15.513 2.33327 16.4316 2.91783 16.5053C3.50239 16.5839 4.0673 16.4267 4.23432 16.6035C4.40625 16.7754 5.0645 16.6035 5.47713 17.5221C5.88976 18.4407 5.75713 17.7874 6.02239 17.866C6.28766 17.9446 6.6266 17.974 6.6266 18.2491C6.6266 19.3004 5.6638 19.3397 6.10099 20.106C6.10099 20.106 7.0638 21.8056 7.92836 22.2674C8.39994 22.5179 8.3459 24.1979 8.19853 25.6716C8.68976 25.9172 9.19573 26.1284 9.71643 26.3102C9.74099 26.1677 9.78029 26.0646 9.90801 26.1137V26.0989Z" fill="#274247"/>
<path d="M5.52634 4.65685C5.75231 4.74036 5.90459 4.58808 5.72775 4.28352C5.65897 4.16562 5.63441 4.09685 5.61968 4.0379C5.24143 4.35229 4.88775 4.69124 4.55371 5.04492C4.68143 5.1186 4.81406 5.15299 4.97125 5.12843C5.30038 5.07931 5.30038 4.57334 5.52634 4.66176V4.65685Z" fill="#274247"/>
<path d="M7.55986 3.03578C7.7367 2.90806 7.63355 2.54947 7.90863 2.57894C8.18372 2.6035 8.38512 2.70666 8.56197 2.57894C8.73881 2.45122 8.66021 2.22034 8.88618 2.06806C8.9353 2.03368 8.98933 1.99929 9.04337 1.9649C8.36056 2.2449 7.6974 2.58385 7.06372 2.98666C7.24548 3.0849 7.40267 3.14876 7.55495 3.04069L7.55986 3.03578Z" fill="#274247"/>
<path d="M10.3009 2.32842C10.576 2.15157 10.4532 2.41193 10.6546 1.96491H11.4307L11.583 2.34807C11.7107 2.55929 11.8581 2.53473 11.8581 2.73614C11.8581 2.93754 11.583 3.46807 11.8581 3.40912C12.1331 3.35017 12.2854 3.38456 12.2117 3.53192C12.1381 3.68421 11.6567 3.63017 11.7598 3.88561C11.8581 4.14105 12.2117 4.07228 12.1135 4.18526C12.0103 4.29333 10.7282 5.05964 12.5654 6.53824C13.3416 6.98526 13.5724 5.41824 13.6953 5.08421C13.6953 5.08421 14.0735 4.9614 14.2454 4.97122C14.4223 4.98105 14.4223 4.49473 14.8251 4.34245C15.2279 4.19017 15.6553 3.85614 16.004 3.95929C16.3577 4.06245 16.4068 3.58105 16.3282 3.52701C16.2546 3.47298 15.6749 3.40912 15.5472 3.40421C15.4195 3.39438 15.4244 2.97684 15.5226 2.96701C15.6356 2.95228 16.0777 2.94245 16.176 2.96701C16.5444 3.09964 16.5837 2.54456 16.564 2.2007C16.5591 2.09263 16.4658 1.88631 16.3774 1.69964C16.2742 1.62105 16.1563 1.37052 16.0433 1.14456C15.9402 1.12982 15.837 1.11017 15.7339 1.09543C15.1444 1.01684 14.5549 0.977539 13.9703 0.977539C12.6096 0.977539 11.2784 1.19368 10.0012 1.60631C10.0798 1.96 10.183 2.4021 10.296 2.32842H10.3009Z" fill="#274247"/>
<path d="M26.2464 9.57895C26.212 9.48562 26.1776 9.39228 26.1383 9.29895C25.7011 8.16912 25.1018 7.09334 24.3453 6.10597C23.9671 5.60983 23.5593 5.14807 23.1222 4.7207C23.0583 4.89263 22.9699 5.10386 22.9011 5.3593C22.7243 5.9979 22.9748 5.76702 23.1025 6.12562C23.2302 6.48421 23.579 5.97334 23.7313 5.82105C23.8836 5.66877 24.1341 6.38105 23.8836 6.37614C23.633 6.37123 23.5053 6.43509 23.3334 6.56281C23.1565 6.69053 23.4071 6.73965 23.3334 6.94597C23.2597 7.15228 23.1074 6.94597 22.8078 7.04912C22.5081 7.15228 22.8078 7.63369 22.7046 7.71228C22.6064 7.79088 22.2772 7.81544 21.899 7.85965C21.5208 7.90386 21.0197 7.96772 20.7692 7.85965C20.5186 7.75158 20.2681 8.24772 20.2141 8.48351C20.165 8.7193 19.8604 8.91088 19.5657 9.06316C19.2709 9.21544 19.1825 9.26948 18.9713 9.39228C18.7601 9.52 19.2562 9.82456 19.433 9.90316C19.6099 9.97684 19.6885 10.4042 19.5608 10.5172C19.433 10.6302 18.5439 10.3256 18.3769 10.5172C18.2148 10.7088 18.1558 11.2589 18.1657 11.4211C18.1755 11.5881 18.2001 11.7747 18.3622 11.8779C18.5243 11.9811 19.0401 11.9565 19.1579 11.927C19.2758 11.8975 19.5902 11.8239 19.6246 11.534C19.7081 10.866 20.4253 10.36 20.4793 10.36C20.5334 10.36 21.2457 10.1046 21.2702 10.3354C21.2948 10.5663 21.9874 11.0625 22.0267 11.1263C22.066 11.1902 22.0415 11.2933 21.953 11.4456C21.8646 11.5979 22.1692 11.7011 22.1544 11.5881C22.1397 11.4751 22.3165 11.4604 22.4688 11.4456C22.6211 11.4309 22.572 11.1263 22.3313 10.974C22.0906 10.8218 21.6386 10.2077 21.5895 9.96702C21.5404 9.72632 21.7909 9.66246 22.0022 9.95228C22.2134 10.247 22.8372 10.7039 22.9109 10.9102C22.9846 11.1165 23.0043 11.3965 22.9109 11.4947C22.8127 11.5979 23.132 11.814 23.1565 11.9418C23.1811 12.0695 23.5053 11.9172 23.633 11.8926C23.7608 11.8681 23.4562 11.4456 23.4071 11.2295C23.3579 11.0133 23.7755 11.0772 23.972 11.2295C24.1685 11.3818 24.0653 12.0253 23.9327 12.1726C23.805 12.32 23.859 12.1235 23.5544 12.3151C23.2548 12.5067 23.6281 12.5951 23.8541 12.6835C24.0801 12.7719 23.9818 12.3446 24.193 12.1481C24.4043 11.9516 25.2983 12.04 25.4113 12.1481C25.5243 12.2561 25.7551 12.6589 25.4211 12.8849C25.0871 13.1109 25.4358 13.0814 25.259 13.4204C25.0822 13.7642 23.7755 13.3712 23.7755 13.3712C23.5741 13.2435 23.8492 13.0126 23.2744 12.9881C22.6948 12.9635 23.2253 13.1404 22.9011 13.4449C22.5769 13.7495 22.2183 13.2681 22.1692 13.0126C22.1201 12.7572 21.5993 12.8112 21.4667 12.7081C21.3341 12.6049 21.4471 12.2905 21.2899 12.1235C21.1327 11.9516 20.0127 11.9368 19.8211 12.0449C19.6295 12.153 19.5313 12.3249 18.9271 12.3495C18.3229 12.374 18.1215 12.9095 18.1215 12.9095C18.1215 12.9095 17.9201 13.3123 18.0969 13.7495C17.2569 13.9214 16.8885 14.8449 16.8885 14.8449C16.8885 14.8449 16.7902 15.3018 16.7362 16.4512C16.6822 17.6007 17.7088 18.6716 17.7088 18.6716C17.8758 19.0547 19.605 18.3474 19.8162 18.2639C20.3615 19.32 21.1867 18.4947 20.9067 19.5411C20.6316 20.5874 21.1818 20.4056 21.1818 20.8182C21.1818 21.2309 21.4569 22.2182 20.8527 22.8568C20.5629 23.1663 20.6365 24.1586 20.7888 25.1067C21.1622 24.8758 21.5257 24.6302 21.8744 24.36C24.085 22.6702 25.6667 20.3761 26.4478 17.7579C26.4429 17.7481 26.433 17.7432 26.433 17.7333C26.3201 17.4091 25.8043 15.513 25.2246 14.5698C24.6499 13.6267 25.2983 13.8772 25.2983 13.8772C25.2983 13.8772 25.7502 14.4421 25.9025 14.7221C26.0548 15.0021 25.9025 15.5621 26.0548 15.7439C26.2071 15.9207 26.379 15.8716 26.3544 16.1025C26.3299 16.3088 26.5116 16.8442 26.6393 17.0407C26.7376 16.6182 26.8211 16.186 26.8801 15.7488C26.9243 15.4098 26.9537 15.0758 26.9734 14.7368C26.9832 14.5944 26.9881 14.4519 26.993 14.3046C26.993 14.2505 26.993 14.1965 26.993 14.1425C27.0029 12.6344 26.7622 11.1705 26.3004 9.8C26.2758 9.73123 26.2513 9.65755 26.2267 9.58877L26.2464 9.57895ZM26.0843 10.92C25.7846 10.9397 25.7453 11.0919 25.5046 10.92C25.2639 10.7481 25.0281 10.6105 24.9397 10.7088C24.8513 10.8119 24.8513 11.0575 24.7383 10.9986C24.6253 10.9397 24.5516 10.9151 24.5516 10.9151C24.3355 10.9397 24.0506 10.8758 24.1881 10.6204C24.3257 10.3649 24.5271 10.1979 24.4239 10.0702C24.3257 9.94246 24.3993 9.79018 24.699 9.90316C24.9986 10.0161 25.1362 10.1586 25.2246 9.99158C25.313 9.82456 25.4899 9.71158 25.5783 10.0063C25.6667 10.3011 25.6815 10.5172 25.8436 10.5663C26.0057 10.6154 26.3839 10.8954 26.0843 10.9151V10.92Z" fill="#274247"/>
<path d="M20.3957 5.66386C20.1943 5.89473 20.3957 5.99298 20.3957 6.30245C20.3957 6.61193 20.4988 6.50386 20.6708 6.65614C20.8476 6.80842 20.9753 6.57754 21.1865 6.44982C21.4027 6.3221 21.3732 6.6807 21.3978 6.90666C21.4223 7.13754 21.5746 7.31438 21.7269 7.22105C21.8792 7.12772 21.9037 6.62666 22.0757 6.62666C22.2476 6.62666 22.3262 6.3221 22.3508 6.11579C22.3753 5.90947 22.0265 5.78666 22.0265 5.78666C22.0265 5.78666 21.9529 5.55579 22.1002 5.55579C22.2476 5.55579 22.3999 5.34947 22.3508 5.13333C22.3065 4.94175 22.5325 4.62737 22.8567 4.46035C22.5129 4.14105 22.1543 3.83649 21.7809 3.5614C21.5992 3.86105 21.6237 4.14596 21.5746 4.31298C21.5009 4.57333 20.5971 5.42807 20.3957 5.66386Z" fill="#274247"/>
</g>
<defs>
<clipPath id="clip0_8826_1345">
<rect width="28" height="28" fill="white"/>
</clipPath>
</defs>
</svg>
