<svg width="28" height="28" viewBox="0 0 28 28" fill="none" xmlns="http://www.w3.org/2000/svg">
<g clip-path="url(#clip0_8826_1325)">
<path d="M0.801922 6.217C0.564083 5.78732 1.42337 4.19139 3.32609 2.61847C4.88355 1.32944 6.24921 0.761658 6.92437 0.761658C6.96273 0.761658 7.00109 0.761658 7.03945 0.761658C7.09316 0.76933 7.17755 0.784676 7.25427 0.838385L0.801922 6.217Z" fill="white"/>
<path d="M26.2892 12.01H19.1924C19.2691 11.8949 19.3075 11.7644 19.3228 11.6263H26.2892V11.3808H26.6728V11.6263C26.6728 11.8412 26.504 12.01 26.2892 12.01Z" fill="#274247"/>
<path d="M26.6726 9.17867V11.3808H26.289V9.17867H18.3175C18.2255 9.0559 18.1257 8.92547 18.0183 8.79503H26.289C26.5038 8.79503 26.6726 8.9715 26.6726 9.17867Z" fill="#274247"/>
<path d="M26.2889 11.6263H19.3225C19.3379 11.5496 19.3379 11.4652 19.3302 11.3808H26.2889V11.6263Z" fill="#274247"/>
<path d="M25.9054 11.2426H19.3226C19.2612 10.7516 18.9927 10.1685 18.5938 9.5623H25.9054V11.2426Z" fill="white"/>
<path d="M25.9052 9.5623H18.5936C18.5092 9.43954 18.4171 9.3091 18.3174 9.17867H26.2888V11.3808H19.3301C19.3378 11.3347 19.3301 11.2887 19.3224 11.2426H25.9052V9.5623Z" fill="#274247"/>
<path d="M22.6216 21.1559C23.431 21.1559 24.087 20.4998 24.087 19.6904C24.087 18.881 23.431 18.2249 22.6216 18.2249C21.8123 18.2249 21.1562 18.881 21.1562 19.6904C21.1562 20.4998 21.8123 21.1559 22.6216 21.1559Z" fill="white"/>
<path d="M22.6218 21.1559C23.4351 21.1559 24.0872 20.5037 24.0872 19.6904C24.0872 18.8771 23.4351 18.2249 22.6218 18.2249C21.8085 18.2249 21.1564 18.8847 21.1564 19.6904C21.1564 20.496 21.8162 21.1559 22.6218 21.1559ZM20.4429 19.8975C20.3892 19.2453 20.5963 18.6162 21.0413 18.1328C21.4786 17.6571 22.1001 17.3885 22.7446 17.3885H28V21.9999H22.8827C21.6167 21.9999 20.5503 21.0791 20.4429 19.8975Z" fill="#274247"/>
<path d="M21.0412 18.1328C20.5962 18.6162 20.3891 19.2453 20.4428 19.8975C20.5502 21.0791 21.6166 21.9999 22.8825 21.9999H27.9999V22.7672H22.8825C21.2253 22.7672 19.8136 21.5395 19.6832 19.9666C19.6065 19.0919 19.8904 18.2556 20.4735 17.6187C21.0565 16.9819 21.8851 16.6213 22.7444 16.6213H27.9999V17.3885H22.7444C22.1 17.3885 21.4785 17.6571 21.0412 18.1328Z" fill="white"/>
<path d="M19.3225 11.2426C19.3301 11.2887 19.3378 11.3347 19.3301 11.3808H18.9619C18.9619 11.3808 18.9465 11.2964 18.9465 11.2426H19.3225Z" fill="#274247"/>
<path d="M18.9467 11.2426C18.8699 10.7899 18.5784 10.1991 18.1257 9.5623H18.5937C18.9927 10.1685 19.2612 10.7516 19.3226 11.2426H18.9467Z" fill="#274247"/>
<path d="M19.3228 11.6263C19.3074 11.7644 19.2691 11.8948 19.1923 12.0099H19.177C19.2154 11.8718 19.177 11.726 19.0696 11.6263H19.3228Z" fill="#274247"/>
<path d="M19.1925 12.0099C19.1925 12.0099 19.1925 12.0333 19.1692 12.041C19.1692 12.0255 19.177 12.0177 19.177 12.0099H19.1925Z" fill="#274247"/>
<path d="M18.2869 12.501L18.7165 12.0099H19.1768C19.1768 12.0099 19.1692 12.0253 19.1692 12.0406C19.1538 12.079 19.1231 12.1173 19.0924 12.1557C19.0771 12.171 19.0618 12.1941 19.0387 12.2094C18.9083 12.3398 18.6858 12.4703 18.3329 12.4933C18.3176 12.4933 18.3022 12.4933 18.2869 12.4933V12.501Z" fill="#274247"/>
<path d="M19.3303 11.3808C19.338 11.4652 19.338 11.5496 19.3226 11.6263H19.0618C19.0618 11.6263 18.9927 11.5726 18.9543 11.5573C18.962 11.5036 18.962 11.4422 18.962 11.3808H19.3303Z" fill="#274247"/>
<path d="M19.0617 11.6186L18.939 11.6263C18.939 11.6033 18.939 11.5803 18.9466 11.5573C18.985 11.5726 19.0234 11.5956 19.054 11.6186H19.0617Z" fill="#274247"/>
<path d="M18.563 11.3808C18.563 11.3808 18.563 11.2964 18.5476 11.2426H18.9466C18.9466 11.2964 18.9542 11.3424 18.9619 11.3808H18.563Z" fill="#274247"/>
<path d="M18.54 11.6263C18.6551 11.5265 18.8162 11.4959 18.9543 11.5572C18.9467 11.5803 18.9467 11.6033 18.9467 11.6263H18.54Z" fill="#274247"/>
<path d="M18.8085 11.9025L18.5247 11.6416L18.54 11.6263H18.9466C18.9159 11.7337 18.8776 11.8258 18.8085 11.9025Z" fill="#274247"/>
<path d="M18.1256 9.5623C18.5782 10.1991 18.8698 10.7899 18.9465 11.2426H18.5476C18.4708 10.8667 18.1946 10.2759 17.6499 9.5623H18.1256Z" fill="#274247"/>
<path d="M18.793 11.9178L18.8084 11.9025C18.8774 11.8258 18.9158 11.7337 18.9465 11.6263H19.0692C19.1766 11.726 19.215 11.8718 19.1766 12.0099H18.7163L18.793 11.9178Z" fill="#274247"/>
<path d="M18.7932 11.9178L18.7164 12.0099H18.6704C18.7164 11.9869 18.7625 11.9562 18.7932 11.9178Z" fill="#274247"/>
<path d="M18.2027 12.0099H18.6707C18.5326 12.0943 18.3408 12.125 18.1106 12.1097L18.2027 12.0099Z" fill="#274247"/>
<path d="M18.5938 9.5623H18.1258C18.0337 9.43187 17.934 9.3091 17.8342 9.17867H18.3176C18.4173 9.3091 18.5094 9.43954 18.5938 9.5623Z" fill="#274247"/>
<path d="M18.2333 11.3808L18.0798 11.2426H18.5478C18.5632 11.2964 18.5709 11.3424 18.5632 11.3808H18.2333Z" fill="white"/>
<path d="M18.9543 11.5573C18.8162 11.4959 18.6551 11.5266 18.54 11.6263H18.5247L18.5707 11.4422C18.5707 11.4422 18.5707 11.4038 18.563 11.3808H18.962C18.962 11.4422 18.962 11.5036 18.9543 11.5573Z" fill="#274247"/>
<path d="M17.6499 9.5623C18.1947 10.2759 18.4709 10.8667 18.5476 11.2426H18.0796L16.2229 9.5623H17.6499Z" fill="white"/>
<path d="M18.5402 11.6263L18.5247 11.6418C18.5247 11.6418 18.5324 11.6341 18.5247 11.6263H18.5402Z" fill="#274247"/>
<path d="M18.5017 11.6263L18.2332 11.3808H18.5631C18.5631 11.3808 18.5707 11.4268 18.5707 11.4422L18.5247 11.6263H18.5017Z" fill="#274247"/>
<path d="M18.5246 11.6416L18.8085 11.9025L18.7932 11.9179C18.7932 11.9179 18.7164 11.9869 18.6704 12.0099H18.2024L18.4939 11.6723L18.517 11.6493L18.5246 11.6416Z" fill="#274247"/>
<path d="M18.5248 11.6263V11.6418L18.5093 11.6263H18.5326H18.5248Z" fill="#274247"/>
<path d="M17.696 11.6263H18.5016L18.517 11.6416C18.517 11.6416 18.5016 11.6646 18.494 11.6723C18.4479 11.7107 18.3559 11.726 18.2868 11.726C18.1334 11.726 17.9339 11.703 17.696 11.6263Z" fill="#274247"/>
<path d="M18.3177 9.17867H17.8343C17.7346 9.04823 17.6195 8.92547 17.5044 8.79503H18.0184C18.1258 8.92547 18.2256 9.0559 18.3177 9.17867Z" fill="#274247"/>
<path d="M18.1105 12.1097C18.3407 12.125 18.5325 12.0943 18.6706 12.0099H18.7166L18.287 12.501H18.2409C18.1105 12.501 17.9647 12.4856 17.8113 12.4549L18.1105 12.1097Z" fill="#274247"/>
<path d="M18.2025 12.0099L18.1104 12.1097C17.9646 12.102 17.7958 12.0636 17.6194 12.0099H18.2025Z" fill="#274247"/>
<path d="M18.1257 9.5623H17.65C17.5503 9.43954 17.4505 9.3091 17.3354 9.17867H17.8341C17.9339 9.3091 18.0336 9.43187 18.1257 9.5623Z" fill="#274247"/>
<path d="M18.1103 12.1097L17.8111 12.4549C17.4582 12.3859 17.0516 12.2324 16.6143 12.0099H17.6193C17.7958 12.0636 17.9646 12.102 18.1103 12.1097Z" fill="#274247"/>
<path d="M18.0797 11.2426H16.8137C16.223 10.9281 15.5248 10.4523 14.7959 9.78481C14.7116 9.70808 14.6348 9.63903 14.5581 9.5623H16.223L18.0797 11.2426Z" fill="white"/>
<path d="M17.0746 11.3808C16.9902 11.3424 16.9058 11.2964 16.8137 11.2426H18.0796L18.2331 11.3808H17.0746Z" fill="white"/>
<path d="M17.6195 12.0099C17.3433 11.9332 17.0364 11.8028 16.7065 11.6263H17.6963C17.9341 11.703 18.1336 11.7337 18.287 11.726C18.3561 11.726 18.4481 11.7107 18.4942 11.6723L18.2026 12.0099H17.6195Z" fill="#274247"/>
<path d="M18.2332 11.3808L18.5017 11.6263H17.6962C17.512 11.5726 17.3049 11.4882 17.0747 11.3808H18.2332Z" fill="#274247"/>
<path d="M17.8342 9.17867H17.3355C17.2281 9.0559 17.1207 8.92547 16.9902 8.79503H17.5043C17.6194 8.92547 17.7344 9.04823 17.8342 9.17867Z" fill="#274247"/>
<path d="M17.65 9.5623H16.223L15.801 9.17867H17.3355C17.4506 9.3091 17.5503 9.43954 17.65 9.5623Z" fill="white"/>
<path d="M17.3356 9.17867H15.8011L15.3792 8.79503H16.9903C17.1207 8.92547 17.2282 9.0559 17.3356 9.17867Z" fill="white"/>
<path d="M16.7064 11.6263C16.5683 11.5573 16.4225 11.4729 16.269 11.3808H17.0746C17.3048 11.4882 17.5119 11.5726 17.6961 11.6263H16.7064Z" fill="#274247"/>
<path d="M17.0747 11.3808H16.2691C16.2001 11.3347 16.1234 11.2887 16.0466 11.2426H16.8139C16.9059 11.2964 16.9903 11.3424 17.0747 11.3808Z" fill="#274247"/>
<path d="M16.6144 12.0099C16.3995 11.9025 16.1694 11.7721 15.9392 11.6263H16.7064C17.0363 11.8028 17.3432 11.9332 17.6194 12.0099H16.6144Z" fill="#274247"/>
<path d="M16.6145 12.0099C17.0518 12.2324 17.4584 12.3859 17.8113 12.4549L17.3127 13.0151C17.0518 13.3066 16.0237 13.0688 14.5967 12.0099H16.6145Z" fill="#274247"/>
<path d="M16.7065 11.6263H15.9393C15.8166 11.5496 15.6938 11.4652 15.571 11.3808H16.2692C16.4227 11.4729 16.5684 11.5573 16.7065 11.6263Z" fill="#274247"/>
<path d="M16.6144 12.0099H14.5966C14.4355 11.8948 14.2667 11.7644 14.0979 11.6263H15.9392C16.1694 11.7721 16.3996 11.9025 16.6144 12.0099Z" fill="#274247"/>
<path d="M16.2691 11.3808H15.571C15.5096 11.3347 15.4405 11.2887 15.3792 11.2426H16.0466C16.1234 11.2887 16.2001 11.3347 16.2691 11.3808Z" fill="#274247"/>
<path d="M15.8012 9.17867L16.2232 9.5623H14.5583C14.4202 9.43187 14.2897 9.30143 14.167 9.17867H15.8012Z" fill="white"/>
<path d="M15.9393 11.6263H14.0979C14.0059 11.5496 13.9061 11.4652 13.8064 11.3808H15.571C15.6938 11.4652 15.8165 11.5496 15.9393 11.6263Z" fill="#274247"/>
<path d="M15.3792 8.79503L15.8012 9.17867H14.167C14.0443 9.04823 13.9292 8.91779 13.8218 8.79503H15.3792Z" fill="white"/>
<path d="M15.5709 11.3808H13.8063C13.7526 11.3347 13.7065 11.2887 13.6528 11.2426H15.3791C15.4405 11.2887 15.5095 11.3347 15.5709 11.3808Z" fill="white"/>
<path d="M17.5963 13.2759C17.0822 13.8514 15.6168 13.345 13.9673 12.0099H14.5964C16.0234 13.0688 17.0515 13.3066 17.3124 13.0151L17.8111 12.4549C17.9645 12.4856 18.1103 12.501 18.2407 12.501H18.2868L17.5963 13.2759Z" fill="#274247"/>
<path d="M13.9674 12.0099C15.617 13.345 17.0824 13.8514 17.5964 13.2759L18.2869 12.501C18.2869 12.501 18.3176 12.501 18.3329 12.501C18.6859 12.478 18.9084 12.3475 19.0388 12.2171L17.8803 13.5368C17.6655 13.7823 17.3509 13.9051 16.9673 13.9051C16.0696 13.9051 14.7807 13.2452 13.3613 12.0176H13.9674V12.0099Z" fill="#274247"/>
<path d="M16.0464 11.2426C15.5554 10.9281 15.0414 10.5291 14.535 10.0687C14.3509 9.8999 14.1744 9.7311 14.0056 9.5623H14.558C14.6347 9.63903 14.7115 9.70808 14.7959 9.78481C15.5247 10.4523 16.2229 10.9281 16.8137 11.2426H16.0464Z" fill="#274247"/>
<path d="M14.5582 9.5623H14.0058C13.883 9.43187 13.7602 9.3091 13.6528 9.17867H14.1669C14.2896 9.30143 14.4201 9.43187 14.5582 9.5623Z" fill="#274247"/>
<path d="M14.0978 11.6263C14.2666 11.7644 14.4354 11.8948 14.5965 12.0099H13.9674C13.814 11.8948 13.6605 11.7644 13.5071 11.6263H14.0978Z" fill="#274247"/>
<path d="M14.1669 9.17867H13.6529C13.5301 9.04823 13.4227 8.92547 13.323 8.79503H13.8217C13.9291 8.91779 14.0442 9.04823 14.1669 9.17867Z" fill="#274247"/>
<path d="M14.5352 10.0687C15.0416 10.5291 15.5556 10.9281 16.0467 11.2426H15.3792C15.0109 10.9818 14.6426 10.6825 14.282 10.3526C14.0058 10.0994 13.7373 9.83085 13.4841 9.5623H14.0058C14.1746 9.7311 14.3511 9.8999 14.5352 10.0687Z" fill="#274247"/>
<path d="M13.8064 11.3808C13.9061 11.4652 14.0059 11.5496 14.0979 11.6263H13.5072C13.5072 11.6263 13.4381 11.5649 13.3997 11.5343C13.346 11.4805 13.2847 11.4345 13.231 11.3808H13.8064Z" fill="#274247"/>
<path d="M13.653 11.2426C13.7067 11.2887 13.7527 11.3347 13.8064 11.3808H13.231C13.1849 11.3347 13.1312 11.2887 13.0852 11.2426H13.653Z" fill="#274247"/>
<path d="M13.6529 9.17867C13.7603 9.3091 13.883 9.43187 14.0058 9.5623H13.4841C13.369 9.43954 13.2539 9.3091 13.1465 9.17867H13.6529Z" fill="#274247"/>
<path d="M13.6529 9.17867H13.1465C13.0391 9.0559 12.9317 8.92547 12.8396 8.79503H13.323C13.4227 8.92547 13.5301 9.04823 13.6529 9.17867Z" fill="#274247"/>
<path d="M13.6529 11.2426C13.0391 10.6979 12.5021 10.1224 12.0955 9.5623H13.4841C13.7373 9.83085 14.0058 10.0994 14.282 10.3526C14.6426 10.6825 15.0109 10.9818 15.3792 11.2426H13.6529Z" fill="white"/>
<path d="M12.9317 11.6263C12.8473 11.5496 12.7629 11.4652 12.6785 11.3808H13.2309C13.2846 11.4345 13.346 11.4805 13.3997 11.5343C13.438 11.5649 13.4687 11.5956 13.5071 11.6263H12.9317Z" fill="#274247"/>
<path d="M12.9316 11.6263H13.5071C13.6605 11.7644 13.8139 11.8948 13.9674 12.0099H13.3613C13.2846 11.9485 13.2155 11.8872 13.1388 11.8181C13.0697 11.7567 13.0007 11.6877 12.9316 11.6263Z" fill="#274247"/>
<path d="M13.231 11.3808H12.6786L12.5405 11.2426H13.0853C13.1313 11.2887 13.185 11.3347 13.231 11.3808Z" fill="#274247"/>
<path d="M11.9803 9.17867H13.1464C13.2538 9.3091 13.3689 9.43954 13.484 9.5623H12.0953C12.0186 9.46256 11.9496 9.36281 11.8882 9.27074L11.9803 9.17867Z" fill="white"/>
<path d="M12.8395 8.79505C12.7628 8.70298 12.6937 8.61091 12.6323 8.51883L12.9009 8.24261C13.0236 8.42676 13.1694 8.61091 13.3228 8.79505H12.8395Z" fill="#274247"/>
<path d="M11.9805 9.17867L12.3564 8.79503H12.8398C12.9318 8.92547 13.0392 9.0559 13.1466 9.17867H11.9805Z" fill="white"/>
<path d="M12.5634 6.20933C12.6171 6.16329 12.7092 6.14795 12.7859 6.14027H12.832C13.4688 6.14027 14.7884 6.73875 16.2768 8.08916C16.5453 8.32701 16.7832 8.56487 16.9903 8.79505H15.3792L12.5481 6.22467L12.5634 6.20933Z" fill="white"/>
<path d="M12.9009 8.24259C12.7475 8.02776 12.617 7.82059 12.502 7.61343C12.6324 7.56739 12.7858 7.59808 12.8932 7.69783C13.0467 7.84361 13.0467 8.08914 12.8932 8.24259H12.9009Z" fill="#274247"/>
<path d="M12.3564 8.79503L12.6326 8.51881C12.694 8.61089 12.7631 8.70296 12.8398 8.79503H12.3564Z" fill="white"/>
<path d="M13.8216 8.79505C12.6708 7.48301 12.3409 6.45485 12.548 6.22467L15.3791 8.79505H13.8216Z" fill="white"/>
<path d="M12.5632 6.20932C12.6553 6.09423 12.6706 5.91776 12.6016 5.78732C13.3918 5.61084 14.9953 6.40881 16.5298 7.80526C16.8904 8.12751 17.2126 8.46512 17.5042 8.79504H16.9901C16.783 8.56486 16.5451 8.32701 16.2766 8.08915C14.7882 6.73874 13.4686 6.14027 12.8318 6.14027H12.7857C12.709 6.14794 12.6169 6.16328 12.5632 6.20932Z" fill="#274247"/>
<path d="M12.548 6.22466L12.2642 5.97145C12.3486 5.87938 12.4636 5.818 12.6017 5.78731C12.6708 5.91774 12.6554 6.09422 12.5634 6.20931L12.548 6.22466Z" fill="#274247"/>
<path d="M12.5404 11.2426H5.65073C5.19039 11.2426 4.81445 10.8667 4.81445 10.4063C4.81445 9.94594 5.19039 9.5623 5.65073 9.5623H11.1594C11.5123 10.1071 11.988 10.6825 12.5404 11.2426Z" fill="white"/>
<path d="M12.0417 5.6569C12.1798 5.52647 12.3947 5.4037 12.7399 5.38068C13.6913 5.3193 15.2948 6.16331 16.7909 7.52139C17.2359 7.92037 17.6502 8.35772 18.0184 8.79507H17.5044C17.2128 8.46514 16.8906 8.12754 16.53 7.80528C14.9956 6.40884 13.3921 5.61087 12.6018 5.78734C12.5865 5.74898 12.5558 5.71829 12.5251 5.6876C12.387 5.55716 12.1875 5.54949 12.0417 5.6569Z" fill="#274247"/>
<path d="M12.2026 7.85129L12.3484 7.70551C12.3944 7.65947 12.4481 7.62878 12.5019 7.61343C12.6169 7.8206 12.7474 8.02776 12.9008 8.2426L12.6323 8.51882C12.5479 8.4114 12.4788 8.30398 12.4098 8.19656C12.3331 8.08147 12.264 7.96638 12.2026 7.85129Z" fill="#274247"/>
<path d="M12.5021 7.61344C12.3103 7.26817 12.1875 6.94591 12.1338 6.67736L12.5481 6.22467C12.3409 6.45485 12.6708 7.48301 13.8217 8.79505H13.323C13.1695 8.6109 13.0238 8.42676 12.901 8.24261C13.0468 8.08915 13.0468 7.84363 12.901 7.69784C12.7936 7.5981 12.6402 7.56741 12.5097 7.61344H12.5021Z" fill="#274247"/>
<path d="M11.8113 8.79506L12.4097 8.19658C12.4788 8.304 12.5478 8.41142 12.6322 8.51884L12.356 8.79506H11.8113Z" fill="#274247"/>
<path d="M12.548 6.22465L12.1337 6.67735C12.08 6.37811 12.1184 6.13258 12.2642 5.97145L12.548 6.22465Z" fill="#274247"/>
<path d="M12.1337 6.67738C12.1874 6.94593 12.3102 7.26819 12.502 7.61346C12.4483 7.62881 12.3945 7.6595 12.3485 7.70553L12.2027 7.85132C12.034 7.55975 11.9035 7.27586 11.8345 7.00731L12.1337 6.67738Z" fill="#274247"/>
<path d="M13.0852 11.2426C12.4944 10.6825 11.9957 10.0994 11.6274 9.5623H12.0954C12.5021 10.1224 13.0391 10.6979 13.6529 11.2426H13.0852Z" fill="#274247"/>
<path d="M12.4099 8.19656L11.8115 8.79504H11.6043C11.5583 8.71831 11.5199 8.64926 11.4893 8.5802L12.2028 7.85129C12.2642 7.96638 12.3332 8.08147 12.4099 8.19656Z" fill="#274247"/>
<path d="M11.6733 8.93314L11.8114 8.79503H12.3562L11.9802 9.17867H11.8191C11.7731 9.09427 11.7194 9.00987 11.6733 8.93314Z" fill="#274247"/>
<path d="M11.9802 9.17867L11.8881 9.27074L11.8191 9.17867H11.9802Z" fill="#274247"/>
<path d="M11.681 9.47795L11.8881 9.27078C11.9495 9.36286 12.0185 9.4626 12.0953 9.56235H11.6273C11.6273 9.56235 11.6042 9.53933 11.6042 9.53166C11.6349 9.51631 11.658 9.50097 11.681 9.47795Z" fill="#274247"/>
<path d="M11.7424 6.53927C11.7117 6.21702 11.7807 5.93312 11.9725 5.71829C11.9955 5.69527 12.0186 5.67225 12.0416 5.6569C12.1873 5.54949 12.3868 5.55716 12.5249 5.6876C12.5556 5.71829 12.5863 5.74898 12.6016 5.78734C12.4635 5.81803 12.3485 5.87942 12.2641 5.97149L11.7424 6.53927Z" fill="#274247"/>
<path d="M11.8345 7.00728C11.7808 6.84615 11.7501 6.68502 11.7424 6.53924L12.2641 5.97145C12.1184 6.13258 12.08 6.37811 12.1337 6.67735L11.8345 7.00728Z" fill="#274247"/>
<path d="M11.6734 8.93318C11.7194 9.00991 11.7731 9.09431 11.8192 9.17871H11.4355L11.6734 8.93318Z" fill="#274247"/>
<path d="M11.8114 8.79503L11.6733 8.93314C11.6733 8.93314 11.6426 8.87943 11.6273 8.84874C11.6196 8.83339 11.6042 8.81037 11.6042 8.79503H11.8114Z" fill="#274247"/>
<path d="M12.5404 11.2426C11.988 10.6825 11.5123 10.1071 11.1594 9.5623H11.2668C11.3129 9.58532 11.3589 9.59299 11.4049 9.59299C11.451 9.59299 11.5047 9.59299 11.5507 9.5623H11.6274C11.9957 10.0994 12.4944 10.6825 13.0852 11.2426H12.5404Z" fill="#274247"/>
<path d="M11.6273 8.84874C11.6273 8.84874 11.658 8.90245 11.6733 8.93314L11.4355 9.17867H11.3818C11.3127 9.07125 11.2514 8.9715 11.2053 8.87176L11.282 8.79503H11.6043C11.6043 8.79503 11.6196 8.83339 11.6273 8.84874Z" fill="#274247"/>
<path d="M11.6273 9.56274H11.5505C11.5505 9.56274 11.5889 9.54719 11.6042 9.53163C11.6042 9.53941 11.6119 9.55496 11.6273 9.56274Z" fill="#274247"/>
<path d="M11.6045 8.79505H11.2822L11.4894 8.58022C11.5201 8.64927 11.5584 8.71833 11.6045 8.79505Z" fill="#274247"/>
<path d="M12.2028 7.85131L11.4893 8.58023C11.2284 8.04313 11.2054 7.69019 11.3052 7.58277L11.8346 7.00731C11.9036 7.27586 12.034 7.55975 12.2028 7.85131Z" fill="white"/>
<path d="M11.2668 9.5623H11.5507C11.5047 9.58563 11.451 9.59341 11.4049 9.59341C11.3589 9.59341 11.3129 9.59341 11.2668 9.5623Z" fill="#274247"/>
<path d="M11.8882 9.27074L11.6811 9.4779C11.6811 9.4779 11.635 9.51627 11.6043 9.53161C11.5199 9.40885 11.4432 9.29376 11.3818 9.17867H11.8192L11.8882 9.27074Z" fill="#274247"/>
<path d="M11.029 7.3219L11.7425 6.53928C11.7425 6.68506 11.7809 6.84619 11.8346 7.00732L11.3052 7.58277C11.2055 7.69019 11.2285 8.04314 11.4894 8.58023L11.2822 8.79507H11.1671C10.8372 8.14289 10.7758 7.60579 11.029 7.3219Z" fill="#274247"/>
<path d="M11.2821 8.79503L11.2054 8.87176C11.2054 8.87176 11.1747 8.81805 11.167 8.79503H11.2821Z" fill="#274247"/>
<path d="M11.3817 9.17869H11.0288C11.0288 9.09429 11.0672 9.00989 11.1362 8.94084L11.2053 8.87178C11.2513 8.97153 11.3127 9.07127 11.3817 9.17869Z" fill="#274247"/>
<path d="M11.0289 9.17867H11.3819C11.4432 9.29376 11.52 9.40885 11.6044 9.53161C11.589 9.54696 11.5737 9.55463 11.5507 9.5623H11.2668C11.2208 9.54696 11.1747 9.52394 11.1364 9.48558C11.052 9.40118 11.0136 9.28608 11.0289 9.17867Z" fill="#274247"/>
<path d="M11.1364 9.48558C11.1747 9.52394 11.2207 9.54696 11.2668 9.5623H11.1594C11.0826 9.44721 11.0136 9.33212 10.9522 9.2247L10.9292 9.17867H11.0289C11.0136 9.28608 11.052 9.40118 11.1364 9.48558Z" fill="#274247"/>
<path d="M11.167 8.79503C11.167 8.79503 11.19 8.84106 11.2053 8.87176L11.1363 8.94081C11.0672 9.00987 11.0288 9.09427 11.0288 9.17867H10.9291C10.8524 9.04056 10.791 8.91779 10.7373 8.79503H11.167Z" fill="#274247"/>
<path d="M10.7376 8.79506H10.7299C10.3156 7.85131 10.4921 7.33723 10.7376 7.06101L11.9728 5.71828C11.781 5.93311 11.712 6.21701 11.7427 6.53926L11.0292 7.32189C10.776 7.60578 10.8373 8.14287 11.1673 8.79506H10.7376Z" fill="#274247"/>
<path d="M7.60707 14.5573V24.8235C7.60707 25.0383 7.43828 25.2071 7.22346 25.2071C7.00863 25.2071 6.83984 25.0383 6.83984 24.8235V14.5573C6.83984 14.3501 7.01631 14.1736 7.22346 14.1736C7.43061 14.1736 7.60707 14.3501 7.60707 14.5573Z" fill="white"/>
<path d="M7.55351 0.60051L8.08289 1.27571C8.05988 1.4215 8.02151 1.57495 7.96014 1.74375L7.27731 0.869057L7.26196 0.846038L7.55351 0.60051Z" fill="#274247"/>
<path d="M8.08281 1.27571L7.55343 0.600506L7.26188 0.846034H7.25421V0.830689C7.11611 0.669561 7.1468 0.424032 7.31559 0.293595C7.46136 0.178503 7.65316 0.186176 7.79126 0.293595C7.82963 0.324286 7.86031 0.36265 7.88333 0.393341C7.891 0.408686 7.90635 0.424032 7.91402 0.439378C8.07514 0.669561 8.12884 0.953453 8.08281 1.27571Z" fill="#274247"/>
<path d="M7.26193 0.846054L7.27748 0.869387L7.25415 0.846054H7.26193Z" fill="#274247"/>
<path d="M5.73516 11.3808H12.6785C12.7629 11.4652 12.8473 11.5496 12.9317 11.6263H5.65076C5.3362 11.6263 5.04466 11.5035 4.82983 11.304C5.09069 11.3654 5.40525 11.3808 5.73516 11.3808Z" fill="#274247"/>
<path d="M7.22367 14.1737C7.01652 14.1737 6.84006 14.3501 6.84006 14.5573V24.8235C6.84006 25.0383 7.01652 25.2071 7.22367 25.2071C7.43082 25.2071 7.60728 25.0383 7.60728 24.8235V14.5573C7.60728 14.3501 7.43849 14.1737 7.22367 14.1737ZM4.06271 26.0511L4.04736 10.4063C4.04736 10.4063 4.04736 10.4601 4.05504 10.4907C4.0934 11.3347 4.79924 12.01 5.65086 12.01H13.3615C14.7808 13.2376 16.0698 13.8975 16.9674 13.8975C17.351 13.8975 17.6656 13.7747 17.8804 13.5292L19.0389 12.2094C19.0389 12.2094 19.0773 12.1711 19.0926 12.1557C19.1233 12.1174 19.154 12.079 19.1693 12.0406C19.1847 12.033 19.1924 12.0253 19.1924 12.01H26.2892C26.504 12.01 26.6728 11.8411 26.6728 11.6263V11.3808H28.0001V16.6213H22.7446C21.8853 16.6213 21.0567 16.9819 20.4736 17.6187C19.8905 18.2556 19.6067 19.0919 19.6834 19.9666C19.8138 21.5395 21.2255 22.7672 22.8827 22.7672H28.0001V28H5.78896C4.8376 28 4.06271 27.0256 4.06271 26.0511Z" fill="#274247"/>
<path d="M4.43091 10.4063C4.43091 9.7311 4.97564 9.17867 5.65079 9.17867H10.9293L10.9523 9.2247C11.0137 9.33212 11.0827 9.44721 11.1595 9.5623H5.65079C5.19046 9.5623 4.81452 9.93827 4.81452 10.4063C4.81452 10.8743 5.19046 11.2426 5.65079 11.2426H12.5405L12.6786 11.3808H5.73519C5.40528 11.3808 5.09072 11.3654 4.82986 11.304C4.58435 11.0892 4.43091 10.7669 4.43091 10.4063Z" fill="#274247"/>
<path d="M3.01147 6.57764C3.72499 6.23236 4.49989 5.71828 5.25944 5.08912C6.51769 4.05329 7.59947 2.77961 7.96007 1.74379L8.35135 2.24252C8.59686 2.53409 7.97541 3.96889 5.84253 5.79501C5.00626 6.50858 4.2467 6.99197 3.63293 7.2912L3.01147 6.57764Z" fill="white"/>
<path d="M4.04736 10.3679C4.07038 9.49325 4.7839 8.79503 5.65086 8.79503H10.7376C10.7913 8.91779 10.8526 9.04056 10.9294 9.17867H5.65086C4.9757 9.17867 4.43098 9.73111 4.43098 10.4063C4.43098 10.7669 4.58442 11.0892 4.82993 11.304C4.40796 11.212 4.10874 10.9894 4.05504 10.4907C4.05504 10.4677 4.04736 10.437 4.04736 10.4063V10.3679Z" fill="#274247"/>
<path d="M5.65076 12.0099C4.79914 12.0099 4.09329 11.3347 4.05493 10.4907C4.10864 10.9895 4.40785 11.212 4.82983 11.304C5.04465 11.5035 5.3362 11.6263 5.65076 11.6263H12.9317C13.0008 11.6877 13.0698 11.7567 13.1389 11.8181C13.2156 11.8872 13.2846 11.9485 13.3614 12.0099H5.65076Z" fill="#274247"/>
<path d="M3.80927 7.49067L3.63281 7.29118C4.24659 6.99194 5.00614 6.50856 5.84242 5.79499C7.9753 3.96887 8.59675 2.53406 8.35124 2.2425L7.95996 1.74377C8.02133 1.57496 8.05969 1.42151 8.08271 1.27573L8.64278 1.99697C9.20286 2.64915 8.01366 4.44458 6.08793 6.08655C5.3207 6.73874 4.55348 7.25281 3.87065 7.59809C3.85531 7.55973 3.83996 7.52136 3.80927 7.49067Z" fill="#274247"/>
<path d="M4.04736 10.4063C4.04736 10.4063 4.05514 10.4677 4.05514 10.4907C4.04736 10.4601 4.04736 10.437 4.04736 10.4063Z" fill="#274247"/>
<path d="M3.87072 7.5981C4.55355 7.25283 5.32078 6.73875 6.088 6.08657C8.01373 4.44459 9.20293 2.64917 8.64286 1.99698L8.08278 1.27574C8.12882 0.953483 8.07511 0.66959 7.91399 0.439407L8.94207 1.75912C9.75533 2.71055 8.22088 4.76685 6.34119 6.37813C5.49724 7.0917 4.53821 7.74389 3.66357 8.11985V8.10451C3.70194 8.08916 3.7403 8.06614 3.77866 8.02778C3.90141 7.92036 3.9321 7.74389 3.87072 7.5981Z" fill="#274247"/>
<path d="M3.15723 7.91265C3.37972 7.83592 3.62523 7.72851 3.87075 7.59807C3.93212 7.74385 3.90143 7.92032 3.77868 8.02774C3.74032 8.06611 3.70196 8.08913 3.65592 8.10447C3.60989 8.11982 3.56386 8.12749 3.52549 8.12749C3.41808 8.12749 3.31067 8.08145 3.23395 7.99705L3.15723 7.91265Z" fill="#274247"/>
<path d="M3.01147 6.57764L3.63293 7.2912C3.5025 7.35259 3.38741 7.4063 3.27233 7.45233L2.65088 6.74644C2.76596 6.7004 2.88872 6.63902 3.01147 6.57764Z" fill="#274247"/>
<path d="M3.87058 7.59811C3.62507 7.72855 3.37955 7.83597 3.15706 7.91269L2.88086 7.59811C3.00362 7.55975 3.13404 7.51371 3.27214 7.45233C3.38723 7.40629 3.50231 7.35258 3.63274 7.2912L3.8092 7.49069C3.8092 7.49069 3.85523 7.55975 3.87058 7.59811Z" fill="#274247"/>
<path d="M2.65084 6.74641L3.27229 7.45231C3.13419 7.51369 3.00377 7.55973 2.88101 7.59809L2.2749 6.89987C2.39766 6.85383 2.52041 6.8078 2.65084 6.74641Z" fill="#274247"/>
<path d="M2.67393 6.194C2.55884 6.07123 2.39005 6.03287 2.25195 6.08658C2.94245 5.80269 3.81709 5.28094 4.76845 4.49832C6.72487 2.88703 7.57649 1.24506 7.27727 0.869095L7.9601 1.74379C7.5995 2.77961 6.51772 4.05329 5.25947 5.08912C4.49992 5.71829 3.72502 6.23236 3.0115 6.57764L2.67393 6.194Z" fill="#274247"/>
<path d="M2.12912 6.15561C2.12912 6.15561 2.1905 6.10958 2.22886 6.09423C2.23653 6.09423 2.24421 6.08656 2.25188 6.08656C2.38998 6.03285 2.55877 6.07121 2.67385 6.19398L3.01143 6.57762C2.88867 6.639 2.76592 6.70038 2.65083 6.74642C2.52041 6.8078 2.39765 6.85384 2.27489 6.89987L2.09843 6.70038C1.95266 6.53925 1.968 6.29372 2.12912 6.15561Z" fill="#274247"/>
<path d="M1.37713 8.11217L0.318359 6.84616C0.45646 6.96125 0.66361 7.07634 0.978172 7.10704C1.00119 7.10704 1.01653 7.11471 1.03955 7.11471L1.66867 7.85897C1.92186 8.1582 2.46659 8.1582 3.15709 7.91268L3.23381 7.99708C3.31053 8.08148 3.41794 8.12751 3.52535 8.12751C3.56372 8.12751 3.60975 8.11984 3.65578 8.10449V8.11984C3.15709 8.34235 2.68141 8.47279 2.27478 8.47279C1.90651 8.47279 1.59195 8.36537 1.37713 8.11217Z" fill="#274247"/>
<path d="M1.96808 7.61344L1.53076 7.09169C1.76093 7.05333 2.01411 6.99195 2.27497 6.89987L2.88108 7.59809C2.39772 7.75155 2.07549 7.7362 1.96808 7.61344Z" fill="white"/>
<path d="M1.66892 7.85897L1.03979 7.11471C1.07816 7.12238 1.11652 7.12238 1.16255 7.12238C1.27763 7.12238 1.40039 7.11471 1.53082 7.09169L1.96814 7.61344C2.07555 7.7362 2.39778 7.75155 2.88113 7.59809L3.15733 7.91268C2.46683 8.1582 1.9221 8.15821 1.66892 7.85897Z" fill="#274247"/>
<path d="M0.802002 6.21699L7.25435 0.846054L7.27737 0.869072C7.57659 1.24504 6.72497 2.88701 4.76855 4.49829C3.81719 5.28092 2.94256 5.80266 2.25206 6.08656C2.25206 6.08656 2.23671 6.09423 2.22904 6.09423C1.73034 6.29372 1.32371 6.37812 1.05519 6.34743C1.00148 6.33976 0.917086 6.32441 0.86338 6.29372L0.817347 6.24768V6.24001C0.817347 6.23234 0.809674 6.23234 0.809674 6.22467L0.802002 6.21699Z" fill="white"/>
<path d="M1.53052 7.0917L0.863037 6.29373C0.916743 6.32442 1.00114 6.33977 1.05484 6.34744C1.32337 6.37813 1.73 6.29373 2.2287 6.09424C2.19033 6.10958 2.15965 6.1326 2.12896 6.15562C1.96784 6.29373 1.95249 6.53926 2.09827 6.70039L2.27473 6.89988C2.01387 6.99195 1.76069 7.05333 1.53052 7.0917Z" fill="#274247"/>
<path d="M0.802002 6.22467C0.802002 6.22467 0.80978 6.22467 0.80978 6.24023V6.22467H0.802002Z" fill="#274247"/>
<path d="M0.502686 6.4702L0.794231 6.22467H0.801903V6.24002L0.817247 6.24769L0.863281 6.29373L1.53077 7.09169C1.40034 7.11471 1.27758 7.12238 1.1625 7.12238C1.11646 7.12238 1.0781 7.12238 1.03974 7.11471L0.502686 6.4702Z" fill="#274247"/>
<path d="M0.257188 6.17095C0.418305 6.04051 0.656145 6.05586 0.794245 6.21699L0.5027 6.47019L1.03976 7.1147C1.03976 7.1147 1.0014 7.10703 0.978379 7.10703C0.663817 7.07634 0.456667 6.96125 0.318566 6.84615C0.272533 6.80012 0.241844 6.76175 0.211155 6.72339C0.203483 6.70804 0.19581 6.70037 0.188138 6.68503C0.0730546 6.5239 0.0960713 6.30139 0.257188 6.17095Z" fill="#274247"/>
<path d="M0.257171 6.17095C0.096054 6.30139 0.0730373 6.5239 0.188121 6.68503C-0.540742 5.66455 0.955345 3.57756 2.83504 2.02766C4.44621 0.692594 6.11876 -0.0977017 7.11615 0.0097171C7.44606 0.048081 7.66088 0.170845 7.79131 0.29361C7.65321 0.186191 7.4614 0.178518 7.31563 0.29361C7.14684 0.424047 7.11615 0.669575 7.24658 0.830704V0.846049C7.17753 0.79234 7.09314 0.776994 7.03943 0.769321C7.00107 0.769321 6.96271 0.769321 6.92435 0.769321C6.24919 0.769321 4.88353 1.33711 3.32607 2.62613C1.42335 4.19138 0.564061 5.78731 0.8019 6.21699L0.794228 6.22466C0.656127 6.05586 0.418288 6.04051 0.257171 6.17095Z" fill="#274247"/>
</g>
<defs>
<clipPath id="clip0_8826_1325">
<rect width="28" height="28" fill="white"/>
</clipPath>
</defs>
</svg>
