<svg width="28" height="28" viewBox="0 0 28 28" fill="none" xmlns="http://www.w3.org/2000/svg">
<g clip-path="url(#clip0_8826_1189)">
<path d="M14.9824 20.1404V22.8519C14.9824 24.2372 11.6814 25.3621 7.61403 25.3621C3.54666 25.3621 0.245605 24.2421 0.245605 22.8519V20.1404" fill="white"/>
<path d="M14.9824 20.1404V22.8519C14.9824 24.2372 11.6814 25.3621 7.61403 25.3621C3.54666 25.3621 0.245605 24.2421 0.245605 22.8519V20.1404" stroke="#274247" stroke-width="0.7" stroke-miterlimit="10"/>
<path d="M2.70166 24.5614V22.1053" stroke="#274247" stroke-width="0.7" stroke-miterlimit="10"/>
<path d="M7.61403 22.8421C11.6835 22.8421 14.9824 21.7424 14.9824 20.3859C14.9824 19.0295 11.6835 17.9298 7.61403 17.9298C3.54456 17.9298 0.245605 19.0295 0.245605 20.3859C0.245605 21.7424 3.54456 22.8421 7.61403 22.8421Z" fill="white" stroke="#274247" stroke-width="0.7" stroke-miterlimit="10"/>
<path d="M14.9824 16.2105V18.9221C14.9824 20.3074 11.6814 21.4323 7.61403 21.4323C3.54666 21.4323 0.245605 20.3123 0.245605 18.9221V16.2105" fill="white"/>
<path d="M14.9824 16.2105V18.9221C14.9824 20.3074 11.6814 21.4323 7.61403 21.4323C3.54666 21.4323 0.245605 20.3123 0.245605 18.9221V16.2105" stroke="#274247" stroke-width="0.7" stroke-miterlimit="10"/>
<path d="M2.70166 20.6316V18.1754" stroke="#274247" stroke-width="0.7" stroke-miterlimit="10"/>
<path d="M7.61403 18.9123C11.6835 18.9123 14.9824 17.8126 14.9824 16.4561C14.9824 15.0997 11.6835 14 7.61403 14C3.54456 14 0.245605 15.0997 0.245605 16.4561C0.245605 17.8126 3.54456 18.9123 7.61403 18.9123Z" fill="white" stroke="#274247" stroke-width="0.7" stroke-miterlimit="10"/>
<path d="M18.4211 9.08771C20.8627 9.08771 22.8421 7.10834 22.8421 4.66666C22.8421 2.22498 20.8627 0.245605 18.4211 0.245605C15.9794 0.245605 14 2.22498 14 4.66666C14 7.10834 15.9794 9.08771 18.4211 9.08771Z" fill="white" stroke="#274247" stroke-width="0.7" stroke-miterlimit="10"/>
<path d="M23.0877 9.82455L18.6666 14.7368L13.7543 9.82455C13.5529 9.85894 8.84204 10.7677 8.84204 13.2632V23.5789L12.0399 28H24.7431L27.9999 23.5789V13.2632C27.9999 10.7677 23.2891 9.85894 23.0877 9.82455Z" fill="#274247"/>
</g>
<defs>
<clipPath id="clip0_8826_1189">
<rect width="28" height="28" fill="white"/>
</clipPath>
</defs>
</svg>
