<svg width="28" height="28" viewBox="0 0 28 28" fill="none" xmlns="http://www.w3.org/2000/svg">
<g clip-path="url(#clip0_10013_4052)">
<path d="M7.1227 20.1686C9.29308 20.1686 11.0525 18.4395 11.0525 16.3065C11.0525 14.1736 9.29308 12.4445 7.1227 12.4445C4.95231 12.4445 3.19287 14.1736 3.19287 16.3065C3.19287 18.4395 4.95231 20.1686 7.1227 20.1686Z" fill="white" stroke="#274247" stroke-width="0.7" stroke-miterlimit="10"/>
<path d="M20.8771 20.6514C23.1831 20.6514 25.0525 18.8142 25.0525 16.5479C25.0525 14.2816 23.1831 12.4445 20.8771 12.4445C18.5711 12.4445 16.7017 14.2816 16.7017 16.5479C16.7017 18.8142 18.5711 20.6514 20.8771 20.6514Z" fill="#274247"/>
<path d="M14.2456 28.3814V23.4283C14.2456 21.6131 10.7382 21.0241 10.5908 21L7.12769 24.3697L3.65962 21C3.51225 21.0241 0.00488281 21.6131 0.00488281 23.4283V28.3814H14.2456Z" fill="#274247"/>
<path d="M2.70166 28.8583V26.4445" stroke="white" stroke-width="0.7" stroke-miterlimit="10" stroke-linecap="round"/>
<path d="M11.5437 28.8583V26.4445" stroke="white" stroke-width="0.7" stroke-miterlimit="10" stroke-linecap="round"/>
<path d="M26.2806 17.7548C27.2301 17.7548 27.9999 16.9983 27.9999 16.0651C27.9999 15.132 27.2301 14.3755 26.2806 14.3755C25.331 14.3755 24.5613 15.132 24.5613 16.0651C24.5613 16.9983 25.331 17.7548 26.2806 17.7548Z" fill="#274247"/>
<path d="M15.4737 17.7548C16.4232 17.7548 17.193 16.9983 17.193 16.0651C17.193 15.132 16.4232 14.3755 15.4737 14.3755C14.5242 14.3755 13.7544 15.132 13.7544 16.0651C13.7544 16.9983 14.5242 17.7548 15.4737 17.7548Z" fill="#274247"/>
<path d="M27.7544 27.7586V23.071C27.7544 21.3524 24.4582 21.0241 24.3158 21L20.8772 23.9593L17.4386 21C17.2961 21.0241 14 21.3524 14 23.071V27.7586H27.7544Z" fill="white" stroke="#274247" stroke-width="0.7" stroke-miterlimit="10" stroke-linejoin="round"/>
<path d="M16.9475 27.5977V25.6667" stroke="#274247" stroke-width="0.7" stroke-miterlimit="10" stroke-linecap="round"/>
<path d="M24.8071 27.5977V25.6667" stroke="#274247" stroke-width="0.7" stroke-miterlimit="10" stroke-linecap="round"/>
<path d="M13.1156 11.0311L12.762 9.1676L14.663 9.51519L13.1156 11.0311Z" fill="#274247"/>
<path d="M12.3789 7.27036L12.7326 9.1338L10.8315 8.78622L12.3789 7.27036Z" fill="#274247"/>
<path d="M12.8701 9.07588L15.0561 0.241394H21.8596V6.9276L12.8701 9.07588Z" fill="white" stroke="#274247" stroke-width="0.7" stroke-miterlimit="10"/>
<path d="M15.0708 0.25589L21.8448 6.91313" stroke="#274247" stroke-width="0.7" stroke-miterlimit="10"/>
<path d="M21.8449 0.25589L12.939 9.0083" stroke="#274247" stroke-width="0.7" stroke-miterlimit="10"/>
<path d="M12.7524 9.10001C12.4773 9.1338 12.2218 9.28345 12.0696 9.53449C11.9173 9.78552 11.8976 10.0897 12.0057 10.3407C12.1089 10.6014 12.0941 10.9007 11.9418 11.1517C11.7896 11.4028 11.5341 11.5524 11.259 11.5862" stroke="#274247" stroke-width="0.7" stroke-miterlimit="10" stroke-linecap="round"/>
</g>
<defs>
<clipPath id="clip0_10013_4052">
<rect width="28" height="28" fill="white"/>
</clipPath>
</defs>
</svg>
