<svg width="28" height="28" viewBox="0 0 28 28" fill="none" xmlns="http://www.w3.org/2000/svg">
<g clip-path="url(#clip0_10013_4053)">
<path d="M27.7544 0.245605H13.5088V19.4035H27.7544V0.245605Z" fill="white" stroke="#274247" stroke-width="0.7" stroke-miterlimit="10" stroke-linecap="round"/>
<path d="M15.4736 6.14035H25.2982" stroke="#274247" stroke-width="0.7" stroke-miterlimit="10" stroke-linecap="round"/>
<path d="M15.4736 8.5965H25.2982" stroke="#274247" stroke-width="0.7" stroke-miterlimit="10" stroke-linecap="round"/>
<path d="M15.4736 11.0526H25.2982" stroke="#274247" stroke-width="0.7" stroke-miterlimit="10" stroke-linecap="round"/>
<path d="M24.3157 2.21054H10.0701V21.3684H24.3157V2.21054Z" fill="white" stroke="#274247" stroke-width="0.7" stroke-miterlimit="10" stroke-linecap="round"/>
<path d="M12.0352 8.10526H22.3509" stroke="#274247" stroke-width="0.7" stroke-miterlimit="10" stroke-linecap="round"/>
<path d="M12.0352 10.5614H22.3509" stroke="#274247" stroke-width="0.7" stroke-miterlimit="10" stroke-linecap="round"/>
<path d="M12.0352 13.0175H22.3509" stroke="#274247" stroke-width="0.7" stroke-miterlimit="10" stroke-linecap="round"/>
<path d="M21.3684 4.17545H7.1228V23.3333H21.3684V4.17545Z" fill="white" stroke="#274247" stroke-width="0.7" stroke-miterlimit="10" stroke-linecap="round"/>
<path d="M9.08765 10.0702H18.9122" stroke="#274247" stroke-width="0.7" stroke-miterlimit="10" stroke-linecap="round"/>
<path d="M9.08765 12.5263H18.9122" stroke="#274247" stroke-width="0.7" stroke-miterlimit="10" stroke-linecap="round"/>
<path d="M9.08765 14.9825H18.9122" stroke="#274247" stroke-width="0.7" stroke-miterlimit="10" stroke-linecap="round"/>
<path d="M17.9299 6.14035H3.68433V25.2982H17.9299V6.14035Z" fill="white" stroke="#274247" stroke-width="0.7" stroke-miterlimit="10" stroke-linecap="round"/>
<path d="M5.64917 12.0351H15.965" stroke="#274247" stroke-width="0.7" stroke-miterlimit="10" stroke-linecap="round"/>
<path d="M5.64917 14.4912H15.965" stroke="#274247" stroke-width="0.7" stroke-miterlimit="10" stroke-linecap="round"/>
<path d="M5.64917 16.9474H15.965" stroke="#274247" stroke-width="0.7" stroke-miterlimit="10" stroke-linecap="round"/>
<path d="M14.4912 8.5965H0.245605V27.7544H14.4912V8.5965Z" fill="white" stroke="#274247" stroke-width="0.7" stroke-miterlimit="10" stroke-linecap="round"/>
<path d="M2.21045 14.4912H12.5262" stroke="#274247" stroke-width="0.7" stroke-miterlimit="10" stroke-linecap="round"/>
<path d="M2.21045 16.9474H12.5262" stroke="#274247" stroke-width="0.7" stroke-miterlimit="10" stroke-linecap="round"/>
<path d="M2.21045 19.4035H12.5262" stroke="#274247" stroke-width="0.7" stroke-miterlimit="10" stroke-linecap="round"/>
</g>
<defs>
<clipPath id="clip0_10013_4053">
<rect width="28" height="28" fill="white"/>
</clipPath>
</defs>
</svg>
