<svg width="28" height="28" viewBox="0 0 28 28" fill="none" xmlns="http://www.w3.org/2000/svg">
<g clip-path="url(#clip0_8826_1443)">
<path d="M18.4209 27.7544H24.3157L24.3157 8.10527H18.4209L18.4209 27.7544Z" fill="white" stroke="#274247" stroke-width="0.7" stroke-miterlimit="10"/>
<path d="M11.0525 27.7544H16.9473L16.9473 0.245625H11.0525L11.0525 27.7544Z" fill="white" stroke="#274247" stroke-width="0.7" stroke-miterlimit="10"/>
<path d="M18.1753 15.7193H24.5613V7.85965L18.1753 7.85965V15.7193Z" fill="#274247"/>
<path d="M3.19291 27.7544H9.08765L9.08765 18.4211H3.19291L3.19291 27.7544Z" fill="white" stroke="#274247" stroke-width="0.7" stroke-miterlimit="10"/>
<path d="M2.94729 24.0702H9.33325V18.1754H2.94729L2.94729 24.0702Z" fill="#274247"/>
<path d="M0.245605 27.7544H27.7544" stroke="#274247" stroke-width="0.7" stroke-miterlimit="10" stroke-linecap="round"/>
<path d="M0.294678 17.3649L8.95994 11.1607L18.4849 20.4842L27.7347 15.3263" stroke="#274247" stroke-width="0.7" stroke-miterlimit="10" stroke-linecap="round"/>
<path d="M10.8069 9.33334H17.1929V9.53674e-06H10.8069V9.33334Z" fill="#274247"/>
</g>
<defs>
<clipPath id="clip0_8826_1443">
<rect width="28" height="28" fill="white"/>
</clipPath>
</defs>
</svg>
