<svg width="28" height="28" viewBox="0 0 28 28" fill="none" xmlns="http://www.w3.org/2000/svg">
<g clip-path="url(#clip0_8826_1461)">
<path d="M14 1.7193V8.10527" stroke="#274247" stroke-width="0.7" stroke-miterlimit="10" stroke-linecap="round"/>
<path d="M23.3236 5.11368L18.4211 10.0161" stroke="#274247" stroke-width="0.7" stroke-miterlimit="10" stroke-linecap="round"/>
<path d="M9.57406 10.0112L4.67651 5.11368" stroke="#274247" stroke-width="0.7" stroke-miterlimit="10" stroke-linecap="round"/>
<path d="M17.5122 5.46246L16.9817 6.80843" stroke="#274247" stroke-width="0.7" stroke-miterlimit="10" stroke-linecap="round"/>
<path d="M18.3179 3.39929L17.8218 4.66666" stroke="#274247" stroke-width="0.7" stroke-miterlimit="10" stroke-linecap="round"/>
<path d="M6.28773 11.4211L4.92212 10.8856" stroke="#274247" stroke-width="0.7" stroke-miterlimit="10" stroke-linecap="round"/>
<path d="M22.8961 10.5417L21.6189 11.1017" stroke="#274247" stroke-width="0.7" stroke-miterlimit="10" stroke-linecap="round"/>
<path d="M9.79022 4.81404L9.19092 3.44351" stroke="#274247" stroke-width="0.7" stroke-miterlimit="10" stroke-linecap="round"/>
<path d="M10.7137 6.92632L10.134 5.60492" stroke="#274247" stroke-width="0.7" stroke-miterlimit="10" stroke-linecap="round"/>
<path d="M7.6582 14.6042C7.6582 11.1017 10.4975 8.26245 14 8.26245C17.5024 8.26245 20.3417 11.1017 20.3417 14.6042" fill="white"/>
<path d="M7.6582 14.6042C7.6582 11.1017 10.4975 8.26245 14 8.26245C17.5024 8.26245 20.3417 11.1017 20.3417 14.6042" stroke="#274247" stroke-width="0.7" stroke-miterlimit="10" stroke-linecap="round"/>
<path d="M28 14.7368H0V28H28V14.7368Z" fill="#274247"/>
<path d="M2.17627 12.6196L3.17837 11.1263L4.17557 12.6196H2.17627Z" fill="#274247"/>
<path d="M1.73901 13.8625L3.17831 11.7158L4.61761 13.8625H1.73901Z" fill="#274247"/>
<path d="M1.28223 15.1446L3.17837 12.3151L5.07451 15.1446H1.28223Z" fill="#274247"/>
<path d="M5.02026 14.0884L6.02237 12.5951L7.01956 14.0884H5.02026Z" fill="#274247"/>
<path d="M4.58301 15.3312L6.02231 13.1846L7.4616 15.3312H4.58301Z" fill="#274247"/>
<path d="M4.12622 16.6133L6.02236 13.7839L7.9185 16.6133H4.12622Z" fill="#274247"/>
<path d="M9.91797 12.8849L10.9152 11.3916L11.9173 12.8849H9.91797Z" fill="#274247"/>
<path d="M9.47583 14.1277L10.9151 11.981L12.3544 14.1277H9.47583Z" fill="#274247"/>
<path d="M9.01904 15.4098L10.9152 12.5804L12.8113 15.4098H9.01904Z" fill="#274247"/>
<path d="M21.7859 12.487L22.788 10.9937L23.7901 12.487H21.7859Z" fill="#274247"/>
<path d="M21.3486 13.7298L22.7879 11.5832L24.2272 13.7298H21.3486Z" fill="#274247"/>
<path d="M20.8918 15.0119L22.788 12.1825L24.6841 15.0119H20.8918Z" fill="#274247"/>
<path d="M23.9277 12.5705L24.9298 11.0772L25.927 12.5705H23.9277Z" fill="#274247"/>
<path d="M23.4905 13.8133L24.9298 11.6667L26.3691 13.8133H23.4905Z" fill="#274247"/>
<path d="M23.0337 15.0954L24.9298 12.266L26.826 15.0954H23.0337Z" fill="#274247"/>
<path d="M17.6548 13.8919L18.6569 12.3986L19.659 13.8919H17.6548Z" fill="#274247"/>
<path d="M17.2175 15.1347L18.6568 12.9881L20.0961 15.1347H17.2175Z" fill="#274247"/>
<path d="M16.7607 16.4168L18.6569 13.5874L20.553 16.4168H16.7607Z" fill="#274247"/>
<path d="M15.8422 14.7368C16.5201 15.0414 19.1531 17.3846 16.1861 21.2849C14.4029 23.633 13.8233 25.3474 13.8233 28H2.50537C2.50537 25.7305 5.40853 22.3018 10.0703 20.666C16.6577 18.3572 15.4247 15.5081 14.7026 14.7368H15.8422Z" fill="white"/>
</g>
<defs>
<clipPath id="clip0_8826_1461">
<rect width="28" height="28" fill="white"/>
</clipPath>
</defs>
</svg>
