<svg width="28" height="28" viewBox="0 0 28 28" fill="none" xmlns="http://www.w3.org/2000/svg">
<g clip-path="url(#clip0_8826_1267)">
<path d="M26.3789 14.8351C25.9466 13.1551 23.7459 12.3888 23.5789 12.3642L19.2365 16.3923L11.6765 8.27228L7.95295 11.986L4.08208 8.27228C3.91506 8.30175 0.00488281 8.69473 0.00488281 10.861V19.6491L2.95225 23.5789H13.2631V28H25.0526L28 24.0702L26.3789 14.8351Z" fill="#274247"/>
<path d="M19.6488 12.2438C21.6835 12.2438 23.333 10.5943 23.333 8.55961C23.333 6.52487 21.6835 4.8754 19.6488 4.8754C17.6141 4.8754 15.9646 6.52487 15.9646 8.55961C15.9646 10.5943 17.6141 12.2438 19.6488 12.2438Z" fill="white" stroke="#274247" stroke-width="0.7" stroke-miterlimit="10"/>
<path d="M7.8595 8.31416C9.89424 8.31416 11.5437 6.66468 11.5437 4.62995C11.5437 2.59522 9.89424 0.94574 7.8595 0.94574C5.82477 0.94574 4.17529 2.59522 4.17529 4.62995C4.17529 6.66468 5.82477 8.31416 7.8595 8.31416Z" fill="white" stroke="#274247" stroke-width="0.7" stroke-miterlimit="10"/>
<path d="M11.5438 20.8772C13.1716 20.8772 14.4912 19.5576 14.4912 17.9298C14.4912 16.302 13.1716 14.9825 11.5438 14.9825C9.91602 14.9825 8.59644 16.302 8.59644 17.9298C8.59644 19.5576 9.91602 20.8772 11.5438 20.8772Z" fill="white"/>
<path d="M18.4211 27.7544V22.9649C18.4211 21.2112 15.0365 20.6414 14.8941 20.6168L14.8008 20.6021L14.7369 20.6709L11.5488 23.8737L8.35584 20.6709L8.29198 20.6021L8.19865 20.6168C8.05619 20.6414 4.67163 21.2063 4.67163 22.9649V27.7544H18.426H18.4211Z" fill="white" stroke="#274247" stroke-width="0.7" stroke-miterlimit="10"/>
<path d="M7.61401 27.7544V26.2807" stroke="#274247" stroke-width="0.7" stroke-miterlimit="10" stroke-linecap="round"/>
<path d="M15.9648 27.7544V26.2807" stroke="#274247" stroke-width="0.7" stroke-miterlimit="10" stroke-linecap="round"/>
</g>
<defs>
<clipPath id="clip0_8826_1267">
<rect width="28" height="28" fill="white"/>
</clipPath>
</defs>
</svg>
