<svg width="28" height="28" viewBox="0 0 28 28" fill="none" xmlns="http://www.w3.org/2000/svg">
<g clip-path="url(#clip0_8826_1573)">
<path d="M0.245605 20.8772H27.7544" stroke="#274247" stroke-width="0.7" stroke-miterlimit="10" stroke-linecap="round"/>
<path d="M22.3509 0.245621H5.64919C5.37789 0.245621 5.15796 0.465551 5.15796 0.736849V27.2632C5.15796 27.5345 5.37789 27.7544 5.64919 27.7544H22.3509C22.6222 27.7544 22.8422 27.5345 22.8422 27.2632V0.736849C22.8422 0.465551 22.6222 0.245621 22.3509 0.245621Z" fill="white" stroke="#274247" stroke-width="0.7" stroke-miterlimit="10"/>
<path d="M20.3859 2.70175H7.61401V7.61403H20.3859V2.70175Z" fill="#274247" stroke="#274247" stroke-width="0.7" stroke-miterlimit="10"/>
<path d="M9.0877 14C9.90159 14 10.5614 13.3402 10.5614 12.5263C10.5614 11.7124 9.90159 11.0526 9.0877 11.0526C8.2738 11.0526 7.61401 11.7124 7.61401 12.5263C7.61401 13.3402 8.2738 14 9.0877 14Z" fill="#274247" stroke="#274247" stroke-width="0.7" stroke-miterlimit="10"/>
<path d="M18.9122 14C19.7261 14 20.3858 13.3402 20.3858 12.5263C20.3858 11.7124 19.7261 11.0526 18.9122 11.0526C18.0983 11.0526 17.4385 11.7124 17.4385 12.5263C17.4385 13.3402 18.0983 14 18.9122 14Z" fill="#274247" stroke="#274247" stroke-width="0.7" stroke-miterlimit="10"/>
<path d="M14.0001 14C14.8139 14 15.4737 13.3402 15.4737 12.5263C15.4737 11.7124 14.8139 11.0526 14.0001 11.0526C13.1862 11.0526 12.5264 11.7124 12.5264 12.5263C12.5264 13.3402 13.1862 14 14.0001 14Z" fill="#274247" stroke="#274247" stroke-width="0.7" stroke-miterlimit="10"/>
<path d="M9.0877 19.4035C9.90159 19.4035 10.5614 18.7437 10.5614 17.9298C10.5614 17.1159 9.90159 16.4561 9.0877 16.4561C8.2738 16.4561 7.61401 17.1159 7.61401 17.9298C7.61401 18.7437 8.2738 19.4035 9.0877 19.4035Z" fill="#274247" stroke="#274247" stroke-width="0.7" stroke-miterlimit="10"/>
<path d="M18.9122 19.4035C19.7261 19.4035 20.3858 18.7437 20.3858 17.9298C20.3858 17.1159 19.7261 16.4561 18.9122 16.4561C18.0983 16.4561 17.4385 17.1159 17.4385 17.9298C17.4385 18.7437 18.0983 19.4035 18.9122 19.4035Z" fill="#274247" stroke="#274247" stroke-width="0.7" stroke-miterlimit="10"/>
<path d="M14.0001 19.4035C14.8139 19.4035 15.4737 18.7437 15.4737 17.9298C15.4737 17.1159 14.8139 16.4561 14.0001 16.4561C13.1862 16.4561 12.5264 17.1159 12.5264 17.9298C12.5264 18.7437 13.1862 19.4035 14.0001 19.4035Z" fill="#274247" stroke="#274247" stroke-width="0.7" stroke-miterlimit="10"/>
<path d="M18.9122 24.807C19.7261 24.807 20.3858 24.1472 20.3858 23.3333C20.3858 22.5194 19.7261 21.8596 18.9122 21.8596C18.0983 21.8596 17.4385 22.5194 17.4385 23.3333C17.4385 24.1472 18.0983 24.807 18.9122 24.807Z" fill="#274247" stroke="#274247" stroke-width="0.7" stroke-miterlimit="10"/>
<path d="M14 21.8596H9.0877C8.2738 21.8596 7.61401 22.5194 7.61401 23.3333C7.61401 24.1472 8.2738 24.807 9.0877 24.807H14C14.8139 24.807 15.4737 24.1472 15.4737 23.3333C15.4737 22.5194 14.8139 21.8596 14 21.8596Z" fill="#274247" stroke="#274247" stroke-width="0.7" stroke-miterlimit="10"/>
</g>
<defs>
<clipPath id="clip0_8826_1573">
<rect width="28" height="28" fill="white"/>
</clipPath>
</defs>
</svg>
