<svg width="28" height="28" viewBox="0 0 28 28" fill="none" xmlns="http://www.w3.org/2000/svg">
<path d="M27.8215 15.5981C27.5945 15.9841 27.1631 16.2036 26.6106 16.302C26.936 15.6662 27.1858 15.1894 27.1858 15.1894C27.1858 15.1819 27.1934 15.1819 27.1934 15.1743C27.2993 14.9927 27.5188 14.9321 27.6929 15.0305C27.8745 15.1213 27.9426 15.3408 27.8669 15.5225C27.8518 15.5527 27.8367 15.5754 27.8215 15.5981Z" fill="#274247"/>
<path d="M19.4963 16.4833C18.1416 15.7947 16.9231 14.9775 16.0452 14.183L16.9307 12.4578C17.8237 13.2371 18.9892 14.009 20.3288 14.6824C22.2512 15.6585 24.4081 16.3471 25.9521 16.3471C26.1791 16.3471 26.3986 16.332 26.6029 16.3017C26.3986 16.6952 26.1564 17.1643 25.9369 17.6108C25.8839 17.7243 25.7553 17.8151 25.5585 17.8756C24.4384 18.2464 21.7744 17.641 19.4963 16.4833Z" fill="white"/>
<path d="M15.909 9.42348C16.0528 9.17377 16.4917 9.03757 17.1351 9.03757C18.3081 9.03757 20.1851 9.49158 22.4102 10.619C24.8547 11.86 26.8225 13.5171 27.1857 14.6522C27.2614 14.8716 27.2614 15.0456 27.1933 15.1743C27.1933 15.1743 27.1857 15.1743 27.1857 15.1894C26.7922 15.8856 24.1433 15.7721 20.6694 14.009C19.2315 13.2826 17.96 12.4124 17.0821 11.5725C16.469 11.0049 16.0452 10.445 15.8939 9.97586C15.8333 9.81695 15.8257 9.67318 15.8484 9.55211C15.856 9.53698 15.856 9.52185 15.8636 9.50671L15.9014 9.43861L15.909 9.42348Z" fill="#274247"/>
<path d="M17.2939 21.1753C17.2939 21.4553 17.1955 21.7202 17.0139 21.9624C16.8777 21.7656 16.6885 21.584 16.4614 21.4175C16.5144 21.3342 16.5371 21.251 16.5371 21.1753V19.7222C17.0139 19.3437 17.2939 18.9123 17.2939 18.4053V21.1753Z" fill="#274247"/>
<path d="M16.5374 18.4054C16.5374 18.1934 16.7114 18.0269 16.9158 18.0269C17.1201 18.0269 17.2942 18.1934 17.2942 18.4054C17.2942 18.9124 17.0142 19.3438 16.5374 19.7222V18.4054Z" fill="#274247"/>
<path d="M17.1501 12.0264C17.2334 11.8751 17.1956 11.6935 17.0745 11.58H17.082C17.96 12.4123 19.2314 13.2825 20.6694 14.0089C24.1432 15.772 26.7922 15.8855 27.1857 15.1894C27.1857 15.1894 26.9359 15.6661 26.6105 16.3017H26.6029C26.3986 16.332 26.1791 16.3471 25.9521 16.3471C24.4081 16.3471 22.2512 15.6585 20.3288 14.6824C18.9892 14.0089 17.8237 13.2371 16.9307 12.4577L17.1501 12.0264Z" fill="#274247"/>
<path d="M17.0747 11.58C17.1958 11.6935 17.2336 11.8752 17.1504 12.0265L16.9309 12.4579C16.719 12.2839 16.5298 12.1022 16.3557 11.9282L16.4844 11.686C16.5752 11.4968 16.8022 11.4211 16.9914 11.5195C17.0217 11.5346 17.052 11.5573 17.0747 11.58Z" fill="#274247"/>
<path d="M16.9158 22.4081C17.1277 22.4081 17.2942 22.5822 17.2942 22.7865C17.2942 23.2936 17.0142 23.7326 16.5374 24.1034V22.7865C16.5374 22.5822 16.7114 22.4081 16.9158 22.4081Z" fill="#274247"/>
<path d="M17.2942 22.7866C17.2942 22.5823 17.1277 22.4082 16.9158 22.4082C16.7039 22.4082 16.5374 22.5823 16.5374 22.7866C16.5374 22.6882 16.5071 22.5899 16.4541 22.4915C16.6887 22.3325 16.8779 22.1509 17.0142 21.9617C17.1958 22.2114 17.2942 22.4915 17.2942 22.7866Z" fill="#274247"/>
<path d="M16.3557 11.9281C16.5298 12.1022 16.719 12.2838 16.9309 12.4579L16.0454 14.1834C15.8335 14.0018 15.6443 13.8126 15.4778 13.6234L16.3557 11.9281Z" fill="#274247"/>
<path d="M16.5373 19.7219V21.175C16.5373 21.2507 16.5146 21.334 16.4617 21.4172C16.0076 21.0842 15.3945 20.8118 14.6831 20.5998C15.4324 20.3728 16.0757 20.0776 16.5373 19.7219Z" fill="white"/>
<path d="M10.1044 16.3471C13.7902 16.3471 16.5375 17.4369 16.5375 18.4057C16.5375 19.0944 15.1601 19.8361 13.0485 20.2145C12.11 20.0556 11.0959 19.9723 10.1044 19.9723C9.11299 19.9723 8.09884 20.0556 7.16037 20.2145C6.69114 20.1312 6.25974 20.0329 5.87376 19.9193C5.85106 19.9042 5.82835 19.8966 5.80564 19.8966C4.48119 19.4879 3.67139 18.9279 3.67139 18.4057C3.67139 17.4369 6.42625 16.3471 10.1044 16.3471Z" fill="#274247"/>
<path d="M17.0142 21.9618C16.8779 22.151 16.6887 22.3326 16.4541 22.4916C16.3557 22.3024 16.1665 22.1207 15.894 21.9542C16.1816 21.7801 16.3708 21.5909 16.4617 21.4169C16.6887 21.5834 16.8779 21.765 17.0142 21.9618Z" fill="#274247"/>
<path d="M15.2278 9.09049C16.03 7.57712 19.6931 8.39434 22.7507 9.94554C25.445 11.3076 27.4657 13.0631 27.9047 14.4175C28.0409 14.8337 28.0333 15.2045 27.8668 15.5223C27.9425 15.3407 27.8744 15.1213 27.6928 15.0305C27.5187 14.9321 27.2992 14.9926 27.1933 15.1742C27.2614 15.0456 27.2614 14.8716 27.1857 14.6521C26.8224 13.5171 24.8547 11.86 22.4101 10.619C20.185 9.49153 18.3081 9.03752 17.135 9.03752C16.4917 9.03752 16.0527 9.17372 15.9089 9.42343C15.9922 9.23426 15.9165 9.02239 15.7349 8.92402C15.5532 8.83322 15.3262 8.90132 15.2278 9.09049Z" fill="#274247"/>
<path d="M16.0453 14.1831L15.9242 14.4177C15.8561 14.5463 15.7275 14.622 15.5837 14.622C15.5307 14.622 15.4701 14.6145 15.4172 14.5842C15.3869 14.5691 15.3566 14.5463 15.3263 14.5236C15.2052 14.4101 15.1674 14.2285 15.2507 14.0695L15.4777 13.623C15.6442 13.8122 15.8334 14.0014 16.0453 14.1831Z" fill="#274247"/>
<path d="M16.3556 11.9283L15.4777 13.6236C15.069 13.1847 14.7889 12.7684 14.6678 12.3976C14.5922 12.1705 14.5922 11.9813 14.6678 11.8451L15.3263 10.566C15.5382 10.9974 15.8939 11.4591 16.3631 11.9283H16.3556Z" fill="white"/>
<path d="M15.9016 9.43857L15.8638 9.50668C15.8638 9.50668 15.8789 9.46884 15.8865 9.4537C15.8865 9.44614 15.8865 9.44614 15.9016 9.43857Z" fill="#274247"/>
<path d="M15.894 9.97589C16.0454 10.4451 16.4692 11.0052 17.0823 11.5728H17.0747C17.0747 11.5728 17.0217 11.535 16.9914 11.5198C16.8022 11.4214 16.5752 11.4971 16.4844 11.6863L16.3557 11.9285C15.8865 11.4593 15.5308 10.9976 15.3188 10.5662L15.8486 9.55206C15.8259 9.67316 15.8335 9.81695 15.894 9.97589Z" fill="#274247"/>
<path d="M15.8485 9.55222L15.3188 10.5664C15.2582 10.4453 15.2128 10.3242 15.175 10.2107C15.0463 9.81711 15.0539 9.46897 15.1901 9.16624L15.2279 9.09056C15.3263 8.90135 15.5534 8.83324 15.735 8.92405C15.9166 9.02244 15.9923 9.23435 15.9091 9.42356C15.9091 9.42356 15.9015 9.43113 15.9015 9.4387C15.8939 9.44627 15.8864 9.44627 15.8864 9.45384C15.8788 9.46897 15.8712 9.48411 15.8637 9.50681C15.8637 9.52195 15.8637 9.53709 15.8485 9.55222Z" fill="#274247"/>
<path d="M16.0454 14.183C16.9233 14.9775 18.1418 15.7947 19.4965 16.4833C21.7746 17.641 24.4386 18.2464 25.5587 17.8756C25.7555 17.8151 25.8842 17.7243 25.9372 17.6108C26.1566 17.1643 26.3988 16.6952 26.6032 16.3017H26.6107C27.1632 16.2033 27.5946 15.9839 27.8217 15.598C27.6854 15.8553 27.1178 16.9373 26.6183 17.9437C26.4669 18.2464 26.1945 18.4658 25.8009 18.5945C25.4906 18.7004 25.1274 18.7458 24.7187 18.7458C23.1142 18.7458 20.874 18.0269 19.156 17.1568C17.5969 16.3698 16.2497 15.4391 15.3113 14.5386L15.3264 14.5235C15.3264 14.5235 15.387 14.5689 15.4172 14.584C15.4702 14.6143 15.5308 14.6219 15.5837 14.6219C15.7275 14.6219 15.8562 14.5462 15.9243 14.4176L16.0454 14.183Z" fill="#274247"/>
<path d="M15.228 9.09052L15.1902 9.1662C15.1902 9.1662 15.2053 9.12836 15.2129 9.10565C15.2129 9.09808 15.2205 9.09808 15.228 9.09052Z" fill="#274247"/>
<path d="M13.0483 20.2141C15.1599 19.8357 16.5373 19.094 16.5373 18.4053V19.7222C16.0757 20.0779 15.4324 20.373 14.6831 20.6001C14.1836 20.4336 13.6311 20.3125 13.0483 20.2141Z" fill="#274247"/>
<path d="M16.4616 21.417C16.3708 21.5911 16.1816 21.7803 15.894 21.9544C15.2961 21.5533 14.3047 21.2051 13.0559 20.9781C13.6311 20.8797 14.1836 20.7586 14.6831 20.5997C15.3945 20.8116 16.0075 21.084 16.4616 21.417Z" fill="white"/>
<path d="M15.2506 14.0694C15.1674 14.2284 15.2052 14.41 15.3263 14.5235L15.3112 14.5386C14.6149 13.8727 14.1381 13.2144 13.9489 12.6318C13.8051 12.208 13.8202 11.8297 13.9867 11.5043L15.1901 9.16614C15.0538 9.46881 15.0463 9.81689 15.1749 10.2104C15.2128 10.3239 15.2582 10.4449 15.3187 10.566L14.6603 11.8448C14.5922 11.981 14.5922 12.1702 14.6603 12.3972C14.7814 12.768 15.0614 13.1841 15.4701 13.623L15.2431 14.0694H15.2506Z" fill="#274247"/>
<path d="M12.4277 1.37258C12.4277 1.6072 12.3747 1.85695 12.2687 2.12184L11.6027 1.07742C11.4892 0.903347 11.5422 0.66873 11.7162 0.555206C11.8903 0.441681 12.1249 0.494659 12.2385 0.676298C12.3671 0.888211 12.4277 1.12283 12.4277 1.37258Z" fill="#274247"/>
<path d="M13.0483 20.2138C12.1779 20.3727 11.1789 20.4636 10.1042 20.4636C9.02952 20.4636 8.03051 20.3727 7.16016 20.2138C8.09862 20.0549 9.11278 19.9716 10.1042 19.9716C11.0957 19.9716 12.1098 20.0549 13.0483 20.2138Z" fill="#274247"/>
<path d="M10.1042 20.7283C11.1865 20.7283 12.1779 20.8192 13.0559 20.9781C12.1174 21.137 11.1032 21.2203 10.1042 21.2203C9.10521 21.2203 8.09862 21.137 7.15259 20.9781C8.02294 20.8192 9.02196 20.7283 10.1042 20.7283Z" fill="#274247"/>
<path d="M10.1045 20.7284C9.02219 20.7284 8.02318 20.8192 7.15282 20.9782C6.78954 20.9176 6.4414 20.8495 6.1084 20.7587V20.4333C6.4414 20.3424 6.79711 20.2743 7.16039 20.2138C8.03075 20.3727 9.02976 20.4635 10.1045 20.4635C11.1792 20.4635 12.1782 20.3727 13.0485 20.2138C13.6313 20.3122 14.1838 20.4333 14.6833 20.5998C14.1838 20.7587 13.6313 20.8798 13.0561 20.9782C12.1782 20.8192 11.1867 20.7284 10.1045 20.7284Z" fill="#274247"/>
<path d="M10.1045 23.1198C8.50755 23.1198 7.15282 22.9382 6.1084 22.6657V21.2126C6.42627 21.1218 6.78198 21.0461 7.15282 20.978C8.09886 21.1369 9.11301 21.2202 10.1045 21.2202C11.0959 21.2202 12.1176 21.1369 13.0561 20.978C14.3049 21.205 15.2963 21.5532 15.8942 21.9543C14.9179 22.5673 12.8896 23.1198 10.1045 23.1198Z" fill="white"/>
<path d="M7.6445 6.8053C9.77876 5.44327 11.7389 3.59696 12.2687 2.12143L12.9423 3.18079C13.3737 3.8618 11.913 6.10915 8.56783 8.22787C7.28879 9.03752 5.96434 9.658 4.84423 10.0061L3.95874 8.61378C5.09398 8.243 6.36546 7.62252 7.6445 6.8053Z" fill="white"/>
<path d="M7.15282 20.978C6.78198 21.0462 6.42627 21.1218 6.1084 21.2127V20.7586C6.4414 20.8494 6.78954 20.9175 7.15282 20.978Z" fill="white"/>
<path d="M7.16014 20.2138C6.79687 20.2744 6.44116 20.3425 6.10815 20.4333V20.2668C6.10815 20.1154 6.00976 19.9792 5.87354 19.9187C6.25952 20.0322 6.69091 20.1306 7.16014 20.2138Z" fill="#274247"/>
<path d="M6.1084 26.7899V25.1475C7.31933 25.4503 8.72703 25.6016 10.1045 25.6016C12.6323 25.6016 15.2736 25.087 16.5375 24.1031V25.2913C16.5375 26.1087 14.0929 27.244 10.1045 27.244C8.50755 27.244 7.15282 27.0623 6.1084 26.7899Z" fill="white"/>
<path d="M5.80542 24.2774C6.92553 24.618 8.41648 24.845 10.1042 24.845C13.79 24.845 16.5373 23.7627 16.5373 22.7864V24.1033C15.2734 25.0872 12.632 25.6018 10.1042 25.6018C8.72678 25.6018 7.31908 25.4505 6.10815 25.1477V24.6558C6.10815 24.4666 5.97192 24.3228 5.80542 24.285V24.2774Z" fill="#274247"/>
<path d="M6.10815 26.7897C5.83569 26.714 5.57837 26.6384 5.35132 26.5551V24.9279C5.58594 25.0112 5.84326 25.0869 6.10815 25.1474V26.7897Z" fill="#274247"/>
<path d="M6.10815 24.6556V25.1475C5.84326 25.087 5.58594 25.0113 5.35132 24.928V24.6556C5.35132 24.4437 5.51782 24.2772 5.72973 24.2772C5.75244 24.2772 5.78271 24.2772 5.80542 24.2847C5.97192 24.3226 6.10815 24.4664 6.10815 24.6556Z" fill="#274247"/>
<path d="M6.10815 21.2126V22.6657C5.83569 22.5976 5.57837 22.5143 5.35132 22.4386V21.4548C5.58594 21.364 5.83569 21.2883 6.10815 21.2126Z" fill="#274247"/>
<path d="M6.10839 20.4332V20.7586C5.91162 20.7132 5.71484 20.6602 5.52563 20.5997C5.71484 20.5316 5.91162 20.4786 6.10839 20.4332Z" fill="#274247"/>
<path d="M6.10815 20.2668V20.4333C5.91137 20.4787 5.7146 20.5317 5.52539 20.5998C5.46484 20.5846 5.4043 20.5619 5.35132 20.5392V20.2668C5.35132 20.0624 5.51782 19.8884 5.72973 19.8884C5.75244 19.8884 5.78271 19.8884 5.80542 19.8959C5.82812 19.8959 5.85083 19.9035 5.87353 19.9186C6.00976 19.9792 6.10815 20.1154 6.10815 20.2668Z" fill="#274247"/>
<path d="M6.10815 26.9332C6.10815 27.1376 5.93408 27.3116 5.72973 27.3116C5.52539 27.3116 5.35132 27.1376 5.35132 26.9332V26.5548C5.57837 26.638 5.83569 26.7137 6.10815 26.7894V26.9332Z" fill="#274247"/>
<path d="M10.1042 23.8765C8.56785 23.8765 6.98607 23.6949 5.69189 23.3316H5.72974C5.93408 23.3316 6.10815 23.1651 6.10815 22.9532V22.6656C7.15257 22.938 8.5073 23.1197 10.1042 23.1197C12.8893 23.1197 14.9176 22.5672 15.894 21.9541C16.1664 22.1206 16.3556 22.3023 16.454 22.4915C15.1598 23.3997 12.579 23.8765 10.1042 23.8765Z" fill="#274247"/>
<path d="M5.54053 23.2859C5.59351 23.301 5.63892 23.3162 5.69189 23.3313C5.63892 23.3237 5.58594 23.3086 5.54053 23.2859Z" fill="#274247"/>
<path d="M5.35132 20.5391C5.4043 20.5618 5.46484 20.5845 5.52539 20.5997C5.46484 20.6073 5.4043 20.63 5.35132 20.6527V20.5391Z" fill="#274247"/>
<path d="M5.35132 21.4549V20.6526C5.4043 20.6299 5.46484 20.6072 5.52539 20.5997C5.7146 20.6602 5.91137 20.7132 6.10815 20.7586V21.2127C5.83569 21.2884 5.58594 21.3641 5.35132 21.4549Z" fill="#274247"/>
<path d="M6.10815 22.953C6.10815 23.165 5.93408 23.3315 5.72973 23.3315H5.69189C5.63891 23.3163 5.5935 23.3012 5.54053 23.286C5.53296 23.2785 5.52539 23.2709 5.51782 23.2709C5.41943 23.2028 5.35132 23.0893 5.35132 22.953V22.4384C5.57837 22.5141 5.83569 22.5973 6.10815 22.6654V22.953Z" fill="#274247"/>
<path d="M5.69212 23.3314C6.9863 23.6947 8.56807 23.8764 10.1044 23.8764C12.5793 23.8764 15.1601 23.3996 16.4542 22.4914C16.5072 22.5898 16.5375 22.6881 16.5375 22.7865C16.5375 23.7628 13.7902 24.8451 10.1044 24.8451C8.41671 24.8451 6.92575 24.6181 5.80564 24.2775C4.48119 23.8764 3.67139 23.3163 3.67139 22.7865C3.67139 22.6881 3.70166 22.5898 3.75464 22.4914C4.20874 22.8092 4.8142 23.0741 5.51805 23.2709C5.52562 23.2709 5.53319 23.2785 5.54075 23.286C5.58616 23.3087 5.63914 23.3239 5.69212 23.3314Z" fill="white"/>
<path d="M5.35155 24.9281V26.5552C4.26928 26.1768 3.67139 25.6925 3.67139 25.2913V24.1031C4.09521 24.4286 4.67797 24.7086 5.35155 24.9281Z" fill="white"/>
<path d="M5.3513 22.9532C5.3513 23.0894 5.41942 23.2029 5.51781 23.271C4.81396 23.0743 4.20849 22.8094 3.75439 22.4915C3.85278 22.3023 4.04199 22.1206 4.31445 21.9541C4.57934 22.1206 4.92748 22.2872 5.3513 22.4385V22.9532Z" fill="#274247"/>
<path d="M5.35131 21.4547V22.4386C4.92748 22.2872 4.57934 22.1207 4.31445 21.9542C4.58691 21.7726 4.93505 21.6061 5.35131 21.4547Z" fill="white"/>
<path d="M3.74683 21.417C4.16308 21.1143 4.71557 20.857 5.3513 20.6526V21.4549C4.93505 21.6062 4.58691 21.7727 4.31445 21.9544C4.02685 21.7727 3.83765 21.5911 3.74683 21.417Z" fill="white"/>
<path d="M5.35155 20.5393V20.6528C4.71581 20.8572 4.16333 21.1145 3.74707 21.4172C3.69409 21.334 3.67139 21.2507 3.67139 21.175V19.7219C4.09521 20.0474 4.67797 20.3274 5.35155 20.5393Z" fill="white"/>
<path d="M8.97653 8.8712C7.50071 9.80192 6.02489 10.4829 4.77612 10.8234V10.8083C4.77612 10.8083 4.83667 10.7856 4.86694 10.7629C5.04101 10.6494 5.09399 10.4148 4.98804 10.2408L4.84424 10.0062C5.96434 9.65815 7.2888 9.03767 8.56784 8.22802C11.913 6.10931 13.3737 3.86195 12.9423 3.18094L12.2687 2.12158C12.3747 1.85674 12.4277 1.60704 12.4277 1.37246C12.4277 1.12276 12.3671 0.888187 12.2385 0.676315L13.578 2.77233C14.5089 4.24786 11.9055 7.01733 8.97653 8.8712Z" fill="#274247"/>
<path d="M4.84422 10.0064C4.57177 10.0972 4.31444 10.1653 4.07226 10.2183L3.20947 8.83328C3.45166 8.7803 3.70141 8.70462 3.95873 8.6138L4.84422 10.0064Z" fill="#274247"/>
<path d="M4.98778 10.2407C5.09374 10.4148 5.04076 10.6494 4.86669 10.7629C4.83642 10.7856 4.80615 10.8007 4.7683 10.8083C4.73803 10.8159 4.70019 10.8234 4.66235 10.8234C4.54126 10.8234 4.42016 10.7553 4.34448 10.6418L4.07202 10.218C4.31421 10.165 4.57153 10.0969 4.84399 10.0061L4.98778 10.2407Z" fill="#274247"/>
<path d="M4.31444 21.9542C4.04198 22.1207 3.85278 22.3024 3.75439 22.4916C3.51977 22.3326 3.33057 22.151 3.19434 21.9618C3.33057 21.765 3.51977 21.5834 3.74682 21.4169C3.83764 21.5909 4.02685 21.7726 4.31444 21.9542Z" fill="#274247"/>
<path d="M17.2941 18.4058C17.2941 18.1939 17.1276 18.0274 16.9156 18.0274C16.7037 18.0274 16.5372 18.1939 16.5372 18.4058C16.5372 17.4371 13.7899 16.3472 10.1042 16.3472C6.41843 16.3472 3.67114 17.4371 3.67114 18.4058C3.67114 18.1939 3.50463 18.0274 3.29272 18.0274C3.08081 18.0274 2.91431 18.1939 2.91431 18.4058C2.91431 16.5743 6.62277 15.5904 10.1042 15.5904C13.5856 15.5904 17.2941 16.5743 17.2941 18.4058Z" fill="#274247"/>
<path d="M3.67139 18.4053C3.67139 18.9275 4.48119 19.4875 5.80565 19.8962C5.78294 19.8887 5.75267 19.8887 5.72996 19.8887C5.51805 19.8887 5.35155 20.0627 5.35155 20.2671V20.5395C4.67797 20.3276 4.09521 20.0476 3.67139 19.7222V18.4053Z" fill="#274247"/>
<path d="M3.67139 22.7864C3.67139 23.3162 4.48119 23.8763 5.80565 24.2774H5.72996C5.51805 24.2774 5.35155 24.4439 5.35155 24.6558V24.9283C4.67797 24.7088 4.09521 24.4288 3.67139 24.1033V22.7864Z" fill="#274247"/>
<path d="M7.24337 6.16969C10.581 4.03584 12.0265 1.76579 11.6027 1.07721L12.2687 2.12143C11.7389 3.59697 9.77875 5.44328 7.64449 6.80531C6.36545 7.62253 5.09398 8.24301 3.95873 8.61378L3.69384 8.19761C3.60302 8.05384 3.42895 7.9933 3.27002 8.0387C4.4431 7.70576 5.86594 7.04745 7.24337 6.16969Z" fill="#274247"/>
<path d="M3.67114 21.1752C3.67114 21.2509 3.69384 21.3342 3.74682 21.4174C3.51977 21.5839 3.33056 21.7656 3.19433 21.9623C3.01269 21.7202 2.91431 21.4553 2.91431 21.1752V18.4431C2.92944 18.9275 3.20947 19.3588 3.67114 19.7221V21.1752Z" fill="#274247"/>
<path d="M6.10813 26.7893C7.15255 27.0617 8.50728 27.2433 10.1042 27.2433C14.0927 27.2433 16.5372 26.1083 16.5372 25.2911V24.1031C17.014 23.7323 17.2941 23.2934 17.2941 22.7864V25.2911C17.2941 27.0541 13.5932 28 10.1042 28C6.6152 28 2.91431 27.0541 2.91431 25.2911V22.8243C2.92944 23.3161 3.20947 23.7399 3.67114 24.1031V25.2911C3.67114 25.6921 4.26903 26.1764 5.3513 26.5547V26.9331C5.3513 27.1374 5.5178 27.3114 5.72971 27.3114C5.94162 27.3114 6.10813 27.1374 6.10813 26.9331V26.7893Z" fill="#274247"/>
<path d="M3.26995 8.03872C3.42888 7.99331 3.60295 8.05386 3.69377 8.19766L3.95866 8.61391C3.70134 8.70473 3.45159 8.78042 3.2094 8.83339L3.05804 8.59878C2.94451 8.42471 2.99749 8.19009 3.17156 8.07656C3.20183 8.06143 3.23211 8.04629 3.26995 8.03872Z" fill="#274247"/>
<path d="M2.91431 18.4054C2.91431 18.1934 3.08838 18.0269 3.29272 18.0269C3.49707 18.0269 3.67114 18.1934 3.67114 18.4054V19.7222C3.20947 19.359 2.92944 18.9276 2.91431 18.4432V18.4054Z" fill="#274247"/>
<path d="M3.29272 22.4081C3.50463 22.4081 3.67114 22.5822 3.67114 22.7865V24.1034C3.20947 23.7401 2.92944 23.3163 2.91431 22.8244V22.7865C2.91431 22.5822 3.08838 22.4081 3.29272 22.4081Z" fill="#274247"/>
<path d="M3.19433 21.9617C3.33056 22.1509 3.51977 22.3325 3.75439 22.4915C3.70141 22.5899 3.67114 22.6882 3.67114 22.7866C3.67114 22.5823 3.50463 22.4082 3.29272 22.4082C3.08081 22.4082 2.91431 22.5823 2.91431 22.7866C2.91431 22.4915 3.01269 22.2114 3.19433 21.9617Z" fill="#274247"/>
<path d="M3.27001 8.03885C2.4602 8.26586 1.77149 8.34153 1.29469 8.23559C1.06764 8.18262 0.908703 8.09182 0.825452 7.96318C0.401628 7.2746 1.84717 5.00455 5.18479 2.8707C7.22823 1.5692 9.36249 0.759552 10.6491 0.759552C10.8232 0.759552 10.9897 0.774686 11.1335 0.804953C11.3605 0.857921 11.5195 0.948723 11.6027 1.07736C12.0265 1.76594 10.581 4.03599 7.24336 6.16984C5.86594 7.0476 4.4431 7.70591 3.27001 8.03885Z" fill="white"/>
<path d="M4.66256 10.8238C4.66256 10.8238 4.73824 10.8162 4.76851 10.8086V10.8238C4.14791 10.9979 3.57272 11.0887 3.08835 11.0887C2.85374 11.0887 2.63426 11.066 2.43748 11.0206C2.00609 10.9297 1.69579 10.7254 1.49901 10.4227L0.189697 8.37166C0.386473 8.67439 0.704341 8.87873 1.12817 8.97712C1.24926 8.99983 1.37035 9.01496 1.50658 9.02253L2.14232 10.014C2.22557 10.1426 2.37693 10.2335 2.61155 10.2864C2.9824 10.3697 3.48947 10.3394 4.07223 10.2183L4.34469 10.6421C4.42037 10.7557 4.54147 10.8238 4.66256 10.8238Z" fill="#274247"/>
<path d="M3.20946 8.83322L4.07224 10.2182C3.48948 10.3393 2.98241 10.3696 2.61156 10.2863C2.37695 10.2334 2.22558 10.1425 2.14233 10.0139L1.50659 9.02243C1.58984 9.03757 1.68066 9.03756 1.77148 9.03756C2.19531 9.03756 2.67968 8.96945 3.20946 8.83322Z" fill="white"/>
<path d="M3.17185 8.07657C2.99778 8.19009 2.94481 8.42471 3.05833 8.59878L3.2097 8.8334C2.67992 8.96963 2.19554 9.03774 1.77172 9.03774C1.6809 9.03774 1.59008 9.03774 1.50683 9.0226L0.825684 7.96304C0.908935 8.0917 1.06787 8.18252 1.29492 8.2355C1.77172 8.34146 2.46044 8.26577 3.27024 8.03873C3.2324 8.04629 3.20213 8.06143 3.17185 8.07657Z" fill="#274247"/>
<path d="M0.825368 7.96312L1.50651 9.02268C1.37029 9.01512 1.24919 8.99998 1.1281 8.97727C0.704276 8.87889 0.386407 8.67454 0.189632 8.37181C0.189632 8.37181 0.159359 8.3037 0.144222 8.27342C0.0988122 8.10692 0.159359 7.93285 0.303156 7.84203C0.477227 7.73607 0.711844 7.78148 0.825368 7.96312Z" fill="#274247"/>
<path d="M4.78365 2.23496C7.34173 0.60052 9.89982 -0.246966 11.2999 0.0632741C11.7313 0.161643 12.0492 0.365948 12.2384 0.676188C12.1249 0.494584 11.8903 0.441616 11.7162 0.555119C11.5421 0.668621 11.4892 0.903193 11.6027 1.07723C11.5194 0.948594 11.3605 0.857792 11.1334 0.804824C10.9897 0.774557 10.8231 0.759423 10.6491 0.759423C9.36247 0.759423 7.22821 1.56908 5.18477 2.87057C1.84715 5.00442 0.401608 7.27447 0.825433 7.96306C0.711908 7.78145 0.477291 7.73605 0.30322 7.84199C0.159423 7.93279 0.0988764 8.10682 0.144286 8.2733C-0.642816 6.77506 1.91527 4.06613 4.78365 2.23496Z" fill="#274247"/>
</svg>
