<svg width="28" height="28" viewBox="0 0 28 28" fill="none" xmlns="http://www.w3.org/2000/svg">
<g clip-path="url(#clip0_8826_1537)">
<path d="M11.7895 22.9841C11.7895 21.4634 8.8421 21.2414 8.8421 21.2414L5.89474 23.6552L2.94737 21.2414C2.94737 21.2414 0 21.4683 0 22.9841V27.5172H11.7895V22.9841Z" fill="#274247"/>
<path d="M14 14.7241V17.1379" stroke="#274247" stroke-width="0.7" stroke-miterlimit="10" stroke-linecap="round"/>
<path d="M14 17.1379L16.4561 18.1034" stroke="#274247" stroke-width="0.7" stroke-miterlimit="10" stroke-linecap="round"/>
<path d="M14.0001 17.1379L11.5439 18.1034" stroke="#274247" stroke-width="0.7" stroke-miterlimit="10" stroke-linecap="round"/>
<path d="M5.89463 20.5172C7.38676 20.5172 8.59638 19.3285 8.59638 17.8621C8.59638 16.3957 7.38676 15.2069 5.89463 15.2069C4.40249 15.2069 3.19287 16.3957 3.19287 17.8621C3.19287 19.3285 4.40249 20.5172 5.89463 20.5172Z" fill="white" stroke="#274247" stroke-width="0.7" stroke-miterlimit="10"/>
<path d="M2.21045 27.7586V25.8276" stroke="white" stroke-width="0.7" stroke-miterlimit="10" stroke-linecap="round"/>
<path d="M9.57886 27.7586V25.8276" stroke="white" stroke-width="0.7" stroke-miterlimit="10" stroke-linecap="round"/>
<path d="M27.9999 22.9841C27.9999 21.4634 25.0526 21.2414 25.0526 21.2414L22.1052 23.6552L19.1578 21.2414C19.1578 21.2414 16.2104 21.4683 16.2104 22.9841V27.5172H27.9999V22.9841Z" fill="#274247"/>
<path d="M22.1051 20.5172C23.5972 20.5172 24.8068 19.3285 24.8068 17.8621C24.8068 16.3957 23.5972 15.2069 22.1051 15.2069C20.6129 15.2069 19.4033 16.3957 19.4033 17.8621C19.4033 19.3285 20.6129 20.5172 22.1051 20.5172Z" fill="white" stroke="#274247" stroke-width="0.7" stroke-miterlimit="10"/>
<path d="M18.4209 27.7586V25.8276" stroke="white" stroke-width="0.7" stroke-miterlimit="10" stroke-linecap="round"/>
<path d="M25.7893 27.7586V25.8276" stroke="white" stroke-width="0.7" stroke-miterlimit="10" stroke-linecap="round"/>
<path d="M20.1403 8.01862C20.1403 6.49793 17.1929 6.27586 17.1929 6.27586L14.2456 8.68966L11.2982 6.27586C11.2982 6.27586 8.35083 6.50276 8.35083 8.01862V12.5517H20.1403V8.01862Z" fill="#274247"/>
<path d="M14.2455 5.55172C15.7376 5.55172 16.9472 4.36296 16.9472 2.89655C16.9472 1.43014 15.7376 0.241379 14.2455 0.241379C12.7533 0.241379 11.5437 1.43014 11.5437 2.89655C11.5437 4.36296 12.7533 5.55172 14.2455 5.55172Z" fill="white" stroke="#274247" stroke-width="0.7" stroke-miterlimit="10"/>
<path d="M10.5613 12.7931V10.8621" stroke="white" stroke-width="0.7" stroke-miterlimit="10" stroke-linecap="round"/>
<path d="M17.9297 12.7931V10.8621" stroke="white" stroke-width="0.7" stroke-miterlimit="10" stroke-linecap="round"/>
</g>
<defs>
<clipPath id="clip0_8826_1537">
<rect width="28" height="28" fill="white"/>
</clipPath>
</defs>
</svg>
