<svg width="28" height="28" viewBox="0 0 28 28" fill="none" xmlns="http://www.w3.org/2000/svg">
<g clip-path="url(#clip0_8826_1617)">
<path d="M14.0198 0.493827C14.9742 0.493827 15.7506 1.26914 15.7506 2.22222C15.7506 3.17531 14.9742 3.95062 14.0198 3.95062C13.0654 3.95062 12.289 3.17531 12.289 2.22222C12.289 1.26914 13.0654 0.493827 14.0198 0.493827ZM14.0198 0C12.7884 0 11.7944 0.992593 11.7944 2.22222C11.7944 3.45185 12.7884 4.44444 14.0198 4.44444C15.2512 4.44444 16.2452 3.45185 16.2452 2.22222C16.2452 0.992593 15.2512 0 14.0198 0Z" fill="#274247"/>
<path d="M28 14.0494L25.834 11.8519H23.5443L17.1155 5.4321H12.0021L8.16461 9.91111L7.05687 8.20247H5.82056L0 14.0247L14.0297 28L28 14.0494Z" fill="#274247"/>
<path d="M12.007 5.4321L10.291 7.46173L11.013 8.72099L12.1455 8.04444L13.4065 8.2716L15.167 7.00741L16.072 8.72099L17.427 8L18.51 8.44938L19.6375 7.95556L17.155 5.4321H12.007Z" fill="white"/>
<path d="M16.9078 5.92593L23.1932 12.2025L23.3366 12.3457H25.6263L26.8181 13.5556L1.19181 13.5309L6.02331 8.6963H6.78488L7.74426 10.1778L8.10526 10.7358L8.5355 10.2321L12.2296 5.92593H16.9078ZM17.1106 5.4321H12.0021L8.15966 9.91111L7.05687 8.20247H5.82056L0 14.0247L28 14.0494L25.834 11.8519H23.5443L17.1155 5.4321H17.1106Z" fill="#274247"/>
<path d="M9.72246 19.7531C9.72246 19.7531 9.56422 19.7827 9.52465 19.6889C9.48015 19.5852 9.49004 19.4765 9.54938 19.3876C9.584 19.3383 9.64334 19.2988 9.70268 19.2839C9.82137 19.2543 9.945 19.2346 10.0686 19.2296C10.3851 19.2148 10.3505 19.1605 10.4197 18.9136C10.5038 18.6074 10.5285 18.2914 10.5879 17.9802C10.6176 17.8321 10.6621 17.6938 10.6967 17.5457C10.7362 17.3728 10.7857 17.2049 10.7956 17.0321C10.8055 16.9086 10.7659 16.7753 10.7313 16.6518C10.7214 16.6173 10.667 16.5778 10.6274 16.5679C10.4989 16.5383 10.3703 16.5136 10.2417 16.5086C10.1131 16.5086 9.97962 16.4988 9.66807 16.5333C9.35652 16.5679 9.15871 16.7802 9.01035 16.8839C8.80265 17.0321 8.63451 17.0321 8.53561 16.9284C8.40703 16.8444 8.34769 16.7852 8.21911 16.6963C8.13504 16.637 8.13504 16.5531 8.18449 16.4691C8.2834 16.3062 8.39219 16.1531 8.48121 15.9852C8.53066 15.8963 8.56033 15.7926 8.58011 15.6889C8.64935 15.3531 9.02024 14.958 9.25267 14.7309C9.3763 14.6123 9.49004 14.4839 9.61367 14.3605C9.70268 14.2667 9.83621 14.2025 9.83126 14.0691C9.82631 13.9556 9.83621 13.8963 9.91533 13.8123C9.99445 13.7284 10.128 13.6938 10.2368 13.8123C10.2516 13.8272 10.2714 13.8469 10.2763 13.8667C10.3505 14.0593 10.4445 14.0741 10.6373 14.0099C11.117 13.8469 11.5819 13.6494 12.0665 13.5111C12.1555 13.4864 12.2445 13.4815 12.3336 13.4864C12.9418 13.5358 13.5501 13.4716 14.1584 13.4617C14.282 13.4617 14.4056 13.4469 14.5243 13.4321C14.7073 13.4123 14.8952 13.4123 15.0782 13.3926C15.4936 13.3481 15.8991 13.3975 16.3046 13.4864C17.175 13.6691 17.897 14.1235 18.53 14.7309C18.7475 14.9383 18.9206 15.1901 19.1184 15.4222C19.1679 15.4815 19.1926 16.1185 19.1728 16.2914C19.1184 16.8 19.1976 17.3037 19.3311 17.7975C19.3805 17.9852 19.4745 18.1778 19.6476 18.2667C19.6921 18.2914 19.7119 18.3457 19.7514 18.3753C19.9245 18.5086 19.8899 18.6716 19.8553 18.8543C19.7811 19.2247 19.5091 19.4469 19.252 19.679C19.1629 19.758 19.064 19.8272 18.975 19.9062C18.8464 20.0099 18.703 19.9556 18.6635 19.7876C18.6338 19.6593 18.6536 19.5407 18.7624 19.442C18.8415 19.3679 18.9305 19.279 18.9602 19.1802C19.0245 18.9728 18.8514 18.8346 18.6635 18.7704C18.2728 18.637 17.8722 18.5235 17.4915 18.3704C17.1255 18.2222 16.7991 18 16.5519 17.679C16.537 17.6593 16.5172 17.6494 16.4975 17.6494C16.1216 17.6148 15.7458 17.5951 15.365 17.5704C15.3155 17.5704 15.2661 17.5704 15.2216 17.5802C15.1425 17.6 15.093 17.6395 15.0881 17.7333C15.0683 18.1235 15.0386 18.5185 15.0238 18.9086C15.0139 19.1753 14.91 19.3975 14.7617 19.6099C14.7023 19.6938 14.638 19.7679 14.5836 19.8518C14.4847 20 14.3413 20.0593 14.1732 20.0593C13.9061 20.0593 13.6391 20.0593 13.377 20.0494C13.3028 20.0494 13.2188 20.0642 13.1891 19.9654C13.1594 19.8617 13.1446 19.7481 13.2336 19.6691C13.2929 19.6148 13.377 19.5802 13.4561 19.5654C13.5946 19.5407 13.738 19.5457 13.8814 19.5358C13.9803 19.5309 14.0199 19.4765 14.0298 19.3778C14.0594 19.0963 13.9507 18.8543 13.8369 18.6074C13.6638 18.237 13.3424 17.9951 13.0753 17.7086C12.9418 17.5704 12.8034 17.4321 12.655 17.3037C12.5561 17.2148 12.472 17.2346 12.4522 17.363C12.4176 17.5753 12.2792 17.7333 12.1852 17.9111C12.0566 18.1481 11.9132 18.3852 11.7649 18.6123C11.5769 18.8988 11.3742 19.1753 11.1764 19.4568C11.1467 19.4963 11.1071 19.5309 11.0923 19.5753C11.028 19.7432 10.7461 19.758 10.7461 19.758H9.73236L9.72246 19.7531Z" fill="white"/>
<path d="M17.0217 18.7259C17.2986 18.8543 17.5805 18.9679 17.8673 19.0765C18.0355 19.1407 18.2184 19.1753 18.3915 19.2296C18.4805 19.2543 18.4558 19.3284 18.4311 19.3778C18.3767 19.4913 18.3075 19.5802 18.258 19.6691C18.2036 19.7778 18.1344 19.8815 18.0651 19.9852C17.9811 20.0988 17.8327 20.1086 17.7931 20.1086C17.3283 20.1284 17.0167 20.0938 16.5519 20.1086C16.4579 20.1086 16.3788 20 16.3936 19.9012C16.4233 19.7432 16.5272 19.5901 16.72 19.5951C16.8041 19.5951 16.8832 19.5951 16.9673 19.5852C17.0761 19.5704 17.1058 19.4963 17.0415 19.4074C16.814 19.0864 16.631 18.7457 16.5123 18.3704C16.6162 18.4839 16.7497 18.5975 17.0167 18.7309L17.0217 18.7259Z" fill="white"/>
</g>
<defs>
<clipPath id="clip0_8826_1617">
<rect width="28" height="28" fill="white"/>
</clipPath>
</defs>
</svg>
