<svg width="28" height="28" viewBox="0 0 28 28" fill="none" xmlns="http://www.w3.org/2000/svg">
<g clip-path="url(#clip0_8826_1633)">
<path d="M12.1628 13.0175H26.5264" stroke="#274247" stroke-width="0.7" stroke-miterlimit="10"/>
<path d="M24.3158 23.0877V19.5656C24.3158 16.7607 22.0414 14.4912 19.2414 14.4912H5.89478" stroke="#274247" stroke-width="0.7" stroke-miterlimit="10"/>
<path d="M23.8245 11.7895V12.7719" stroke="#274247" stroke-width="0.7" stroke-miterlimit="10"/>
<path d="M21.3684 11.7895V12.7719" stroke="#274247" stroke-width="0.7" stroke-miterlimit="10"/>
<path d="M16.9473 16.2105V17.193" stroke="#274247" stroke-width="0.7" stroke-miterlimit="10"/>
<path d="M14.4912 16.2105V17.193" stroke="#274247" stroke-width="0.7" stroke-miterlimit="10"/>
<path d="M12.0352 16.2105V17.193" stroke="#274247" stroke-width="0.7" stroke-miterlimit="10"/>
<path d="M9.57886 16.2105V17.193" stroke="#274247" stroke-width="0.7" stroke-miterlimit="10"/>
<path d="M2.45609 9.08772H1.47363" stroke="#274247" stroke-width="0.7" stroke-miterlimit="10"/>
<path d="M2.45609 19.8947H1.47363" stroke="#274247" stroke-width="0.7" stroke-miterlimit="10"/>
<path d="M22.5965 19.8947H21.614" stroke="#274247" stroke-width="0.7" stroke-miterlimit="10"/>
<path d="M25.5437 19.8947H24.5613" stroke="#274247" stroke-width="0.7" stroke-miterlimit="10"/>
<path d="M22.5965 21.894H21.614" stroke="#274247" stroke-width="0.7" stroke-miterlimit="10"/>
<path d="M22.5965 23.8884H21.614" stroke="#274247" stroke-width="0.7" stroke-miterlimit="10"/>
<path d="M2.45609 6.63158H1.47363" stroke="#274247" stroke-width="0.7" stroke-miterlimit="10"/>
<path d="M15.7193 9.08772H14.7368" stroke="#274247" stroke-width="0.7" stroke-miterlimit="10"/>
<path d="M15.7193 6.63158H14.7368" stroke="#274247" stroke-width="0.7" stroke-miterlimit="10"/>
<path d="M2.45609 4.17545H1.47363" stroke="#274247" stroke-width="0.7" stroke-miterlimit="10"/>
<path d="M15.9649 3.4386V9.24491C15.9649 11.3474 14.2604 13.0175 12.1628 13.0175H6.38599" stroke="#274247" stroke-width="0.7" stroke-miterlimit="10"/>
<path d="M1.22803 23.0877V19.7867C1.22803 17.6842 2.93259 15.9846 5.03013 15.9846" stroke="#274247" stroke-width="0.7" stroke-miterlimit="10"/>
<path d="M26.772 14C27.3146 14 27.7545 13.5601 27.7545 13.0175C27.7545 12.4749 27.3146 12.0351 26.772 12.0351C26.2294 12.0351 25.7896 12.4749 25.7896 13.0175C25.7896 13.5601 26.2294 14 26.772 14Z" fill="white" stroke="#274247" stroke-width="0.7" stroke-miterlimit="10"/>
<path d="M24.3157 23.8246C24.8583 23.8246 25.2982 23.3847 25.2982 22.8421C25.2982 22.2995 24.8583 21.8596 24.3157 21.8596C23.7731 21.8596 23.3333 22.2995 23.3333 22.8421C23.3333 23.3847 23.7731 23.8246 24.3157 23.8246Z" fill="white" stroke="#274247" stroke-width="0.7" stroke-miterlimit="10"/>
<path d="M15.9649 4.66666C16.5075 4.66666 16.9473 4.2268 16.9473 3.68421C16.9473 3.14161 16.5075 2.70175 15.9649 2.70175C15.4223 2.70175 14.9824 3.14161 14.9824 3.68421C14.9824 4.2268 15.4223 4.66666 15.9649 4.66666Z" fill="white" stroke="#274247" stroke-width="0.7" stroke-miterlimit="10"/>
<path d="M1.22803 1.47368V12.1628C1.22803 14.2653 2.93259 15.9649 5.03013 15.9649H19.0105C21.1129 15.9649 22.8421 17.6842 22.8421 19.7817V26.5263" stroke="#274247" stroke-width="0.7" stroke-miterlimit="10"/>
<path d="M1.22806 2.21053C1.77066 2.21053 2.21052 1.77067 2.21052 1.22808C2.21052 0.685481 1.77066 0.245621 1.22806 0.245621C0.685466 0.245621 0.245605 0.685481 0.245605 1.22808C0.245605 1.77067 0.685466 2.21053 1.22806 2.21053Z" fill="white" stroke="#274247" stroke-width="0.7" stroke-miterlimit="10"/>
<path d="M1.22806 23.8246C1.77066 23.8246 2.21052 23.3847 2.21052 22.8421C2.21052 22.2995 1.77066 21.8596 1.22806 21.8596C0.685466 21.8596 0.245605 22.2995 0.245605 22.8421C0.245605 23.3847 0.685466 23.8246 1.22806 23.8246Z" fill="white" stroke="#274247" stroke-width="0.7" stroke-miterlimit="10"/>
<path d="M7.12285 12.7719C7.12285 12.365 6.79296 12.0351 6.38601 12.0351C5.97907 12.0351 5.64917 12.365 5.64917 12.7719V16.2105C5.64917 16.6175 5.97907 16.9474 6.38601 16.9474C6.79296 16.9474 7.12285 16.6175 7.12285 16.2105V12.7719Z" fill="white" stroke="#274247" stroke-width="0.7" stroke-miterlimit="10"/>
<path d="M22.8421 27.7544C23.3847 27.7544 23.8245 27.3145 23.8245 26.7719C23.8245 26.2293 23.3847 25.7895 22.8421 25.7895C22.2995 25.7895 21.8596 26.2293 21.8596 26.7719C21.8596 27.3145 22.2995 27.7544 22.8421 27.7544Z" fill="white" stroke="#274247" stroke-width="0.7" stroke-miterlimit="10"/>
</g>
<defs>
<clipPath id="clip0_8826_1633">
<rect width="28" height="28" fill="white"/>
</clipPath>
</defs>
</svg>
