<svg width="28" height="28" viewBox="0 0 28 28" fill="none" xmlns="http://www.w3.org/2000/svg">
<g clip-path="url(#clip0_8826_1785)">
<path d="M5.40361 9.08772H26.2808V11.5439H5.40361C4.72571 11.5439 4.17554 10.9937 4.17554 10.3158C4.17554 9.6379 4.72571 9.08772 5.40361 9.08772Z" fill="white" stroke="#274247" stroke-width="0.7" stroke-miterlimit="10" stroke-linecap="round"/>
<path d="M18.76 11.8239L17.5417 13.1993C16.967 13.8428 15.2133 13.1404 13.3221 11.4505C11.4309 9.7607 10.3649 7.86456 10.9396 7.21614L12.1824 5.86035" fill="white"/>
<path d="M18.76 11.8239L17.5417 13.1993C16.967 13.8428 15.2133 13.1404 13.3221 11.4505C11.4309 9.7607 10.3649 7.86456 10.9396 7.21614L12.1824 5.86035" stroke="#274247" stroke-width="0.7" stroke-miterlimit="10"/>
<path d="M11.3228 9.1172L12.5508 7.86948" stroke="#274247" stroke-width="0.7" stroke-miterlimit="10"/>
<path d="M18.7558 11.8309C19.3202 11.211 18.3077 9.36996 16.4943 7.71875C14.6809 6.06753 12.7534 5.23143 12.1889 5.85128C11.6245 6.47112 12.637 8.31218 14.4504 9.9634C16.2638 11.6146 18.1914 12.4507 18.7558 11.8309Z" fill="white" stroke="#274247" stroke-width="0.7" stroke-miterlimit="10"/>
<path d="M7.45195 0.461761L8.5523 1.86667C9.1123 2.52492 7.91861 4.32773 5.98809 5.97334C4.05756 7.61896 2.10739 8.41966 1.54739 7.76141L0.363525 6.36141" fill="white"/>
<path d="M7.45195 0.461761L8.5523 1.86667C9.1123 2.52492 7.91861 4.32773 5.98809 5.97334C4.05756 7.61896 2.10739 8.41966 1.54739 7.76141L0.363525 6.36141" stroke="#274247" stroke-width="0.7" stroke-miterlimit="10"/>
<path d="M3.40433 7.6435L2.25977 6.33684" stroke="#274247" stroke-width="0.7" stroke-miterlimit="10"/>
<path d="M4.9383 4.65138C6.89493 3.02002 8.02899 1.15532 7.47131 0.48644C6.91362 -0.182437 4.87538 0.597803 2.91875 2.22916C0.962132 3.86051 -0.171932 5.72522 0.385751 6.39409C0.943435 7.06297 2.98168 6.28273 4.9383 4.65138Z" fill="white" stroke="#274247" stroke-width="0.7" stroke-miterlimit="10"/>
<path d="M5.62467 11.2982C4.69133 11.2982 3.92993 11.1951 3.92993 10.2323L3.94958 26.0351C3.94958 27.0175 4.72572 28 5.6787 28H28.0001V11.2982H5.62467Z" fill="#274247"/>
<path d="M28.0001 16.9474H22.7144C21.1425 16.9474 19.885 18.2884 20.0225 19.8898C20.1453 21.3095 21.4274 22.3509 22.852 22.3509H27.9951" stroke="white" stroke-width="0.7" stroke-miterlimit="10"/>
<path d="M22.5965 21.1228C23.4104 21.1228 24.0702 20.463 24.0702 19.6491C24.0702 18.8352 23.4104 18.1754 22.5965 18.1754C21.7826 18.1754 21.1228 18.8352 21.1228 19.6491C21.1228 20.463 21.7826 21.1228 22.5965 21.1228Z" fill="white"/>
<path d="M7.1228 14.4912V24.807" stroke="white" stroke-width="0.7" stroke-miterlimit="10" stroke-linecap="round"/>
</g>
<defs>
<clipPath id="clip0_8826_1785">
<rect width="28" height="28" fill="white"/>
</clipPath>
</defs>
</svg>
