<svg width="28" height="28" viewBox="0 0 28 28" fill="none" xmlns="http://www.w3.org/2000/svg">
<g clip-path="url(#clip0_10013_4048)">
<path d="M27.7511 6.12111L26.7634 5.40556L26.5222 5.00111C27.0356 4.93111 27.51 4.52667 27.51 3.53889H25.6667L23.7534 0.287778C23.6445 0.108889 23.4578 0 23.2478 0H15.9678C15.7578 0 15.5634 0.108889 15.4622 0.287778L13.5645 3.53111H11.7367C11.7367 4.51111 12.2034 4.91556 12.7089 4.98556L12.46 5.40556L11.4645 6.11333C11.3089 6.22222 11.2156 6.40889 11.2156 6.60333V8.93667H13.2067C13.0667 8.74222 12.9811 8.50889 12.9811 8.24444C12.9811 7.59111 13.51 7.06222 14.1634 7.06222C14.8167 7.06222 15.3456 7.59111 15.3456 8.24444C15.3456 8.50111 15.26 8.74222 15.12 8.93667H15.5478C15.8122 8.93667 16.0534 9.07667 16.1856 9.30222L16.7767 10.3133H22.7034V12.0789H17.8189L18.5111 13.2611H25.3556V14.4356C25.3556 14.5989 25.4878 14.7311 25.6511 14.7311H27.7045C27.8678 14.7311 28 14.5989 28 14.4356V6.60333C28 6.41667 27.9067 6.23 27.7511 6.12111Z" fill="#274247"/>
<path d="M22.6955 10.3133H16.7688L17.811 12.0789H22.6955V10.3133Z" fill="white"/>
<path d="M14.1556 7.07001C13.5023 7.07001 12.9734 7.5989 12.9734 8.25223C12.9734 8.5089 13.0589 8.75001 13.1989 8.94445H15.1045C15.2445 8.75001 15.3301 8.51667 15.3301 8.25223C15.3301 7.5989 14.8012 7.07001 14.1478 7.07001H14.1556Z" fill="white"/>
<path d="M20.8056 17.1733L19.5611 16.2711L19.2578 15.7656C19.8956 15.68 20.4944 15.1744 20.4944 13.93H18.1689L15.7578 9.84667C15.6256 9.62111 15.3844 9.48111 15.12 9.48111H5.98111C5.71667 9.48111 5.47556 9.62111 5.34333 9.84667L2.95556 13.9222H0.653333C0.653333 15.1511 1.24444 15.6644 1.88222 15.7578L1.57111 16.2867L0.318889 17.1733C0.116667 17.3133 0 17.5389 0 17.7878V27.6344C0 27.8444 0.171111 28.0078 0.373333 28.0078H2.96333C3.17333 28.0078 3.33667 27.8367 3.33667 27.6344V26.1567H17.78V27.6344C17.78 27.8444 17.9511 28.0078 18.1533 28.0078H20.7356C20.9456 28.0078 21.1089 27.8367 21.1089 27.6344V17.7878C21.1089 17.5467 20.9922 17.3211 20.7978 17.1811L20.8056 17.1733Z" fill="#274247"/>
<path d="M16.6599 8.39999H22.5477" stroke="white" stroke-miterlimit="10" stroke-linecap="round"/>
<path d="M25.1145 4.71332H14.0701L16.1312 1.03444C16.1856 0.941102 16.279 0.886658 16.3878 0.886658H22.8201C22.929 0.886658 23.0223 0.941102 23.0767 1.03444L25.1145 4.71332Z" fill="white"/>
<path d="M25.0523 9.43445C25.7053 9.43445 26.2346 8.90515 26.2346 8.25223C26.2346 7.59931 25.7053 7.07001 25.0523 7.07001C24.3994 7.07001 23.8701 7.59931 23.8701 8.25223C23.8701 8.90515 24.3994 9.43445 25.0523 9.43445Z" fill="white"/>
<path d="M6.85229 20.0356H14.2645" stroke="white" stroke-miterlimit="10" stroke-linecap="round"/>
<path d="M17.4922 15.4H3.60107L6.19107 10.7722C6.2533 10.6556 6.37774 10.5856 6.50996 10.5856H14.5989C14.7311 10.5856 14.8555 10.6556 14.9177 10.7722L17.4844 15.4H17.4922Z" fill="white"/>
<path d="M14.4433 22.4467H6.66553V24.6711H14.4433V22.4467Z" fill="white"/>
<path d="M3.70211 21.3345C4.52256 21.3345 5.18766 20.6693 5.18766 19.8489C5.18766 19.0284 4.52256 18.3633 3.70211 18.3633C2.88166 18.3633 2.21655 19.0284 2.21655 19.8489C2.21655 20.6693 2.88166 21.3345 3.70211 21.3345Z" fill="white"/>
<path d="M17.4145 21.3345C18.235 21.3345 18.9001 20.6693 18.9001 19.8489C18.9001 19.0284 18.235 18.3633 17.4145 18.3633C16.5941 18.3633 15.929 19.0284 15.929 19.8489C15.929 20.6693 16.5941 21.3345 17.4145 21.3345Z" fill="white"/>
</g>
<defs>
<clipPath id="clip0_10013_4048">
<rect width="28" height="28" fill="white"/>
</clipPath>
</defs>
</svg>
