<svg width="318" height="105" viewBox="0 0 318 105" fill="none" xmlns="http://www.w3.org/2000/svg">
<path d="M119.38 35.5002C120.94 35.5002 122.395 35.9502 123.745 36.8502C125.125 37.7502 126.235 38.9652 127.075 40.4952C127.915 42.0252 128.335 43.7352 128.335 45.6252C128.335 47.4852 127.915 49.1802 127.075 50.7102C126.235 52.2402 125.125 53.4702 123.745 54.4002C122.395 55.3002 120.94 55.7502 119.38 55.7502H111.1L111.55 54.9402V64.2552C111.55 65.0352 111.31 65.6952 110.83 66.2352C110.35 66.7452 109.72 67.0002 108.94 67.0002C108.19 67.0002 107.575 66.7452 107.095 66.2352C106.615 65.6952 106.375 65.0352 106.375 64.2552V38.2452C106.375 37.4652 106.63 36.8202 107.14 36.3102C107.68 35.7702 108.34 35.5002 109.12 35.5002H119.38ZM119.38 50.6202C119.95 50.6202 120.505 50.3802 121.045 49.9002C121.585 49.4202 122.035 48.8052 122.395 48.0552C122.755 47.2752 122.935 46.4652 122.935 45.6252C122.935 44.7552 122.755 43.9452 122.395 43.1952C122.035 42.4452 121.585 41.8452 121.045 41.3952C120.505 40.9152 119.95 40.6752 119.38 40.6752H111.01L111.55 39.8652V51.3402L111.055 50.6202H119.38Z" fill="#162327"/>
<path d="M135.334 42.9252C136.204 42.9252 136.939 43.3002 137.539 44.0502L152.569 62.7252C152.959 63.2052 153.154 63.7452 153.154 64.3452C153.154 65.0952 152.869 65.7402 152.299 66.2802C151.729 66.8202 151.099 67.0902 150.409 67.0902C149.539 67.0902 148.804 66.7002 148.204 65.9202L133.174 47.2452C132.784 46.7652 132.589 46.2252 132.589 45.6252C132.589 44.8452 132.859 44.2002 133.399 43.6902C133.969 43.1802 134.614 42.9252 135.334 42.9252ZM135.379 67.0452C134.779 67.0452 134.179 66.8202 133.579 66.3702C133.009 65.8902 132.724 65.3202 132.724 64.6602C132.724 64.0602 132.949 63.4902 133.399 62.9502L140.284 54.5352L142.984 59.0352L137.539 65.9202C136.969 66.6702 136.249 67.0452 135.379 67.0452ZM150.364 42.9252C151.084 42.9252 151.684 43.1802 152.164 43.6902C152.674 44.1702 152.929 44.7252 152.929 45.3552C152.929 45.6552 152.884 45.9552 152.794 46.2552C152.704 46.5552 152.539 46.8402 152.299 47.1102L145.504 55.3902L142.669 51.4752L148.204 44.1402C148.804 43.3302 149.524 42.9252 150.364 42.9252Z" fill="#162327"/>
<path d="M193.533 35.3652C194.223 35.3652 194.883 35.6352 195.513 36.1752C196.143 36.6852 196.458 37.3902 196.458 38.2902C196.458 38.5602 196.413 38.8602 196.323 39.1902L187.458 65.2902C187.278 65.8302 186.948 66.2502 186.468 66.5502C186.018 66.8202 185.538 66.9702 185.028 67.0002C184.518 67.0002 184.008 66.8502 183.498 66.5502C183.018 66.2502 182.643 65.8152 182.373 65.2452L175.713 50.1252L176.118 50.3952L169.548 65.2452C169.278 65.8152 168.888 66.2502 168.378 66.5502C167.898 66.8502 167.403 67.0002 166.893 67.0002C166.413 66.9702 165.933 66.8202 165.453 66.5502C164.973 66.2502 164.643 65.8302 164.463 65.2902L155.598 39.1902C155.508 38.8602 155.463 38.5602 155.463 38.2902C155.463 37.3902 155.778 36.6852 156.408 36.1752C157.068 35.6352 157.743 35.3652 158.433 35.3652C159.003 35.3652 159.528 35.5152 160.008 35.8152C160.518 36.1152 160.863 36.5502 161.043 37.1202L168.198 58.8102L167.208 58.7652L173.598 43.4202C173.838 42.8802 174.183 42.4602 174.633 42.1602C175.083 41.8302 175.593 41.6802 176.163 41.7102C176.733 41.6802 177.243 41.8302 177.693 42.1602C178.143 42.4602 178.473 42.8802 178.683 43.4202L184.533 58.0902L183.813 58.5402L190.878 37.1202C191.058 36.5502 191.403 36.1152 191.913 35.8152C192.423 35.5152 192.963 35.3652 193.533 35.3652Z" fill="#162327"/>
<path d="M209.9 67.4502C207.35 67.4502 205.13 66.9252 203.24 65.8752C201.38 64.7952 199.94 63.3402 198.92 61.5102C197.93 59.6802 197.435 57.6102 197.435 55.3002C197.435 52.6002 197.975 50.3052 199.055 48.4152C200.165 46.4952 201.605 45.0252 203.375 44.0052C205.145 42.9852 207.02 42.4752 209 42.4752C210.53 42.4752 211.97 42.7902 213.32 43.4202C214.7 44.0502 215.915 44.9202 216.965 46.0302C218.015 47.1102 218.84 48.3702 219.44 49.8102C220.07 51.2502 220.385 52.7802 220.385 54.4002C220.355 55.1202 220.07 55.7052 219.53 56.1552C218.99 56.6052 218.36 56.8302 217.64 56.8302H200.45L199.1 52.3302H215.615L214.625 53.2302V52.0152C214.565 51.1452 214.25 50.3652 213.68 49.6752C213.14 48.9852 212.45 48.4452 211.61 48.0552C210.8 47.6352 209.93 47.4252 209 47.4252C208.1 47.4252 207.26 47.5452 206.48 47.7852C205.7 48.0252 205.025 48.4302 204.455 49.0002C203.885 49.5702 203.435 50.3352 203.105 51.2952C202.775 52.2552 202.61 53.4702 202.61 54.9402C202.61 56.5602 202.94 57.9402 203.6 59.0802C204.29 60.1902 205.16 61.0452 206.21 61.6452C207.29 62.2152 208.43 62.5002 209.63 62.5002C210.74 62.5002 211.625 62.4102 212.285 62.2302C212.945 62.0502 213.47 61.8402 213.86 61.6002C214.28 61.3302 214.655 61.1052 214.985 60.9252C215.525 60.6552 216.035 60.5202 216.515 60.5202C217.175 60.5202 217.715 60.7452 218.135 61.1952C218.585 61.6452 218.81 62.1702 218.81 62.7702C218.81 63.5802 218.39 64.3152 217.55 64.9752C216.77 65.6352 215.675 66.2202 214.265 66.7302C212.855 67.2102 211.4 67.4502 209.9 67.4502Z" fill="#162327"/>
<path d="M237.118 42.4752C239.218 42.4752 241.093 43.0152 242.743 44.0952C244.423 45.1452 245.743 46.6002 246.703 48.4602C247.693 50.3202 248.188 52.4802 248.188 54.9402C248.188 57.4002 247.693 59.5752 246.703 61.4652C245.743 63.3252 244.438 64.7952 242.788 65.8752C241.168 66.9252 239.338 67.4502 237.298 67.4502C236.098 67.4502 234.973 67.2552 233.923 66.8652C232.873 66.4752 231.943 65.9802 231.133 65.3802C230.353 64.7802 229.738 64.1802 229.288 63.5802C228.868 62.9502 228.658 62.4252 228.658 62.0052L230.053 61.4202V64.7052C230.053 65.4852 229.798 66.1452 229.288 66.6852C228.778 67.1952 228.133 67.4502 227.353 67.4502C226.573 67.4502 225.928 67.1952 225.418 66.6852C224.908 66.1752 224.653 65.5152 224.653 64.7052V36.4452C224.653 35.6652 224.908 35.0202 225.418 34.5102C225.928 33.9702 226.573 33.7002 227.353 33.7002C228.133 33.7002 228.778 33.9702 229.288 34.5102C229.798 35.0202 230.053 35.6652 230.053 36.4452V47.8752L229.288 47.4702C229.288 47.0802 229.498 46.6152 229.918 46.0752C230.338 45.5052 230.908 44.9502 231.628 44.4102C232.348 43.8402 233.173 43.3752 234.103 43.0152C235.063 42.6552 236.068 42.4752 237.118 42.4752ZM236.443 47.4252C235.123 47.4252 233.968 47.7552 232.978 48.4152C231.988 49.0752 231.208 49.9752 230.638 51.1152C230.098 52.2252 229.828 53.5002 229.828 54.9402C229.828 56.3502 230.098 57.6402 230.638 58.8102C231.208 59.9502 231.988 60.8502 232.978 61.5102C233.968 62.1702 235.123 62.5002 236.443 62.5002C237.763 62.5002 238.903 62.1702 239.863 61.5102C240.853 60.8502 241.618 59.9502 242.158 58.8102C242.728 57.6402 243.013 56.3502 243.013 54.9402C243.013 53.5002 242.728 52.2252 242.158 51.1152C241.618 49.9752 240.853 49.0752 239.863 48.4152C238.903 47.7552 237.763 47.4252 236.443 47.4252Z" fill="#162327"/>
<path d="M264.925 42.5652L255.205 65.4252C254.995 65.9952 254.665 66.4452 254.215 66.7752C253.795 67.0752 253.33 67.2252 252.82 67.2252C252.01 67.2252 251.41 67.0002 251.02 66.5502C250.63 66.1002 250.435 65.5452 250.435 64.8852C250.435 64.6152 250.48 64.3302 250.57 64.0302L261.775 37.1202C262.015 36.5202 262.375 36.0552 262.855 35.7252C263.365 35.3952 263.905 35.2602 264.475 35.3202C265.015 35.3202 265.51 35.4852 265.96 35.8152C266.44 36.1152 266.785 36.5502 266.995 37.1202L278.065 63.4902C278.215 63.8802 278.29 64.2402 278.29 64.5702C278.29 65.3802 278.02 66.0252 277.48 66.5052C276.97 66.9852 276.4 67.2252 275.77 67.2252C275.23 67.2252 274.735 67.0602 274.285 66.7302C273.865 66.4002 273.535 65.9502 273.295 65.3802L263.62 42.8352L264.925 42.5652ZM256.6 59.9352L259.075 54.7602H271.225L272.08 59.9352H256.6Z" fill="#162327"/>
<path d="M295.105 35.5002C296.665 35.5002 298.12 35.9502 299.47 36.8502C300.85 37.7502 301.96 38.9652 302.8 40.4952C303.64 42.0252 304.06 43.7352 304.06 45.6252C304.06 47.4852 303.64 49.1802 302.8 50.7102C301.96 52.2402 300.85 53.4702 299.47 54.4002C298.12 55.3002 296.665 55.7502 295.105 55.7502H286.825L287.275 54.9402V64.2552C287.275 65.0352 287.035 65.6952 286.555 66.2352C286.075 66.7452 285.445 67.0002 284.665 67.0002C283.915 67.0002 283.3 66.7452 282.82 66.2352C282.34 65.6952 282.1 65.0352 282.1 64.2552V38.2452C282.1 37.4652 282.355 36.8202 282.865 36.3102C283.405 35.7702 284.065 35.5002 284.845 35.5002H295.105ZM295.105 50.6202C295.675 50.6202 296.23 50.3802 296.77 49.9002C297.31 49.4202 297.76 48.8052 298.12 48.0552C298.48 47.2752 298.66 46.4652 298.66 45.6252C298.66 44.7552 298.48 43.9452 298.12 43.1952C297.76 42.4452 297.31 41.8452 296.77 41.3952C296.23 40.9152 295.675 40.6752 295.105 40.6752H286.735L287.275 39.8652V51.3402L286.78 50.6202H295.105Z" fill="#162327"/>
<path d="M314.839 64.2552C314.839 65.0352 314.554 65.6952 313.984 66.2352C313.414 66.7452 312.754 67.0002 312.004 67.0002C311.164 67.0002 310.489 66.7452 309.979 66.2352C309.469 65.6952 309.214 65.0352 309.214 64.2552V38.2452C309.214 37.4652 309.484 36.8202 310.024 36.3102C310.564 35.7702 311.254 35.5002 312.094 35.5002C312.814 35.5002 313.444 35.7702 313.984 36.3102C314.554 36.8202 314.839 37.4652 314.839 38.2452V64.2552Z" fill="#162327"/>
<path fill-rule="evenodd" clip-rule="evenodd" d="M42.5 0C64.5914 0 82.5 17.9086 82.5 40C82.5 62.0914 64.5914 80 42.5 80H40V85C40 96.0457 31.0457 105 20 105C8.95431 105 2.01358e-07 96.0457 0 85V20C0 8.95431 8.95431 0 20 0H42.5ZM57.6777 22.3225C55.5299 20.1746 52.0475 20.1746 49.8997 22.3225L40 32.2219L30.1006 22.3225C27.9527 20.1746 24.4704 20.1746 22.3225 22.3225C20.1746 24.4704 20.1746 27.9527 22.3225 30.1006L32.2219 40L22.3225 49.8997C20.1746 52.0475 20.1746 55.5299 22.3225 57.6777C24.4704 59.8255 27.9527 59.8256 30.1006 57.6777L40 47.7783L49.8997 57.6777C52.0475 59.8255 55.5299 59.8256 57.6777 57.6777C59.8256 55.5299 59.8255 52.0476 57.6777 49.8997L47.7783 40L57.6777 30.1006C59.8256 27.9527 59.8255 24.4704 57.6777 22.3225Z" fill="#162327"/>
</svg>
