<svg width="36" height="40" viewBox="0 0 36 40" fill="none" xmlns="http://www.w3.org/2000/svg">
<g clip-path="url(#clip0_7306_6748)">
<path d="M19.1747 4.50166C19.1747 3.82092 18.6178 3.2696 17.9302 3.2696C17.2426 3.2696 16.6857 3.82092 16.6857 4.50166V35.5846C16.6857 36.2667 17.2426 36.8193 17.9302 36.8193C18.6178 36.8193 19.1747 36.2667 19.1747 35.5846V24.3816C19.1747 24.3001 19.2429 24.2341 19.3244 24.2341H23.4142C23.4962 24.2341 23.5637 24.3001 23.5637 24.3816V35.6824C23.5637 38.0665 21.041 40 17.9302 40C14.8179 40 12.296 38.0665 12.296 35.6824V4.31567C12.296 1.93283 14.8179 -0.000705719 17.9302 -0.000705719C21.041 -0.000705719 23.5637 1.93283 23.5637 4.31567V15.4731C23.5637 15.5558 23.4962 15.6205 23.4142 15.6205H19.3244C19.2429 15.6205 19.1747 15.5558 19.1747 15.4731V4.50166Z" fill="#222222"/>
<path d="M0.148697 8.03245C-0.114119 9.84618 -0.02173 12.8201 0.371909 14.4905C0.804428 16.3111 3.29848 19.9907 4.42211 21.6996C5.54717 23.4072 7.04775 25.1903 7.02534 27.569V33.2663C7.02534 33.9472 6.46845 34.4998 5.78074 34.4998C5.09519 34.4998 4.5383 33.9472 4.5383 33.2663V24.5344C4.5383 24.4531 4.47017 24.3855 4.38672 24.3855H0.298265C0.214664 24.3855 0.148697 24.4531 0.148697 24.5344V33.5269C0.148697 35.9111 2.67056 37.8445 5.78074 37.8445C8.89308 37.8445 11.415 35.9111 11.415 33.5269V27.569C11.3961 23.4828 10.2711 22.8876 8.81109 20.4372C7.76528 18.6773 5.19258 15.0473 4.76146 13.2267C4.36653 11.5565 4.38389 9.6228 4.5383 7.86579C4.5383 7.18492 5.09519 6.63232 5.78074 6.63232C6.46845 6.63232 7.02534 7.18492 7.02534 7.86579V15.6315C7.02534 15.713 7.09292 15.779 7.17692 15.779H11.2648C11.349 15.779 11.415 15.713 11.415 15.6315V8.03245C11.415 5.64679 8.89308 3.7148 5.78074 3.7148C2.67056 3.7148 0.148697 5.64679 0.148697 8.03245Z" fill="#222222"/>
<path d="M24.5851 4.04685H30.8618C33.454 4.04685 35.5552 6.12926 35.5552 8.69682V15.2196C35.5552 17.0483 34.3453 18.592 32.6766 19.1211V19.2092C34.3453 19.737 35.5552 21.282 35.5552 23.1121V33.0692C35.5552 35.3322 33.7013 37.168 31.4194 37.168L24.5851 37.1721C24.501 37.1721 24.4342 37.1045 24.4342 37.0246V4.19431C24.4342 4.11444 24.501 4.04685 24.5851 4.04685ZM28.9747 7.28145C28.8897 7.28145 28.823 7.3489 28.823 7.43032V17.7221C28.823 17.8064 28.8897 17.8724 28.9747 17.8724H29.5921C30.4181 17.8724 31.0884 17.2069 31.0884 16.3882V8.76554C31.0884 7.94708 30.4181 7.28145 29.5921 7.28145H28.9747ZM28.9747 21.1429C28.8897 21.1429 28.823 21.2091 28.823 21.2903V33.9238C28.823 34.0065 28.8897 34.0741 28.9747 34.0741H29.713C30.5406 34.0741 31.2094 33.4083 31.2094 32.5897V22.627C31.2094 21.8058 30.5406 21.1429 29.713 21.1429H28.9747Z" fill="#222222"/>
</g>
<defs>
<clipPath id="clip0_7306_6748">
<rect width="35.5556" height="40" fill="white"/>
</clipPath>
</defs>
</svg>
