<svg width="198" height="36" viewBox="0 0 198 36" fill="none" xmlns="http://www.w3.org/2000/svg">
<path d="M46.9751 14.2423L48.2444 12.671C49.0448 13.6077 50.0721 14.0158 50.9179 14.0158C51.9452 14.0158 52.4594 13.5477 52.4594 12.8828C52.4594 12.0969 51.8847 11.8099 50.5863 11.372C48.9692 10.7975 47.3532 10.0423 47.3532 8.01858C47.3532 6.29645 48.8639 4.98241 50.798 4.95214C52.1272 4.93647 53.3663 5.43538 54.4087 6.31158L53.1848 7.91318C52.2936 7.17265 51.5077 6.85536 50.8428 6.85536C50.1024 6.85536 49.559 7.24832 49.559 7.92831C49.5433 8.59263 50.1331 8.88019 51.357 9.36343C53.2156 10.0883 54.6809 10.5715 54.6809 12.6412C54.6809 14.9828 52.6409 15.9341 50.8888 15.9341C49.499 15.9341 48.0937 15.4055 46.9756 14.2423H46.9751Z" fill="#274247"/>
<path d="M56.5977 13.4871V10.0737H55.7217V8.44234H56.5977V6.02562L58.5621 5.81427V8.44288H60.5714V10.0742H58.5621V13.2158C58.5621 13.8504 58.7587 14.1525 59.2113 14.1525C59.4533 14.1525 59.8157 14.0623 60.1484 13.8958L60.6621 15.4817C60.1787 15.7385 59.6953 15.9352 58.6982 15.9352C57.429 15.9352 56.5977 15.1493 56.5977 13.4877V13.4871Z" fill="#274247"/>
<path d="M69.1062 8.44147V15.8133H67.2325V14.9219H67.1877C66.6886 15.5711 65.9336 15.9343 64.9819 15.9343C62.9419 15.9343 61.4614 14.4235 61.4614 12.143C61.4614 9.86253 62.957 8.32147 64.936 8.32147C65.8126 8.32147 66.5671 8.63822 67.0964 9.27281H67.1413V8.44201H69.1062V8.44147ZM67.2174 12.1576C67.2174 10.9793 66.4315 10.0879 65.3589 10.0879C64.2862 10.0879 63.455 10.8885 63.455 12.1576C63.455 13.3506 64.2408 14.1668 65.3438 14.1668C66.371 14.1668 67.2169 13.3663 67.2169 12.1576H67.2174Z" fill="#274247"/>
<path d="M71.386 13.4871V10.0737H70.5094V8.44234H71.386V6.02562L73.3498 5.81427V8.44288H75.3585V10.0742H73.3498V13.2158C73.3498 13.8504 73.5459 14.1525 73.9996 14.1525C74.2405 14.1525 74.6035 14.0623 74.9356 13.8958L75.4498 15.4817C74.9669 15.7385 74.483 15.9352 73.486 15.9352C72.2172 15.9352 71.386 15.1493 71.386 13.4877V13.4871Z" fill="#274247"/>
<path d="M76.8379 6.19142C76.8379 5.52657 77.3969 4.98279 78.0618 4.98279C78.7267 4.98279 79.3008 5.52657 79.3008 6.19142C79.3008 6.85628 78.7418 7.39951 78.0618 7.39951C77.3818 7.39951 76.8379 6.85574 76.8379 6.19142ZM77.0647 8.44166H79.0437V15.8134H77.0647V8.44166Z" fill="#274247"/>
<path d="M80.6749 14.8614L81.6417 13.4868C82.2456 14.0614 82.8808 14.3479 83.6817 14.3479C84.2559 14.3479 84.5875 14.1057 84.5875 13.7435C84.5875 13.3814 84.2094 13.23 83.2426 12.9279C82.0344 12.5198 80.9769 11.9463 80.9769 10.5258C80.9769 9.19658 82.1246 8.32092 83.6358 8.32092C84.6637 8.32092 85.4944 8.59227 86.3256 9.24199L85.3739 10.6922C84.7998 10.1485 84.15 9.90631 83.6061 9.90631C83.2891 9.90631 82.8813 10.0728 82.8813 10.4658C82.8813 10.7679 83.2745 10.9793 83.9993 11.2512C85.6013 11.8398 86.5373 12.1879 86.5373 13.6376C86.5373 14.9522 85.6013 15.9338 83.6677 15.9338C82.4886 15.9338 81.4921 15.556 80.676 14.8608L80.6749 14.8614Z" fill="#274247"/>
<path d="M88.3943 13.4871V10.0737H87.5177V8.44234H88.3943V6.02562L90.3581 5.81427V8.44288H92.3668V10.0742H90.3581V13.2158C90.3581 13.8504 90.5542 14.1525 91.0079 14.1525C91.2488 14.1525 91.6118 14.0623 91.9439 13.8958L92.4581 15.4817C91.9752 15.7385 91.4913 15.9352 90.4943 15.9352C89.2255 15.9352 88.3943 15.1493 88.3943 13.4877V13.4871Z" fill="#274247"/>
<path d="M93.8461 6.19142C93.8461 5.52657 94.4051 4.98279 95.07 4.98279C95.7348 4.98279 96.309 5.52657 96.309 6.19142C96.309 6.85628 95.75 7.39951 95.07 7.39951C94.39 7.39951 93.8461 6.85574 93.8461 6.19142ZM94.0729 8.44166H96.0519V15.8134H94.0729V8.44166Z" fill="#274247"/>
<path d="M97.6837 14.8614L98.6505 13.4868C99.2544 14.0614 99.8895 14.3479 100.691 14.3479C101.265 14.3479 101.596 14.1057 101.596 13.7435C101.596 13.3814 101.218 13.23 100.251 12.9279C99.0432 12.5198 97.9856 11.9463 97.9856 10.5258C97.9856 9.19658 99.1334 8.32092 100.645 8.32092C101.672 8.32092 102.503 8.59227 103.334 9.24199L102.383 10.6922C101.809 10.1485 101.159 9.90631 100.615 9.90631C100.298 9.90631 99.8901 10.0728 99.8901 10.4658C99.8901 10.7679 100.283 10.9793 101.008 11.2512C102.61 11.8398 103.546 12.1879 103.546 13.6376C103.546 14.9522 102.61 15.9338 100.676 15.9338C99.4974 15.9338 98.5009 15.556 97.6848 14.8608L97.6837 14.8614Z" fill="#274247"/>
<path d="M108.213 12.8831L107.186 14.0458V15.8134H105.207V4.69568H107.186V11.4177H107.201L109.845 8.44211H112.157L109.558 11.3729L112.202 15.8139H109.996L108.243 12.8837H108.213V12.8831Z" fill="#274247"/>
<path d="M117.018 14.8614L117.985 13.4868C118.589 14.0614 119.224 14.3479 120.025 14.3479C120.599 14.3479 120.931 14.1057 120.931 13.7435C120.931 13.3814 120.553 13.23 119.586 12.9279C118.378 12.5198 117.32 11.9463 117.32 10.5258C117.32 9.19658 118.468 8.32092 119.979 8.32092C121.007 8.32092 121.838 8.59227 122.669 9.24199L121.717 10.6922C121.143 10.1485 120.494 9.90631 119.95 9.90631C119.633 9.90631 119.225 10.0728 119.225 10.4658C119.225 10.7679 119.618 10.9793 120.343 11.2512C121.945 11.8398 122.881 12.1879 122.881 13.6376C122.881 14.9522 121.945 15.9338 120.011 15.9338C118.832 15.9338 117.836 15.556 117.02 14.8608L117.018 14.8614Z" fill="#274247"/>
<path d="M131.31 12.7619H126.128C126.37 13.6375 127.065 14.1813 128.016 14.1813C128.802 14.197 129.376 13.8494 129.784 13.3505L131.068 14.544C130.433 15.3445 129.361 15.9337 127.88 15.9337C125.719 15.9337 124.088 14.4229 124.088 12.1116C124.088 9.80029 125.644 8.32031 127.744 8.32031C129.844 8.32031 131.355 9.8911 131.355 12.0516C131.355 12.2932 131.355 12.6403 131.31 12.7613V12.7619ZM126.143 11.3419H129.391C129.194 10.5716 128.667 10.0581 127.805 10.0581C127.004 10.0581 126.37 10.496 126.143 11.3419Z" fill="#274247"/>
<path d="M140.146 11.4328V15.8132H138.167V11.9311C138.167 10.5263 137.668 10.0879 136.747 10.0879C135.75 10.0879 135.07 10.7825 135.07 12.0971V15.8132H133.091V8.44146H135.07V9.39334H135.1C135.704 8.68362 136.551 8.32092 137.458 8.32092C139.043 8.32092 140.146 9.16686 140.146 11.4328Z" fill="#274247"/>
<path d="M142.381 13.4871V10.0737H141.505V8.44234H142.381V6.02562L144.345 5.81427V8.44288H146.354V10.0742H144.345V13.2158C144.345 13.8504 144.541 14.1525 144.995 14.1525C145.236 14.1525 145.599 14.0623 145.931 13.8958L146.445 15.4817C145.962 15.7385 145.478 15.9352 144.481 15.9352C143.212 15.9352 142.381 15.1493 142.381 13.4877V13.4871Z" fill="#274247"/>
<path d="M152.351 8.33599V10.4808C152.155 10.4657 151.943 10.4657 151.836 10.4657C150.613 10.4657 149.949 11.2965 149.949 12.3835V15.8126H147.969V8.44085H149.949V9.52841H149.964C150.523 8.74301 151.323 8.32031 152.2 8.32031C152.26 8.32031 152.321 8.32031 152.351 8.33545L152.351 8.33599Z" fill="#274247"/>
<path d="M160.856 8.44147V15.8133H158.982V14.9219H158.937C158.438 15.5711 157.683 15.9343 156.731 15.9343C154.691 15.9343 153.211 14.4235 153.211 12.143C153.211 9.86253 154.707 8.32147 156.685 8.32147C157.562 8.32147 158.317 8.63822 158.846 9.27281H158.891V8.44201H160.856L160.856 8.44147ZM158.967 12.1576C158.967 10.9793 158.181 10.0879 157.108 10.0879C156.036 10.0879 155.205 10.8885 155.205 12.1576C155.205 13.3506 155.99 14.1668 157.093 14.1668C158.121 14.1668 158.967 13.3663 158.967 12.1576Z" fill="#274247"/>
<path d="M163.03 4.69568H165.009V15.8134H163.03V4.69568Z" fill="#274247"/>
<path d="M174.964 12.1426C174.964 14.4236 173.483 15.9339 171.429 15.9339C170.446 15.9339 169.691 15.5712 169.177 14.9215H169.132V15.8128H167.244V4.69513H169.223V9.27182H169.268C169.812 8.63724 170.582 8.32048 171.489 8.32048C173.468 8.32048 174.963 9.90641 174.963 12.142L174.964 12.1426ZM172.955 12.1577C172.955 10.8891 172.125 10.088 171.067 10.088C169.933 10.088 169.133 10.9794 169.133 12.1577C169.133 13.3361 169.994 14.1669 171.067 14.1669C172.139 14.1669 172.955 13.3512 172.955 12.1577Z" fill="#274247"/>
<path d="M183.136 8.44104L179.163 18.8036H177.139L178.438 15.3593L175.507 8.44104H177.562L179.374 13.0031H179.39L181.081 8.44104H183.136H183.136Z" fill="#274247"/>
<path d="M188.922 8.33599V10.4808C188.726 10.4657 188.514 10.4657 188.407 10.4657C187.184 10.4657 186.52 11.2965 186.52 12.3835V15.8126H184.54V8.44085H186.52V9.52841H186.535C187.094 8.74301 187.895 8.32031 188.771 8.32031C188.831 8.32031 188.892 8.32031 188.922 8.33545L188.922 8.33599Z" fill="#274247"/>
<path d="M197.427 8.44163V15.8134H195.553V14.9221H195.508C195.009 15.5713 194.254 15.9345 193.303 15.9345C191.263 15.9345 189.782 14.4237 189.782 12.1432C189.782 9.86269 191.278 8.32163 193.257 8.32163C194.133 8.32163 194.888 8.63838 195.418 9.27297H195.462V8.44217H197.427L197.427 8.44163ZM195.538 12.1578C195.538 10.9794 194.752 10.0881 193.68 10.0881C192.607 10.0881 191.777 10.8886 191.777 12.1578C191.777 13.3507 192.562 14.167 193.664 14.167C194.692 14.167 195.538 13.3664 195.538 12.1578ZM192.123 6.19139C192.123 5.33032 192.803 4.60547 193.741 4.60547C194.678 4.60547 195.387 5.26978 195.387 6.19139C195.387 7.05246 194.723 7.76218 193.741 7.76218C192.865 7.76218 192.123 7.09787 192.123 6.19139ZM193.182 6.17572C193.182 6.49301 193.424 6.73517 193.741 6.73517C194.058 6.73517 194.315 6.47842 194.315 6.16058C194.315 5.84275 194.058 5.60167 193.741 5.60167C193.424 5.60167 193.182 5.87356 193.182 6.17572Z" fill="#274247"/>
<path d="M47.2715 30.5625L47.9045 29.816C48.4813 30.5284 49.3525 30.8792 50.1335 30.8792C51.1176 30.8792 51.7739 30.4155 51.7739 29.6463C51.7739 28.7414 51.0496 28.5036 49.9753 28.0966C48.787 27.655 47.5766 27.1463 47.5766 25.755C47.5766 24.5561 48.6628 23.6394 50.032 23.6285C50.9259 23.6285 51.8084 23.9566 52.5775 24.5674L51.978 25.3366C51.3439 24.8053 50.6315 24.5447 50.032 24.5447C49.2856 24.5447 48.6061 24.9523 48.6061 25.7101C48.5953 26.4793 49.319 26.7507 50.315 27.1463C51.6729 27.6669 52.8039 28.0404 52.8039 29.5447C52.8039 31.049 51.5027 31.8068 50.1227 31.8068C49.1154 31.8068 48.0752 31.4219 47.272 30.5625H47.2715Z" fill="#274247"/>
<path d="M54.4934 30.0988V27.0221H53.7917V26.2308H54.4934V24.353L55.4099 24.2508V26.2308H57.2425V27.0221H55.4099V29.9637C55.4099 30.6199 55.5682 30.9475 56.0883 30.9475C56.4162 30.9475 56.7559 30.8118 57.0157 30.6648L57.2647 31.468C56.959 31.6377 56.5744 31.8074 55.9295 31.8074C54.9454 31.8074 54.4928 31.208 54.4928 30.0988H54.4934Z" fill="#274247"/>
<path d="M63.6148 26.2308V31.7394H62.7322V30.8686H62.7214C62.2802 31.4567 61.6012 31.8075 60.7976 31.8075C59.2701 31.8075 58.0938 30.7102 58.0938 29.0248C58.0938 27.3395 59.2253 26.1627 60.7868 26.1627C61.5451 26.1627 62.2234 26.4795 62.6874 27.0562H62.6982V26.2308H63.6148ZM62.7322 29.0248C62.7322 27.894 61.9518 27.0114 60.8883 27.0114C59.8248 27.0114 59.0217 27.8027 59.0217 29.0248C59.0217 30.1335 59.7573 30.9708 60.8775 30.9708C61.8729 30.9708 62.7328 30.1897 62.7328 29.0248H62.7322Z" fill="#274247"/>
<path d="M65.5981 30.0988V27.0221H64.8965V26.2308H65.5981V24.353L66.5141 24.2508V26.2308H68.3473V27.0221H66.5141V29.9637C66.5141 30.6199 66.6729 30.9475 67.193 30.9475C67.5214 30.9475 67.8606 30.8118 68.121 30.6648L68.37 31.468C68.0642 31.6377 67.6797 31.8074 67.0348 31.8074C66.0502 31.8074 65.5975 31.208 65.5975 30.0988H65.5981Z" fill="#274247"/>
<path d="M69.582 24.5681C69.582 24.2173 69.8656 23.9232 70.2388 23.9232C70.612 23.9232 70.895 24.2173 70.895 24.5681C70.895 24.9189 70.6012 25.2124 70.2388 25.2124C69.8764 25.2124 69.582 24.9297 69.582 24.5681ZM69.7743 26.2308H70.6909V31.7393H69.7743V26.2308Z" fill="#274247"/>
<path d="M72.2198 31.0156L72.6957 30.3259C73.1251 30.7221 73.6009 30.9821 74.3814 30.9821C75.0376 30.9821 75.4216 30.6427 75.4216 30.247C75.4216 29.7713 74.9128 29.6129 74.1097 29.3421C73.2158 29.0254 72.4575 28.6519 72.4575 27.6454C72.4575 26.7968 73.2277 26.1633 74.2793 26.1633C74.9355 26.1633 75.5577 26.3443 76.1692 26.8416L75.6939 27.5654C75.2072 27.147 74.6979 27 74.2345 27C73.8159 27 73.386 27.2492 73.386 27.6449C73.386 28.0746 73.8391 28.2784 74.4273 28.5043C75.5929 28.9567 76.362 29.1492 76.3506 30.2351C76.3506 31.0945 75.7063 31.8075 74.3825 31.8075C73.4772 31.8075 72.7637 31.5021 72.2209 31.0156H72.2198Z" fill="#274247"/>
<path d="M77.9813 30.0988V27.0221H77.2803V26.2308H77.9813V24.353L78.8979 24.2508V26.2308H80.731V27.0221H78.8979V29.9637C78.8979 30.6199 79.0567 30.9475 79.5768 30.9475C79.9052 30.9475 80.2444 30.8118 80.5047 30.6648L80.7537 31.468C80.448 31.6377 80.0635 31.8074 79.4186 31.8074C78.434 31.8074 77.9808 31.208 77.9808 30.0988H77.9813Z" fill="#274247"/>
<path d="M81.9658 24.5681C81.9658 24.2173 82.2494 23.9232 82.6226 23.9232C82.9958 23.9232 83.2788 24.2173 83.2788 24.5681C83.2788 24.9189 82.985 25.2124 82.6226 25.2124C82.2602 25.2124 81.9658 24.9297 81.9658 24.5681ZM82.1581 26.2308H83.0747V31.7393H82.1581V26.2308Z" fill="#274247"/>
<path d="M84.7391 28.9902C84.7391 27.3275 85.882 26.1621 87.4997 26.1621C88.326 26.1621 89.1746 26.5016 89.7179 27.1459L89.0838 27.7005C88.7446 27.2821 88.2018 27.0107 87.5456 27.0107C86.4367 27.0107 85.6676 27.8253 85.6676 28.9902C85.6676 30.155 86.4367 30.9701 87.5456 30.9701C88.1899 30.9701 88.7668 30.6875 89.107 30.3139L89.74 30.8793C89.2766 31.3999 88.4508 31.8074 87.4662 31.8074C85.882 31.8074 84.7391 30.6647 84.7391 28.9907V28.9902Z" fill="#274247"/>
<path d="M90.6832 31.0156L91.1591 30.3259C91.5885 30.7221 92.0643 30.9821 92.8448 30.9821C93.501 30.9821 93.885 30.6427 93.885 30.247C93.885 29.7713 93.3762 29.6129 92.5731 29.3421C91.6792 29.0254 90.922 28.6519 90.922 27.6454C90.922 26.7968 91.6911 26.1633 92.7427 26.1633C93.3989 26.1633 94.0211 26.3443 94.6325 26.8416L94.1572 27.5654C93.6706 27.147 93.1613 27 92.6979 27C92.2793 27 91.8493 27.2492 91.8493 27.6449C91.8493 28.0746 92.3025 28.2784 92.8907 28.5043C94.0562 28.9567 94.8253 29.1492 94.814 30.2351C94.814 31.0945 94.1697 31.8075 92.8458 31.8075C91.9406 31.8075 91.2271 31.5021 90.6843 31.0156H90.6832Z" fill="#274247"/>
<path d="M106.266 23.7076V31.7394H105.259L100.756 25.4049H100.734V31.7394H99.7491V23.7076H100.722L105.259 30.1103H105.282V23.7076H106.266Z" fill="#274247"/>
<path d="M107.991 28.9902C107.991 27.407 109.122 26.1621 110.842 26.1621C112.459 26.1621 113.67 27.3161 113.67 28.9902C113.67 30.6642 112.46 31.8069 110.842 31.8069C109.122 31.8069 107.991 30.5739 107.991 28.9902ZM112.742 28.9902C112.742 27.814 111.905 27.0107 110.842 27.0107C109.688 27.0107 108.919 27.8934 108.919 28.9902C108.919 30.0869 109.699 30.9701 110.842 30.9701C111.905 30.9701 112.742 30.155 112.742 28.9902Z" fill="#274247"/>
<path d="M118.211 26.1735V27.1918C118.086 27.1805 117.938 27.1691 117.849 27.1691C116.807 27.1691 116.174 27.9724 116.174 29.0804V31.7388H115.258V26.2302H116.174V27.2026H116.185C116.593 26.5464 117.238 26.1621 117.984 26.1621C118.075 26.1621 118.155 26.1621 118.211 26.1729V26.1735Z" fill="#274247"/>
<path d="M126.957 26.2313L125.045 31.7398H124.185L122.941 27.7242H122.929L121.674 31.7398H120.837L118.925 26.2313H119.852L121.255 30.3485H121.278L122.534 26.2313H123.326L124.604 30.3485H124.628L126.031 26.2313H126.958H126.957Z" fill="#274247"/>
<path d="M133.162 26.2308V31.7394H132.279V30.8686H132.268C131.827 31.4567 131.148 31.8075 130.345 31.8075C128.818 31.8075 127.641 30.7102 127.641 29.0248C127.641 27.3395 128.772 26.1627 130.333 26.1627C131.092 26.1627 131.771 26.4795 132.235 27.0562H132.246V26.2308H133.162ZM132.279 29.0248C132.279 27.894 131.499 27.0114 130.435 27.0114C129.372 27.0114 128.569 27.8027 128.569 29.0248C128.569 30.1335 129.303 30.9708 130.424 30.9708C131.419 30.9708 132.279 30.1897 132.279 29.0248Z" fill="#274247"/>
<path d="M139.842 26.2313L136.73 33.9798H135.757L136.741 31.5139L134.411 26.2313H135.394L137.183 30.428H137.205L138.868 26.2313H139.842Z" fill="#274247"/>
<path d="M20.3183 21.0727L35.6051 12.2474C33.2027 5.13128 26.4863 0 18.558 0C8.61564 0 0.555542 8.0588 0.555542 17.9997C0.555542 19.3689 0.721897 20.6975 1.01194 21.9791L17.945 12.2193L20.3183 21.0721V21.0727Z" fill="#274247"/>
<path d="M19.1949 23.783L16.8217 14.9286L1.51111 23.7528C3.91353 30.8689 10.6298 36.0002 18.5581 36.0002C28.5005 36.0002 36.5606 27.9414 36.5606 18.0004C36.5606 16.6312 36.3943 15.3037 36.1048 14.0221L19.1949 23.783Z" fill="#274247"/>
</svg>
